<svg xmlns="http://www.w3.org/2000/svg" viewBox="0 0 1584 612.69"><defs><style>.cls-1{fill:#8cc440;}.cls-2{fill:#cbcbca;}.cls-3{fill:#007eb1;}.cls-4{fill:none;stroke:#007eb1;stroke-miterlimit:10;stroke-width:4px;}.cls-5{font-size:45px;font-family:Avenir-Book, Avenir;letter-spacing:-0.01em;}.cls-5,.cls-7,.cls-8{fill:#434a54;}.cls-10,.cls-6,.cls-7,.cls-8,.cls-9{font-size:40.21px;}.cls-10,.cls-6{fill:#231f20;font-family:Avenir-Heavy, Avenir;font-weight:800;}.cls-6{letter-spacing:-0.01em;}.cls-7,.cls-8{font-family:Avenir-Light, Avenir;font-weight:300;}.cls-7,.cls-9{letter-spacing:-0.01em;}.cls-10,.cls-8{letter-spacing:-0.01em;}.cls-9{fill:#fff;font-family:Avenir-Medium, Avenir;font-weight:500;}</style></defs><g id="Layer_1" data-name="Layer 1"><rect class="cls-1" x="358.49" y="214.28" width="491.43" height="89.35"/><rect class="cls-2" x="358.49" y="317.04" width="491.43" height="89.35"/><rect class="cls-2" x="358.49" y="419.79" width="491.43" height="89.35"/><rect class="cls-1" x="863.32" y="214.28" width="348.47" height="89.35"/><rect class="cls-2" x="863.32" y="317.04" width="348.47" height="89.35"/><rect class="cls-2" x="863.32" y="419.79" width="348.47" height="89.35"/><rect class="cls-3" x="85.96" y="317.04" width="259.12" height="89.35"/><rect class="cls-3" x="85.96" y="419.79" width="259.12" height="89.35"/><rect class="cls-4" x="391.97" y="171.82" width="421.89" height="375.31" rx="5.91"/><rect class="cls-4" x="60.74" y="309.85" width="1176.97" height="102.64" rx="5.91"/></g><g id="Layer_2" data-name="Layer 2"><text class="cls-5" transform="translate(1298.68 343.87)">Aidan&apos;s<tspan x="-42.52" y="54">Capabilities </tspan><tspan x="39.82" y="108">List</tspan></text><text class="cls-5" transform="translate(380.42 94.1)">Access Control List for <tspan x="107.86" y="54">Excel File 1</tspan></text><text class="cls-6" transform="translate(926.78 270.3)">Excel FILE 2</text><text class="cls-7" transform="translate(411.25 373.05)">Read | Write | eXecute</text><text class="cls-8" transform="translate(906.28 373.05)">Read | eXecute</text><text class="cls-7" transform="translate(554.17 475.81)">Read </text><text class="cls-8" transform="translate(930.87 475.81)">Read | Write</text><text class="cls-9" transform="translate(165.5 475.81)">Steve</text><text class="cls-9" transform="translate(163.65 373.05)">Aidan</text><text class="cls-10" transform="translate(493.43 270.3)">Excel FILE 1</text></g></svg>