<svg xmlns="http://www.w3.org/2000/svg" viewBox="0 0 909.96 552.38"><defs><style>.cls-1{fill:#007eb1;}.cls-2{fill:#7e8283;}.cls-3{fill:#ebebeb;}.cls-4{fill:#6ab9e4;}.cls-5{font-size:20px;}.cls-13,.cls-5{font-family:Avenir-Roman, Avenir;}.cls-6{letter-spacing:-0.02em;}.cls-7{letter-spacing:0.04em;}.cls-8{letter-spacing:0em;}.cls-9{letter-spacing:0.02em;}.cls-10{letter-spacing:0.04em;}.cls-11{letter-spacing:0.06em;}.cls-12{letter-spacing:0.02em;}.cls-13{font-size:30px;}.cls-14{letter-spacing:-0.02em;}.cls-15{letter-spacing:0em;}</style></defs><g id="Layer_2" data-name="Layer 2"><rect class="cls-1" x="13.65" y="14.24" width="883.27" height="191.45" rx="20.75"/><rect class="cls-1" x="14.38" y="347.1" width="883.27" height="191.45" rx="20.75"/><path class="cls-1" d="M30.41,214.77h846.5a20.74,20.74,0,0,1,20.74,20.73v81.79A20.75,20.75,0,0,1,876.9,338H35.12a20.75,20.75,0,0,1-20.74-20.75V230.77a16,16,0,0,1,16-16Z"/><rect class="cls-2" x="39.03" y="125.19" width="822.36" height="59.47" rx="11.79"/><rect class="cls-3" x="39.03" y="31.75" width="195.8" height="59.47" rx="11.79"/><rect class="cls-3" x="244.98" y="31.75" width="195.8" height="59.47" rx="11.79"/><rect class="cls-3" x="450.94" y="31.75" width="195.8" height="59.47" rx="11.79"/><rect class="cls-3" x="656.89" y="31.75" width="195.8" height="59.47" rx="11.79"/><rect class="cls-4" x="39.03" y="240.81" width="246.56" height="72.52" rx="11.79"/><rect class="cls-4" x="326.2" y="240.81" width="246.56" height="72.52" rx="11.79"/><rect class="cls-4" x="614.83" y="240.81" width="246.56" height="72.52" rx="11.79"/><path class="cls-3" d="M227,450.77c-1.14-19-22.93-33.14-48.66-31.59a63.22,63.22,0,0,0-7.38.88c-.21-14.69-17-26.55-37.69-26.55-16.42,0-30.37,7.47-35.56,17.88a64.81,64.81,0,0,0-8-.47c-20.82,0-37.71,9.41-37.71,21a12.6,12.6,0,0,0,1.51,5.85c-16.64,2.79-29,13.42-29,26.11,0,14.81,16.88,26.83,37.71,26.83a47.46,47.46,0,0,0,24.39-6.43c8.8,5.69,20.65,8.82,33.48,8,12.22-.73,23.13-4.88,31.1-11.06,8.52,4.83,19.47,7.42,31.26,6.71C208.25,486.42,228.19,469.77,227,450.77Z"/><path class="cls-3" d="M444.65,450.77c-1.14-19-22.93-33.14-48.66-31.59a63.22,63.22,0,0,0-7.38.88c-.22-14.69-17-26.55-37.7-26.55-16.41,0-30.37,7.47-35.55,17.88a64.81,64.81,0,0,0-8-.47c-20.83,0-37.71,9.41-37.71,21a12.75,12.75,0,0,0,1.46,5.8c-16.63,2.79-29,13.42-29,26.11,0,14.81,16.89,26.83,37.71,26.83a47.56,47.56,0,0,0,24.45-6.41c8.79,5.69,20.64,8.82,33.47,8,12.22-.73,23.13-4.88,31.1-11.06,8.53,4.83,19.48,7.42,31.27,6.71C425.81,486.42,445.74,469.77,444.65,450.77Z"/><path class="cls-3" d="M666.51,450.77c-1.15-19-22.93-33.14-48.67-31.59a63,63,0,0,0-7.37.88c-.22-14.69-17-26.55-37.7-26.55-16.42,0-30.37,7.47-35.55,17.88a64.81,64.81,0,0,0-8-.47c-20.83,0-37.71,9.41-37.71,21a12.5,12.5,0,0,0,1.46,5.8c-16.64,2.79-29,13.42-29,26.11,0,14.81,16.88,26.83,37.71,26.83a47.42,47.42,0,0,0,24.44-6.41c8.8,5.69,20.65,8.82,33.48,8,12.22-.73,23.13-4.88,31.1-11.06,8.52,4.83,19.48,7.42,31.26,6.71C647.72,486.42,667.65,469.77,666.51,450.77Z"/><path class="cls-3" d="M879.71,450.77c-1.14-19-22.93-33.14-48.66-31.59a63.22,63.22,0,0,0-7.38.88c-.22-14.69-17-26.55-37.7-26.55-16.41,0-30.37,7.47-35.55,17.88a64.81,64.81,0,0,0-8-.47c-20.83,0-37.71,9.41-37.71,21a12.64,12.64,0,0,0,1.47,5.8c-16.64,2.79-29,13.42-29,26.11,0,14.81,16.89,26.83,37.71,26.83a47.56,47.56,0,0,0,24.45-6.41c8.8,5.69,20.64,8.82,33.47,8,12.22-.73,23.13-4.88,31.1-11.06,8.53,4.83,19.48,7.42,31.27,6.71C860.92,486.42,880.85,469.77,879.71,450.77Z"/></g><g id="text"><text class="cls-5" transform="translate(68.14 57.04)">B<tspan class="cls-6" x="12.6" y="0">r</tspan><tspan x="19.28" y="0">oad Ne</tspan><tspan class="cls-7" x="86" y="0">t</tspan><tspan x="93.84" y="0">work</tspan><tspan x="38.03" y="24">Access</tspan></text><text class="cls-5" transform="translate(273.71 69.04)">Rapid Ela<tspan class="cls-7" x="84.44" y="0">s</tspan><tspan class="cls-8" x="93.76" y="0">t</tspan><tspan x="100.82" y="0">i</tspan><tspan class="cls-9" x="105.62" y="0">ci</tspan><tspan class="cls-10" x="120.86" y="0">t</tspan><tspan x="128.7" y="0">y</tspan></text><text class="cls-5" transform="translate(468.57 69.04)">Measu<tspan class="cls-6" x="59.28" y="0">r</tspan><tspan x="65.96" y="0">ed Se</tspan><tspan class="cls-11" x="117.1" y="0">r</tspan><tspan x="125.34" y="0">vice</tspan></text><text class="cls-5" transform="translate(699.32 57.04)">On-Demand<tspan x="2.53" y="24">Se</tspan><tspan class="cls-8" x="24.77" y="24">l</tspan><tspan x="29.59" y="24">f-Se</tspan><tspan class="cls-11" x="64.79" y="24">r</tspan><tspan class="cls-12" x="73.03" y="24">v</tspan><tspan x="83.07" y="24">ice</tspan></text><text class="cls-5" transform="translate(66.38 272.63)">So<tspan class="cls-7" x="23" y="0">f</tspan><tspan x="30.1" y="0">twa</tspan><tspan class="cls-6" x="62.34" y="0">r</tspan><tspan x="69.02" y="0">e as a Se</tspan><tspan class="cls-7" x="148.34" y="0">r</tspan><tspan x="156.18" y="0">vice</tspan><tspan x="68.63" y="24">(SaaS)</tspan></text><text class="cls-13" transform="translate(332.88 166.41)">Resou<tspan class="cls-14" x="82.29" y="0">r</tspan><tspan x="92.31" y="0">ce Poo</tspan><tspan class="cls-15" x="185.22" y="0">l</tspan><tspan x="192.45" y="0">ing</tspan></text><text class="cls-5" transform="translate(355.09 272.63)">Pla<tspan class="cls-11" x="27.04" y="0">t</tspan><tspan x="35.28" y="0">form as a Se</tspan><tspan class="cls-7" x="145.74" y="0">r</tspan><tspan x="153.58" y="0">vice</tspan><tspan x="66.96" y="24">(PaaS)</tspan></text><text class="cls-5" transform="translate(624.73 272.63)">In<tspan class="cls-7" x="16.32" y="0">f</tspan><tspan x="23.42" y="0">as</tspan><tspan class="cls-7" x="42.32" y="0">t</tspan><tspan x="50.16" y="0">ru</tspan><tspan class="cls-10" x="68.32" y="0">ct</tspan><tspan x="86.6" y="0">u</tspan><tspan class="cls-6" x="97.72" y="0">r</tspan><tspan x="104.4" y="0">e as a Se</tspan><tspan class="cls-7" x="183.72" y="0">r</tspan><tspan x="191.56" y="0">vice</tspan><tspan x="89.28" y="24">(IaaS)</tspan></text><text class="cls-5" transform="translate(98.89 456.92)">Pub<tspan class="cls-8" x="35.2" y="0">l</tspan><tspan x="40.02" y="0">ic</tspan></text><text class="cls-5" transform="translate(311.76 456.98)">Private</text><text class="cls-5" transform="translate(535.98 456.98)">Hybrid</text><text class="cls-5" transform="translate(726.59 456.92)">Community</text></g></svg>