<svg id="Layer_1" data-name="Layer 1" xmlns="http://www.w3.org/2000/svg" viewBox="0 0 1584 1224"><defs><style>.cls-1{fill:none;stroke:#007eb1;stroke-miterlimit:10;stroke-width:10px;}.cls-2{font-size:48px;font-family:Avenir-Book, Avenir;letter-spacing:0.04em;}</style></defs><ellipse class="cls-1" cx="792" cy="612" rx="662.78" ry="571.29"/><ellipse class="cls-1" cx="792" cy="702.27" rx="505.53" ry="420.15"/><ellipse class="cls-1" cx="792" cy="787.18" rx="381.61" ry="262.9"/><ellipse class="cls-1" cx="792" cy="884.51" rx="200.94" ry="98.46"/><path d="M591.85,158.82c4.08-.64,6.12-1,10.19-1.57,3.57-.54,6.49-.2,8.77,1a7.84,7.84,0,0,1,4,6.31,8,8,0,0,1-2.1,7.21c-1.83,1.8-4.49,3-8,3.48-2.62.39-3.93.59-6.54,1,1,6.24,1.45,9.36,2.43,15.6l-3.47.55Q594.52,175.61,591.85,158.82Zm5.87,14.29c2.27-.36,3.41-.53,5.68-.87a14.83,14.83,0,0,0,3.91-1.07,7.8,7.8,0,0,0,2.44-1.64,4.67,4.67,0,0,0,1.15-2.06,6.06,6.06,0,0,0,.11-2.37,5.79,5.79,0,0,0-.77-2.19,4.7,4.7,0,0,0-1.7-1.67,6.85,6.85,0,0,0-2.82-.87,15.31,15.31,0,0,0-4.09.15l-5.73.87C596.63,166.08,597,168.42,597.72,173.11Z"/><path d="M620.76,152.25l3.28-.43c.91,6.91,1.37,10.36,2.28,17.27h.1a7.43,7.43,0,0,1,1.16-1.85,8.93,8.93,0,0,1,1.69-1.55,10,10,0,0,1,2.08-1.14,8.73,8.73,0,0,1,2.25-.6q4.42-.56,6.82,1.46c1.59,1.34,2.54,3.41,2.88,6.2.67,5.66,1,8.5,1.68,14.16l-3.19.38-1.5-12.34a10.29,10.29,0,0,0-2-5.53q-1.57-1.82-5.16-1.37c-.16,0-.61.15-1.35.37a6.06,6.06,0,0,0-2.24,1.35,7.67,7.67,0,0,0-1.89,2.86,9.63,9.63,0,0,0-.35,4.89c.6,4.57.9,6.85,1.51,11.42l-3.19.43Q623.18,170.24,620.76,152.25Z"/><path d="M662.43,179.9c2-7.68,3-11.52,5.11-19.19l4-.39q-4.43,14.63-8.58,29.32a11.8,11.8,0,0,1-2.14,4.38,6.23,6.23,0,0,1-4.32,2c-.48.05-1,.09-1.46.11a6.33,6.33,0,0,1-1.5-.12c0-1.24,0-1.85,0-3.09a5.27,5.27,0,0,0,2.46.26,3.48,3.48,0,0,0,2.53-1.34,9.25,9.25,0,0,0,1.37-3.15l1.18-4.47c-4.67-8.65-7-13-11.85-21.58l4.09-.46C657,169.26,658.8,172.8,662.43,179.9Z"/><path d="M690.32,164a5.9,5.9,0,0,0-2.15-2,5.29,5.29,0,0,0-3.07-.56,7.89,7.89,0,0,0-1.69.33,5.3,5.3,0,0,0-1.49.73,3.42,3.42,0,0,0-1,1.13,2.66,2.66,0,0,0-.28,1.57,2.52,2.52,0,0,0,1.33,2.19,11.4,11.4,0,0,0,3.49.95l3.34.49a7.85,7.85,0,0,1,4.16,1.81,5.41,5.41,0,0,1,1.9,3.87,6.09,6.09,0,0,1-.51,3.19,6.46,6.46,0,0,1-1.82,2.32,8.9,8.9,0,0,1-2.73,1.45,14.16,14.16,0,0,1-3.22.65,12.18,12.18,0,0,1-4.95-.55,9.14,9.14,0,0,1-4.17-3c1-.85,1.56-1.28,2.61-2.12a7.68,7.68,0,0,0,2.67,2.22,6.61,6.61,0,0,0,3.6.6,8.48,8.48,0,0,0,1.92-.38,5.41,5.41,0,0,0,1.67-.81,3.68,3.68,0,0,0,1.12-1.27,3,3,0,0,0,.33-1.71,2.6,2.6,0,0,0-1.47-2.32,11.1,11.1,0,0,0-3.17-.91l-3.19-.45c-.4-.06-.94-.18-1.63-.34a7.49,7.49,0,0,1-2-.83,6,6,0,0,1-1.8-1.6,4.9,4.9,0,0,1-.93-2.59,6.15,6.15,0,0,1,.44-3.07,5.92,5.92,0,0,1,1.73-2.28,9.06,9.06,0,0,1,2.63-1.46,12.06,12.06,0,0,1,3.12-.68,10.87,10.87,0,0,1,4.57.54,6.46,6.46,0,0,1,3.45,2.85Z"/><path d="M704.79,148.92a2.07,2.07,0,0,1-.63,1.7,2.4,2.4,0,0,1-3.27.23,2.09,2.09,0,0,1-.87-1.6,2.06,2.06,0,0,1,.63-1.7,2.5,2.5,0,0,1,1.6-.77,2.44,2.44,0,0,1,1.68.54A2.06,2.06,0,0,1,704.79,148.92ZM706.2,180l-3.2.22c-.65-9-1-13.44-1.61-22.4l3.26-.23Z"/><path d="M731.58,161.29a6.84,6.84,0,0,0-2.44-2,7,7,0,0,0-3.48-.69,9.1,9.1,0,0,0-3.59.82,7.9,7.9,0,0,0-2.63,2,8.09,8.09,0,0,0-1.55,2.95,10.61,10.61,0,0,0-.38,3.6,10.91,10.91,0,0,0,.8,3.54,8.1,8.1,0,0,0,1.88,2.75A8,8,0,0,0,723,176a8.79,8.79,0,0,0,3.61.43,6.83,6.83,0,0,0,5.54-3.26l2.73,1.84a10.92,10.92,0,0,1-3.71,3.09,11.7,11.7,0,0,1-4.41,1.21,12.92,12.92,0,0,1-5-.57,11.18,11.18,0,0,1-4-2.24,10.82,10.82,0,0,1-2.64-3.62,13.29,13.29,0,0,1-1.12-4.66,12.89,12.89,0,0,1,.54-4.77,10.43,10.43,0,0,1,2.21-3.91,11.19,11.19,0,0,1,3.73-2.7,13.13,13.13,0,0,1,5-1.11,11.65,11.65,0,0,1,4.6.75,10.87,10.87,0,0,1,4,2.71C733.12,160,732.6,160.45,731.58,161.29Z"/><path d="M755.36,163.78v-.58c-.12-3.87-2.15-5.75-6.1-5.61a10.28,10.28,0,0,0-7,2.89l-2.07-2.17c2.09-2.26,5.31-3.48,9.66-3.63a10.75,10.75,0,0,1,3.26.38,7.46,7.46,0,0,1,2.74,1.38,7.16,7.16,0,0,1,1.89,2.42,8.39,8.39,0,0,1,.79,3.53c.11,4,.16,6,.27,10,0,.86.09,1.77.19,2.71s.22,1.71.33,2.32l-3.11.08c-.11-.54-.2-1.13-.27-1.76s-.11-1.27-.12-1.87h-.1a8.76,8.76,0,0,1-3.24,3.34,10.09,10.09,0,0,1-4.65,1.14,10.25,10.25,0,0,1-2.93-.3,7.4,7.4,0,0,1-2.55-1.15,6.34,6.34,0,0,1-1.83-2,5.78,5.78,0,0,1-.78-2.82,6,6,0,0,1,1.26-4.35,8.71,8.71,0,0,1,3.54-2.47,17.66,17.66,0,0,1,4.62-1.13c1.65-.19,3.17-.3,4.54-.34Zm-1.59,2.64c-.82,0-1.84.1-3.06.22a17.23,17.23,0,0,0-3.5.7,7.66,7.66,0,0,0-2.84,1.52,3.18,3.18,0,0,0-1.1,2.68,3.71,3.71,0,0,0,.54,1.88,4,4,0,0,0,1.29,1.25,5.55,5.55,0,0,0,1.76.65,8.93,8.93,0,0,0,1.93.15,7.47,7.47,0,0,0,3-.68,6.17,6.17,0,0,0,2.12-1.63,6.09,6.09,0,0,0,1.22-2.34,9.33,9.33,0,0,0,.34-2.82l0-1.63Z"/><path d="M772.29,177.17l-3.21.06q-.35-18.15-.68-36.28l3.3-.06Q772,159,772.29,177.17Z"/><path d="M827.05,172.1a13.12,13.12,0,0,1-2.23,2.39,13.66,13.66,0,0,1-3,1.92,17.11,17.11,0,0,1-7.67,1.65,19,19,0,0,1-7.1-1.45,17.81,17.81,0,0,1-5.66-3.77,17.35,17.35,0,0,1-3.76-5.66,18.6,18.6,0,0,1-1.35-7.16,18.17,18.17,0,0,1,1.41-7.15,16.93,16.93,0,0,1,3.88-5.62,17.62,17.62,0,0,1,5.86-3.66,19.24,19.24,0,0,1,7.34-1.24,18.24,18.24,0,0,1,6.56,1.38,13.08,13.08,0,0,1,5.53,4.26l-3.19,2.18a8.27,8.27,0,0,0-1.45-1.67A11.21,11.21,0,0,0,820.1,147a14.5,14.5,0,0,0-2.59-1.06,10.38,10.38,0,0,0-2.79-.43,14.51,14.51,0,0,0-6.09,1.11,13.49,13.49,0,0,0-4.58,3.16,13.9,13.9,0,0,0-2.89,4.66,16.43,16.43,0,0,0-.08,11.18,14.46,14.46,0,0,0,2.78,4.71,13.74,13.74,0,0,0,4.43,3.26,14.42,14.42,0,0,0,5.93,1.29,16.27,16.27,0,0,0,2.7-.19,11.57,11.57,0,0,0,2.65-.76,10.12,10.12,0,0,0,2.47-1.51,11.78,11.78,0,0,0,2.19-2.42Z"/><path d="M857.11,167.43a12.07,12.07,0,0,1-1.15,4.65,11.31,11.31,0,0,1-6.62,5.9,13.86,13.86,0,0,1-9.72-.4,11.71,11.71,0,0,1-3.73-2.61,11.35,11.35,0,0,1-2.38-3.83,12.6,12.6,0,0,1,.3-9.4,11.23,11.23,0,0,1,2.67-3.66,11.69,11.69,0,0,1,4-2.33,13.38,13.38,0,0,1,5-.69,13.6,13.6,0,0,1,4.93,1.1,11.6,11.6,0,0,1,3.76,2.66,11.26,11.26,0,0,1,2.35,3.86A12.17,12.17,0,0,1,857.11,167.43Zm-3.53-.18a10,10,0,0,0-.44-3.53,8.29,8.29,0,0,0-1.62-2.91,8.09,8.09,0,0,0-2.65-2,8.82,8.82,0,0,0-3.59-.85,9,9,0,0,0-3.66.55,8,8,0,0,0-2.78,1.79,8.55,8.55,0,0,0-1.82,2.77,10.27,10.27,0,0,0-.25,7,8.72,8.72,0,0,0,1.61,2.9,7.88,7.88,0,0,0,2.61,2,9.62,9.62,0,0,0,7.15.3,8.21,8.21,0,0,0,2.79-1.77,8.43,8.43,0,0,0,1.87-2.75A9.89,9.89,0,0,0,853.58,167.25Z"/><path d="M868.7,156.82c0,.61,0,1.21,0,1.8s-.05,1.2-.09,1.8h.1a7.16,7.16,0,0,1,1.48-1.59,9.31,9.31,0,0,1,2-1.21,10.74,10.74,0,0,1,2.25-.72,8.73,8.73,0,0,1,2.32-.16c3,.2,5.1,1.11,6.41,2.73a9.16,9.16,0,0,1,1.64,6.64c-.41,5.68-.62,8.53-1,14.22l-3.2-.23c.35-5,.53-7.45.88-12.41a10.27,10.27,0,0,0-.93-5.81q-1.18-2.08-4.79-2.32a12.4,12.4,0,0,0-1.39.1,6.13,6.13,0,0,0-2.46.9,7.81,7.81,0,0,0-2.4,2.45,9.89,9.89,0,0,0-1.27,4.73c-.27,4.6-.41,6.9-.69,11.5l-3.2-.19,1-17.49c0-.6.06-1.37.06-2.3s0-1.81,0-2.65Z"/><path d="M906.7,162.56l-6.65-.58c-.44,5.28-.67,7.92-1.12,13.2a7.35,7.35,0,0,0,.07,2,2.87,2.87,0,0,0,.58,1.28,2.47,2.47,0,0,0,1,.69,4.91,4.91,0,0,0,1.32.28,6.3,6.3,0,0,0,1.72-.09,7.63,7.63,0,0,0,1.66-.47c0,1.17-.07,1.75-.12,2.93a10.65,10.65,0,0,1-4.38.43,8.33,8.33,0,0,1-1.89-.41,4.62,4.62,0,0,1-1.74-1.06,4.94,4.94,0,0,1-1.21-1.93,7.34,7.34,0,0,1-.29-3.06c.47-5.64.7-8.47,1.17-14.11l-4.88-.39c.09-1.15.14-1.73.23-2.88l4.88.4.52-6.32,3.28.28c-.22,2.52-.33,3.78-.54,6.31l6.66.58C906.85,160.84,906.8,161.41,906.7,162.56Z"/><path d="M913.05,167.3c.09-1,.16-2,.21-3s.13-2.35.26-4l3.2.31c-.16,1.67-.24,2.5-.41,4.16h.1a6.88,6.88,0,0,1,1.16-1.65,7.66,7.66,0,0,1,1.7-1.35,7.84,7.84,0,0,1,2.22-.86,8.43,8.43,0,0,1,2.78-.12,8.69,8.69,0,0,1,2.39.54c-.39,1.21-.59,1.82-1,3a5.65,5.65,0,0,0-1.85-.43,6.83,6.83,0,0,0-3.26.36,7,7,0,0,0-2.39,1.55,7.11,7.11,0,0,0-1.53,2.19,7.36,7.36,0,0,0-.65,2.34c-.5,5.05-.74,7.57-1.24,12.61l-3.2-.31C912.16,176.53,912.46,173.45,913.05,167.3Z"/><path d="M952.66,176a12,12,0,0,1-1.49,4.55,11.45,11.45,0,0,1-3,3.4,11.66,11.66,0,0,1-4.1,2,13.93,13.93,0,0,1-9.67-1.14,11.63,11.63,0,0,1-3.53-2.89,11.46,11.46,0,0,1-2.09-4,12.22,12.22,0,0,1-.39-4.78,12,12,0,0,1,1.41-4.58,11.23,11.23,0,0,1,2.94-3.44,11.59,11.59,0,0,1,4.14-2,13.13,13.13,0,0,1,5-.31,13.31,13.31,0,0,1,4.84,1.47,11.59,11.59,0,0,1,3.55,2.93,11.2,11.2,0,0,1,2.05,4A11.7,11.7,0,0,1,952.66,176Zm-3.51-.45A9.76,9.76,0,0,0,949,172a8.57,8.57,0,0,0-1.39-3,8.43,8.43,0,0,0-2.49-2.21,9.05,9.05,0,0,0-3.53-1.12,9,9,0,0,0-3.69.27,8,8,0,0,0-2.92,1.57,8.69,8.69,0,0,0-2,2.62,10.25,10.25,0,0,0-.77,7,8.5,8.5,0,0,0,1.38,3,8,8,0,0,0,2.45,2.19,9,9,0,0,0,3.48,1.11,8.76,8.76,0,0,0,3.65-.27,8.2,8.2,0,0,0,2.92-1.55,8.44,8.44,0,0,0,2.07-2.6A9.71,9.71,0,0,0,949.15,175.53Z"/><path d="M962.87,188.66l-3.19-.43,4.86-36,3.28.44Z"/><path d="M987.05,174.89a5.75,5.75,0,0,0-1.62-2.49,5.35,5.35,0,0,0-2.86-1.26,8.16,8.16,0,0,0-1.72-.06,5.32,5.32,0,0,0-1.63.36,3.45,3.45,0,0,0-1.25.86,2.66,2.66,0,0,0-.64,1.46,2.53,2.53,0,0,0,.79,2.44,11.34,11.34,0,0,0,3.17,1.74l3.15,1.25a7.92,7.92,0,0,1,3.63,2.73,5.43,5.43,0,0,1,.95,4.21,6.19,6.19,0,0,1-1.24,3,6.41,6.41,0,0,1-2.31,1.82,8.84,8.84,0,0,1-3,.77,14.42,14.42,0,0,1-3.28-.11,12.27,12.27,0,0,1-4.7-1.7,9,9,0,0,1-3.35-3.9l3-1.46a7.63,7.63,0,0,0,2.08,2.79,6.74,6.74,0,0,0,3.37,1.42,8.54,8.54,0,0,0,2,.08,5.77,5.77,0,0,0,1.82-.4,3.7,3.7,0,0,0,1.39-1,2.92,2.92,0,0,0,.71-1.58,2.57,2.57,0,0,0-.88-2.59,11.52,11.52,0,0,0-2.88-1.64l-3-1.18c-.38-.15-.88-.39-1.51-.71a7.25,7.25,0,0,1-1.8-1.28,6.12,6.12,0,0,1-1.38-2,4.89,4.89,0,0,1-.3-2.74,5.91,5.91,0,0,1,3.36-4.7,9,9,0,0,1,2.9-.81,12.73,12.73,0,0,1,3.2.07,11.22,11.22,0,0,1,4.32,1.59,6.49,6.49,0,0,1,2.7,3.58Z"/><path d="M523.24,708.83l-4,.63q4.69-18,9.68-35.87l3.41-.51q10,15.69,19.69,31.51l-4,.57c-2-3.33-3-5-5-8.31-7,1-10.43,1.51-17.38,2.58C524.65,703.19,524.18,705.07,523.24,708.83Zm3.18-12.73c5.91-.9,8.86-1.34,14.77-2.19-4-6.65-6-10-10-16.59C529.26,684.83,528.3,688.59,526.42,696.1Z"/><path d="M579.72,701l-3.16.39c-.19-1.48-.28-2.23-.46-3.71H576a8.23,8.23,0,0,1-1.58,2.18,11,11,0,0,1-4.31,2.68,12,12,0,0,1-2.29.53,12.74,12.74,0,0,1-4.92-.25,11.26,11.26,0,0,1-7.06-5.32,12.7,12.7,0,0,1-1.27-9.32,11.12,11.12,0,0,1,2-4,11.35,11.35,0,0,1,3.47-3,13.06,13.06,0,0,1,4.76-1.52,12.41,12.41,0,0,1,2.38-.06,10.68,10.68,0,0,1,2.5.45,11.56,11.56,0,0,1,2.4,1.06,8.12,8.12,0,0,1,2.08,1.72h.1c-.87-7-1.3-10.46-2.17-17.44l3.23-.4Zm-21.94-8.5a9.9,9.9,0,0,0,1.07,3.39,8.14,8.14,0,0,0,5,4.11,8.76,8.76,0,0,0,3.61.23,9.46,9.46,0,0,0,3.49-1.15,9,9,0,0,0,2.61-2.24,8.76,8.76,0,0,0,1.53-3,9.35,9.35,0,0,0-.87-7,8.58,8.58,0,0,0-2.24-2.58,8.71,8.71,0,0,0-3.12-1.51,9.27,9.27,0,0,0-3.69-.23,8.89,8.89,0,0,0-3.47,1.15,8.2,8.2,0,0,0-2.44,2.24,8.45,8.45,0,0,0-1.34,3A10,10,0,0,0,557.78,692.47Z"/><path d="M586.5,682.56c-.1-.82-.22-1.65-.36-2.47s-.3-1.64-.46-2.45l3.44-.41.4,3.39h.09a7.59,7.59,0,0,1,2.89-3.33,9.37,9.37,0,0,1,4-1.46,10.89,10.89,0,0,1,2,0,7,7,0,0,1,2.09.48,6.61,6.61,0,0,1,2,1.21,7.54,7.54,0,0,1,1.68,2.18A7.36,7.36,0,0,1,607,676a8.45,8.45,0,0,1,4.27-1.7q4.38-.45,6.69,1.62a9.21,9.21,0,0,1,2.72,6.26c.55,5.68.83,8.52,1.39,14.19l-3.17.31-1.3-13a9.33,9.33,0,0,0-1.73-5.08q-1.4-1.69-4.7-1.36a5.94,5.94,0,0,0-2.93,1,5.6,5.6,0,0,0-1.77,2,8,8,0,0,0-.82,2.72,13,13,0,0,0,0,3.06c.5,4.76.76,7.13,1.26,11.89l-3.16.34c-.57-5.21-.85-7.82-1.42-13a9.34,9.34,0,0,0-1.77-5.07q-1.41-1.68-4.71-1.31a9.21,9.21,0,0,0-1.31.34,5,5,0,0,0-2,1.29,7.75,7.75,0,0,0-1.72,2.8,10.56,10.56,0,0,0-.34,4.88c.53,4.57.79,6.86,1.32,11.44l-3.16.37C587.72,693,587.32,689.51,586.5,682.56Z"/><path d="M633.17,664a2.1,2.1,0,0,1-.59,1.71,2.4,2.4,0,0,1-1.55.8,2.44,2.44,0,0,1-1.67-.5,2.24,2.24,0,0,1-.3-3.3,2.35,2.35,0,0,1,3.23-.29A2.08,2.08,0,0,1,633.17,664Zm2.05,31-3.17.29L630,673l3.21-.29C634,681.66,634.41,686.14,635.22,695.08Z"/><path d="M646,671.61c.11.6.2,1.2.27,1.79s.12,1.18.17,1.79h.1a7.19,7.19,0,0,1,1.22-1.79,9.11,9.11,0,0,1,1.74-1.46,10.27,10.27,0,0,1,2.1-1,8.47,8.47,0,0,1,2.24-.48q4.38-.35,6.65,1.78a9.24,9.24,0,0,1,2.56,6.33c.42,5.69.62,8.53,1,14.22l-3.17.23c-.37-5-.56-7.44-.93-12.4a10.5,10.5,0,0,0-1.74-5.62q-1.47-1.87-5-1.61a10.58,10.58,0,0,0-1.35.3,6,6,0,0,0-2.27,1.24,7.58,7.58,0,0,0-2,2.76,9.87,9.87,0,0,0-.58,4.87L648,694l-3.17.26c-.59-7-.89-10.47-1.47-17.46,0-.6-.14-1.36-.27-2.29s-.26-1.79-.39-2.61Z"/><path d="M676,660.73a2.12,2.12,0,0,1-.63,1.7,2.37,2.37,0,0,1-1.57.76,2.44,2.44,0,0,1-1.66-.54,2.13,2.13,0,0,1-.84-1.61,2.1,2.1,0,0,1,.62-1.7,2.36,2.36,0,0,1,3.24-.21A2.14,2.14,0,0,1,676,660.73Zm1.29,31.09-3.17.21c-.61-9-.91-13.45-1.51-22.41l3.22-.22C676.44,678.37,676.74,682.85,677.32,691.82Z"/><path d="M697.92,673.44a5.8,5.8,0,0,0-2.06-2.11,5.33,5.33,0,0,0-3-.65,7.5,7.5,0,0,0-1.67.29,5.41,5.41,0,0,0-1.5.68,3.4,3.4,0,0,0-1,1.1,2.69,2.69,0,0,0-.32,1.56,2.53,2.53,0,0,0,1.25,2.23A11.07,11.07,0,0,0,693,677.6l3.29.59a7.66,7.66,0,0,1,4.06,1.92,5.51,5.51,0,0,1,1.77,3.92,6.21,6.21,0,0,1-.58,3.18,6.43,6.43,0,0,1-1.87,2.26,8.44,8.44,0,0,1-2.75,1.37,13.85,13.85,0,0,1-3.2.56,12.06,12.06,0,0,1-4.89-.7,9,9,0,0,1-4-3.15l2.63-2a7.67,7.67,0,0,0,2.58,2.31,6.7,6.7,0,0,0,3.55.71,9,9,0,0,0,1.91-.33,5.39,5.39,0,0,0,1.68-.76,3.65,3.65,0,0,0,1.14-1.24,3.07,3.07,0,0,0,.37-1.7,2.59,2.59,0,0,0-1.38-2.35,11.1,11.1,0,0,0-3.12-1l-3.13-.55c-.4-.07-.93-.2-1.6-.39a7.35,7.35,0,0,1-2-.89,6.14,6.14,0,0,1-1.73-1.65,5,5,0,0,1-.84-2.62,6.19,6.19,0,0,1,.53-3.06,5.92,5.92,0,0,1,1.77-2.22,8.78,8.78,0,0,1,2.63-1.38,11.89,11.89,0,0,1,3.1-.58,10.67,10.67,0,0,1,4.49.67,6.45,6.45,0,0,1,3.32,2.95Z"/><path d="M720.18,670l-6.57.28c.23,5.29.35,7.94.58,13.23a7.46,7.46,0,0,0,.33,2,2.92,2.92,0,0,0,.73,1.19,2.37,2.37,0,0,0,1.06.56,5.2,5.2,0,0,0,1.34.11,6.36,6.36,0,0,0,1.67-.31,7.46,7.46,0,0,0,1.57-.69c.1,1.17.16,1.75.26,2.92a10.32,10.32,0,0,1-4.25,1,7.44,7.44,0,0,1-1.91-.16,4.41,4.41,0,0,1-1.85-.83,5.09,5.09,0,0,1-1.43-1.76,7.3,7.3,0,0,1-.67-3c-.25-5.66-.38-8.49-.64-14.15l-4.82.23c-.06-1.15-.08-1.73-.14-2.88l4.83-.23c-.12-2.53-.18-3.79-.29-6.33l3.23-.14c.11,2.53.16,3.8.28,6.33l6.58-.28C720.11,668.22,720.14,668.8,720.18,670Z"/><path d="M727,673.82c0-1-.09-2-.18-3s-.17-2.35-.27-4l3.17-.12.15,4.18h.1a6.82,6.82,0,0,1,.91-1.78,7.51,7.51,0,0,1,1.48-1.56,7.65,7.65,0,0,1,2.07-1.15,8.16,8.16,0,0,1,2.69-.49,8.86,8.86,0,0,1,2.4.21c-.22,1.26-.33,1.89-.54,3.14a5.32,5.32,0,0,0-1.86-.18,6.6,6.6,0,0,0-3.14.79,6.88,6.88,0,0,0-2.14,1.85,7.17,7.17,0,0,0-1.2,2.37,7.71,7.71,0,0,0-.34,2.41c.18,5.07.27,7.6.44,12.66l-3.18.12C727.34,683.09,727.23,680,727,673.82Z"/><path d="M759.34,674.63v-.58q-.11-5.81-6-5.69a10.12,10.12,0,0,0-6.9,2.8l-2-2.2c2.08-2.24,5.28-3.41,9.57-3.49a10.41,10.41,0,0,1,3.21.41,7,7,0,0,1,4.53,3.86,8.41,8.41,0,0,1,.74,3.54c.06,4,.09,6,.16,10,0,.86.06,1.77.16,2.71s.2,1.72.3,2.32l-3.08,0a16.76,16.76,0,0,1-.25-1.77c-.06-.64-.09-1.26-.1-1.87h-.1a8.71,8.71,0,0,1-3.24,3.3,10,10,0,0,1-4.63,1.09,10.38,10.38,0,0,1-2.9-.35,7.26,7.26,0,0,1-2.51-1.18,6.43,6.43,0,0,1-1.79-2,6,6,0,0,1-.73-2.84,6.08,6.08,0,0,1,1.32-4.33,8.74,8.74,0,0,1,3.53-2.42,17.71,17.71,0,0,1,4.58-1.06c1.63-.16,3.13-.26,4.49-.28Zm-1.6,2.62q-1.22,0-3,.18a17.61,17.61,0,0,0-3.47.65,7.86,7.86,0,0,0-2.83,1.48,3.22,3.22,0,0,0-1.12,2.67,3.66,3.66,0,0,0,1.77,3.15,5.13,5.13,0,0,0,1.73.68,8.14,8.14,0,0,0,1.91.17,7.22,7.22,0,0,0,3-.63,6.13,6.13,0,0,0,3.36-3.93,9.61,9.61,0,0,0,.36-2.82c0-.65,0-1,0-1.63Z"/><path d="M783.65,668.56l-6.58,0,.1,13.24a7,7,0,0,0,.26,2,2.79,2.79,0,0,0,.68,1.22,2.32,2.32,0,0,0,1,.6,5.51,5.51,0,0,0,1.33.16,6.78,6.78,0,0,0,1.69-.25,9.08,9.08,0,0,0,1.59-.63l.15,2.92a10.23,10.23,0,0,1-4.28.84,8,8,0,0,1-1.9-.23,4.38,4.38,0,0,1-1.82-.9,4.93,4.93,0,0,1-1.36-1.81,7.26,7.26,0,0,1-.56-3c-.06-5.66-.08-8.49-.14-14.16l-4.82.06c0-1.16,0-1.73,0-2.88l4.83-.06-.06-6.33,3.23,0,0,6.34,6.59,0C783.64,666.83,783.64,667.41,783.65,668.56Z"/><path d="M794.68,657a2.1,2.1,0,0,1-.73,1.66,2.41,2.41,0,0,1-1.62.64,2.36,2.36,0,0,1-1.62-.65,2.24,2.24,0,0,1,0-3.31,2.41,2.41,0,0,1,1.62-.65,2.37,2.37,0,0,1,1.62.66A2.06,2.06,0,0,1,794.68,657Zm-.8,31.1H790.7c0-9,0-13.48,0-22.46h3.22Z"/><path d="M813.39,688.29l-3.56,0c-3.56-9-5.36-13.53-9-22.54l3.81,0c2.86,7.58,4.28,11.38,7.08,19h.1c3-7.53,4.47-11.29,7.5-18.8L823,666C819.09,674.89,817.17,679.35,813.39,688.29Z"/><path d="M831.07,678.24a9.6,9.6,0,0,0,.75,3.19,8.4,8.4,0,0,0,4.24,4.38,8,8,0,0,0,3.12.71,8.18,8.18,0,0,0,4.45-1,8.88,8.88,0,0,0,2.91-2.62l2.39,2.1a12.38,12.38,0,0,1-4.57,3.5,12.58,12.58,0,0,1-5.26.94,12,12,0,0,1-4.63-1,11,11,0,0,1-3.62-2.56,11.72,11.72,0,0,1-2.36-3.8,12.17,12.17,0,0,1-.79-4.72,12.34,12.34,0,0,1,1-4.68,11.59,11.59,0,0,1,15.4-5.79,10,10,0,0,1,5.36,6.15,12.87,12.87,0,0,1,.58,4.37l0,1.43C842.41,678.53,838.63,678.42,831.07,678.24Zm15.49-2.16a7.12,7.12,0,0,0-1.78-5.27,7.2,7.2,0,0,0-5.39-2.15,7.76,7.76,0,0,0-3,.52,8.4,8.4,0,0,0-2.59,1.54A8,8,0,0,0,832,673a5.8,5.8,0,0,0-.72,2.67C837.36,675.8,840.43,675.88,846.56,676.08Z"/><path d="M902.17,686.36a13.56,13.56,0,0,1-2.3,2.31,13.79,13.79,0,0,1-3,1.8,17.53,17.53,0,0,1-3.62,1.11,16.77,16.77,0,0,1-4,.24,18.4,18.4,0,0,1-7-1.73,17.37,17.37,0,0,1-5.45-4,17.19,17.19,0,0,1-3.47-5.81,18.53,18.53,0,0,1-1-7.21A18.34,18.34,0,0,1,874,666a16.73,16.73,0,0,1,4.06-5.45,17.41,17.41,0,0,1,5.92-3.42,18.93,18.93,0,0,1,7.27-.94,17.78,17.78,0,0,1,6.4,1.62,13.07,13.07,0,0,1,5.27,4.47l-3.22,2.06a8.11,8.11,0,0,0-1.36-1.72,10.82,10.82,0,0,0-2-1.57,13.79,13.79,0,0,0-2.52-1.16,9.87,9.87,0,0,0-2.72-.54,14.1,14.1,0,0,0-6,.87,13.39,13.39,0,0,0-4.64,3,14,14,0,0,0-3.05,4.54,16.5,16.5,0,0,0-.55,11.17,14.25,14.25,0,0,0,2.55,4.81,13.41,13.41,0,0,0,4.24,3.44,14,14,0,0,0,5.82,1.53,15,15,0,0,0,2.68-.09,10.57,10.57,0,0,0,2.66-.66,9.92,9.92,0,0,0,2.5-1.41,11.14,11.14,0,0,0,2.25-2.33C900.54,685,901.09,685.48,902.17,686.36Z"/><path d="M932.07,682.67a12.1,12.1,0,0,1-1.28,4.62,11.49,11.49,0,0,1-2.78,3.53,11.34,11.34,0,0,1-4,2.17,12.85,12.85,0,0,1-4.9.52,12.61,12.61,0,0,1-4.71-1.24,11.16,11.16,0,0,1-5.83-6.64,12.7,12.7,0,0,1,.64-9.38,11,11,0,0,1,2.76-3.57,11.23,11.23,0,0,1,4-2.19,12.6,12.6,0,0,1,4.91-.53,13,13,0,0,1,4.83,1.25,11.37,11.37,0,0,1,3.62,2.77,11.09,11.09,0,0,1,2.2,3.93A11.89,11.89,0,0,1,932.07,682.67Zm-3.48-.28a10.12,10.12,0,0,0-.33-3.54,8.45,8.45,0,0,0-1.5-3,8.32,8.32,0,0,0-2.55-2.1,8.85,8.85,0,0,0-3.52-1,8.74,8.74,0,0,0-3.63.43,7.85,7.85,0,0,0-2.81,1.7,8.63,8.63,0,0,0-1.89,2.7,10.43,10.43,0,0,0-.49,7,8.46,8.46,0,0,0,1.49,3,7.75,7.75,0,0,0,2.51,2.08,8.54,8.54,0,0,0,3.49,1,8.73,8.73,0,0,0,3.59-.42,8,8,0,0,0,2.82-1.69,8.22,8.22,0,0,0,1.93-2.68A10,10,0,0,0,928.59,682.39Z"/><path d="M943.83,672.4c0,.61,0,1.21,0,1.8s-.08,1.19-.14,1.8h.1a7.37,7.37,0,0,1,1.51-1.55,9.09,9.09,0,0,1,2-1.15,9.7,9.7,0,0,1,2.25-.66,8.45,8.45,0,0,1,2.29-.11c2.92.27,5,1.24,6.25,2.88s1.73,3.87,1.46,6.68c-.55,5.67-.83,8.51-1.38,14.19l-3.17-.31c.47-5,.71-7.43,1.18-12.38a10.43,10.43,0,0,0-.76-5.83c-.75-1.4-2.31-2.22-4.67-2.44-.17,0-.63,0-1.38.07a5.92,5.92,0,0,0-2.45.84,7.71,7.71,0,0,0-2.44,2.38,9.84,9.84,0,0,0-1.39,4.7c-.4,4.59-.6,6.89-1,11.48l-3.17-.28,1.5-17.45c.06-.61.1-1.38.13-2.31s0-1.81,0-2.64Z"/><path d="M981.2,679l-6.55-.71c-.56,5.27-.84,7.91-1.39,13.18a7.23,7.23,0,0,0,0,2,3,3,0,0,0,.55,1.29,2.31,2.31,0,0,0,1,.71,5,5,0,0,0,1.3.3,6.61,6.61,0,0,0,1.71,0,8.31,8.31,0,0,0,1.65-.45c-.07,1.17-.11,1.76-.18,2.93a10.45,10.45,0,0,1-4.35.35,8.32,8.32,0,0,1-1.87-.45,4.46,4.46,0,0,1-1.71-1.09,5.09,5.09,0,0,1-1.15-2A7.47,7.47,0,0,1,970,692c.59-5.63.88-8.45,1.47-14.08l-4.81-.5c.12-1.14.18-1.72.29-2.86l4.82.49.65-6.3,3.22.34c-.27,2.52-.4,3.78-.67,6.3l6.56.7C981.39,677.26,981.32,677.83,981.2,679Z"/><path d="M987.38,683.82c.11-1,.2-2,.26-3s.18-2.35.33-4l3.16.36c-.19,1.66-.29,2.49-.48,4.15h.1a6.59,6.59,0,0,1,1.17-1.62,7.53,7.53,0,0,1,1.7-1.33,7.86,7.86,0,0,1,2.21-.83,8.59,8.59,0,0,1,2.75-.08,9.12,9.12,0,0,1,2.34.57l-1,3a5.59,5.59,0,0,0-1.82-.46,6.74,6.74,0,0,0-3.23.32,6.87,6.87,0,0,0-2.38,1.51,7.12,7.12,0,0,0-1.55,2.16,7.75,7.75,0,0,0-.69,2.34l-1.45,12.59-3.17-.36Z"/><path d="M1026.43,693a12.14,12.14,0,0,1-1.53,4.54,11.26,11.26,0,0,1-7.06,5.32,13.7,13.7,0,0,1-9.58-1.24,11.42,11.42,0,0,1-3.45-2.93,11.18,11.18,0,0,1-2-4,12.71,12.71,0,0,1,1.15-9.33,11.05,11.05,0,0,1,2.95-3.41,11.46,11.46,0,0,1,4.11-2,13.82,13.82,0,0,1,9.7,1.26,11.35,11.35,0,0,1,3.47,3,11.12,11.12,0,0,1,2,4A12.07,12.07,0,0,1,1026.43,693Zm-3.47-.47a9.77,9.77,0,0,0-.14-3.55,8.12,8.12,0,0,0-3.77-5.28,9.61,9.61,0,0,0-7.12-.92,7.8,7.8,0,0,0-2.9,1.55,8.62,8.62,0,0,0-2,2.59,9.85,9.85,0,0,0-1,3.4,10,10,0,0,0,.17,3.56,8.59,8.59,0,0,0,1.33,3,7.84,7.84,0,0,0,2.4,2.21,9.44,9.44,0,0,0,7,.92,8.28,8.28,0,0,0,2.91-1.53,8.54,8.54,0,0,0,2.08-2.58A9.9,9.9,0,0,0,1023,692.49Z"/><path d="M1036.43,705.7l-3.16-.45q2.55-18,5.09-35.93l3.22.46Q1039,687.74,1036.43,705.7Z"/><path d="M1060.43,692a5.9,5.9,0,0,0-1.59-2.48,5.25,5.25,0,0,0-2.82-1.26,7.38,7.38,0,0,0-1.7-.07,5.19,5.19,0,0,0-1.61.36,3.45,3.45,0,0,0-1.24.86,2.69,2.69,0,0,0-.64,1.46,2.53,2.53,0,0,0,.76,2.44,11.14,11.14,0,0,0,3.14,1.74l3.1,1.26a7.72,7.72,0,0,1,3.59,2.72,5.51,5.51,0,0,1,.93,4.21,6.32,6.32,0,0,1-1.23,3,6.4,6.4,0,0,1-2.29,1.82,8.5,8.5,0,0,1-3,.77,13.6,13.6,0,0,1-3.25-.11,12,12,0,0,1-4.65-1.7,9,9,0,0,1-3.31-3.92l3-1.44a7.44,7.44,0,0,0,2,2.78,6.49,6.49,0,0,0,3.33,1.43,8.45,8.45,0,0,0,2,.08,5.39,5.39,0,0,0,1.8-.4,3.76,3.76,0,0,0,1.38-1,3.14,3.14,0,0,0,.71-1.59,2.61,2.61,0,0,0-.87-2.59,11.29,11.29,0,0,0-2.85-1.63l-3-1.18c-.37-.16-.87-.39-1.49-.71a7.38,7.38,0,0,1-1.78-1.29,6.21,6.21,0,0,1-1.35-2,4.9,4.9,0,0,1-.28-2.74,6.28,6.28,0,0,1,1.14-2.89,6.07,6.07,0,0,1,2.2-1.8,8.91,8.91,0,0,1,2.87-.81,12.42,12.42,0,0,1,3.16.07,10.78,10.78,0,0,1,4.26,1.58,6.5,6.5,0,0,1,2.65,3.58Z"/><text class="cls-2" transform="translate(717.79 897.76)">Assets</text><path d="M492.37,467.69c6.35-1,9.53-1.48,15.88-2.42.18,1.25.28,1.88.46,3.13-7.72,1.15-11.58,1.74-19.3,3q-2.66-16.78-5.32-33.57l3.52-.55Q490,452.47,492.37,467.69Z"/><path d="M535.45,453.3a11.89,11.89,0,0,1-.27,4.78,11.2,11.2,0,0,1-5.43,7,13.08,13.08,0,0,1-4.71,1.55,12.94,12.94,0,0,1-4.91-.21,11.42,11.42,0,0,1-4.13-1.91,11.24,11.24,0,0,1-3-3.34,12.76,12.76,0,0,1-1.36-9.31,11.24,11.24,0,0,1,5.43-7.06,12.83,12.83,0,0,1,4.72-1.56,13.24,13.24,0,0,1,5,.2,11.64,11.64,0,0,1,4.15,1.93,11.22,11.22,0,0,1,3,3.38A12.06,12.06,0,0,1,535.45,453.3Zm-3.48.47a9.9,9.9,0,0,0-1.07-3.39,8.47,8.47,0,0,0-2.11-2.58,8.18,8.18,0,0,0-2.95-1.51,8.91,8.91,0,0,0-3.67-.19,8.82,8.82,0,0,0-3.47,1.19,7.77,7.77,0,0,0-2.4,2.26,8.46,8.46,0,0,0-1.3,3,9.85,9.85,0,0,0-.1,3.56,9.74,9.74,0,0,0,1.1,3.38,8.63,8.63,0,0,0,2.09,2.56,7.83,7.83,0,0,0,2.91,1.5,9.63,9.63,0,0,0,7.08-1,8.15,8.15,0,0,0,3.75-5.29A9.78,9.78,0,0,0,532,453.77Z"/><path d="M546.94,467.68a10.14,10.14,0,0,0,4,2.51,11,11,0,0,0,5.11.5,10.67,10.67,0,0,0,4-1.19,7,7,0,0,0,2.48-2.21,7.18,7.18,0,0,0,1.16-3,12.1,12.1,0,0,0,.05-3.46l-.47-4h-.1a8.82,8.82,0,0,1-3.37,3.7,11.94,11.94,0,0,1-4.56,1.52,12.33,12.33,0,0,1-4.71-.29,11.75,11.75,0,0,1-4-1.88,10.86,10.86,0,0,1-3-3.27,11.18,11.18,0,0,1-1.51-4.4,11.77,11.77,0,0,1,.29-4.64,11.64,11.64,0,0,1,1.93-4,11,11,0,0,1,3.34-2.92,12.13,12.13,0,0,1,4.54-1.46,13.13,13.13,0,0,1,2.2-.08,11.16,11.16,0,0,1,2.37.39,10.71,10.71,0,0,1,2.42,1,10.49,10.49,0,0,1,2.35,1.87h.09c-.17-1.49-.26-2.23-.44-3.72l3.22-.38c1,8.85,1.56,13.27,2.59,22.12a18.23,18.23,0,0,1,0,3.91,9.73,9.73,0,0,1-1.33,4,10.29,10.29,0,0,1-3.33,3.3,14.29,14.29,0,0,1-6,1.89,15.62,15.62,0,0,1-6.13-.35,14,14,0,0,1-5.22-2.76C545.72,469.34,546.13,468.79,546.94,467.68Zm-1.45-16a8.62,8.62,0,0,0,1.07,3.23,9,9,0,0,0,2.13,2.48,8.82,8.82,0,0,0,2.89,1.53,8,8,0,0,0,3.39.28,9.11,9.11,0,0,0,5.8-3.1,7.73,7.73,0,0,0,1.54-2.92,8.94,8.94,0,0,0,.18-3.6,9.83,9.83,0,0,0-1-3.24,8,8,0,0,0-5-4,8.92,8.92,0,0,0-3.68-.25,8.19,8.19,0,0,0-3.25,1.1,8.72,8.72,0,0,0-2.44,2.2,8.6,8.6,0,0,0-1.45,2.94A8.37,8.37,0,0,0,545.49,451.7Z"/><path d="M577.22,428.21a2.07,2.07,0,0,1-.55,1.72,2.35,2.35,0,0,1-3.23.36,2.07,2.07,0,0,1-.92-1.56,2.1,2.1,0,0,1,.55-1.73,2.4,2.4,0,0,1,1.55-.82,2.43,2.43,0,0,1,1.69.46A2.12,2.12,0,0,1,577.22,428.21Zm2.68,31-3.18.36-2.5-22.33,3.22-.35C578.42,445.81,578.92,450.27,579.9,459.2Z"/><path d="M604.3,439.4a6.9,6.9,0,0,0-6-2.4,9.13,9.13,0,0,0-3.53,1,8,8,0,0,0-2.51,2.14,8.16,8.16,0,0,0-1.41,3,10.83,10.83,0,0,0-.21,3.62,10.65,10.65,0,0,0,1,3.49,8.12,8.12,0,0,0,2,2.67,7.67,7.67,0,0,0,2.87,1.58,9,9,0,0,0,3.62.27,6.8,6.8,0,0,0,5.36-3.52c1.13.68,1.68,1,2.8,1.71a10.89,10.89,0,0,1-3.53,3.26,11.59,11.59,0,0,1-4.35,1.41,12.72,12.72,0,0,1-5.05-.33,11.27,11.27,0,0,1-4-2.07,10.61,10.61,0,0,1-2.78-3.49,13.32,13.32,0,0,1-1.32-4.62,13.12,13.12,0,0,1,.33-4.79,10.49,10.49,0,0,1,2-4,11.13,11.13,0,0,1,3.58-2.85,12.92,12.92,0,0,1,4.94-1.35,11.92,11.92,0,0,1,4.59.54,10.75,10.75,0,0,1,4.13,2.52Z"/><path d="M628,440.67l0-.57c-.33-3.86-2.44-5.63-6.35-5.28a10.2,10.2,0,0,0-6.74,3.25L612.73,436q2.91-3.54,9.37-4.12a11,11,0,0,1,3.25.2,7.4,7.4,0,0,1,2.78,1.24,7.18,7.18,0,0,1,2,2.31,8.33,8.33,0,0,1,1,3.48c.33,4,.5,6,.83,10,.07.86.19,1.76.34,2.69s.32,1.7.46,2.3l-3.09.26c-.14-.53-.26-1.12-.37-1.75s-.17-1.25-.23-1.86H629a8.62,8.62,0,0,1-3,3.51,10.35,10.35,0,0,1-4.57,1.39,10.68,10.68,0,0,1-2.94-.15,7.6,7.6,0,0,1-2.6-1,6.44,6.44,0,0,1-1.93-1.89,6,6,0,0,1-.91-2.79,6.09,6.09,0,0,1,1-4.41,8.83,8.83,0,0,1,3.38-2.64,17.89,17.89,0,0,1,4.54-1.37c1.62-.27,3.12-.46,4.48-.58Zm-1.44,2.73c-.81.07-1.82.19-3,.38a17.44,17.44,0,0,0-3.45.88,7.76,7.76,0,0,0-2.74,1.67,3.21,3.21,0,0,0-1,2.73,3.68,3.68,0,0,0,.64,1.85,3.75,3.75,0,0,0,1.35,1.18,5.3,5.3,0,0,0,1.78.56,8.89,8.89,0,0,0,1.93.05,7.29,7.29,0,0,0,3-.84,6.45,6.45,0,0,0,2-1.74,6.24,6.24,0,0,0,1.09-2.41,9.12,9.12,0,0,0,.17-2.83l-.14-1.62Z"/><path d="M645.61,453.08l-3.19.25-2.82-36.18,3.25-.25Z"/><path d="M654.85,453.27l-2.87-.71q6.07-17.91,12.39-35.74l2.87.78Q660.93,435.39,654.85,453.27Z"/><path d="M687.19,450.37l-3.48.19q-.87-15.39-1.73-30.77c-4.66.26-7,.4-11.65.69-.08-1.26-.12-1.9-.19-3.16,10.74-.67,16.12-1,26.87-1.49.07,1.27.1,1.9.16,3.17-4.66.22-7,.34-11.65.6Q686.36,435,687.19,450.37Z"/><path d="M701.13,439.28a9.54,9.54,0,0,0,1,3.12,8.35,8.35,0,0,0,4.56,4.07,7.81,7.81,0,0,0,3.18.49,8.23,8.23,0,0,0,4.39-1.36,8.88,8.88,0,0,0,2.73-2.82l2.55,1.92a12.38,12.38,0,0,1-4.34,3.82,12.74,12.74,0,0,1-5.21,1.32,12.24,12.24,0,0,1-4.71-.69,11.1,11.1,0,0,1-3.82-2.29,11.73,11.73,0,0,1-2.62-3.63,12.05,12.05,0,0,1-1.13-4.65,12.28,12.28,0,0,1,.65-4.74,11.12,11.12,0,0,1,5.82-6.5,11.42,11.42,0,0,1,4.51-1.08,11.24,11.24,0,0,1,4.69.71,10.4,10.4,0,0,1,3.55,2.29,10.27,10.27,0,0,1,2.26,3.47,12.74,12.74,0,0,1,.89,4.31l.06,1.44C712.51,438.76,708.72,438.92,701.13,439.28ZM716.5,436a7.06,7.06,0,0,0-2.16-5.12,7.28,7.28,0,0,0-5.55-1.77,8.06,8.06,0,0,0-3,.73,8.53,8.53,0,0,0-2.49,1.73,7.6,7.6,0,0,0-1.65,2.38,5.87,5.87,0,0,0-.54,2.71C707.26,436.4,710.34,436.26,716.5,436Z"/><path d="M744.33,430.91a6.9,6.9,0,0,0-5.8-2.83,9,9,0,0,0-3.58.73,7.91,7.91,0,0,0-2.66,1.95,8.29,8.29,0,0,0-1.62,2.91,11.22,11.22,0,0,0,.23,7.15,7.83,7.83,0,0,0,4.54,4.59,8.62,8.62,0,0,0,3.58.52,6.8,6.8,0,0,0,5.6-3.12l2.67,1.9a10.86,10.86,0,0,1-3.76,3,11.57,11.57,0,0,1-4.43,1.1,12.82,12.82,0,0,1-5-.69,11.18,11.18,0,0,1-3.88-2.35,10.7,10.7,0,0,1-2.53-3.69,14,14,0,0,1-.31-9.45,10.47,10.47,0,0,1,2.29-3.85,11.16,11.16,0,0,1,3.77-2.59,12.73,12.73,0,0,1,5-1,11.55,11.55,0,0,1,4.53.86,10.79,10.79,0,0,1,3.94,2.81Z"/><path d="M752.78,411.61l3.26-.06.32,17.42h.1a7.43,7.43,0,0,1,1.34-1.71,8.91,8.91,0,0,1,1.84-1.35,10.26,10.26,0,0,1,2.16-.9,8.63,8.63,0,0,1,2.28-.34c2.94-.05,5.12.69,6.54,2.19a9.25,9.25,0,0,1,2.17,6.48l.15,14.26-3.2,0-.15-12.43a10.46,10.46,0,0,0-1.38-5.72c-.9-1.31-2.54-2-4.92-1.92a11.38,11.38,0,0,0-1.37.21,6.19,6.19,0,0,0-2.36,1.09,7.62,7.62,0,0,0-2.17,2.64,9.66,9.66,0,0,0-.89,4.81c.08,4.61.13,6.91.21,11.52l-3.2.06Q753.15,429.76,752.78,411.61Z"/><path d="M785.35,425.05c.07.61.11,1.21.13,1.8s0,1.19,0,1.8h.1A7.43,7.43,0,0,1,787,427a8.92,8.92,0,0,1,1.86-1.32,10.13,10.13,0,0,1,2.18-.87,8.57,8.57,0,0,1,2.28-.31c2.94,0,5.11.77,6.51,2.29a9.29,9.29,0,0,1,2.07,6.51c0,5.71,0,8.56-.07,14.26h-3.19l0-12.43a10.4,10.4,0,0,0-1.31-5.74c-.87-1.33-2.51-2-4.89-2a12,12,0,0,0-1.37.19,6,6,0,0,0-2.37,1.06,7.52,7.52,0,0,0-2.21,2.6,9.73,9.73,0,0,0-1,4.8c0,4.61,0,6.91,0,11.52l-3.2,0c0-7,0-10.52-.09-17.52q0-.92-.09-2.31t-.18-2.64Z"/><path d="M816.27,416.54a2.08,2.08,0,0,1-.76,1.64,2.36,2.36,0,0,1-3.24,0,2.09,2.09,0,0,1-.72-1.66,2.05,2.05,0,0,1,.75-1.65,2.38,2.38,0,0,1,1.63-.63,2.35,2.35,0,0,1,1.62.66A2.09,2.09,0,0,1,816.27,416.54Zm-1.1,31.09-3.19,0c.08-9,.13-13.47.22-22.46l3.23,0C815.33,434.15,815.28,438.64,815.17,447.63Z"/><path d="M841.76,430.93a7,7,0,0,0-2.27-2.17,6.85,6.85,0,0,0-3.38-.94,8.9,8.9,0,0,0-3.61.55,7.78,7.78,0,0,0-2.75,1.82A7.87,7.87,0,0,0,828,433a11.22,11.22,0,0,0-.13,7.15,8.17,8.17,0,0,0,1.65,2.89,7.93,7.93,0,0,0,2.66,1.92,8.75,8.75,0,0,0,3.55.7,6.73,6.73,0,0,0,3.39-.78,7,7,0,0,0,2.36-2.06l2.57,2a10.86,10.86,0,0,1-3.91,2.8,11.47,11.47,0,0,1-4.48.88,12.76,12.76,0,0,1-5-.94,11.15,11.15,0,0,1-3.75-2.54,10.5,10.5,0,0,1-2.34-3.81,14,14,0,0,1,.15-9.46,10.5,10.5,0,0,1,2.49-3.72,10.92,10.92,0,0,1,3.89-2.4,12.86,12.86,0,0,1,5.06-.74,11.8,11.8,0,0,1,4.48,1.09,10.89,10.89,0,0,1,3.8,3Z"/><path d="M865.12,435.07c0-.23,0-.35,0-.58.14-3.86-1.75-5.88-5.66-6a10.25,10.25,0,0,0-7.08,2.41l-1.88-2.31q3.32-3.16,9.79-2.95a10.72,10.72,0,0,1,3.2.59,7.35,7.35,0,0,1,2.61,1.56,7.18,7.18,0,0,1,1.72,2.54,8.47,8.47,0,0,1,.54,3.58c-.15,4-.23,6-.39,10,0,.87,0,1.77,0,2.72s.1,1.72.18,2.33l-3.1-.12a15.59,15.59,0,0,1-.15-1.78c0-.64,0-1.26,0-1.87h-.09a8.7,8.7,0,0,1-3.44,3.12,10.09,10.09,0,0,1-4.71.82,10.37,10.37,0,0,1-2.89-.5,7.47,7.47,0,0,1-2.46-1.32,6.45,6.45,0,0,1-1.68-2.12,6,6,0,0,1-.57-2.87,6.07,6.07,0,0,1,1.56-4.25,8.8,8.8,0,0,1,3.68-2.22A18.4,18.4,0,0,1,859,435c1.64-.07,3.15-.08,4.52,0Zm-1.75,2.53c-.81,0-1.82,0-3,0a17.57,17.57,0,0,0-3.52.46,7.9,7.9,0,0,0-2.92,1.32,3.2,3.2,0,0,0-1.27,2.6,3.74,3.74,0,0,0,.4,1.91,3.85,3.85,0,0,0,1.2,1.34,5.26,5.26,0,0,0,1.7.77,8.16,8.16,0,0,0,1.91.28,7.48,7.48,0,0,0,3-.47,6.41,6.41,0,0,0,2.21-1.48,6.27,6.27,0,0,0,1.37-2.26,9.39,9.39,0,0,0,.52-2.79l.06-1.63Z"/><path d="M881.07,449.52l-3.19-.15,1.59-36.25,3.26.15Q881.89,431.39,881.07,449.52Z"/><path d="M935.83,447.41a12.94,12.94,0,0,1-2.33,2.28,14,14,0,0,1-3.07,1.78,17.08,17.08,0,0,1-7.72,1.27,18.89,18.89,0,0,1-7-1.81,17.66,17.66,0,0,1-5.44-4.06,17.23,17.23,0,0,1-3.42-5.86,18.39,18.39,0,0,1-1-7.22,18.07,18.07,0,0,1,1.79-7.06,16.9,16.9,0,0,1,4.13-5.4,17.65,17.65,0,0,1,6-3.36,19.13,19.13,0,0,1,7.3-.87,18,18,0,0,1,6.41,1.7,13,13,0,0,1,5.26,4.52c-1.31.8-2,1.21-3.26,2a8.08,8.08,0,0,0-1.35-1.73,10.58,10.58,0,0,0-2-1.59,12.85,12.85,0,0,0-2.51-1.18,10,10,0,0,0-2.72-.57,14.24,14.24,0,0,0-6.07.8,13.54,13.54,0,0,0-4.7,2.92,14.08,14.08,0,0,0-3.1,4.5,15.94,15.94,0,0,0-1.31,5.53,16.11,16.11,0,0,0,.63,5.64,14.4,14.4,0,0,0,2.51,4.84A13.44,13.44,0,0,0,917.1,448a14.18,14.18,0,0,0,5.83,1.59,15.23,15.23,0,0,0,2.7-.06,11.51,11.51,0,0,0,2.67-.63,10.14,10.14,0,0,0,2.53-1.39,11.67,11.67,0,0,0,2.29-2.31C934.21,446.07,934.75,446.52,935.83,447.41Z"/><path d="M965.91,444a12,12,0,0,1-1.32,4.6,11.26,11.26,0,0,1-2.82,3.51,11.51,11.51,0,0,1-4,2.14,13.06,13.06,0,0,1-4.93.47,12.79,12.79,0,0,1-4.74-1.28,11.2,11.2,0,0,1-5.8-6.69,12.71,12.71,0,0,1,.72-9.38,11.17,11.17,0,0,1,6.83-5.7,13,13,0,0,1,4.94-.48,13.16,13.16,0,0,1,4.84,1.29,11.42,11.42,0,0,1,3.61,2.8,11.16,11.16,0,0,1,2.19,4A12.14,12.14,0,0,1,965.91,444Zm-3.5-.31a9.93,9.93,0,0,0-.3-3.55,8.31,8.31,0,0,0-1.49-3,8,8,0,0,0-2.54-2.12,8.91,8.91,0,0,0-3.53-1,8.79,8.79,0,0,0-3.64.4,7.77,7.77,0,0,0-2.84,1.67,8.57,8.57,0,0,0-1.93,2.69,10,10,0,0,0-.88,3.44,9.85,9.85,0,0,0,.33,3.54,8.65,8.65,0,0,0,1.47,3,7.87,7.87,0,0,0,2.52,2.11,9.59,9.59,0,0,0,7.11.59,8.45,8.45,0,0,0,2.85-1.66,8.56,8.56,0,0,0,2-2.68A9.88,9.88,0,0,0,962.41,443.68Z"/><path d="M977.8,433.8c0,.61,0,1.21,0,1.8s-.09,1.19-.15,1.8h.1a7.2,7.2,0,0,1,1.53-1.54,8.8,8.8,0,0,1,2-1.14,10.19,10.19,0,0,1,2.25-.65,9,9,0,0,1,2.3-.09q4.4.43,6.27,2.93t1.42,6.68c-.58,5.67-.88,8.51-1.46,14.18l-3.19-.33c.51-4.94.76-7.42,1.26-12.36a10.32,10.32,0,0,0-.73-5.84c-.74-1.41-2.31-2.24-4.68-2.47a10.56,10.56,0,0,0-1.38.06,5.89,5.89,0,0,0-2.47.82,7.67,7.67,0,0,0-2.46,2.36,9.78,9.78,0,0,0-1.43,4.69c-.44,4.59-.65,6.88-1.09,11.47l-3.18-.3c.65-7,1-10.47,1.62-17.45.06-.6.11-1.37.14-2.3s.06-1.81.08-2.64Z"/><path d="M1015.29,440.62l-6.57-.74c-.59,5.27-.88,7.9-1.47,13.17a7.23,7.23,0,0,0,0,2.05,2.83,2.83,0,0,0,.54,1.29,2.29,2.29,0,0,0,1,.71,4.75,4.75,0,0,0,1.31.32,6.25,6.25,0,0,0,1.72-.05,8.4,8.4,0,0,0,1.66-.43c-.08,1.17-.11,1.75-.19,2.92a10.45,10.45,0,0,1-4.38.33,7.93,7.93,0,0,1-1.88-.46,4.61,4.61,0,0,1-1.71-1.1,5.17,5.17,0,0,1-1.15-2,7.4,7.4,0,0,1-.2-3.07c.62-5.63.92-8.44,1.54-14.08l-4.82-.52.3-2.86,4.83.52c.28-2.52.42-3.78.69-6.3l3.23.36-.7,6.3,6.59.74C1015.49,438.9,1015.42,439.48,1015.29,440.62Z"/><path d="M1021.47,445.5c.12-1,.21-2,.29-3s.18-2.34.34-4l3.17.38-.5,4.14.1,0a7,7,0,0,1,1.18-1.63,7.58,7.58,0,0,1,1.72-1.31,7.51,7.51,0,0,1,2.22-.82,8.38,8.38,0,0,1,2.76-.07,8.79,8.79,0,0,1,2.35.58l-1,3a5.31,5.31,0,0,0-1.82-.47,6.85,6.85,0,0,0-3.25.3,7.18,7.18,0,0,0-2.4,1.5,7.09,7.09,0,0,0-1.56,2.16,7.37,7.37,0,0,0-.7,2.33c-.6,5-.9,7.55-1.51,12.58l-3.18-.38C1020.39,454.7,1020.75,451.64,1021.47,445.5Z"/><path d="M1060.68,454.79a12,12,0,0,1-1.54,4.53,11.29,11.29,0,0,1-3,3.37,11.55,11.55,0,0,1-4.11,1.94,13.36,13.36,0,0,1-5,.23,12.84,12.84,0,0,1-4.67-1.51,11.24,11.24,0,0,1-5.48-7,12.77,12.77,0,0,1,1.18-9.33,11.24,11.24,0,0,1,3-3.4,11.52,11.52,0,0,1,4.13-2A14,14,0,0,1,1055,443a11.56,11.56,0,0,1,3.48,3,11.2,11.2,0,0,1,2,4.05A12.13,12.13,0,0,1,1060.68,454.79Zm-3.48-.48a10.07,10.07,0,0,0-.13-3.56,8.43,8.43,0,0,0-1.34-3,8.2,8.2,0,0,0-2.44-2.24,9.62,9.62,0,0,0-7.15-1,8,8,0,0,0-2.91,1.54,8.55,8.55,0,0,0-2.07,2.59,10.35,10.35,0,0,0-.89,7,8.7,8.7,0,0,0,1.33,3,7.94,7.94,0,0,0,2.41,2.23,8.79,8.79,0,0,0,3.45,1.15,8.69,8.69,0,0,0,3.63-.21,8.1,8.1,0,0,0,2.93-1.52,8.4,8.4,0,0,0,2.1-2.57A10.06,10.06,0,0,0,1057.2,454.31Z"/><path d="M1070.72,467.56l-3.17-.46q2.58-18,5.15-35.92l3.23.46Q1073.32,449.61,1070.72,467.56Z"/><path d="M1094.84,453.86a5.82,5.82,0,0,0-1.6-2.48,5.21,5.21,0,0,0-2.83-1.26,7.38,7.38,0,0,0-1.7-.07,5.19,5.19,0,0,0-1.62.36,3.35,3.35,0,0,0-1.25.85,2.69,2.69,0,0,0-.64,1.46,2.54,2.54,0,0,0,.77,2.45,11.59,11.59,0,0,0,3.15,1.74l3.12,1.26a7.75,7.75,0,0,1,3.6,2.73,5.45,5.45,0,0,1,.94,4.2,6.19,6.19,0,0,1-1.24,3,6.35,6.35,0,0,1-2.3,1.82,8.5,8.5,0,0,1-3,.77,14.31,14.31,0,0,1-3.27-.11,12.29,12.29,0,0,1-4.68-1.71,9,9,0,0,1-3.32-3.92l3-1.44a7.61,7.61,0,0,0,2.07,2.79,6.7,6.7,0,0,0,3.34,1.43,8.54,8.54,0,0,0,2,.08,5.45,5.45,0,0,0,1.81-.4,3.76,3.76,0,0,0,1.38-1,3.07,3.07,0,0,0,.72-1.59,2.59,2.59,0,0,0-.88-2.59,10.9,10.9,0,0,0-2.86-1.63l-3-1.19c-.37-.15-.87-.39-1.49-.71a7.63,7.63,0,0,1-1.79-1.29,6.1,6.1,0,0,1-1.35-2,4.87,4.87,0,0,1-.29-2.73,6.29,6.29,0,0,1,1.15-2.89A6.11,6.11,0,0,1,1085,448a8.65,8.65,0,0,1,2.88-.8,11.64,11.64,0,0,1,3.17.07,10.73,10.73,0,0,1,4.28,1.59,6.47,6.47,0,0,1,2.67,3.57Z"/></svg>