<?xml version="1.0" encoding="utf-8"?>
<!-- Generator: Adobe Illustrator 26.0.1, SVG Export Plug-In . SVG Version: 6.00 Build 0)  -->
<svg version="1.1" id="Layer_1" xmlns="http://www.w3.org/2000/svg" xmlns:xlink="http://www.w3.org/1999/xlink" x="0px" y="0px"
	 width="1584px" height="1224px" viewBox="0 0 1584 1224" style="enable-background:new 0 0 1584 1224;" xml:space="preserve">
<style type="text/css">
	.Graphic_x0020_Style{fill:none;stroke:#221F1F;stroke-width:4;stroke-miterlimit:10;}
	.Graphic_x0020_Style_x0020_3{fill:none;stroke:#221F1F;stroke-width:4;stroke-miterlimit:10;}
	.st0{fill:none;stroke:#CCCCCC;stroke-width:3;stroke-miterlimit:10;}
	.st1{fill:#221F1F;}
	.st2{fill:#007EB1;}
	.st3{fill:#FFFFFF;}
	.st4{fill:#E6E7E8;stroke:#E6E7E8;stroke-width:0.1093;stroke-miterlimit:10;}
	.st5{fill:#535E6F;}
	.st6{fill:#D1D3D4;}
	.st7{fill:#E5E8EC;}
	.st8{fill:#231F20;}
	.st9{fill:#DA811F;}
</style>
<line class="st0" x1="777.7" y1="65.8" x2="777.7" y2="1165.8"/>
<g>
	<g>
		<line class="Graphic_x0020_Style" x1="254.6" y1="437.2" x2="254.6" y2="549.7"/>
		<g>
			<polygon class="st1" points="245.9,543.8 254.6,576.3 263.3,543.8 			"/>
		</g>
	</g>
</g>
<g>
	<g>
		<line class="Graphic_x0020_Style" x1="254.6" y1="815.4" x2="254.6" y2="918.2"/>
		<g>
			<polygon class="st1" points="245.9,912.3 254.6,944.8 263.3,912.3 			"/>
		</g>
	</g>
</g>
<g>
	<g>
		<polyline class="Graphic_x0020_Style_x0020_3" points="969.3,569.1 969.3,1005.4 1095,1005.4 		"/>
		<g>
			<polygon class="st1" points="960.6,575 969.3,542.5 978,575 			"/>
		</g>
		<g>
			<polygon class="st1" points="1089,1014.1 1121.6,1005.4 1089,996.6 			"/>
		</g>
	</g>
</g>
<g>
	<g>
		<line class="Graphic_x0020_Style" x1="350.5" y1="271.4" x2="463.1" y2="271.4"/>
		<g>
			<polygon class="st1" points="457.2,280.2 489.7,271.4 457.2,262.7 			"/>
		</g>
	</g>
</g>
<g>
	<g>
		<line class="Graphic_x0020_Style" x1="1065.6" y1="271.4" x2="1193.6" y2="271.4"/>
		<g>
			<polygon class="st1" points="1187.7,280.2 1220.2,271.4 1187.7,262.7 			"/>
		</g>
	</g>
</g>
<g>
	<path class="st2" d="M422.8,1045.9H84.4c-3.2,0-5.8-2.6-5.8-5.8v-69.6c0-3.2,2.6-5.8,5.8-5.8h338.4c3.2,0,5.8,2.6,5.8,5.8v69.6
		C428.6,1043.3,426,1045.9,422.8,1045.9z"/>
	<g>
		<path class="st3" d="M104.4,1017.4c-1.9,0-3.7-0.3-5.3-1c-1.6-0.7-3-1.6-4.2-2.8c-1.2-1.2-2.1-2.6-2.7-4.2c-0.7-1.6-1-3.4-1-5.3
			c0-1.9,0.3-3.6,1-5.3c0.7-1.6,1.6-3,2.7-4.2c1.2-1.2,2.6-2.1,4.2-2.8c1.6-0.7,3.4-1,5.3-1s3.7,0.3,5.3,1c1.6,0.7,3,1.6,4.2,2.8
			c1.2,1.2,2.1,2.6,2.7,4.2c0.7,1.6,1,3.4,1,5.3c0,1.9-0.3,3.6-1,5.3c-0.7,1.6-1.6,3-2.7,4.2c-1.2,1.2-2.6,2.1-4.2,2.8
			C108.1,1017.1,106.3,1017.4,104.4,1017.4z M104.4,1014.2c1.5,0,2.8-0.3,3.9-0.8c1.2-0.5,2.2-1.3,3-2.2c0.8-0.9,1.5-2,1.9-3.2
			c0.5-1.2,0.7-2.5,0.7-3.9c0-1.4-0.2-2.7-0.7-3.9c-0.5-1.2-1.1-2.3-1.9-3.2c-0.8-0.9-1.8-1.6-3-2.2c-1.2-0.5-2.5-0.8-3.9-0.8
			c-1.5,0-2.8,0.3-3.9,0.8c-1.2,0.5-2.2,1.3-3,2.2c-0.8,0.9-1.5,2-1.9,3.2c-0.5,1.2-0.7,2.5-0.7,3.9c0,1.4,0.2,2.7,0.7,3.9
			c0.5,1.2,1.1,2.3,1.9,3.2s1.8,1.6,3,2.2C101.6,1013.9,102.9,1014.2,104.4,1014.2z"/>
		<path class="st3" d="M122.8,999.8h3.2v2.6h0.1c0.2-0.5,0.5-0.9,0.9-1.2c0.4-0.4,0.8-0.7,1.2-1c0.4-0.3,0.9-0.5,1.5-0.6
			c0.5-0.2,1.1-0.2,1.6-0.2c0.5,0,1,0.1,1.4,0.2l-0.1,3.5c-0.3-0.1-0.5-0.1-0.8-0.2c-0.3,0-0.5-0.1-0.8-0.1c-1.6,0-2.8,0.4-3.6,1.3
			s-1.3,2.3-1.3,4.1v8.5h-3.2V999.8z"/>
		<path class="st3" d="M136.7,993.7c0-0.6,0.2-1.2,0.7-1.7c0.5-0.5,1-0.7,1.7-0.7c0.6,0,1.2,0.2,1.7,0.7c0.5,0.5,0.7,1,0.7,1.7
			c0,0.6-0.2,1.2-0.7,1.7s-1,0.7-1.7,0.7c-0.6,0-1.2-0.2-1.7-0.7C136.9,994.9,136.7,994.3,136.7,993.7z M137.4,999.8h3.2v17h-3.2
			V999.8z"/>
		<path class="st3" d="M163.9,1016.6c0,1.3-0.2,2.5-0.7,3.5c-0.4,1.1-1.1,2-1.9,2.8c-0.8,0.8-1.8,1.4-2.9,1.8s-2.4,0.6-3.8,0.6
			c-1.6,0-3.1-0.2-4.5-0.7c-1.4-0.5-2.6-1.2-3.9-2.4l2.2-2.7c0.8,0.9,1.7,1.6,2.7,2.1c1,0.5,2.1,0.7,3.3,0.7c1.2,0,2.2-0.2,3-0.5
			s1.4-0.8,1.9-1.3s0.8-1.2,1-1.9c0.2-0.7,0.3-1.4,0.3-2.1v-2.5h-0.1c-0.6,1-1.5,1.8-2.5,2.3c-1.1,0.5-2.2,0.7-3.4,0.7
			c-1.2,0-2.4-0.2-3.5-0.7c-1.1-0.4-2-1.1-2.7-1.8c-0.8-0.8-1.4-1.7-1.8-2.8c-0.4-1.1-0.6-2.2-0.6-3.5c0-1.2,0.2-2.4,0.6-3.5
			c0.4-1.1,1-2,1.7-2.8c0.8-0.8,1.7-1.4,2.7-1.9c1.1-0.5,2.3-0.7,3.6-0.7c1.1,0,2.3,0.3,3.4,0.8c1.1,0.5,1.9,1.2,2.6,2.1h0.1v-2.4
			h3.2V1016.6z M155,1002.3c-0.9,0-1.6,0.2-2.3,0.4c-0.7,0.3-1.3,0.7-1.8,1.2c-0.5,0.5-0.8,1.1-1.1,1.9c-0.3,0.7-0.4,1.5-0.4,2.4
			c0,1.7,0.5,3.1,1.5,4.1c1,1,2.4,1.6,4.1,1.6c1.7,0,3.1-0.5,4.1-1.6c1-1,1.5-2.4,1.5-4.1c0-0.9-0.1-1.7-0.4-2.4
			c-0.3-0.7-0.6-1.3-1.1-1.9c-0.5-0.5-1.1-0.9-1.8-1.2C156.7,1002.5,155.9,1002.3,155,1002.3z"/>
		<path class="st3" d="M169.3,993.7c0-0.6,0.2-1.2,0.7-1.7c0.5-0.5,1-0.7,1.7-0.7c0.6,0,1.2,0.2,1.7,0.7c0.5,0.5,0.7,1,0.7,1.7
			c0,0.6-0.2,1.2-0.7,1.7s-1,0.7-1.7,0.7c-0.6,0-1.2-0.2-1.7-0.7C169.5,994.9,169.3,994.3,169.3,993.7z M170.1,999.8h3.2v17h-3.2
			V999.8z"/>
		<path class="st3" d="M179.5,999.8h3.2v2.6h0.1c0.4-0.9,1.1-1.6,2.1-2.2s2.2-0.8,3.5-0.8c0.8,0,1.6,0.1,2.3,0.4
			c0.8,0.3,1.4,0.6,2,1.2c0.6,0.5,1,1.2,1.3,2s0.5,1.8,0.5,2.9v10.9h-3.2v-10c0-0.8-0.1-1.5-0.3-2c-0.2-0.6-0.5-1-0.9-1.4
			s-0.8-0.6-1.2-0.8c-0.5-0.2-1-0.2-1.5-0.2c-0.7,0-1.3,0.1-1.9,0.3c-0.6,0.2-1.1,0.6-1.5,1c-0.4,0.5-0.8,1.1-1,1.8
			c-0.2,0.7-0.4,1.6-0.4,2.5v8.7h-3.2V999.8z"/>
		<path class="st3" d="M200.6,1001.8c0.9-0.8,2-1.5,3.2-1.9s2.4-0.6,3.6-0.6c1.2,0,2.3,0.2,3.2,0.5c0.9,0.3,1.6,0.7,2.2,1.3
			c0.6,0.5,1,1.1,1.3,1.8c0.3,0.7,0.4,1.4,0.4,2.1v8.7c0,0.6,0,1.1,0,1.6c0,0.5,0.1,1,0.1,1.4h-2.9c-0.1-0.9-0.1-1.7-0.1-2.6h-0.1
			c-0.7,1.1-1.6,1.9-2.5,2.3c-1,0.5-2.1,0.7-3.4,0.7c-0.8,0-1.5-0.1-2.3-0.3s-1.3-0.5-1.9-1c-0.5-0.4-1-1-1.3-1.6
			c-0.3-0.6-0.5-1.4-0.5-2.2c0-1.1,0.2-2,0.7-2.8c0.5-0.7,1.2-1.3,2-1.8c0.8-0.5,1.8-0.8,3-1c1.1-0.2,2.3-0.3,3.6-0.3h2.4v-0.7
			c0-0.4-0.1-0.9-0.3-1.3c-0.2-0.4-0.4-0.8-0.8-1.2c-0.3-0.3-0.8-0.6-1.3-0.8c-0.5-0.2-1.1-0.3-1.8-0.3c-0.6,0-1.2,0.1-1.6,0.2
			c-0.5,0.1-0.9,0.3-1.3,0.4c-0.4,0.2-0.7,0.4-1,0.6c-0.3,0.2-0.6,0.5-0.9,0.7L200.6,1001.8z M209.7,1008.6c-0.8,0-1.5,0-2.3,0.1
			c-0.8,0.1-1.5,0.2-2.2,0.5c-0.7,0.2-1.2,0.6-1.6,1c-0.4,0.4-0.6,1-0.6,1.6c0,1,0.3,1.7,1,2.1c0.7,0.4,1.5,0.6,2.7,0.6
			c0.9,0,1.6-0.1,2.3-0.4c0.6-0.3,1.1-0.7,1.5-1.2c0.4-0.5,0.7-1,0.8-1.6c0.2-0.6,0.3-1.2,0.3-1.7v-1.1H209.7z"/>
		<path class="st3" d="M229.3,1002.6h-4.6v7.7c0,0.5,0,0.9,0,1.4c0,0.5,0.1,0.9,0.3,1.3c0.2,0.4,0.4,0.7,0.7,0.9
			c0.3,0.2,0.8,0.3,1.4,0.3c0.4,0,0.8,0,1.2-0.1c0.4-0.1,0.8-0.2,1.1-0.4v2.9c-0.4,0.2-0.9,0.4-1.5,0.4c-0.6,0.1-1.1,0.1-1.4,0.1
			c-1.2,0-2.2-0.2-2.9-0.5c-0.7-0.3-1.2-0.8-1.5-1.3c-0.3-0.5-0.5-1.2-0.6-1.8c-0.1-0.7-0.1-1.4-0.1-2.1v-8.9h-3.7v-2.8h3.7V995h3.2
			v4.8h4.6V1002.6z"/>
		<path class="st3" d="M233.7,1008.3c0-1.2,0.2-2.4,0.7-3.5c0.5-1.1,1.1-2,1.9-2.8c0.8-0.8,1.8-1.5,2.9-1.9s2.3-0.7,3.5-0.7
			c1.3,0,2.4,0.2,3.5,0.7c1.1,0.5,2.1,1.1,2.9,1.9c0.8,0.8,1.5,1.8,1.9,2.8c0.5,1.1,0.7,2.2,0.7,3.5c0,1.2-0.2,2.4-0.7,3.5
			c-0.5,1.1-1.1,2-1.9,2.8c-0.8,0.8-1.8,1.4-2.9,1.9c-1.1,0.5-2.3,0.7-3.5,0.7c-1.3,0-2.4-0.2-3.5-0.7s-2.1-1.1-2.9-1.9
			c-0.8-0.8-1.5-1.7-1.9-2.8C233.9,1010.7,233.7,1009.5,233.7,1008.3z M237.1,1008.3c0,0.9,0.1,1.7,0.4,2.4c0.3,0.7,0.6,1.4,1.1,1.9
			s1.1,0.9,1.8,1.2c0.7,0.3,1.5,0.4,2.3,0.4c0.9,0,1.6-0.1,2.3-0.4c0.7-0.3,1.3-0.7,1.8-1.2c0.5-0.5,0.8-1.1,1.1-1.9
			c0.3-0.7,0.4-1.5,0.4-2.4c0-0.9-0.1-1.7-0.4-2.4c-0.3-0.7-0.6-1.3-1.1-1.9c-0.5-0.5-1.1-0.9-1.8-1.2c-0.7-0.3-1.5-0.4-2.3-0.4
			c-0.9,0-1.6,0.2-2.3,0.4c-0.7,0.3-1.3,0.7-1.8,1.2c-0.5,0.5-0.8,1.1-1.1,1.9C237.2,1006.6,237.1,1007.4,237.1,1008.3z"/>
		<path class="st3" d="M256.9,999.8h3.2v2.6h0.1c0.2-0.5,0.5-0.9,0.9-1.2c0.4-0.4,0.8-0.7,1.2-1c0.4-0.3,0.9-0.5,1.5-0.6
			c0.5-0.2,1.1-0.2,1.6-0.2c0.5,0,1,0.1,1.4,0.2l-0.1,3.5c-0.3-0.1-0.5-0.1-0.8-0.2c-0.3,0-0.5-0.1-0.8-0.1c-1.6,0-2.8,0.4-3.6,1.3
			s-1.3,2.3-1.3,4.1v8.5h-3.2V999.8z"/>
		<path class="st3" d="M273.7,1000.2h-2.9l2.5-8.8h3.4L273.7,1000.2z"/>
		<path class="st3" d="M288.6,1004c-0.4-0.5-0.9-0.9-1.4-1.2s-1.2-0.5-2.1-0.5c-0.8,0-1.4,0.2-2,0.5s-0.8,0.8-0.8,1.4
			c0,0.5,0.2,0.9,0.5,1.2c0.3,0.3,0.7,0.6,1.1,0.8c0.4,0.2,0.9,0.3,1.4,0.4s0.9,0.2,1.3,0.3c0.7,0.2,1.3,0.4,2,0.6s1.1,0.5,1.6,0.9
			c0.4,0.4,0.8,0.8,1,1.4c0.3,0.5,0.4,1.2,0.4,2c0,1-0.2,1.8-0.6,2.5c-0.4,0.7-0.9,1.2-1.6,1.7c-0.6,0.4-1.4,0.7-2.2,0.9
			c-0.8,0.2-1.7,0.3-2.5,0.3c-1.4,0-2.6-0.2-3.7-0.6c-1.1-0.4-2-1.2-2.8-2.4l2.4-2c0.5,0.5,1.1,1,1.8,1.4c0.6,0.4,1.4,0.6,2.4,0.6
			c0.4,0,0.8,0,1.2-0.1c0.4-0.1,0.8-0.2,1.1-0.4c0.3-0.2,0.6-0.4,0.8-0.7c0.2-0.3,0.3-0.6,0.3-1c0-0.5-0.1-0.9-0.4-1.2
			c-0.3-0.3-0.7-0.6-1.1-0.7c-0.4-0.2-0.9-0.3-1.3-0.4s-0.9-0.2-1.2-0.3c-0.7-0.2-1.4-0.4-2-0.6c-0.6-0.2-1.2-0.5-1.6-0.9
			s-0.9-0.8-1.1-1.4c-0.3-0.5-0.4-1.2-0.4-2c0-0.9,0.2-1.7,0.6-2.3c0.4-0.7,0.9-1.2,1.5-1.6c0.6-0.4,1.3-0.8,2.1-1
			c0.8-0.2,1.6-0.3,2.3-0.3c1.1,0,2.2,0.2,3.3,0.6c1.1,0.4,1.9,1.1,2.5,2.2L288.6,1004z"/>
		<path class="st3" d="M307.9,991.4h8.9c1.8,0,3.4,0.2,4.7,0.6c1.3,0.4,2.5,1,3.5,1.6c1,0.7,1.8,1.5,2.5,2.3
			c0.7,0.9,1.2,1.8,1.6,2.7c0.4,0.9,0.7,1.9,0.8,2.8c0.2,0.9,0.3,1.8,0.3,2.6c0,1.6-0.3,3.2-0.9,4.7c-0.6,1.5-1.5,2.9-2.7,4
			c-1.2,1.2-2.6,2.1-4.4,2.8c-1.7,0.7-3.7,1.1-6,1.1h-8.3V991.4z M311.3,1013.5h4.3c1.5,0,2.8-0.2,4.1-0.6c1.3-0.4,2.4-1,3.4-1.8
			c1-0.8,1.8-1.8,2.3-3c0.6-1.2,0.9-2.6,0.9-4.1c0-0.8-0.1-1.8-0.4-2.8c-0.3-1.1-0.8-2.1-1.5-3.1c-0.7-1-1.7-1.8-3-2.5
			c-1.3-0.7-3-1-5-1h-5.2V1013.5z"/>
		<path class="st3" d="M334.8,993.7c0-0.6,0.2-1.2,0.7-1.7c0.5-0.5,1-0.7,1.7-0.7c0.6,0,1.2,0.2,1.7,0.7c0.5,0.5,0.7,1,0.7,1.7
			c0,0.6-0.2,1.2-0.7,1.7s-1,0.7-1.7,0.7c-0.6,0-1.2-0.2-1.7-0.7C335,994.9,334.8,994.3,334.8,993.7z M335.5,999.8h3.2v17h-3.2
			V999.8z"/>
		<path class="st3" d="M362,1016.6c0,1.3-0.2,2.5-0.7,3.5c-0.4,1.1-1.1,2-1.9,2.8c-0.8,0.8-1.8,1.4-2.9,1.8s-2.4,0.6-3.8,0.6
			c-1.6,0-3.1-0.2-4.5-0.7c-1.4-0.5-2.6-1.2-3.9-2.4l2.2-2.7c0.8,0.9,1.7,1.6,2.7,2.1c1,0.5,2.1,0.7,3.3,0.7c1.2,0,2.2-0.2,3-0.5
			s1.4-0.8,1.9-1.3s0.8-1.2,1-1.9c0.2-0.7,0.3-1.4,0.3-2.1v-2.5h-0.1c-0.6,1-1.5,1.8-2.5,2.3c-1.1,0.5-2.2,0.7-3.4,0.7
			c-1.2,0-2.4-0.2-3.5-0.7c-1.1-0.4-2-1.1-2.7-1.8c-0.8-0.8-1.4-1.7-1.8-2.8c-0.4-1.1-0.6-2.2-0.6-3.5c0-1.2,0.2-2.4,0.6-3.5
			c0.4-1.1,1-2,1.7-2.8c0.8-0.8,1.7-1.4,2.7-1.9c1.1-0.5,2.3-0.7,3.6-0.7c1.1,0,2.3,0.3,3.4,0.8c1.1,0.5,1.9,1.2,2.6,2.1h0.1v-2.4
			h3.2V1016.6z M353.1,1002.3c-0.9,0-1.6,0.2-2.3,0.4c-0.7,0.3-1.3,0.7-1.8,1.2c-0.5,0.5-0.8,1.1-1.1,1.9c-0.3,0.7-0.4,1.5-0.4,2.4
			c0,1.7,0.5,3.1,1.5,4.1c1,1,2.4,1.6,4.1,1.6c1.7,0,3.1-0.5,4.1-1.6c1-1,1.5-2.4,1.5-4.1c0-0.9-0.1-1.7-0.4-2.4
			c-0.3-0.7-0.6-1.3-1.1-1.9c-0.5-0.5-1.1-0.9-1.8-1.2C354.8,1002.5,354,1002.3,353.1,1002.3z"/>
		<path class="st3" d="M370.3,1009.4c0,0.7,0.2,1.4,0.5,2c0.3,0.6,0.7,1.1,1.3,1.6c0.5,0.4,1.1,0.8,1.8,1c0.7,0.2,1.4,0.4,2.2,0.4
			c1,0,1.9-0.2,2.6-0.7c0.7-0.5,1.4-1.1,2-1.8l2.4,1.9c-1.8,2.3-4.3,3.5-7.5,3.5c-1.3,0-2.6-0.2-3.6-0.7c-1.1-0.5-2-1.1-2.8-1.9
			c-0.8-0.8-1.3-1.7-1.7-2.8c-0.4-1.1-0.6-2.3-0.6-3.5c0-1.3,0.2-2.4,0.7-3.5c0.4-1.1,1.1-2,1.8-2.8c0.8-0.8,1.7-1.4,2.8-1.9
			s2.2-0.7,3.5-0.7c1.5,0,2.8,0.3,3.8,0.8c1,0.5,1.9,1.2,2.6,2.1c0.7,0.8,1.2,1.8,1.5,2.9c0.3,1.1,0.4,2.1,0.4,3.2v1.1H370.3z
			 M380.5,1006.9c0-0.7-0.1-1.4-0.3-2c-0.2-0.6-0.5-1.1-0.9-1.6s-0.9-0.8-1.5-1c-0.6-0.3-1.3-0.4-2.1-0.4c-0.8,0-1.5,0.1-2.2,0.4
			c-0.7,0.3-1.2,0.7-1.7,1.2c-0.5,0.5-0.8,1-1.1,1.6c-0.3,0.6-0.4,1.2-0.4,1.7H380.5z"/>
		<path class="st3" d="M397.9,1004c-0.4-0.5-0.9-0.9-1.4-1.2s-1.2-0.5-2.1-0.5c-0.8,0-1.4,0.2-2,0.5s-0.8,0.8-0.8,1.4
			c0,0.5,0.2,0.9,0.5,1.2c0.3,0.3,0.7,0.6,1.1,0.8c0.4,0.2,0.9,0.3,1.4,0.4s0.9,0.2,1.3,0.3c0.7,0.2,1.3,0.4,2,0.6s1.1,0.5,1.6,0.9
			c0.4,0.4,0.8,0.8,1,1.4c0.3,0.5,0.4,1.2,0.4,2c0,1-0.2,1.8-0.6,2.5c-0.4,0.7-0.9,1.2-1.6,1.7c-0.6,0.4-1.4,0.7-2.2,0.9
			c-0.8,0.2-1.7,0.3-2.5,0.3c-1.4,0-2.6-0.2-3.7-0.6c-1.1-0.4-2-1.2-2.8-2.4l2.4-2c0.5,0.5,1.1,1,1.8,1.4c0.6,0.4,1.4,0.6,2.4,0.6
			c0.4,0,0.8,0,1.2-0.1c0.4-0.1,0.8-0.2,1.1-0.4c0.3-0.2,0.6-0.4,0.8-0.7c0.2-0.3,0.3-0.6,0.3-1c0-0.5-0.1-0.9-0.4-1.2
			c-0.3-0.3-0.7-0.6-1.1-0.7c-0.4-0.2-0.9-0.3-1.3-0.4s-0.9-0.2-1.2-0.3c-0.7-0.2-1.4-0.4-2-0.6c-0.6-0.2-1.2-0.5-1.6-0.9
			s-0.9-0.8-1.1-1.4c-0.3-0.5-0.4-1.2-0.4-2c0-0.9,0.2-1.7,0.6-2.3c0.4-0.7,0.9-1.2,1.5-1.6c0.6-0.4,1.3-0.8,2.1-1
			c0.8-0.2,1.6-0.3,2.3-0.3c1.1,0,2.2,0.2,3.3,0.6c1.1,0.4,1.9,1.1,2.5,2.2L397.9,1004z"/>
		<path class="st3" d="M415,1002.6h-4.6v7.7c0,0.5,0,0.9,0,1.4c0,0.5,0.1,0.9,0.3,1.3c0.2,0.4,0.4,0.7,0.7,0.9
			c0.3,0.2,0.8,0.3,1.4,0.3c0.4,0,0.8,0,1.2-0.1c0.4-0.1,0.8-0.2,1.1-0.4v2.9c-0.4,0.2-0.9,0.4-1.5,0.4c-0.6,0.1-1.1,0.1-1.4,0.1
			c-1.2,0-2.2-0.2-2.9-0.5c-0.7-0.3-1.2-0.8-1.5-1.3c-0.3-0.5-0.5-1.2-0.6-1.8c-0.1-0.7-0.1-1.4-0.1-2.1v-8.9h-3.7v-2.8h3.7V995h3.2
			v4.8h4.6V1002.6z"/>
	</g>
</g>
<g>
	<path class="st2" d="M1484,1045.9h-338.4c-3.2,0-5.8-2.6-5.8-5.8v-69.6c0-3.2,2.6-5.8,5.8-5.8H1484c3.2,0,5.8,2.6,5.8,5.8v69.6
		C1489.8,1043.3,1487.2,1045.9,1484,1045.9z"/>
	<g>
		<path class="st3" d="M1169.9,991.4h8.9c1.6,0,3,0.2,4,0.7c1.1,0.4,1.9,1,2.5,1.7c0.6,0.7,1,1.4,1.3,2.3c0.2,0.8,0.4,1.7,0.4,2.5
			c0,0.8-0.1,1.6-0.4,2.3c-0.3,0.8-0.7,1.4-1.2,2c-0.5,0.6-1.2,1.1-2,1.5s-1.6,0.7-2.6,0.8l7.2,11.6h-4.3l-6.5-11.2h-3.8v11.2h-3.4
			V991.4z M1173.3,1002.6h4.5c0.7,0,1.3-0.1,2-0.2c0.7-0.1,1.2-0.3,1.8-0.6c0.5-0.3,0.9-0.7,1.2-1.2c0.3-0.5,0.5-1.2,0.5-2.1
			c0-0.9-0.2-1.6-0.5-2.1c-0.3-0.5-0.7-0.9-1.2-1.2s-1.1-0.5-1.8-0.6c-0.7-0.1-1.3-0.2-2-0.2h-4.5V1002.6z"/>
		<path class="st3" d="M1194.5,1009.4c0,0.7,0.2,1.4,0.5,2s0.7,1.1,1.3,1.6c0.5,0.4,1.1,0.8,1.8,1c0.7,0.2,1.4,0.4,2.2,0.4
			c1,0,1.9-0.2,2.6-0.7c0.7-0.5,1.4-1.1,2-1.8l2.4,1.9c-1.8,2.3-4.3,3.5-7.5,3.5c-1.3,0-2.6-0.2-3.6-0.7c-1.1-0.5-2-1.1-2.8-1.9
			c-0.8-0.8-1.3-1.7-1.7-2.8c-0.4-1.1-0.6-2.3-0.6-3.5c0-1.3,0.2-2.4,0.7-3.5c0.4-1.1,1.1-2,1.8-2.8c0.8-0.8,1.7-1.4,2.8-1.9
			s2.2-0.7,3.5-0.7c1.5,0,2.8,0.3,3.8,0.8s1.9,1.2,2.6,2.1c0.7,0.8,1.2,1.8,1.5,2.9c0.3,1.1,0.4,2.1,0.4,3.2v1.1H1194.5z
			 M1204.7,1006.9c0-0.7-0.1-1.4-0.3-2c-0.2-0.6-0.5-1.1-0.9-1.6s-0.9-0.8-1.5-1c-0.6-0.3-1.3-0.4-2.1-0.4c-0.8,0-1.5,0.1-2.2,0.4
			s-1.2,0.7-1.7,1.2c-0.5,0.5-0.8,1-1.1,1.6c-0.3,0.6-0.4,1.2-0.4,1.7H1204.7z"/>
		<path class="st3" d="M1225.2,1004.3c-0.6-0.6-1.2-1.1-1.9-1.4c-0.7-0.3-1.4-0.5-2.3-0.5c-0.9,0-1.7,0.2-2.3,0.5
			c-0.7,0.3-1.2,0.8-1.6,1.3s-0.8,1.2-1,1.9c-0.2,0.7-0.3,1.5-0.3,2.3c0,0.8,0.1,1.5,0.4,2.2c0.3,0.7,0.6,1.3,1.1,1.8
			c0.5,0.5,1.1,0.9,1.7,1.2s1.4,0.4,2.3,0.4c0.9,0,1.7-0.2,2.3-0.5s1.2-0.8,1.8-1.4l2.3,2.3c-0.8,0.9-1.8,1.6-2.9,2
			c-1.1,0.4-2.3,0.6-3.5,0.6c-1.3,0-2.5-0.2-3.6-0.6c-1.1-0.4-2-1-2.8-1.8c-0.8-0.8-1.4-1.7-1.8-2.8c-0.4-1.1-0.6-2.3-0.6-3.6
			s0.2-2.5,0.6-3.6c0.4-1.1,1-2,1.8-2.8c0.8-0.8,1.7-1.4,2.8-1.8c1.1-0.4,2.3-0.7,3.6-0.7c1.2,0,2.4,0.2,3.6,0.7
			c1.1,0.4,2.1,1.1,3,2L1225.2,1004.3z"/>
		<path class="st3" d="M1233.8,1009.4c0,0.7,0.2,1.4,0.5,2s0.7,1.1,1.3,1.6c0.5,0.4,1.1,0.8,1.8,1c0.7,0.2,1.4,0.4,2.2,0.4
			c1,0,1.9-0.2,2.6-0.7c0.7-0.5,1.4-1.1,2-1.8l2.4,1.9c-1.8,2.3-4.3,3.5-7.5,3.5c-1.3,0-2.6-0.2-3.6-0.7c-1.1-0.5-2-1.1-2.8-1.9
			c-0.8-0.8-1.3-1.7-1.7-2.8c-0.4-1.1-0.6-2.3-0.6-3.5c0-1.3,0.2-2.4,0.7-3.5c0.4-1.1,1.1-2,1.8-2.8c0.8-0.8,1.7-1.4,2.8-1.9
			s2.2-0.7,3.5-0.7c1.5,0,2.8,0.3,3.8,0.8s1.9,1.2,2.6,2.1c0.7,0.8,1.2,1.8,1.5,2.9c0.3,1.1,0.4,2.1,0.4,3.2v1.1H1233.8z
			 M1244,1006.9c0-0.7-0.1-1.4-0.3-2c-0.2-0.6-0.5-1.1-0.9-1.6s-0.9-0.8-1.5-1c-0.6-0.3-1.3-0.4-2.1-0.4c-0.8,0-1.5,0.1-2.2,0.4
			s-1.2,0.7-1.7,1.2c-0.5,0.5-0.8,1-1.1,1.6c-0.3,0.6-0.4,1.2-0.4,1.7H1244z"/>
		<path class="st3" d="M1251.9,993.7c0-0.6,0.2-1.2,0.7-1.7c0.5-0.5,1-0.7,1.7-0.7s1.2,0.2,1.7,0.7c0.5,0.5,0.7,1,0.7,1.7
			c0,0.6-0.2,1.2-0.7,1.7s-1,0.7-1.7,0.7s-1.2-0.2-1.7-0.7C1252.1,994.9,1251.9,994.3,1251.9,993.7z M1252.6,999.8h3.2v17h-3.2
			V999.8z"/>
		<path class="st3" d="M1260,999.8h3.7l5.1,13l4.9-13h3.4l-6.7,17h-3.5L1260,999.8z"/>
		<path class="st3" d="M1283.5,1009.4c0,0.7,0.2,1.4,0.5,2s0.7,1.1,1.3,1.6c0.5,0.4,1.1,0.8,1.8,1c0.7,0.2,1.4,0.4,2.2,0.4
			c1,0,1.9-0.2,2.6-0.7c0.7-0.5,1.4-1.1,2-1.8l2.4,1.9c-1.8,2.3-4.3,3.5-7.5,3.5c-1.3,0-2.6-0.2-3.6-0.7c-1.1-0.5-2-1.1-2.8-1.9
			c-0.8-0.8-1.3-1.7-1.7-2.8c-0.4-1.1-0.6-2.3-0.6-3.5c0-1.3,0.2-2.4,0.7-3.5c0.4-1.1,1.1-2,1.8-2.8c0.8-0.8,1.7-1.4,2.8-1.9
			s2.2-0.7,3.5-0.7c1.5,0,2.8,0.3,3.8,0.8s1.9,1.2,2.6,2.1c0.7,0.8,1.2,1.8,1.5,2.9c0.3,1.1,0.4,2.1,0.4,3.2v1.1H1283.5z
			 M1293.7,1006.9c0-0.7-0.1-1.4-0.3-2c-0.2-0.6-0.5-1.1-0.9-1.6s-0.9-0.8-1.5-1c-0.6-0.3-1.3-0.4-2.1-0.4c-0.8,0-1.5,0.1-2.2,0.4
			s-1.2,0.7-1.7,1.2c-0.5,0.5-0.8,1-1.1,1.6c-0.3,0.6-0.4,1.2-0.4,1.7H1293.7z"/>
		<path class="st3" d="M1302.1,999.8h3.2v2.6h0.1c0.2-0.5,0.5-0.9,0.9-1.2c0.4-0.4,0.8-0.7,1.2-1c0.4-0.3,0.9-0.5,1.5-0.6
			s1.1-0.2,1.6-0.2s1,0.1,1.4,0.2l-0.1,3.5c-0.3-0.1-0.5-0.1-0.8-0.2c-0.3,0-0.5-0.1-0.8-0.1c-1.6,0-2.8,0.4-3.6,1.3
			c-0.8,0.9-1.3,2.3-1.3,4.1v8.5h-3.2V999.8z"/>
		<path class="st3" d="M1318.9,1000.2h-2.9l2.5-8.8h3.4L1318.9,1000.2z"/>
		<path class="st3" d="M1333.8,1004c-0.4-0.5-0.9-0.9-1.4-1.2s-1.2-0.5-2.1-0.5c-0.8,0-1.4,0.2-2,0.5s-0.8,0.8-0.8,1.4
			c0,0.5,0.2,0.9,0.5,1.2s0.7,0.6,1.1,0.8c0.4,0.2,0.9,0.3,1.4,0.4s0.9,0.2,1.3,0.3c0.7,0.2,1.3,0.4,2,0.6s1.1,0.5,1.6,0.9
			c0.4,0.4,0.8,0.8,1,1.4c0.3,0.5,0.4,1.2,0.4,2c0,1-0.2,1.8-0.6,2.5c-0.4,0.7-0.9,1.2-1.6,1.7c-0.6,0.4-1.4,0.7-2.2,0.9
			c-0.8,0.2-1.7,0.3-2.5,0.3c-1.4,0-2.6-0.2-3.7-0.6c-1.1-0.4-2-1.2-2.8-2.4l2.4-2c0.5,0.5,1.1,1,1.8,1.4c0.6,0.4,1.4,0.6,2.4,0.6
			c0.4,0,0.8,0,1.2-0.1c0.4-0.1,0.8-0.2,1.1-0.4c0.3-0.2,0.6-0.4,0.8-0.7s0.3-0.6,0.3-1c0-0.5-0.1-0.9-0.4-1.2s-0.7-0.6-1.1-0.7
			c-0.4-0.2-0.9-0.3-1.3-0.4s-0.9-0.2-1.2-0.3c-0.7-0.2-1.4-0.4-2-0.6c-0.6-0.2-1.2-0.5-1.6-0.9c-0.5-0.4-0.9-0.8-1.1-1.4
			c-0.3-0.5-0.4-1.2-0.4-2c0-0.9,0.2-1.7,0.6-2.3c0.4-0.7,0.9-1.2,1.5-1.6c0.6-0.4,1.3-0.8,2.1-1c0.8-0.2,1.6-0.3,2.3-0.3
			c1.1,0,2.2,0.2,3.3,0.6s1.9,1.1,2.5,2.2L1333.8,1004z"/>
		<path class="st3" d="M1353.1,991.4h8.9c1.8,0,3.4,0.2,4.7,0.6c1.3,0.4,2.5,1,3.5,1.6c1,0.7,1.8,1.5,2.5,2.3
			c0.7,0.9,1.2,1.8,1.6,2.7c0.4,0.9,0.7,1.9,0.8,2.8c0.2,0.9,0.3,1.8,0.3,2.6c0,1.6-0.3,3.2-0.9,4.7c-0.6,1.5-1.5,2.9-2.7,4
			c-1.2,1.2-2.6,2.1-4.4,2.8s-3.7,1.1-6,1.1h-8.3V991.4z M1356.5,1013.5h4.3c1.5,0,2.8-0.2,4.1-0.6c1.3-0.4,2.4-1,3.4-1.8
			c1-0.8,1.8-1.8,2.3-3c0.6-1.2,0.9-2.6,0.9-4.1c0-0.8-0.1-1.8-0.4-2.8c-0.3-1.1-0.8-2.1-1.5-3.1c-0.7-1-1.7-1.8-3-2.5
			c-1.3-0.7-3-1-5-1h-5.2V1013.5z"/>
		<path class="st3" d="M1380,993.7c0-0.6,0.2-1.2,0.7-1.7c0.5-0.5,1-0.7,1.7-0.7c0.6,0,1.2,0.2,1.7,0.7c0.5,0.5,0.7,1,0.7,1.7
			c0,0.6-0.2,1.2-0.7,1.7s-1,0.7-1.7,0.7c-0.6,0-1.2-0.2-1.7-0.7S1380,994.3,1380,993.7z M1380.7,999.8h3.2v17h-3.2V999.8z"/>
		<path class="st3" d="M1407.2,1016.6c0,1.3-0.2,2.5-0.7,3.5s-1.1,2-1.9,2.8c-0.8,0.8-1.8,1.4-2.9,1.8c-1.1,0.4-2.4,0.6-3.8,0.6
			c-1.6,0-3.1-0.2-4.5-0.7c-1.4-0.5-2.6-1.2-3.9-2.4l2.2-2.7c0.8,0.9,1.7,1.6,2.7,2.1c1,0.5,2.1,0.7,3.3,0.7c1.2,0,2.2-0.2,3-0.5
			c0.8-0.3,1.4-0.8,1.9-1.3s0.8-1.2,1-1.9c0.2-0.7,0.3-1.4,0.3-2.1v-2.5h-0.1c-0.6,1-1.5,1.8-2.5,2.3c-1.1,0.5-2.2,0.7-3.4,0.7
			c-1.2,0-2.4-0.2-3.5-0.7c-1.1-0.4-2-1.1-2.7-1.8c-0.8-0.8-1.4-1.7-1.8-2.8c-0.4-1.1-0.6-2.2-0.6-3.5c0-1.2,0.2-2.4,0.6-3.5
			c0.4-1.1,1-2,1.7-2.8c0.8-0.8,1.7-1.4,2.7-1.9c1.1-0.5,2.3-0.7,3.6-0.7c1.1,0,2.3,0.3,3.4,0.8c1.1,0.5,1.9,1.2,2.6,2.1h0.1v-2.4
			h3.2V1016.6z M1398.4,1002.3c-0.9,0-1.6,0.2-2.3,0.4c-0.7,0.3-1.3,0.7-1.8,1.2c-0.5,0.5-0.8,1.1-1.1,1.9c-0.3,0.7-0.4,1.5-0.4,2.4
			c0,1.7,0.5,3.1,1.5,4.1c1,1,2.4,1.6,4.1,1.6c1.7,0,3.1-0.5,4.1-1.6c1-1,1.5-2.4,1.5-4.1c0-0.9-0.1-1.7-0.4-2.4s-0.6-1.3-1.1-1.9
			c-0.5-0.5-1.1-0.9-1.8-1.2C1400,1002.5,1399.2,1002.3,1398.4,1002.3z"/>
		<path class="st3" d="M1415.6,1009.4c0,0.7,0.2,1.4,0.5,2s0.7,1.1,1.3,1.6c0.5,0.4,1.1,0.8,1.8,1c0.7,0.2,1.4,0.4,2.2,0.4
			c1,0,1.9-0.2,2.6-0.7c0.7-0.5,1.4-1.1,2-1.8l2.4,1.9c-1.8,2.3-4.3,3.5-7.5,3.5c-1.3,0-2.6-0.2-3.6-0.7c-1.1-0.5-2-1.1-2.8-1.9
			c-0.8-0.8-1.3-1.7-1.7-2.8c-0.4-1.1-0.6-2.3-0.6-3.5c0-1.3,0.2-2.4,0.7-3.5c0.4-1.1,1.1-2,1.8-2.8c0.8-0.8,1.7-1.4,2.8-1.9
			s2.2-0.7,3.5-0.7c1.5,0,2.8,0.3,3.8,0.8s1.9,1.2,2.6,2.1c0.7,0.8,1.2,1.8,1.5,2.9c0.3,1.1,0.4,2.1,0.4,3.2v1.1H1415.6z
			 M1425.7,1006.9c0-0.7-0.1-1.4-0.3-2c-0.2-0.6-0.5-1.1-0.9-1.6s-0.9-0.8-1.5-1c-0.6-0.3-1.3-0.4-2.1-0.4c-0.8,0-1.5,0.1-2.2,0.4
			s-1.2,0.7-1.7,1.2c-0.5,0.5-0.8,1-1.1,1.6c-0.3,0.6-0.4,1.2-0.4,1.7H1425.7z"/>
		<path class="st3" d="M1443.2,1004c-0.4-0.5-0.9-0.9-1.4-1.2s-1.2-0.5-2.1-0.5c-0.8,0-1.4,0.2-2,0.5s-0.8,0.8-0.8,1.4
			c0,0.5,0.2,0.9,0.5,1.2s0.7,0.6,1.1,0.8c0.4,0.2,0.9,0.3,1.4,0.4s0.9,0.2,1.3,0.3c0.7,0.2,1.3,0.4,2,0.6s1.1,0.5,1.6,0.9
			c0.4,0.4,0.8,0.8,1,1.4c0.3,0.5,0.4,1.2,0.4,2c0,1-0.2,1.8-0.6,2.5c-0.4,0.7-0.9,1.2-1.6,1.7c-0.6,0.4-1.4,0.7-2.2,0.9
			c-0.8,0.2-1.7,0.3-2.5,0.3c-1.4,0-2.6-0.2-3.7-0.6c-1.1-0.4-2-1.2-2.8-2.4l2.4-2c0.5,0.5,1.1,1,1.8,1.4c0.6,0.4,1.4,0.6,2.4,0.6
			c0.4,0,0.8,0,1.2-0.1c0.4-0.1,0.8-0.2,1.1-0.4c0.3-0.2,0.6-0.4,0.8-0.7s0.3-0.6,0.3-1c0-0.5-0.1-0.9-0.4-1.2s-0.7-0.6-1.1-0.7
			c-0.4-0.2-0.9-0.3-1.3-0.4s-0.9-0.2-1.2-0.3c-0.7-0.2-1.4-0.4-2-0.6c-0.6-0.2-1.2-0.5-1.6-0.9c-0.5-0.4-0.9-0.8-1.1-1.4
			c-0.3-0.5-0.4-1.2-0.4-2c0-0.9,0.2-1.7,0.6-2.3c0.4-0.7,0.9-1.2,1.5-1.6c0.6-0.4,1.3-0.8,2.1-1c0.8-0.2,1.6-0.3,2.3-0.3
			c1.1,0,2.2,0.2,3.3,0.6s1.9,1.1,2.5,2.2L1443.2,1004z"/>
		<path class="st3" d="M1460.2,1002.6h-4.6v7.7c0,0.5,0,0.9,0,1.4c0,0.5,0.1,0.9,0.3,1.3c0.2,0.4,0.4,0.7,0.7,0.9
			c0.3,0.2,0.8,0.3,1.4,0.3c0.4,0,0.8,0,1.2-0.1c0.4-0.1,0.8-0.2,1.1-0.4v2.9c-0.4,0.2-0.9,0.4-1.5,0.4c-0.6,0.1-1.1,0.1-1.4,0.1
			c-1.2,0-2.2-0.2-2.9-0.5c-0.7-0.3-1.2-0.8-1.5-1.3s-0.5-1.2-0.6-1.8c-0.1-0.7-0.1-1.4-0.1-2.1v-8.9h-3.7v-2.8h3.7V995h3.2v4.8h4.6
			V1002.6z"/>
	</g>
</g>
<g>
	<path class="st2" d="M751.1,522.5H412.7c-3.2,0-5.8-2.6-5.8-5.8v-69.6c0-3.2,2.6-5.8,5.8-5.8h338.4c3.2,0,5.8,2.6,5.8,5.8v69.6
		C756.9,519.9,754.3,522.5,751.1,522.5z"/>
	<g>
		<path class="st3" d="M432.7,494c-1.9,0-3.7-0.3-5.3-1c-1.6-0.7-3-1.6-4.2-2.8c-1.2-1.2-2.1-2.6-2.7-4.2c-0.7-1.6-1-3.4-1-5.3
			c0-1.9,0.3-3.6,1-5.3c0.7-1.6,1.6-3,2.7-4.2c1.2-1.2,2.6-2.1,4.2-2.8c1.6-0.7,3.4-1,5.3-1s3.7,0.3,5.3,1c1.6,0.7,3,1.6,4.2,2.8
			c1.2,1.2,2.1,2.6,2.7,4.2c0.7,1.6,1,3.4,1,5.3c0,1.9-0.3,3.6-1,5.3c-0.7,1.6-1.6,3-2.7,4.2c-1.2,1.2-2.6,2.1-4.2,2.8
			C436.4,493.6,434.6,494,432.7,494z M432.7,490.7c1.5,0,2.8-0.3,3.9-0.8c1.2-0.5,2.2-1.3,3-2.2c0.8-0.9,1.5-2,1.9-3.2
			c0.5-1.2,0.7-2.5,0.7-3.9c0-1.4-0.2-2.7-0.7-3.9c-0.5-1.2-1.1-2.3-1.9-3.2c-0.8-0.9-1.8-1.6-3-2.2c-1.2-0.5-2.5-0.8-3.9-0.8
			c-1.5,0-2.8,0.3-3.9,0.8c-1.2,0.5-2.2,1.3-3,2.2c-0.8,0.9-1.5,2-1.9,3.2c-0.5,1.2-0.7,2.5-0.7,3.9c0,1.4,0.2,2.7,0.7,3.9
			c0.5,1.2,1.1,2.3,1.9,3.2s1.8,1.6,3,2.2C429.9,490.5,431.2,490.7,432.7,490.7z"/>
		<path class="st3" d="M451.1,476.3h3.2v2.6h0.1c0.2-0.5,0.5-0.9,0.9-1.2c0.4-0.4,0.8-0.7,1.2-1c0.4-0.3,0.9-0.5,1.5-0.6
			c0.5-0.2,1.1-0.2,1.6-0.2c0.5,0,1,0.1,1.4,0.2l-0.1,3.5c-0.3-0.1-0.5-0.1-0.8-0.2c-0.3,0-0.5-0.1-0.8-0.1c-1.6,0-2.8,0.4-3.6,1.3
			s-1.3,2.3-1.3,4.1v8.5h-3.2V476.3z"/>
		<path class="st3" d="M464.9,470.2c0-0.6,0.2-1.2,0.7-1.7c0.5-0.5,1-0.7,1.7-0.7c0.6,0,1.2,0.2,1.7,0.7c0.5,0.5,0.7,1,0.7,1.7
			c0,0.6-0.2,1.2-0.7,1.7s-1,0.7-1.7,0.7c-0.6,0-1.2-0.2-1.7-0.7C465.2,471.4,464.9,470.9,464.9,470.2z M465.7,476.3h3.2v17h-3.2
			V476.3z"/>
		<path class="st3" d="M492.1,493.2c0,1.3-0.2,2.5-0.7,3.5c-0.4,1.1-1.1,2-1.9,2.8c-0.8,0.8-1.8,1.4-2.9,1.8s-2.4,0.6-3.8,0.6
			c-1.6,0-3.1-0.2-4.5-0.7c-1.4-0.5-2.6-1.2-3.9-2.4l2.2-2.7c0.8,0.9,1.7,1.6,2.7,2.1c1,0.5,2.1,0.7,3.3,0.7c1.2,0,2.2-0.2,3-0.5
			s1.4-0.8,1.9-1.3s0.8-1.2,1-1.9c0.2-0.7,0.3-1.4,0.3-2.1v-2.5h-0.1c-0.6,1-1.5,1.8-2.5,2.3c-1.1,0.5-2.2,0.7-3.4,0.7
			c-1.2,0-2.4-0.2-3.5-0.7c-1.1-0.4-2-1.1-2.7-1.8c-0.8-0.8-1.4-1.7-1.8-2.8c-0.4-1.1-0.6-2.2-0.6-3.5c0-1.2,0.2-2.4,0.6-3.5
			c0.4-1.1,1-2,1.7-2.8c0.8-0.8,1.7-1.4,2.7-1.9c1.1-0.5,2.3-0.7,3.6-0.7c1.1,0,2.3,0.3,3.4,0.8c1.1,0.5,1.9,1.2,2.6,2.1h0.1v-2.4
			h3.2V493.2z M483.3,478.9c-0.9,0-1.6,0.2-2.3,0.4c-0.7,0.3-1.3,0.7-1.8,1.2c-0.5,0.5-0.8,1.1-1.1,1.9c-0.3,0.7-0.4,1.5-0.4,2.4
			c0,1.7,0.5,3.1,1.5,4.1c1,1,2.4,1.6,4.1,1.6c1.7,0,3.1-0.5,4.1-1.6c1-1,1.5-2.4,1.5-4.1c0-0.9-0.1-1.7-0.4-2.4
			c-0.3-0.7-0.6-1.3-1.1-1.9c-0.5-0.5-1.1-0.9-1.8-1.2C484.9,479.1,484.2,478.9,483.3,478.9z"/>
		<path class="st3" d="M497.6,470.2c0-0.6,0.2-1.2,0.7-1.7c0.5-0.5,1-0.7,1.7-0.7c0.6,0,1.2,0.2,1.7,0.7c0.5,0.5,0.7,1,0.7,1.7
			c0,0.6-0.2,1.2-0.7,1.7s-1,0.7-1.7,0.7c-0.6,0-1.2-0.2-1.7-0.7C497.8,471.4,497.6,470.9,497.6,470.2z M498.3,476.3h3.2v17h-3.2
			V476.3z"/>
		<path class="st3" d="M507.8,476.3h3.2v2.6h0.1c0.4-0.9,1.1-1.6,2.1-2.2s2.2-0.8,3.5-0.8c0.8,0,1.6,0.1,2.3,0.4
			c0.8,0.3,1.4,0.6,2,1.2c0.6,0.5,1,1.2,1.3,2s0.5,1.8,0.5,2.9v10.9h-3.2v-10c0-0.8-0.1-1.5-0.3-2c-0.2-0.6-0.5-1-0.9-1.4
			s-0.8-0.6-1.2-0.8c-0.5-0.2-1-0.2-1.5-0.2c-0.7,0-1.3,0.1-1.9,0.3c-0.6,0.2-1.1,0.6-1.5,1c-0.4,0.5-0.8,1.1-1,1.8
			c-0.2,0.7-0.4,1.6-0.4,2.5v8.7h-3.2V476.3z"/>
		<path class="st3" d="M528.8,478.4c0.9-0.8,2-1.5,3.2-1.9s2.4-0.6,3.6-0.6c1.2,0,2.3,0.2,3.2,0.5c0.9,0.3,1.6,0.7,2.2,1.3
			c0.6,0.5,1,1.1,1.3,1.8c0.3,0.7,0.4,1.4,0.4,2.1v8.7c0,0.6,0,1.1,0,1.6c0,0.5,0.1,1,0.1,1.4h-2.9c-0.1-0.9-0.1-1.7-0.1-2.6h-0.1
			c-0.7,1.1-1.6,1.9-2.5,2.3c-1,0.5-2.1,0.7-3.4,0.7c-0.8,0-1.5-0.1-2.3-0.3s-1.3-0.5-1.9-1c-0.5-0.4-1-1-1.3-1.6
			c-0.3-0.6-0.5-1.4-0.5-2.2c0-1.1,0.2-2,0.7-2.8c0.5-0.7,1.2-1.3,2-1.8c0.8-0.5,1.8-0.8,3-1c1.1-0.2,2.3-0.3,3.6-0.3h2.4v-0.7
			c0-0.4-0.1-0.9-0.3-1.3c-0.2-0.4-0.4-0.8-0.8-1.2c-0.3-0.3-0.8-0.6-1.3-0.8c-0.5-0.2-1.1-0.3-1.8-0.3c-0.6,0-1.2,0.1-1.6,0.2
			c-0.5,0.1-0.9,0.3-1.3,0.4c-0.4,0.2-0.7,0.4-1,0.6c-0.3,0.2-0.6,0.5-0.9,0.7L528.8,478.4z M537.9,485.1c-0.8,0-1.5,0-2.3,0.1
			c-0.8,0.1-1.5,0.2-2.2,0.5c-0.7,0.2-1.2,0.6-1.6,1c-0.4,0.4-0.6,1-0.6,1.6c0,1,0.3,1.7,1,2.1c0.7,0.4,1.5,0.6,2.7,0.6
			c0.9,0,1.6-0.1,2.3-0.4c0.6-0.3,1.1-0.7,1.5-1.2c0.4-0.5,0.7-1,0.8-1.6c0.2-0.6,0.3-1.2,0.3-1.7v-1.1H537.9z"/>
		<path class="st3" d="M557.5,479.1h-4.6v7.7c0,0.5,0,0.9,0,1.4c0,0.5,0.1,0.9,0.3,1.3c0.2,0.4,0.4,0.7,0.7,0.9
			c0.3,0.2,0.8,0.3,1.4,0.3c0.4,0,0.8,0,1.2-0.1c0.4-0.1,0.8-0.2,1.1-0.4v2.9c-0.4,0.2-0.9,0.4-1.5,0.4c-0.6,0.1-1.1,0.1-1.4,0.1
			c-1.2,0-2.2-0.2-2.9-0.5c-0.7-0.3-1.2-0.8-1.5-1.3c-0.3-0.5-0.5-1.2-0.6-1.8c-0.1-0.7-0.1-1.4-0.1-2.1v-8.9H546v-2.8h3.7v-4.8h3.2
			v4.8h4.6V479.1z"/>
		<path class="st3" d="M561.9,484.8c0-1.2,0.2-2.4,0.7-3.5c0.5-1.1,1.1-2,1.9-2.8c0.8-0.8,1.8-1.5,2.9-1.9s2.3-0.7,3.5-0.7
			c1.3,0,2.4,0.2,3.5,0.7c1.1,0.5,2.1,1.1,2.9,1.9c0.8,0.8,1.5,1.8,1.9,2.8c0.5,1.1,0.7,2.2,0.7,3.5c0,1.2-0.2,2.4-0.7,3.5
			c-0.5,1.1-1.1,2-1.9,2.8c-0.8,0.8-1.8,1.4-2.9,1.9c-1.1,0.5-2.3,0.7-3.5,0.7c-1.3,0-2.4-0.2-3.5-0.7s-2.1-1.1-2.9-1.9
			c-0.8-0.8-1.5-1.7-1.9-2.8C562.2,487.2,561.9,486.1,561.9,484.8z M565.4,484.8c0,0.9,0.1,1.7,0.4,2.4c0.3,0.7,0.6,1.4,1.1,1.9
			s1.1,0.9,1.8,1.2c0.7,0.3,1.5,0.4,2.3,0.4c0.9,0,1.6-0.1,2.3-0.4c0.7-0.3,1.3-0.7,1.8-1.2c0.5-0.5,0.8-1.1,1.1-1.9
			c0.3-0.7,0.4-1.5,0.4-2.4c0-0.9-0.1-1.7-0.4-2.4c-0.3-0.7-0.6-1.3-1.1-1.9c-0.5-0.5-1.1-0.9-1.8-1.2c-0.7-0.3-1.5-0.4-2.3-0.4
			c-0.9,0-1.6,0.2-2.3,0.4c-0.7,0.3-1.3,0.7-1.8,1.2c-0.5,0.5-0.8,1.1-1.1,1.9C565.5,483.2,565.4,484,565.4,484.8z"/>
		<path class="st3" d="M585.1,476.3h3.2v2.6h0.1c0.2-0.5,0.5-0.9,0.9-1.2c0.4-0.4,0.8-0.7,1.2-1c0.4-0.3,0.9-0.5,1.5-0.6
			c0.5-0.2,1.1-0.2,1.6-0.2c0.5,0,1,0.1,1.4,0.2l-0.1,3.5c-0.3-0.1-0.5-0.1-0.8-0.2c-0.3,0-0.5-0.1-0.8-0.1c-1.6,0-2.8,0.4-3.6,1.3
			s-1.3,2.3-1.3,4.1v8.5h-3.2V476.3z"/>
		<path class="st3" d="M602,476.8H599l2.5-8.8h3.4L602,476.8z"/>
		<path class="st3" d="M616.9,480.6c-0.4-0.5-0.9-0.9-1.4-1.2s-1.2-0.5-2.1-0.5c-0.8,0-1.4,0.2-2,0.5s-0.8,0.8-0.8,1.4
			c0,0.5,0.2,0.9,0.5,1.2c0.3,0.3,0.7,0.6,1.1,0.8c0.4,0.2,0.9,0.3,1.4,0.4s0.9,0.2,1.3,0.3c0.7,0.2,1.3,0.4,2,0.6s1.1,0.5,1.6,0.9
			c0.4,0.4,0.8,0.8,1,1.4c0.3,0.5,0.4,1.2,0.4,2c0,1-0.2,1.8-0.6,2.5c-0.4,0.7-0.9,1.2-1.6,1.7c-0.6,0.4-1.4,0.7-2.2,0.9
			c-0.8,0.2-1.7,0.3-2.5,0.3c-1.4,0-2.6-0.2-3.7-0.6c-1.1-0.4-2-1.2-2.8-2.4l2.4-2c0.5,0.5,1.1,1,1.8,1.4c0.6,0.4,1.4,0.6,2.4,0.6
			c0.4,0,0.8,0,1.2-0.1c0.4-0.1,0.8-0.2,1.1-0.4c0.3-0.2,0.6-0.4,0.8-0.7c0.2-0.3,0.3-0.6,0.3-1c0-0.5-0.1-0.9-0.4-1.2
			c-0.3-0.3-0.7-0.6-1.1-0.7c-0.4-0.2-0.9-0.3-1.3-0.4s-0.9-0.2-1.2-0.3c-0.7-0.2-1.4-0.4-2-0.6c-0.6-0.2-1.2-0.5-1.6-0.9
			s-0.9-0.8-1.1-1.4c-0.3-0.5-0.4-1.2-0.4-2c0-0.9,0.2-1.7,0.6-2.3c0.4-0.7,0.9-1.2,1.5-1.6c0.6-0.4,1.3-0.8,2.1-1
			c0.8-0.2,1.6-0.3,2.3-0.3c1.1,0,2.2,0.2,3.3,0.6c1.1,0.4,1.9,1.1,2.5,2.2L616.9,480.6z"/>
		<path class="st3" d="M636.1,467.9h8.9c1.8,0,3.4,0.2,4.7,0.6c1.3,0.4,2.5,1,3.5,1.6c1,0.7,1.8,1.5,2.5,2.3
			c0.7,0.9,1.2,1.8,1.6,2.7c0.4,0.9,0.7,1.9,0.8,2.8c0.2,0.9,0.3,1.8,0.3,2.6c0,1.6-0.3,3.2-0.9,4.7c-0.6,1.5-1.5,2.9-2.7,4
			c-1.2,1.2-2.6,2.1-4.4,2.8c-1.7,0.7-3.7,1.1-6,1.1h-8.3V467.9z M639.6,490.1h4.3c1.5,0,2.8-0.2,4.1-0.6c1.3-0.4,2.4-1,3.4-1.8
			c1-0.8,1.8-1.8,2.3-3c0.6-1.2,0.9-2.6,0.9-4.1c0-0.8-0.1-1.8-0.4-2.8c-0.3-1.1-0.8-2.1-1.5-3.1c-0.7-1-1.7-1.8-3-2.5
			c-1.3-0.7-3-1-5-1h-5.2V490.1z"/>
		<path class="st3" d="M663,470.2c0-0.6,0.2-1.2,0.7-1.7c0.5-0.5,1-0.7,1.7-0.7c0.6,0,1.2,0.2,1.7,0.7c0.5,0.5,0.7,1,0.7,1.7
			c0,0.6-0.2,1.2-0.7,1.7s-1,0.7-1.7,0.7c-0.6,0-1.2-0.2-1.7-0.7C663.3,471.4,663,470.9,663,470.2z M663.8,476.3h3.2v17h-3.2V476.3z
			"/>
		<path class="st3" d="M690.2,493.2c0,1.3-0.2,2.5-0.7,3.5c-0.4,1.1-1.1,2-1.9,2.8c-0.8,0.8-1.8,1.4-2.9,1.8s-2.4,0.6-3.8,0.6
			c-1.6,0-3.1-0.2-4.5-0.7c-1.4-0.5-2.6-1.2-3.9-2.4l2.2-2.7c0.8,0.9,1.7,1.6,2.7,2.1c1,0.5,2.1,0.7,3.3,0.7c1.2,0,2.2-0.2,3-0.5
			s1.4-0.8,1.9-1.3s0.8-1.2,1-1.9c0.2-0.7,0.3-1.4,0.3-2.1v-2.5h-0.1c-0.6,1-1.5,1.8-2.5,2.3c-1.1,0.5-2.2,0.7-3.4,0.7
			c-1.2,0-2.4-0.2-3.5-0.7c-1.1-0.4-2-1.1-2.7-1.8c-0.8-0.8-1.4-1.7-1.8-2.8c-0.4-1.1-0.6-2.2-0.6-3.5c0-1.2,0.2-2.4,0.6-3.5
			c0.4-1.1,1-2,1.7-2.8c0.8-0.8,1.7-1.4,2.7-1.9c1.1-0.5,2.3-0.7,3.6-0.7c1.1,0,2.3,0.3,3.4,0.8c1.1,0.5,1.9,1.2,2.6,2.1h0.1v-2.4
			h3.2V493.2z M681.4,478.9c-0.9,0-1.6,0.2-2.3,0.4c-0.7,0.3-1.3,0.7-1.8,1.2c-0.5,0.5-0.8,1.1-1.1,1.9c-0.3,0.7-0.4,1.5-0.4,2.4
			c0,1.7,0.5,3.1,1.5,4.1c1,1,2.4,1.6,4.1,1.6c1.7,0,3.1-0.5,4.1-1.6c1-1,1.5-2.4,1.5-4.1c0-0.9-0.1-1.7-0.4-2.4
			c-0.3-0.7-0.6-1.3-1.1-1.9c-0.5-0.5-1.1-0.9-1.8-1.2C683,479.1,682.3,478.9,681.4,478.9z"/>
		<path class="st3" d="M698.6,486c0,0.7,0.2,1.4,0.5,2c0.3,0.6,0.7,1.1,1.3,1.6c0.5,0.4,1.1,0.8,1.8,1c0.7,0.2,1.4,0.4,2.2,0.4
			c1,0,1.9-0.2,2.6-0.7c0.7-0.5,1.4-1.1,2-1.8l2.4,1.9c-1.8,2.3-4.3,3.5-7.5,3.5c-1.3,0-2.6-0.2-3.6-0.7c-1.1-0.5-2-1.1-2.8-1.9
			c-0.8-0.8-1.3-1.7-1.7-2.8c-0.4-1.1-0.6-2.3-0.6-3.5c0-1.3,0.2-2.4,0.7-3.5c0.4-1.1,1.1-2,1.8-2.8c0.8-0.8,1.7-1.4,2.8-1.9
			s2.2-0.7,3.5-0.7c1.5,0,2.8,0.3,3.8,0.8c1,0.5,1.9,1.2,2.6,2.1c0.7,0.8,1.2,1.8,1.5,2.9c0.3,1.1,0.4,2.1,0.4,3.2v1.1H698.6z
			 M708.8,483.4c0-0.7-0.1-1.4-0.3-2c-0.2-0.6-0.5-1.1-0.9-1.6s-0.9-0.8-1.5-1c-0.6-0.3-1.3-0.4-2.1-0.4c-0.8,0-1.5,0.1-2.2,0.4
			c-0.7,0.3-1.2,0.7-1.7,1.2c-0.5,0.5-0.8,1-1.1,1.6c-0.3,0.6-0.4,1.2-0.4,1.7H708.8z"/>
		<path class="st3" d="M726.2,480.6c-0.4-0.5-0.9-0.9-1.4-1.2s-1.2-0.5-2.1-0.5c-0.8,0-1.4,0.2-2,0.5s-0.8,0.8-0.8,1.4
			c0,0.5,0.2,0.9,0.5,1.2c0.3,0.3,0.7,0.6,1.1,0.8c0.4,0.2,0.9,0.3,1.4,0.4s0.9,0.2,1.3,0.3c0.7,0.2,1.3,0.4,2,0.6s1.1,0.5,1.6,0.9
			c0.4,0.4,0.8,0.8,1,1.4c0.3,0.5,0.4,1.2,0.4,2c0,1-0.2,1.8-0.6,2.5c-0.4,0.7-0.9,1.2-1.6,1.7c-0.6,0.4-1.4,0.7-2.2,0.9
			c-0.8,0.2-1.7,0.3-2.5,0.3c-1.4,0-2.6-0.2-3.7-0.6c-1.1-0.4-2-1.2-2.8-2.4l2.4-2c0.5,0.5,1.1,1,1.8,1.4c0.6,0.4,1.4,0.6,2.4,0.6
			c0.4,0,0.8,0,1.2-0.1c0.4-0.1,0.8-0.2,1.1-0.4c0.3-0.2,0.6-0.4,0.8-0.7c0.2-0.3,0.3-0.6,0.3-1c0-0.5-0.1-0.9-0.4-1.2
			c-0.3-0.3-0.7-0.6-1.1-0.7c-0.4-0.2-0.9-0.3-1.3-0.4s-0.9-0.2-1.2-0.3c-0.7-0.2-1.4-0.4-2-0.6c-0.6-0.2-1.2-0.5-1.6-0.9
			s-0.9-0.8-1.1-1.4c-0.3-0.5-0.4-1.2-0.4-2c0-0.9,0.2-1.7,0.6-2.3c0.4-0.7,0.9-1.2,1.5-1.6c0.6-0.4,1.3-0.8,2.1-1
			c0.8-0.2,1.6-0.3,2.3-0.3c1.1,0,2.2,0.2,3.3,0.6c1.1,0.4,1.9,1.1,2.5,2.2L726.2,480.6z"/>
		<path class="st3" d="M743.3,479.1h-4.6v7.7c0,0.5,0,0.9,0,1.4c0,0.5,0.1,0.9,0.3,1.3c0.2,0.4,0.4,0.7,0.7,0.9
			c0.3,0.2,0.8,0.3,1.4,0.3c0.4,0,0.8,0,1.2-0.1c0.4-0.1,0.8-0.2,1.1-0.4v2.9c-0.4,0.2-0.9,0.4-1.5,0.4c-0.6,0.1-1.1,0.1-1.4,0.1
			c-1.2,0-2.2-0.2-2.9-0.5c-0.7-0.3-1.2-0.8-1.5-1.3c-0.3-0.5-0.5-1.2-0.6-1.8c-0.1-0.7-0.1-1.4-0.1-2.1v-8.9h-3.7v-2.8h3.7v-4.8
			h3.2v4.8h4.6V479.1z"/>
	</g>
</g>
<g>
	<path class="st2" d="M1136.8,522.5H798.4c-3.2,0-5.8-2.6-5.8-5.8v-69.6c0-3.2,2.6-5.8,5.8-5.8h338.4c3.2,0,5.8,2.6,5.8,5.8v69.6
		C1142.5,519.9,1139.9,522.5,1136.8,522.5z"/>
	<g>
		<path class="st3" d="M818.3,494c-1.9,0-3.7-0.3-5.3-1c-1.6-0.7-3-1.6-4.2-2.8c-1.2-1.2-2.1-2.6-2.7-4.2c-0.7-1.6-1-3.4-1-5.3
			c0-1.9,0.3-3.6,1-5.3c0.7-1.6,1.6-3,2.7-4.2c1.2-1.2,2.6-2.1,4.2-2.8c1.6-0.7,3.4-1,5.3-1s3.7,0.3,5.3,1c1.6,0.7,3,1.6,4.2,2.8
			c1.2,1.2,2.1,2.6,2.7,4.2c0.7,1.6,1,3.4,1,5.3c0,1.9-0.3,3.6-1,5.3c-0.7,1.6-1.6,3-2.7,4.2c-1.2,1.2-2.6,2.1-4.2,2.8
			C822,493.6,820.3,494,818.3,494z M818.3,490.7c1.5,0,2.8-0.3,3.9-0.8c1.2-0.5,2.2-1.3,3-2.2c0.8-0.9,1.5-2,1.9-3.2
			c0.5-1.2,0.7-2.5,0.7-3.9c0-1.4-0.2-2.7-0.7-3.9c-0.5-1.2-1.1-2.3-1.9-3.2c-0.8-0.9-1.8-1.6-3-2.2c-1.2-0.5-2.5-0.8-3.9-0.8
			c-1.5,0-2.8,0.3-3.9,0.8c-1.2,0.5-2.2,1.3-3,2.2c-0.8,0.9-1.5,2-1.9,3.2c-0.5,1.2-0.7,2.5-0.7,3.9c0,1.4,0.2,2.7,0.7,3.9
			c0.5,1.2,1.1,2.3,1.9,3.2c0.8,0.9,1.8,1.6,3,2.2C815.6,490.5,816.9,490.7,818.3,490.7z"/>
		<path class="st3" d="M836.7,476.3h3.2v2.6h0.1c0.2-0.5,0.5-0.9,0.9-1.2c0.4-0.4,0.8-0.7,1.2-1c0.4-0.3,0.9-0.5,1.5-0.6
			s1.1-0.2,1.6-0.2s1,0.1,1.4,0.2l-0.1,3.5c-0.3-0.1-0.5-0.1-0.8-0.2c-0.3,0-0.5-0.1-0.8-0.1c-1.6,0-2.8,0.4-3.6,1.3
			c-0.8,0.9-1.3,2.3-1.3,4.1v8.5h-3.2V476.3z"/>
		<path class="st3" d="M850.6,470.2c0-0.6,0.2-1.2,0.7-1.7c0.5-0.5,1-0.7,1.7-0.7s1.2,0.2,1.7,0.7c0.5,0.5,0.7,1,0.7,1.7
			c0,0.6-0.2,1.2-0.7,1.7s-1,0.7-1.7,0.7s-1.2-0.2-1.7-0.7C850.8,471.4,850.6,470.9,850.6,470.2z M851.3,476.3h3.2v17h-3.2V476.3z"
			/>
		<path class="st3" d="M877.8,493.2c0,1.3-0.2,2.5-0.7,3.5s-1.1,2-1.9,2.8c-0.8,0.8-1.8,1.4-2.9,1.8c-1.1,0.4-2.4,0.6-3.8,0.6
			c-1.6,0-3.1-0.2-4.5-0.7c-1.4-0.5-2.6-1.2-3.9-2.4l2.2-2.7c0.8,0.9,1.7,1.6,2.7,2.1c1,0.5,2.1,0.7,3.3,0.7c1.2,0,2.2-0.2,3-0.5
			c0.8-0.3,1.4-0.8,1.9-1.3s0.8-1.2,1-1.9c0.2-0.7,0.3-1.4,0.3-2.1v-2.5h-0.1c-0.6,1-1.5,1.8-2.5,2.3c-1.1,0.5-2.2,0.7-3.4,0.7
			c-1.2,0-2.4-0.2-3.5-0.7c-1.1-0.4-2-1.1-2.7-1.8c-0.8-0.8-1.4-1.7-1.8-2.8c-0.4-1.1-0.6-2.2-0.6-3.5c0-1.2,0.2-2.4,0.6-3.5
			c0.4-1.1,1-2,1.7-2.8c0.8-0.8,1.7-1.4,2.7-1.9c1.1-0.5,2.3-0.7,3.6-0.7c1.1,0,2.3,0.3,3.4,0.8c1.1,0.5,1.9,1.2,2.6,2.1h0.1v-2.4
			h3.2V493.2z M869,478.9c-0.9,0-1.6,0.2-2.3,0.4c-0.7,0.3-1.3,0.7-1.8,1.2c-0.5,0.5-0.8,1.1-1.1,1.9c-0.3,0.7-0.4,1.5-0.4,2.4
			c0,1.7,0.5,3.1,1.5,4.1c1,1,2.4,1.6,4.1,1.6c1.7,0,3.1-0.5,4.1-1.6c1-1,1.5-2.4,1.5-4.1c0-0.9-0.1-1.7-0.4-2.4s-0.6-1.3-1.1-1.9
			c-0.5-0.5-1.1-0.9-1.8-1.2C870.6,479.1,869.8,478.9,869,478.9z"/>
		<path class="st3" d="M883.2,470.2c0-0.6,0.2-1.2,0.7-1.7c0.5-0.5,1-0.7,1.7-0.7s1.2,0.2,1.7,0.7c0.5,0.5,0.7,1,0.7,1.7
			c0,0.6-0.2,1.2-0.7,1.7s-1,0.7-1.7,0.7s-1.2-0.2-1.7-0.7C883.5,471.4,883.2,470.9,883.2,470.2z M884,476.3h3.2v17H884V476.3z"/>
		<path class="st3" d="M893.4,476.3h3.2v2.6h0.1c0.4-0.9,1.1-1.6,2.1-2.2c1-0.6,2.2-0.8,3.5-0.8c0.8,0,1.6,0.1,2.3,0.4
			c0.8,0.3,1.4,0.6,2,1.2s1,1.2,1.3,2c0.3,0.8,0.5,1.8,0.5,2.9v10.9h-3.2v-10c0-0.8-0.1-1.5-0.3-2c-0.2-0.6-0.5-1-0.9-1.4
			s-0.8-0.6-1.2-0.8c-0.5-0.2-1-0.2-1.5-0.2c-0.7,0-1.3,0.1-1.9,0.3c-0.6,0.2-1.1,0.6-1.5,1s-0.8,1.1-1,1.8s-0.4,1.6-0.4,2.5v8.7
			h-3.2V476.3z"/>
		<path class="st3" d="M914.5,478.4c0.9-0.8,2-1.5,3.2-1.9c1.2-0.4,2.4-0.6,3.6-0.6c1.2,0,2.3,0.2,3.2,0.5c0.9,0.3,1.6,0.7,2.2,1.3
			c0.6,0.5,1,1.1,1.3,1.8c0.3,0.7,0.4,1.4,0.4,2.1v8.7c0,0.6,0,1.1,0,1.6c0,0.5,0.1,1,0.1,1.4h-2.9c-0.1-0.9-0.1-1.7-0.1-2.6h-0.1
			c-0.7,1.1-1.6,1.9-2.5,2.3c-1,0.5-2.1,0.7-3.4,0.7c-0.8,0-1.5-0.1-2.3-0.3s-1.3-0.5-1.9-1c-0.5-0.4-1-1-1.3-1.6s-0.5-1.4-0.5-2.2
			c0-1.1,0.2-2,0.7-2.8c0.5-0.7,1.2-1.3,2-1.8c0.8-0.5,1.8-0.8,3-1c1.1-0.2,2.3-0.3,3.6-0.3h2.4v-0.7c0-0.4-0.1-0.9-0.3-1.3
			c-0.2-0.4-0.4-0.8-0.8-1.2c-0.3-0.3-0.8-0.6-1.3-0.8c-0.5-0.2-1.1-0.3-1.8-0.3c-0.6,0-1.2,0.1-1.6,0.2c-0.5,0.1-0.9,0.3-1.3,0.4
			c-0.4,0.2-0.7,0.4-1,0.6c-0.3,0.2-0.6,0.5-0.9,0.7L914.5,478.4z M923.6,485.1c-0.8,0-1.5,0-2.3,0.1c-0.8,0.1-1.5,0.2-2.2,0.5
			s-1.2,0.6-1.6,1c-0.4,0.4-0.6,1-0.6,1.6c0,1,0.3,1.7,1,2.1c0.7,0.4,1.5,0.6,2.7,0.6c0.9,0,1.6-0.1,2.3-0.4s1.1-0.7,1.5-1.2
			c0.4-0.5,0.7-1,0.8-1.6c0.2-0.6,0.3-1.2,0.3-1.7v-1.1H923.6z"/>
		<path class="st3" d="M943.2,479.1h-4.6v7.7c0,0.5,0,0.9,0,1.4c0,0.5,0.1,0.9,0.3,1.3c0.2,0.4,0.4,0.7,0.7,0.9
			c0.3,0.2,0.8,0.3,1.4,0.3c0.4,0,0.8,0,1.2-0.1c0.4-0.1,0.8-0.2,1.1-0.4v2.9c-0.4,0.2-0.9,0.4-1.5,0.4c-0.6,0.1-1.1,0.1-1.4,0.1
			c-1.2,0-2.2-0.2-2.9-0.5c-0.7-0.3-1.2-0.8-1.5-1.3s-0.5-1.2-0.6-1.8c-0.1-0.7-0.1-1.4-0.1-2.1v-8.9h-3.7v-2.8h3.7v-4.8h3.2v4.8
			h4.6V479.1z"/>
		<path class="st3" d="M947.6,484.8c0-1.2,0.2-2.4,0.7-3.5s1.1-2,1.9-2.8c0.8-0.8,1.8-1.5,2.9-1.9c1.1-0.5,2.3-0.7,3.5-0.7
			c1.3,0,2.4,0.2,3.5,0.7c1.1,0.5,2.1,1.1,2.9,1.9s1.5,1.8,1.9,2.8s0.7,2.2,0.7,3.5c0,1.2-0.2,2.4-0.7,3.5c-0.5,1.1-1.1,2-1.9,2.8
			c-0.8,0.8-1.8,1.4-2.9,1.9c-1.1,0.5-2.3,0.7-3.5,0.7c-1.3,0-2.5-0.2-3.5-0.7c-1.1-0.5-2.1-1.1-2.9-1.9c-0.8-0.8-1.5-1.7-1.9-2.8
			C947.8,487.2,947.6,486.1,947.6,484.8z M951,484.8c0,0.9,0.1,1.7,0.4,2.4c0.3,0.7,0.6,1.4,1.1,1.9c0.5,0.5,1.1,0.9,1.8,1.2
			c0.7,0.3,1.5,0.4,2.3,0.4c0.9,0,1.6-0.1,2.3-0.4s1.3-0.7,1.8-1.2c0.5-0.5,0.8-1.1,1.1-1.9c0.3-0.7,0.4-1.5,0.4-2.4
			c0-0.9-0.1-1.7-0.4-2.4s-0.6-1.3-1.1-1.9c-0.5-0.5-1.1-0.9-1.8-1.2c-0.7-0.3-1.5-0.4-2.3-0.4c-0.9,0-1.6,0.2-2.3,0.4
			c-0.7,0.3-1.3,0.7-1.8,1.2c-0.5,0.5-0.8,1.1-1.1,1.9C951.2,483.2,951,484,951,484.8z"/>
		<path class="st3" d="M970.8,476.3h3.2v2.6h0.1c0.2-0.5,0.5-0.9,0.9-1.2c0.4-0.4,0.8-0.7,1.2-1c0.4-0.3,0.9-0.5,1.5-0.6
			s1.1-0.2,1.6-0.2s1,0.1,1.4,0.2l-0.1,3.5c-0.3-0.1-0.5-0.1-0.8-0.2c-0.3,0-0.5-0.1-0.8-0.1c-1.6,0-2.8,0.4-3.6,1.3
			c-0.8,0.9-1.3,2.3-1.3,4.1v8.5h-3.2V476.3z"/>
		<path class="st3" d="M987.6,476.8h-2.9l2.5-8.8h3.4L987.6,476.8z"/>
		<path class="st3" d="M1002.6,480.6c-0.4-0.5-0.9-0.9-1.4-1.2s-1.2-0.5-2.1-0.5c-0.8,0-1.4,0.2-2,0.5s-0.8,0.8-0.8,1.4
			c0,0.5,0.2,0.9,0.5,1.2c0.3,0.3,0.7,0.6,1.1,0.8c0.4,0.2,0.9,0.3,1.4,0.4s0.9,0.2,1.3,0.3c0.7,0.2,1.3,0.4,2,0.6s1.1,0.5,1.6,0.9
			c0.4,0.4,0.8,0.8,1,1.4c0.3,0.5,0.4,1.2,0.4,2c0,1-0.2,1.8-0.6,2.5c-0.4,0.7-0.9,1.2-1.6,1.7c-0.6,0.4-1.4,0.7-2.2,0.9
			c-0.8,0.2-1.7,0.3-2.5,0.3c-1.4,0-2.6-0.2-3.7-0.6c-1.1-0.4-2-1.2-2.8-2.4l2.4-2c0.5,0.5,1.1,1,1.8,1.4c0.6,0.4,1.4,0.6,2.4,0.6
			c0.4,0,0.8,0,1.2-0.1s0.8-0.2,1.1-0.4c0.3-0.2,0.6-0.4,0.8-0.7c0.2-0.3,0.3-0.6,0.3-1c0-0.5-0.2-0.9-0.4-1.2
			c-0.3-0.3-0.7-0.6-1.1-0.7c-0.4-0.2-0.9-0.3-1.3-0.4s-0.9-0.2-1.2-0.3c-0.7-0.2-1.3-0.4-2-0.6c-0.6-0.2-1.2-0.5-1.6-0.9
			c-0.5-0.4-0.9-0.8-1.1-1.4s-0.4-1.2-0.4-2c0-0.9,0.2-1.7,0.6-2.3s0.9-1.2,1.5-1.6c0.6-0.4,1.3-0.8,2.1-1c0.8-0.2,1.6-0.3,2.3-0.3
			c1.1,0,2.2,0.2,3.3,0.6c1.1,0.4,1.9,1.1,2.5,2.2L1002.6,480.6z"/>
		<path class="st3" d="M1021.8,467.9h8.9c1.8,0,3.4,0.2,4.7,0.6c1.3,0.4,2.5,1,3.5,1.6c1,0.7,1.8,1.5,2.5,2.3
			c0.7,0.9,1.2,1.8,1.6,2.7c0.4,0.9,0.7,1.9,0.8,2.8c0.2,0.9,0.3,1.8,0.3,2.6c0,1.6-0.3,3.2-0.9,4.7c-0.6,1.5-1.5,2.9-2.7,4
			s-2.6,2.1-4.4,2.8c-1.7,0.7-3.7,1.1-6,1.1h-8.3V467.9z M1025.2,490.1h4.3c1.5,0,2.8-0.2,4.1-0.6s2.4-1,3.4-1.8
			c1-0.8,1.8-1.8,2.3-3c0.6-1.2,0.9-2.6,0.9-4.1c0-0.8-0.1-1.8-0.4-2.8c-0.3-1.1-0.8-2.1-1.5-3.1c-0.7-1-1.7-1.8-3-2.5
			c-1.3-0.7-3-1-5-1h-5.2V490.1z"/>
		<path class="st3" d="M1048.7,470.2c0-0.6,0.2-1.2,0.7-1.7c0.5-0.5,1-0.7,1.7-0.7s1.2,0.2,1.7,0.7c0.5,0.5,0.7,1,0.7,1.7
			c0,0.6-0.2,1.2-0.7,1.7s-1,0.7-1.7,0.7s-1.2-0.2-1.7-0.7C1048.9,471.4,1048.7,470.9,1048.7,470.2z M1049.4,476.3h3.2v17h-3.2
			V476.3z"/>
		<path class="st3" d="M1075.9,493.2c0,1.3-0.2,2.5-0.7,3.5s-1.1,2-1.9,2.8c-0.8,0.8-1.8,1.4-2.9,1.8c-1.1,0.4-2.4,0.6-3.8,0.6
			c-1.6,0-3.1-0.2-4.5-0.7c-1.4-0.5-2.6-1.2-3.9-2.4l2.2-2.7c0.8,0.9,1.7,1.6,2.7,2.1c1,0.5,2.1,0.7,3.3,0.7c1.2,0,2.2-0.2,3-0.5
			c0.8-0.3,1.4-0.8,1.9-1.3s0.8-1.2,1-1.9c0.2-0.7,0.3-1.4,0.3-2.1v-2.5h-0.1c-0.6,1-1.5,1.8-2.5,2.3c-1.1,0.5-2.2,0.7-3.4,0.7
			c-1.2,0-2.4-0.2-3.5-0.7c-1.1-0.4-2-1.1-2.7-1.8c-0.8-0.8-1.4-1.7-1.8-2.8c-0.4-1.1-0.6-2.2-0.6-3.5c0-1.2,0.2-2.4,0.6-3.5
			c0.4-1.1,1-2,1.7-2.8c0.8-0.8,1.7-1.4,2.7-1.9c1.1-0.5,2.3-0.7,3.6-0.7c1.1,0,2.3,0.3,3.4,0.8c1.1,0.5,1.9,1.2,2.6,2.1h0.1v-2.4
			h3.2V493.2z M1067.1,478.9c-0.9,0-1.6,0.2-2.3,0.4c-0.7,0.3-1.3,0.7-1.8,1.2c-0.5,0.5-0.8,1.1-1.1,1.9c-0.3,0.7-0.4,1.5-0.4,2.4
			c0,1.7,0.5,3.1,1.5,4.1c1,1,2.4,1.6,4.1,1.6c1.7,0,3.1-0.5,4.1-1.6c1-1,1.5-2.4,1.5-4.1c0-0.9-0.1-1.7-0.4-2.4s-0.6-1.3-1.1-1.9
			c-0.5-0.5-1.1-0.9-1.8-1.2C1068.7,479.1,1067.9,478.9,1067.1,478.9z"/>
		<path class="st3" d="M1084.3,486c0,0.7,0.2,1.4,0.5,2s0.7,1.1,1.3,1.6c0.5,0.4,1.1,0.8,1.8,1c0.7,0.2,1.4,0.4,2.2,0.4
			c1,0,1.9-0.2,2.6-0.7c0.7-0.5,1.4-1.1,2-1.8l2.4,1.9c-1.8,2.3-4.3,3.5-7.5,3.5c-1.3,0-2.6-0.2-3.6-0.7c-1.1-0.5-2-1.1-2.8-1.9
			c-0.8-0.8-1.3-1.7-1.7-2.8c-0.4-1.1-0.6-2.3-0.6-3.5c0-1.3,0.2-2.4,0.7-3.5c0.4-1.1,1.1-2,1.8-2.8c0.8-0.8,1.7-1.4,2.8-1.9
			s2.2-0.7,3.5-0.7c1.5,0,2.8,0.3,3.8,0.8s1.9,1.2,2.6,2.1c0.7,0.8,1.2,1.8,1.5,2.9c0.3,1.1,0.4,2.1,0.4,3.2v1.1H1084.3z
			 M1094.5,483.4c0-0.7-0.1-1.4-0.3-2c-0.2-0.6-0.5-1.1-0.9-1.6s-0.9-0.8-1.5-1c-0.6-0.3-1.3-0.4-2.1-0.4c-0.8,0-1.5,0.1-2.2,0.4
			s-1.2,0.7-1.7,1.2c-0.5,0.5-0.8,1-1.1,1.6c-0.3,0.6-0.4,1.2-0.4,1.7H1094.5z"/>
		<path class="st3" d="M1111.9,480.6c-0.4-0.5-0.9-0.9-1.4-1.2s-1.2-0.5-2.1-0.5c-0.8,0-1.4,0.2-2,0.5s-0.8,0.8-0.8,1.4
			c0,0.5,0.2,0.9,0.5,1.2c0.3,0.3,0.7,0.6,1.1,0.8c0.4,0.2,0.9,0.3,1.4,0.4s0.9,0.2,1.3,0.3c0.7,0.2,1.3,0.4,2,0.6s1.1,0.5,1.6,0.9
			c0.4,0.4,0.8,0.8,1,1.4c0.3,0.5,0.4,1.2,0.4,2c0,1-0.2,1.8-0.6,2.5c-0.4,0.7-0.9,1.2-1.6,1.7c-0.6,0.4-1.4,0.7-2.2,0.9
			c-0.8,0.2-1.7,0.3-2.5,0.3c-1.4,0-2.6-0.2-3.7-0.6c-1.1-0.4-2-1.2-2.8-2.4l2.4-2c0.5,0.5,1.1,1,1.8,1.4c0.6,0.4,1.4,0.6,2.4,0.6
			c0.4,0,0.8,0,1.2-0.1s0.8-0.2,1.1-0.4c0.3-0.2,0.6-0.4,0.8-0.7c0.2-0.3,0.3-0.6,0.3-1c0-0.5-0.2-0.9-0.4-1.2
			c-0.3-0.3-0.7-0.6-1.1-0.7c-0.4-0.2-0.9-0.3-1.3-0.4s-0.9-0.2-1.2-0.3c-0.7-0.2-1.3-0.4-2-0.6c-0.6-0.2-1.2-0.5-1.6-0.9
			c-0.5-0.4-0.9-0.8-1.1-1.4s-0.4-1.2-0.4-2c0-0.9,0.2-1.7,0.6-2.3s0.9-1.2,1.5-1.6c0.6-0.4,1.3-0.8,2.1-1c0.8-0.2,1.6-0.3,2.3-0.3
			c1.1,0,2.2,0.2,3.3,0.6c1.1,0.4,1.9,1.1,2.5,2.2L1111.9,480.6z"/>
		<path class="st3" d="M1128.9,479.1h-4.6v7.7c0,0.5,0,0.9,0,1.4c0,0.5,0.1,0.9,0.3,1.3c0.2,0.4,0.4,0.7,0.7,0.9s0.8,0.3,1.4,0.3
			c0.4,0,0.8,0,1.2-0.1c0.4-0.1,0.8-0.2,1.1-0.4v2.9c-0.4,0.2-0.9,0.4-1.5,0.4c-0.6,0.1-1.1,0.1-1.4,0.1c-1.2,0-2.2-0.2-2.9-0.5
			c-0.7-0.3-1.2-0.8-1.5-1.3c-0.3-0.5-0.5-1.2-0.6-1.8c-0.1-0.7-0.1-1.4-0.1-2.1v-8.9h-3.7v-2.8h3.7v-4.8h3.2v4.8h4.6V479.1z"/>
	</g>
</g>
<rect x="871.2" y="774" class="st3" width="200.5" height="66.3"/>
<g>
	<g>
		<g>
			<path class="st4" d="M225.4,157.4v35.7c0,6.6-5.4,12-12,12h-35.7l0,148.8c0,6.6,5.4,12,12,12l128.7,0c6.6,0,12-5.4,12-12l0-184.4
				c0-6.6-5.4-12-12-12L225.4,157.4z"/>
			<path class="st5" d="M225.4,157.4L177.8,205h35.7c6.6,0,12-5.4,12-12V157.4z"/>
			<path class="st6" d="M177.8,245.6V205h35.7c3.2,0,6.1-1.3,8.2-3.3L177.8,245.6z"/>
			<path class="st7" d="M222.1,201.3c0.1-0.1,0.1-0.1,0.2-0.2l0,0L222.1,201.3z"/>
			<g>
				<g>
					<path class="st7" d="M194.9,237.9H290c0.5,0,0.8-0.4,0.8-0.8v-5c0-0.5-0.4-0.8-0.8-0.8h-95.1c-0.5,0-0.8,0.4-0.8,0.8v5
						C194.1,237.5,194.4,237.9,194.9,237.9z"/>
					<path class="st7" d="M228.4,251.4H290c0.5,0,0.8-0.4,0.8-0.8v-5c0-0.5-0.4-0.8-0.8-0.8h-61.6c-0.5,0-0.8,0.4-0.8,0.8v5
						C227.6,251,228,251.4,228.4,251.4z"/>
				</g>
				<g>
					<path class="st7" d="M194.9,284.5H290c0.5,0,0.8-0.4,0.8-0.8v-5c0-0.5-0.4-0.8-0.8-0.8h-95.1c-0.5,0-0.8,0.4-0.8,0.8v5
						C194.1,284.1,194.4,284.5,194.9,284.5z"/>
					<path class="st7" d="M228.4,298H290c0.5,0,0.8-0.4,0.8-0.8v-5c0-0.5-0.4-0.8-0.8-0.8h-61.6c-0.5,0-0.8,0.4-0.8,0.8v5
						C227.6,297.6,228,298,228.4,298z"/>
				</g>
				<g>
					<path class="st7" d="M194.9,331.1H290c0.5,0,0.8-0.4,0.8-0.8v-5c0-0.5-0.4-0.8-0.8-0.8h-95.1c-0.5,0-0.8,0.4-0.8,0.8v5
						C194.1,330.7,194.4,331.1,194.9,331.1z"/>
					<path class="st7" d="M228.4,344.6H290c0.5,0,0.8-0.4,0.8-0.8v-5c0-0.5-0.4-0.8-0.8-0.8h-61.6c-0.5,0-0.8,0.4-0.8,0.8v5
						C227.6,344.2,228,344.6,228.4,344.6z"/>
				</g>
			</g>
		</g>
	</g>
	<g>
		<path class="st8" d="M186.6,383.3h5.1l8.1,19.2h0.1l8-19.2h5.1v25.4h-3.4v-20.9h-0.1l-8.6,20.9h-2.3l-8.6-20.9H190v20.9h-3.4
			V383.3z"/>
		<path class="st8" d="M222,401.3c0,0.7,0.2,1.4,0.5,2c0.3,0.6,0.7,1.1,1.3,1.6c0.5,0.4,1.1,0.8,1.8,1c0.7,0.2,1.4,0.4,2.2,0.4
			c1,0,1.9-0.2,2.6-0.7c0.7-0.5,1.4-1.1,2-1.8l2.4,1.9c-1.8,2.3-4.3,3.5-7.5,3.5c-1.3,0-2.6-0.2-3.6-0.7c-1.1-0.5-2-1.1-2.8-1.9
			c-0.8-0.8-1.3-1.7-1.7-2.8c-0.4-1.1-0.6-2.3-0.6-3.5c0-1.3,0.2-2.4,0.7-3.5c0.4-1.1,1.1-2,1.8-2.8c0.8-0.8,1.7-1.4,2.8-1.9
			c1.1-0.5,2.2-0.7,3.5-0.7c1.5,0,2.8,0.3,3.8,0.8c1,0.5,1.9,1.2,2.6,2.1c0.7,0.8,1.2,1.8,1.5,2.9c0.3,1.1,0.4,2.1,0.4,3.2v1.1H222z
			 M232.2,398.7c0-0.7-0.1-1.4-0.3-2c-0.2-0.6-0.5-1.1-0.9-1.6c-0.4-0.4-0.9-0.8-1.5-1c-0.6-0.3-1.3-0.4-2.1-0.4
			c-0.8,0-1.5,0.1-2.2,0.4c-0.7,0.3-1.2,0.7-1.7,1.2c-0.5,0.5-0.8,1-1.1,1.6c-0.3,0.6-0.4,1.2-0.4,1.7H232.2z"/>
		<path class="st8" d="M249.6,395.9c-0.4-0.5-0.9-0.9-1.4-1.2c-0.6-0.3-1.2-0.5-2.1-0.5c-0.8,0-1.4,0.2-2,0.5
			c-0.6,0.3-0.8,0.8-0.8,1.4c0,0.5,0.2,0.9,0.5,1.2c0.3,0.3,0.7,0.6,1.1,0.8c0.4,0.2,0.9,0.3,1.4,0.4c0.5,0.1,0.9,0.2,1.3,0.3
			c0.7,0.2,1.3,0.4,2,0.6c0.6,0.2,1.1,0.6,1.6,0.9c0.4,0.4,0.8,0.8,1,1.4s0.4,1.2,0.4,2c0,1-0.2,1.8-0.6,2.5
			c-0.4,0.7-0.9,1.2-1.6,1.7s-1.4,0.7-2.2,0.9c-0.8,0.2-1.7,0.3-2.5,0.3c-1.4,0-2.6-0.2-3.7-0.6c-1.1-0.4-2-1.2-2.8-2.4l2.4-2
			c0.5,0.5,1.1,1,1.8,1.4c0.6,0.4,1.4,0.6,2.4,0.6c0.4,0,0.8,0,1.2-0.1c0.4-0.1,0.8-0.2,1.1-0.4c0.3-0.2,0.6-0.4,0.8-0.7
			c0.2-0.3,0.3-0.6,0.3-1c0-0.5-0.1-0.9-0.4-1.2c-0.3-0.3-0.7-0.6-1.1-0.7c-0.4-0.2-0.9-0.3-1.3-0.4c-0.5-0.1-0.9-0.2-1.2-0.3
			c-0.7-0.2-1.4-0.4-2-0.6c-0.6-0.2-1.2-0.5-1.6-0.9c-0.5-0.4-0.9-0.8-1.1-1.4c-0.3-0.5-0.4-1.2-0.4-2c0-0.9,0.2-1.7,0.6-2.3
			c0.4-0.7,0.9-1.2,1.5-1.6s1.3-0.8,2.1-1c0.8-0.2,1.6-0.3,2.3-0.3c1.1,0,2.2,0.2,3.3,0.6c1.1,0.4,1.9,1.1,2.5,2.2L249.6,395.9z"/>
		<path class="st8" d="M266.6,395.9c-0.4-0.5-0.9-0.9-1.4-1.2c-0.6-0.3-1.2-0.5-2.1-0.5c-0.8,0-1.4,0.2-2,0.5
			c-0.6,0.3-0.8,0.8-0.8,1.4c0,0.5,0.2,0.9,0.5,1.2c0.3,0.3,0.7,0.6,1.1,0.8c0.4,0.2,0.9,0.3,1.4,0.4c0.5,0.1,0.9,0.2,1.3,0.3
			c0.7,0.2,1.3,0.4,2,0.6c0.6,0.2,1.1,0.6,1.6,0.9c0.4,0.4,0.8,0.8,1,1.4s0.4,1.2,0.4,2c0,1-0.2,1.8-0.6,2.5
			c-0.4,0.7-0.9,1.2-1.6,1.7s-1.4,0.7-2.2,0.9c-0.8,0.2-1.7,0.3-2.5,0.3c-1.4,0-2.6-0.2-3.7-0.6c-1.1-0.4-2-1.2-2.8-2.4l2.4-2
			c0.5,0.5,1.1,1,1.8,1.4c0.6,0.4,1.4,0.6,2.4,0.6c0.4,0,0.8,0,1.2-0.1c0.4-0.1,0.8-0.2,1.1-0.4c0.3-0.2,0.6-0.4,0.8-0.7
			c0.2-0.3,0.3-0.6,0.3-1c0-0.5-0.1-0.9-0.4-1.2c-0.3-0.3-0.7-0.6-1.1-0.7c-0.4-0.2-0.9-0.3-1.3-0.4c-0.5-0.1-0.9-0.2-1.2-0.3
			c-0.7-0.2-1.4-0.4-2-0.6c-0.6-0.2-1.2-0.5-1.6-0.9c-0.5-0.4-0.9-0.8-1.1-1.4c-0.3-0.5-0.4-1.2-0.4-2c0-0.9,0.2-1.7,0.6-2.3
			c0.4-0.7,0.9-1.2,1.5-1.6s1.3-0.8,2.1-1c0.8-0.2,1.6-0.3,2.3-0.3c1.1,0,2.2,0.2,3.3,0.6c1.1,0.4,1.9,1.1,2.5,2.2L266.6,395.9z"/>
		<path class="st8" d="M274.6,393.7c0.9-0.8,2-1.5,3.2-1.9c1.2-0.4,2.4-0.6,3.6-0.6c1.2,0,2.3,0.2,3.2,0.5c0.9,0.3,1.6,0.7,2.2,1.3
			c0.6,0.5,1,1.1,1.3,1.8c0.3,0.7,0.4,1.4,0.4,2.1v8.7c0,0.6,0,1.1,0,1.6c0,0.5,0.1,1,0.1,1.4h-2.9c-0.1-0.9-0.1-1.7-0.1-2.6h-0.1
			c-0.7,1.1-1.6,1.9-2.5,2.3c-1,0.5-2.1,0.7-3.4,0.7c-0.8,0-1.5-0.1-2.3-0.3c-0.7-0.2-1.3-0.5-1.9-1c-0.5-0.4-1-1-1.3-1.6
			c-0.3-0.6-0.5-1.4-0.5-2.2c0-1.1,0.2-2,0.7-2.8c0.5-0.7,1.2-1.3,2-1.8c0.8-0.5,1.8-0.8,3-1c1.1-0.2,2.3-0.3,3.6-0.3h2.4v-0.7
			c0-0.4-0.1-0.9-0.3-1.3c-0.2-0.4-0.4-0.8-0.8-1.2c-0.3-0.3-0.8-0.6-1.3-0.8c-0.5-0.2-1.1-0.3-1.8-0.3c-0.6,0-1.2,0.1-1.6,0.2
			c-0.5,0.1-0.9,0.3-1.3,0.4c-0.4,0.2-0.7,0.4-1,0.6c-0.3,0.2-0.6,0.5-0.9,0.7L274.6,393.7z M283.7,400.5c-0.8,0-1.5,0-2.3,0.1
			c-0.8,0.1-1.5,0.2-2.2,0.5c-0.7,0.2-1.2,0.6-1.6,1s-0.6,1-0.6,1.6c0,1,0.3,1.7,1,2.1s1.5,0.6,2.7,0.6c0.9,0,1.6-0.1,2.3-0.4
			c0.6-0.3,1.1-0.7,1.5-1.2c0.4-0.5,0.7-1,0.8-1.6c0.2-0.6,0.3-1.2,0.3-1.7v-1.1H283.7z"/>
		<path class="st8" d="M311.2,408.5c0,1.3-0.2,2.5-0.7,3.5c-0.4,1.1-1.1,2-1.9,2.8c-0.8,0.8-1.8,1.4-2.9,1.8s-2.4,0.6-3.8,0.6
			c-1.6,0-3.1-0.2-4.5-0.7c-1.4-0.5-2.6-1.2-3.9-2.4l2.2-2.7c0.8,0.9,1.7,1.6,2.7,2.1c1,0.5,2.1,0.7,3.3,0.7c1.2,0,2.2-0.2,3-0.5
			c0.8-0.3,1.4-0.8,1.9-1.3c0.5-0.5,0.8-1.2,1-1.9c0.2-0.7,0.3-1.4,0.3-2.1v-2.5h-0.1c-0.6,1-1.5,1.8-2.5,2.3
			c-1.1,0.5-2.2,0.7-3.4,0.7c-1.2,0-2.4-0.2-3.5-0.7c-1.1-0.4-2-1.1-2.7-1.8c-0.8-0.8-1.4-1.7-1.8-2.8c-0.4-1.1-0.6-2.2-0.6-3.5
			c0-1.2,0.2-2.4,0.6-3.5c0.4-1.1,1-2,1.7-2.8c0.8-0.8,1.7-1.4,2.7-1.9c1.1-0.5,2.3-0.7,3.6-0.7c1.1,0,2.3,0.3,3.4,0.8
			c1.1,0.5,1.9,1.2,2.6,2.1h0.1v-2.4h3.2V408.5z M302.4,394.2c-0.9,0-1.6,0.1-2.3,0.4c-0.7,0.3-1.3,0.7-1.8,1.2
			c-0.5,0.5-0.8,1.1-1.1,1.9c-0.3,0.7-0.4,1.5-0.4,2.4c0,1.7,0.5,3.1,1.5,4.1c1,1,2.4,1.6,4.1,1.6c1.7,0,3.1-0.5,4.1-1.6
			c1-1,1.5-2.4,1.5-4.1c0-0.9-0.1-1.7-0.4-2.4c-0.3-0.7-0.6-1.3-1.1-1.9c-0.5-0.5-1.1-0.9-1.8-1.2
			C304.1,394.4,303.3,394.2,302.4,394.2z"/>
		<path class="st8" d="M319.6,401.3c0,0.7,0.2,1.4,0.5,2c0.3,0.6,0.7,1.1,1.3,1.6c0.5,0.4,1.1,0.8,1.8,1c0.7,0.2,1.4,0.4,2.2,0.4
			c1,0,1.9-0.2,2.6-0.7c0.7-0.5,1.4-1.1,2-1.8l2.4,1.9c-1.8,2.3-4.3,3.5-7.5,3.5c-1.3,0-2.6-0.2-3.6-0.7c-1.1-0.5-2-1.1-2.8-1.9
			c-0.8-0.8-1.3-1.7-1.7-2.8c-0.4-1.1-0.6-2.3-0.6-3.5c0-1.3,0.2-2.4,0.7-3.5c0.4-1.1,1.1-2,1.8-2.8c0.8-0.8,1.7-1.4,2.8-1.9
			c1.1-0.5,2.2-0.7,3.5-0.7c1.5,0,2.8,0.3,3.8,0.8c1,0.5,1.9,1.2,2.6,2.1c0.7,0.8,1.2,1.8,1.5,2.9c0.3,1.1,0.4,2.1,0.4,3.2v1.1
			H319.6z M329.8,398.7c0-0.7-0.1-1.4-0.3-2c-0.2-0.6-0.5-1.1-0.9-1.6c-0.4-0.4-0.9-0.8-1.5-1c-0.6-0.3-1.3-0.4-2.1-0.4
			c-0.8,0-1.5,0.1-2.2,0.4c-0.7,0.3-1.2,0.7-1.7,1.2c-0.5,0.5-0.8,1-1.1,1.6c-0.3,0.6-0.4,1.2-0.4,1.7H329.8z"/>
	</g>
</g>
<g>
	<g>
		<g>
			<path class="st4" d="M557.3,157.4v35.7c0,6.6-5.4,12-12,12h-35.7l0,148.8c0,6.6,5.4,12,12,12l128.7,0c6.6,0,12-5.4,12-12l0-184.4
				c0-6.6-5.4-12-12-12L557.3,157.4z"/>
			<path class="st5" d="M557.3,157.4L509.7,205h35.7c6.6,0,12-5.4,12-12V157.4z"/>
			<path class="st6" d="M509.7,245.6V205h35.7c3.2,0,6.1-1.3,8.2-3.3L509.7,245.6z"/>
			<path class="st7" d="M554,201.3c0.1-0.1,0.1-0.1,0.2-0.2l0,0L554,201.3z"/>
			<g>
				<g>
					<path class="st7" d="M526.8,237.9h95.1c0.5,0,0.8-0.4,0.8-0.8v-5c0-0.5-0.4-0.8-0.8-0.8h-95.1c-0.5,0-0.8,0.4-0.8,0.8v5
						C526,237.5,526.4,237.9,526.8,237.9z"/>
					<path class="st7" d="M560.4,251.4h61.6c0.5,0,0.8-0.4,0.8-0.8v-5c0-0.5-0.4-0.8-0.8-0.8h-61.6c-0.5,0-0.8,0.4-0.8,0.8v5
						C559.5,251,559.9,251.4,560.4,251.4z"/>
				</g>
				<g>
					<path class="st7" d="M526.8,284.5h95.1c0.5,0,0.8-0.4,0.8-0.8v-5c0-0.5-0.4-0.8-0.8-0.8h-95.1c-0.5,0-0.8,0.4-0.8,0.8v5
						C526,284.1,526.4,284.5,526.8,284.5z"/>
					<path class="st7" d="M560.4,298h61.6c0.5,0,0.8-0.4,0.8-0.8v-5c0-0.5-0.4-0.8-0.8-0.8h-61.6c-0.5,0-0.8,0.4-0.8,0.8v5
						C559.5,297.6,559.9,298,560.4,298z"/>
				</g>
				<g>
					<path class="st7" d="M526.8,331.1h95.1c0.5,0,0.8-0.4,0.8-0.8v-5c0-0.5-0.4-0.8-0.8-0.8h-95.1c-0.5,0-0.8,0.4-0.8,0.8v5
						C526,330.7,526.4,331.1,526.8,331.1z"/>
					<path class="st7" d="M560.4,344.6h61.6c0.5,0,0.8-0.4,0.8-0.8v-5c0-0.5-0.4-0.8-0.8-0.8h-61.6c-0.5,0-0.8,0.4-0.8,0.8v5
						C559.5,344.2,559.9,344.6,560.4,344.6z"/>
				</g>
			</g>
		</g>
	</g>
	<g>
		<path class="st8" d="M518.5,383.3h5.1l8.1,19.2h0.1l8-19.2h5.1v25.4h-3.4v-20.9h-0.1l-8.6,20.9h-2.3l-8.6-20.9h-0.1v20.9h-3.4
			V383.3z"/>
		<path class="st8" d="M553.9,401.3c0,0.7,0.2,1.4,0.5,2c0.3,0.6,0.7,1.1,1.3,1.6c0.5,0.4,1.1,0.8,1.8,1c0.7,0.2,1.4,0.4,2.2,0.4
			c1,0,1.9-0.2,2.6-0.7c0.7-0.5,1.4-1.1,2-1.8l2.4,1.9c-1.8,2.3-4.3,3.5-7.5,3.5c-1.3,0-2.6-0.2-3.6-0.7c-1.1-0.5-2-1.1-2.8-1.9
			c-0.8-0.8-1.3-1.7-1.7-2.8c-0.4-1.1-0.6-2.3-0.6-3.5c0-1.3,0.2-2.4,0.7-3.5c0.4-1.1,1.1-2,1.8-2.8c0.8-0.8,1.7-1.4,2.8-1.9
			c1.1-0.5,2.2-0.7,3.5-0.7c1.5,0,2.8,0.3,3.8,0.8c1,0.5,1.9,1.2,2.6,2.1c0.7,0.8,1.2,1.8,1.5,2.9c0.3,1.1,0.4,2.1,0.4,3.2v1.1
			H553.9z M564.1,398.7c0-0.7-0.1-1.4-0.3-2c-0.2-0.6-0.5-1.1-0.9-1.6c-0.4-0.4-0.9-0.8-1.5-1c-0.6-0.3-1.3-0.4-2.1-0.4
			c-0.8,0-1.5,0.1-2.2,0.4c-0.7,0.3-1.2,0.7-1.7,1.2c-0.5,0.5-0.8,1-1.1,1.6c-0.3,0.6-0.4,1.2-0.4,1.7H564.1z"/>
		<path class="st8" d="M581.5,395.9c-0.4-0.5-0.9-0.9-1.4-1.2c-0.6-0.3-1.2-0.5-2.1-0.5c-0.8,0-1.4,0.2-2,0.5
			c-0.6,0.3-0.8,0.8-0.8,1.4c0,0.5,0.2,0.9,0.5,1.2c0.3,0.3,0.7,0.6,1.1,0.8c0.4,0.2,0.9,0.3,1.4,0.4c0.5,0.1,0.9,0.2,1.3,0.3
			c0.7,0.2,1.3,0.4,2,0.6c0.6,0.2,1.1,0.6,1.6,0.9c0.4,0.4,0.8,0.8,1,1.4s0.4,1.2,0.4,2c0,1-0.2,1.8-0.6,2.5
			c-0.4,0.7-0.9,1.2-1.6,1.7s-1.4,0.7-2.2,0.9c-0.8,0.2-1.7,0.3-2.5,0.3c-1.4,0-2.6-0.2-3.7-0.6c-1.1-0.4-2-1.2-2.8-2.4l2.4-2
			c0.5,0.5,1.1,1,1.8,1.4c0.6,0.4,1.4,0.6,2.4,0.6c0.4,0,0.8,0,1.2-0.1c0.4-0.1,0.8-0.2,1.1-0.4c0.3-0.2,0.6-0.4,0.8-0.7
			c0.2-0.3,0.3-0.6,0.3-1c0-0.5-0.1-0.9-0.4-1.2c-0.3-0.3-0.7-0.6-1.1-0.7c-0.4-0.2-0.9-0.3-1.3-0.4c-0.5-0.1-0.9-0.2-1.2-0.3
			c-0.7-0.2-1.4-0.4-2-0.6c-0.6-0.2-1.2-0.5-1.6-0.9c-0.5-0.4-0.9-0.8-1.1-1.4c-0.3-0.5-0.4-1.2-0.4-2c0-0.9,0.2-1.7,0.6-2.3
			c0.4-0.7,0.9-1.2,1.5-1.6s1.3-0.8,2.1-1c0.8-0.2,1.6-0.3,2.3-0.3c1.1,0,2.2,0.2,3.3,0.6c1.1,0.4,1.9,1.1,2.5,2.2L581.5,395.9z"/>
		<path class="st8" d="M598.5,395.9c-0.4-0.5-0.9-0.9-1.4-1.2c-0.6-0.3-1.2-0.5-2.1-0.5c-0.8,0-1.4,0.2-2,0.5
			c-0.6,0.3-0.8,0.8-0.8,1.4c0,0.5,0.2,0.9,0.5,1.2c0.3,0.3,0.7,0.6,1.1,0.8c0.4,0.2,0.9,0.3,1.4,0.4c0.5,0.1,0.9,0.2,1.3,0.3
			c0.7,0.2,1.3,0.4,2,0.6c0.6,0.2,1.1,0.6,1.6,0.9c0.4,0.4,0.8,0.8,1,1.4s0.4,1.2,0.4,2c0,1-0.2,1.8-0.6,2.5
			c-0.4,0.7-0.9,1.2-1.6,1.7s-1.4,0.7-2.2,0.9c-0.8,0.2-1.7,0.3-2.5,0.3c-1.4,0-2.6-0.2-3.7-0.6c-1.1-0.4-2-1.2-2.8-2.4l2.4-2
			c0.5,0.5,1.1,1,1.8,1.4c0.6,0.4,1.4,0.6,2.4,0.6c0.4,0,0.8,0,1.2-0.1c0.4-0.1,0.8-0.2,1.1-0.4c0.3-0.2,0.6-0.4,0.8-0.7
			c0.2-0.3,0.3-0.6,0.3-1c0-0.5-0.1-0.9-0.4-1.2c-0.3-0.3-0.7-0.6-1.1-0.7c-0.4-0.2-0.9-0.3-1.3-0.4c-0.5-0.1-0.9-0.2-1.2-0.3
			c-0.7-0.2-1.4-0.4-2-0.6c-0.6-0.2-1.2-0.5-1.6-0.9c-0.5-0.4-0.9-0.8-1.1-1.4c-0.3-0.5-0.4-1.2-0.4-2c0-0.9,0.2-1.7,0.6-2.3
			c0.4-0.7,0.9-1.2,1.5-1.6s1.3-0.8,2.1-1c0.8-0.2,1.6-0.3,2.3-0.3c1.1,0,2.2,0.2,3.3,0.6c1.1,0.4,1.9,1.1,2.5,2.2L598.5,395.9z"/>
		<path class="st8" d="M606.5,393.7c0.9-0.8,2-1.5,3.2-1.9c1.2-0.4,2.4-0.6,3.6-0.6c1.2,0,2.3,0.2,3.2,0.5c0.9,0.3,1.6,0.7,2.2,1.3
			c0.6,0.5,1,1.1,1.3,1.8c0.3,0.7,0.4,1.4,0.4,2.1v8.7c0,0.6,0,1.1,0,1.6c0,0.5,0.1,1,0.1,1.4h-2.9c-0.1-0.9-0.1-1.7-0.1-2.6h-0.1
			c-0.7,1.1-1.6,1.9-2.5,2.3c-1,0.5-2.1,0.7-3.4,0.7c-0.8,0-1.5-0.1-2.3-0.3c-0.7-0.2-1.3-0.5-1.9-1c-0.5-0.4-1-1-1.3-1.6
			c-0.3-0.6-0.5-1.4-0.5-2.2c0-1.1,0.2-2,0.7-2.8c0.5-0.7,1.2-1.3,2-1.8c0.8-0.5,1.8-0.8,3-1c1.1-0.2,2.3-0.3,3.6-0.3h2.4v-0.7
			c0-0.4-0.1-0.9-0.3-1.3c-0.2-0.4-0.4-0.8-0.8-1.2c-0.3-0.3-0.8-0.6-1.3-0.8c-0.5-0.2-1.1-0.3-1.8-0.3c-0.6,0-1.2,0.1-1.6,0.2
			c-0.5,0.1-0.9,0.3-1.3,0.4c-0.4,0.2-0.7,0.4-1,0.6c-0.3,0.2-0.6,0.5-0.9,0.7L606.5,393.7z M615.6,400.5c-0.8,0-1.5,0-2.3,0.1
			c-0.8,0.1-1.5,0.2-2.2,0.5c-0.7,0.2-1.2,0.6-1.6,1s-0.6,1-0.6,1.6c0,1,0.3,1.7,1,2.1s1.5,0.6,2.7,0.6c0.9,0,1.6-0.1,2.3-0.4
			c0.6-0.3,1.1-0.7,1.5-1.2c0.4-0.5,0.7-1,0.8-1.6c0.2-0.6,0.3-1.2,0.3-1.7v-1.1H615.6z"/>
		<path class="st8" d="M643.2,408.5c0,1.3-0.2,2.5-0.7,3.5c-0.4,1.1-1.1,2-1.9,2.8c-0.8,0.8-1.8,1.4-2.9,1.8s-2.4,0.6-3.8,0.6
			c-1.6,0-3.1-0.2-4.5-0.7c-1.4-0.5-2.6-1.2-3.9-2.4l2.2-2.7c0.8,0.9,1.7,1.6,2.7,2.1c1,0.5,2.1,0.7,3.3,0.7c1.2,0,2.2-0.2,3-0.5
			c0.8-0.3,1.4-0.8,1.9-1.3c0.5-0.5,0.8-1.2,1-1.9c0.2-0.7,0.3-1.4,0.3-2.1v-2.5h-0.1c-0.6,1-1.5,1.8-2.5,2.3
			c-1.1,0.5-2.2,0.7-3.4,0.7c-1.2,0-2.4-0.2-3.5-0.7c-1.1-0.4-2-1.1-2.7-1.8c-0.8-0.8-1.4-1.7-1.8-2.8c-0.4-1.1-0.6-2.2-0.6-3.5
			c0-1.2,0.2-2.4,0.6-3.5c0.4-1.1,1-2,1.7-2.8c0.8-0.8,1.7-1.4,2.7-1.9c1.1-0.5,2.3-0.7,3.6-0.7c1.1,0,2.3,0.3,3.4,0.8
			c1.1,0.5,1.9,1.2,2.6,2.1h0.1v-2.4h3.2V408.5z M634.3,394.2c-0.9,0-1.6,0.1-2.3,0.4c-0.7,0.3-1.3,0.7-1.8,1.2
			c-0.5,0.5-0.8,1.1-1.1,1.9c-0.3,0.7-0.4,1.5-0.4,2.4c0,1.7,0.5,3.1,1.5,4.1c1,1,2.4,1.6,4.1,1.6c1.7,0,3.1-0.5,4.1-1.6
			c1-1,1.5-2.4,1.5-4.1c0-0.9-0.1-1.7-0.4-2.4c-0.3-0.7-0.6-1.3-1.1-1.9c-0.5-0.5-1.1-0.9-1.8-1.2
			C636,394.4,635.2,394.2,634.3,394.2z"/>
		<path class="st8" d="M651.5,401.3c0,0.7,0.2,1.4,0.5,2c0.3,0.6,0.7,1.1,1.3,1.6c0.5,0.4,1.1,0.8,1.8,1c0.7,0.2,1.4,0.4,2.2,0.4
			c1,0,1.9-0.2,2.6-0.7c0.7-0.5,1.4-1.1,2-1.8l2.4,1.9c-1.8,2.3-4.3,3.5-7.5,3.5c-1.3,0-2.6-0.2-3.6-0.7c-1.1-0.5-2-1.1-2.8-1.9
			c-0.8-0.8-1.3-1.7-1.7-2.8c-0.4-1.1-0.6-2.3-0.6-3.5c0-1.3,0.2-2.4,0.7-3.5c0.4-1.1,1.1-2,1.8-2.8c0.8-0.8,1.7-1.4,2.8-1.9
			c1.1-0.5,2.2-0.7,3.5-0.7c1.5,0,2.8,0.3,3.8,0.8c1,0.5,1.9,1.2,2.6,2.1c0.7,0.8,1.2,1.8,1.5,2.9c0.3,1.1,0.4,2.1,0.4,3.2v1.1
			H651.5z M661.7,398.7c0-0.7-0.1-1.4-0.3-2c-0.2-0.6-0.5-1.1-0.9-1.6c-0.4-0.4-0.9-0.8-1.5-1c-0.6-0.3-1.3-0.4-2.1-0.4
			c-0.8,0-1.5,0.1-2.2,0.4c-0.7,0.3-1.2,0.7-1.7,1.2c-0.5,0.5-0.8,1-1.1,1.6c-0.3,0.6-0.4,1.2-0.4,1.7H661.7z"/>
	</g>
</g>
<g>
	<g>
		<g>
			<path class="st4" d="M940.6,157.4v35.7c0,6.6-5.4,12-12,12h-35.7l0,148.8c0,6.6,5.4,12,12,12l128.7,0c6.6,0,12-5.4,12-12l0-184.4
				c0-6.6-5.4-12-12-12L940.6,157.4z"/>
			<path class="st5" d="M940.6,157.4L892.9,205h35.7c6.6,0,12-5.4,12-12V157.4z"/>
			<path class="st6" d="M892.9,245.6V205h35.7c3.2,0,6.1-1.3,8.2-3.3L892.9,245.6z"/>
			<path class="st7" d="M937.3,201.3c0.1-0.1,0.1-0.1,0.2-0.2l0,0L937.3,201.3z"/>
			<g>
				<g>
					<path class="st7" d="M910.1,237.9h95.1c0.5,0,0.8-0.4,0.8-0.8v-5c0-0.5-0.4-0.8-0.8-0.8h-95.1c-0.5,0-0.8,0.4-0.8,0.8v5
						C909.2,237.5,909.6,237.9,910.1,237.9z"/>
					<path class="st7" d="M943.6,251.4h61.6c0.5,0,0.8-0.4,0.8-0.8v-5c0-0.5-0.4-0.8-0.8-0.8h-61.6c-0.5,0-0.8,0.4-0.8,0.8v5
						C942.8,251,943.1,251.4,943.6,251.4z"/>
				</g>
				<g>
					<path class="st7" d="M910.1,284.5h95.1c0.5,0,0.8-0.4,0.8-0.8v-5c0-0.5-0.4-0.8-0.8-0.8h-95.1c-0.5,0-0.8,0.4-0.8,0.8v5
						C909.2,284.1,909.6,284.5,910.1,284.5z"/>
					<path class="st7" d="M943.6,298h61.6c0.5,0,0.8-0.4,0.8-0.8v-5c0-0.5-0.4-0.8-0.8-0.8h-61.6c-0.5,0-0.8,0.4-0.8,0.8v5
						C942.8,297.6,943.1,298,943.6,298z"/>
				</g>
				<g>
					<path class="st7" d="M910.1,331.1h95.1c0.5,0,0.8-0.4,0.8-0.8v-5c0-0.5-0.4-0.8-0.8-0.8h-95.1c-0.5,0-0.8,0.4-0.8,0.8v5
						C909.2,330.7,909.6,331.1,910.1,331.1z"/>
					<path class="st7" d="M943.6,344.6h61.6c0.5,0,0.8-0.4,0.8-0.8v-5c0-0.5-0.4-0.8-0.8-0.8h-61.6c-0.5,0-0.8,0.4-0.8,0.8v5
						C942.8,344.2,943.1,344.6,943.6,344.6z"/>
				</g>
			</g>
		</g>
	</g>
	<g>
		<path class="st8" d="M901.7,383.3h5.1l8.1,19.2h0.1l8-19.2h5.1v25.4h-3.4v-20.9h-0.1l-8.6,20.9h-2.3l-8.6-20.9h-0.1v20.9h-3.4
			V383.3z"/>
		<path class="st8" d="M937.2,401.3c0,0.7,0.2,1.4,0.5,2s0.7,1.1,1.3,1.6s1.1,0.8,1.8,1c0.7,0.2,1.4,0.4,2.2,0.4
			c1,0,1.9-0.2,2.6-0.7c0.7-0.5,1.4-1.1,2-1.8l2.4,1.9c-1.8,2.3-4.3,3.5-7.5,3.5c-1.3,0-2.6-0.2-3.6-0.7s-2-1.1-2.8-1.9
			c-0.8-0.8-1.3-1.7-1.7-2.8c-0.4-1.1-0.6-2.3-0.6-3.5c0-1.3,0.2-2.4,0.7-3.5c0.4-1.1,1.1-2,1.8-2.8c0.8-0.8,1.7-1.4,2.8-1.9
			c1.1-0.5,2.2-0.7,3.5-0.7c1.5,0,2.8,0.3,3.8,0.8c1,0.5,1.9,1.2,2.6,2.1c0.7,0.8,1.2,1.8,1.5,2.9c0.3,1.1,0.4,2.1,0.4,3.2v1.1
			H937.2z M947.3,398.7c0-0.7-0.1-1.4-0.3-2c-0.2-0.6-0.5-1.1-0.9-1.6c-0.4-0.4-0.9-0.8-1.5-1s-1.3-0.4-2.1-0.4
			c-0.8,0-1.5,0.1-2.2,0.4s-1.2,0.7-1.7,1.2c-0.5,0.5-0.8,1-1.1,1.6c-0.3,0.6-0.4,1.2-0.4,1.7H947.3z"/>
		<path class="st8" d="M964.7,395.9c-0.4-0.5-0.9-0.9-1.4-1.2c-0.6-0.3-1.2-0.5-2.1-0.5c-0.8,0-1.4,0.2-2,0.5
			c-0.6,0.3-0.8,0.8-0.8,1.4c0,0.5,0.2,0.9,0.5,1.2c0.3,0.3,0.7,0.6,1.1,0.8c0.4,0.2,0.9,0.3,1.4,0.4c0.5,0.1,0.9,0.2,1.3,0.3
			c0.7,0.2,1.3,0.4,2,0.6c0.6,0.2,1.1,0.6,1.6,0.9c0.4,0.4,0.8,0.8,1,1.4s0.4,1.2,0.4,2c0,1-0.2,1.8-0.6,2.5
			c-0.4,0.7-0.9,1.2-1.6,1.7c-0.6,0.4-1.4,0.7-2.2,0.9s-1.7,0.3-2.5,0.3c-1.4,0-2.6-0.2-3.7-0.6c-1.1-0.4-2-1.2-2.8-2.4l2.4-2
			c0.5,0.5,1.1,1,1.8,1.4c0.6,0.4,1.4,0.6,2.4,0.6c0.4,0,0.8,0,1.2-0.1c0.4-0.1,0.8-0.2,1.1-0.4c0.3-0.2,0.6-0.4,0.8-0.7
			c0.2-0.3,0.3-0.6,0.3-1c0-0.5-0.1-0.9-0.4-1.2c-0.3-0.3-0.7-0.6-1.1-0.7s-0.9-0.3-1.3-0.4c-0.5-0.1-0.9-0.2-1.2-0.3
			c-0.7-0.2-1.4-0.4-2-0.6c-0.6-0.2-1.2-0.5-1.6-0.9c-0.5-0.4-0.9-0.8-1.1-1.4c-0.3-0.5-0.4-1.2-0.4-2c0-0.9,0.2-1.7,0.6-2.3
			c0.4-0.7,0.9-1.2,1.5-1.6c0.6-0.4,1.3-0.8,2.1-1c0.8-0.2,1.6-0.3,2.3-0.3c1.1,0,2.2,0.2,3.3,0.6c1.1,0.4,1.9,1.1,2.5,2.2
			L964.7,395.9z"/>
		<path class="st8" d="M981.7,395.9c-0.4-0.5-0.9-0.9-1.4-1.2c-0.6-0.3-1.2-0.5-2.1-0.5c-0.8,0-1.4,0.2-2,0.5
			c-0.6,0.3-0.8,0.8-0.8,1.4c0,0.5,0.2,0.9,0.5,1.2c0.3,0.3,0.7,0.6,1.1,0.8c0.4,0.2,0.9,0.3,1.4,0.4c0.5,0.1,0.9,0.2,1.3,0.3
			c0.7,0.2,1.3,0.4,2,0.6c0.6,0.2,1.1,0.6,1.6,0.9c0.4,0.4,0.8,0.8,1,1.4s0.4,1.2,0.4,2c0,1-0.2,1.8-0.6,2.5
			c-0.4,0.7-0.9,1.2-1.6,1.7c-0.6,0.4-1.4,0.7-2.2,0.9s-1.7,0.3-2.5,0.3c-1.4,0-2.6-0.2-3.7-0.6c-1.1-0.4-2-1.2-2.8-2.4l2.4-2
			c0.5,0.5,1.1,1,1.8,1.4c0.6,0.4,1.4,0.6,2.4,0.6c0.4,0,0.8,0,1.2-0.1c0.4-0.1,0.8-0.2,1.1-0.4c0.3-0.2,0.6-0.4,0.8-0.7
			c0.2-0.3,0.3-0.6,0.3-1c0-0.5-0.1-0.9-0.4-1.2c-0.3-0.3-0.7-0.6-1.1-0.7s-0.9-0.3-1.3-0.4c-0.5-0.1-0.9-0.2-1.2-0.3
			c-0.7-0.2-1.4-0.4-2-0.6c-0.6-0.2-1.2-0.5-1.6-0.9c-0.5-0.4-0.9-0.8-1.1-1.4c-0.3-0.5-0.4-1.2-0.4-2c0-0.9,0.2-1.7,0.6-2.3
			c0.4-0.7,0.9-1.2,1.5-1.6c0.6-0.4,1.3-0.8,2.1-1c0.8-0.2,1.6-0.3,2.3-0.3c1.1,0,2.2,0.2,3.3,0.6c1.1,0.4,1.9,1.1,2.5,2.2
			L981.7,395.9z"/>
		<path class="st8" d="M989.8,393.7c0.9-0.8,2-1.5,3.2-1.9c1.2-0.4,2.4-0.6,3.6-0.6c1.2,0,2.3,0.2,3.2,0.5c0.9,0.3,1.6,0.7,2.2,1.3
			c0.6,0.5,1,1.1,1.3,1.8s0.4,1.4,0.4,2.1v8.7c0,0.6,0,1.1,0,1.6c0,0.5,0.1,1,0.1,1.4h-2.9c-0.1-0.9-0.1-1.7-0.1-2.6h-0.1
			c-0.7,1.1-1.6,1.9-2.5,2.3c-1,0.5-2.1,0.7-3.4,0.7c-0.8,0-1.5-0.1-2.3-0.3c-0.7-0.2-1.3-0.5-1.9-1c-0.5-0.4-1-1-1.3-1.6
			c-0.3-0.6-0.5-1.4-0.5-2.2c0-1.1,0.2-2,0.7-2.8c0.5-0.7,1.2-1.3,2-1.8c0.8-0.5,1.8-0.8,3-1c1.1-0.2,2.3-0.3,3.6-0.3h2.4v-0.7
			c0-0.4-0.1-0.9-0.3-1.3c-0.2-0.4-0.4-0.8-0.8-1.2c-0.3-0.3-0.8-0.6-1.3-0.8c-0.5-0.2-1.1-0.3-1.8-0.3c-0.6,0-1.2,0.1-1.6,0.2
			c-0.5,0.1-0.9,0.3-1.3,0.4c-0.4,0.2-0.7,0.4-1,0.6c-0.3,0.2-0.6,0.5-0.9,0.7L989.8,393.7z M998.9,400.5c-0.8,0-1.5,0-2.3,0.1
			c-0.8,0.1-1.5,0.2-2.2,0.5c-0.7,0.2-1.2,0.6-1.6,1s-0.6,1-0.6,1.6c0,1,0.3,1.7,1,2.1s1.5,0.6,2.7,0.6c0.9,0,1.6-0.1,2.3-0.4
			c0.6-0.3,1.1-0.7,1.5-1.2c0.4-0.5,0.7-1,0.8-1.6c0.2-0.6,0.3-1.2,0.3-1.7v-1.1H998.9z"/>
		<path class="st8" d="M1026.4,408.5c0,1.3-0.2,2.5-0.7,3.5c-0.4,1.1-1.1,2-1.9,2.8c-0.8,0.8-1.8,1.4-2.9,1.8
			c-1.1,0.4-2.4,0.6-3.8,0.6c-1.6,0-3.1-0.2-4.5-0.7c-1.4-0.5-2.6-1.2-3.9-2.4l2.2-2.7c0.8,0.9,1.7,1.6,2.7,2.1
			c1,0.5,2.1,0.7,3.3,0.7c1.2,0,2.2-0.2,3-0.5c0.8-0.3,1.4-0.8,1.9-1.3c0.5-0.5,0.8-1.2,1-1.9c0.2-0.7,0.3-1.4,0.3-2.1v-2.5h-0.1
			c-0.6,1-1.5,1.8-2.5,2.3c-1.1,0.5-2.2,0.7-3.4,0.7c-1.2,0-2.4-0.2-3.5-0.7c-1.1-0.4-2-1.1-2.7-1.8c-0.8-0.8-1.4-1.7-1.8-2.8
			c-0.4-1.1-0.6-2.2-0.6-3.5c0-1.2,0.2-2.4,0.6-3.5c0.4-1.1,1-2,1.7-2.8c0.8-0.8,1.7-1.4,2.7-1.9c1.1-0.5,2.3-0.7,3.6-0.7
			c1.1,0,2.3,0.3,3.4,0.8c1.1,0.5,1.9,1.2,2.6,2.1h0.1v-2.4h3.2V408.5z M1017.6,394.2c-0.9,0-1.6,0.1-2.3,0.4
			c-0.7,0.3-1.3,0.7-1.8,1.2c-0.5,0.5-0.8,1.1-1.1,1.9c-0.3,0.7-0.4,1.5-0.4,2.4c0,1.7,0.5,3.1,1.5,4.1c1,1,2.4,1.6,4.1,1.6
			s3.1-0.5,4.1-1.6s1.5-2.4,1.5-4.1c0-0.9-0.1-1.7-0.4-2.4c-0.3-0.7-0.6-1.3-1.1-1.9c-0.5-0.5-1.1-0.9-1.8-1.2
			C1019.2,394.4,1018.4,394.2,1017.6,394.2z"/>
		<path class="st8" d="M1034.8,401.3c0,0.7,0.2,1.4,0.5,2s0.7,1.1,1.3,1.6s1.1,0.8,1.8,1c0.7,0.2,1.4,0.4,2.2,0.4
			c1,0,1.9-0.2,2.6-0.7c0.7-0.5,1.4-1.1,2-1.8l2.4,1.9c-1.8,2.3-4.3,3.5-7.5,3.5c-1.3,0-2.6-0.2-3.6-0.7s-2-1.1-2.8-1.9
			c-0.8-0.8-1.3-1.7-1.7-2.8c-0.4-1.1-0.6-2.3-0.6-3.5c0-1.3,0.2-2.4,0.7-3.5c0.4-1.1,1.1-2,1.8-2.8c0.8-0.8,1.7-1.4,2.8-1.9
			c1.1-0.5,2.2-0.7,3.5-0.7c1.5,0,2.8,0.3,3.8,0.8c1,0.5,1.9,1.2,2.6,2.1c0.7,0.8,1.2,1.8,1.5,2.9c0.3,1.1,0.4,2.1,0.4,3.2v1.1
			H1034.8z M1045,398.7c0-0.7-0.1-1.4-0.3-2c-0.2-0.6-0.5-1.1-0.9-1.6c-0.4-0.4-0.9-0.8-1.5-1s-1.3-0.4-2.1-0.4
			c-0.8,0-1.5,0.1-2.2,0.4s-1.2,0.7-1.7,1.2c-0.5,0.5-0.8,1-1.1,1.6c-0.3,0.6-0.4,1.2-0.4,1.7H1045z"/>
	</g>
</g>
<g>
	<g>
		<g>
			<path class="st4" d="M1287.8,157.4v35.7c0,6.6-5.4,12-12,12h-35.7l0,148.8c0,6.6,5.4,12,12,12l128.7,0c6.6,0,12-5.4,12-12
				l0-184.4c0-6.6-5.4-12-12-12L1287.8,157.4z"/>
			<path class="st5" d="M1287.8,157.4l-47.6,47.6h35.7c6.6,0,12-5.4,12-12V157.4z"/>
			<path class="st6" d="M1240.2,245.6V205h35.7c3.2,0,6.1-1.3,8.2-3.3L1240.2,245.6z"/>
			<path class="st7" d="M1284.5,201.3c0.1-0.1,0.1-0.1,0.2-0.2l0,0L1284.5,201.3z"/>
			<g>
				<g>
					<path class="st7" d="M1257.3,237.9h95.1c0.5,0,0.8-0.4,0.8-0.8v-5c0-0.5-0.4-0.8-0.8-0.8h-95.1c-0.5,0-0.8,0.4-0.8,0.8v5
						C1256.5,237.5,1256.8,237.9,1257.3,237.9z"/>
					<path class="st7" d="M1290.8,251.4h61.6c0.5,0,0.8-0.4,0.8-0.8v-5c0-0.5-0.4-0.8-0.8-0.8h-61.6c-0.5,0-0.8,0.4-0.8,0.8v5
						C1290,251,1290.4,251.4,1290.8,251.4z"/>
				</g>
				<g>
					<path class="st7" d="M1257.3,284.5h95.1c0.5,0,0.8-0.4,0.8-0.8v-5c0-0.5-0.4-0.8-0.8-0.8h-95.1c-0.5,0-0.8,0.4-0.8,0.8v5
						C1256.5,284.1,1256.8,284.5,1257.3,284.5z"/>
					<path class="st7" d="M1290.8,298h61.6c0.5,0,0.8-0.4,0.8-0.8v-5c0-0.5-0.4-0.8-0.8-0.8h-61.6c-0.5,0-0.8,0.4-0.8,0.8v5
						C1290,297.6,1290.4,298,1290.8,298z"/>
				</g>
				<g>
					<path class="st7" d="M1257.3,331.1h95.1c0.5,0,0.8-0.4,0.8-0.8v-5c0-0.5-0.4-0.8-0.8-0.8h-95.1c-0.5,0-0.8,0.4-0.8,0.8v5
						C1256.5,330.7,1256.8,331.1,1257.3,331.1z"/>
					<path class="st7" d="M1290.8,344.6h61.6c0.5,0,0.8-0.4,0.8-0.8v-5c0-0.5-0.4-0.8-0.8-0.8h-61.6c-0.5,0-0.8,0.4-0.8,0.8v5
						C1290,344.2,1290.4,344.6,1290.8,344.6z"/>
				</g>
			</g>
		</g>
	</g>
	<g>
		<path class="st8" d="M1249,383.3h5.1l8.1,19.2h0.1l8-19.2h5.1v25.4h-3.4v-20.9h-0.1l-8.6,20.9h-2.3l-8.6-20.9h-0.1v20.9h-3.4
			V383.3z"/>
		<path class="st8" d="M1284.4,401.3c0,0.7,0.2,1.4,0.5,2s0.7,1.1,1.3,1.6s1.1,0.8,1.8,1c0.7,0.2,1.4,0.4,2.2,0.4
			c1,0,1.9-0.2,2.6-0.7c0.7-0.5,1.4-1.1,2-1.8l2.4,1.9c-1.8,2.3-4.3,3.5-7.5,3.5c-1.3,0-2.6-0.2-3.6-0.7s-2-1.1-2.8-1.9
			c-0.8-0.8-1.3-1.7-1.7-2.8c-0.4-1.1-0.6-2.3-0.6-3.5c0-1.3,0.2-2.4,0.7-3.5c0.4-1.1,1.1-2,1.8-2.8c0.8-0.8,1.7-1.4,2.8-1.9
			c1.1-0.5,2.2-0.7,3.5-0.7c1.5,0,2.8,0.3,3.8,0.8c1,0.5,1.9,1.2,2.6,2.1c0.7,0.8,1.2,1.8,1.5,2.9c0.3,1.1,0.4,2.1,0.4,3.2v1.1
			H1284.4z M1294.6,398.7c0-0.7-0.1-1.4-0.3-2c-0.2-0.6-0.5-1.1-0.9-1.6c-0.4-0.4-0.9-0.8-1.5-1s-1.3-0.4-2.1-0.4
			c-0.8,0-1.5,0.1-2.2,0.4s-1.2,0.7-1.7,1.2c-0.5,0.5-0.8,1-1.1,1.6c-0.3,0.6-0.4,1.2-0.4,1.7H1294.6z"/>
		<path class="st8" d="M1312,395.9c-0.4-0.5-0.9-0.9-1.4-1.2c-0.6-0.3-1.2-0.5-2.1-0.5c-0.8,0-1.4,0.2-2,0.5
			c-0.6,0.3-0.8,0.8-0.8,1.4c0,0.5,0.2,0.9,0.5,1.2c0.3,0.3,0.7,0.6,1.1,0.8c0.4,0.2,0.9,0.3,1.4,0.4c0.5,0.1,0.9,0.2,1.3,0.3
			c0.7,0.2,1.3,0.4,2,0.6c0.6,0.2,1.1,0.6,1.6,0.9c0.4,0.4,0.8,0.8,1,1.4s0.4,1.2,0.4,2c0,1-0.2,1.8-0.6,2.5
			c-0.4,0.7-0.9,1.2-1.6,1.7c-0.6,0.4-1.4,0.7-2.2,0.9s-1.7,0.3-2.5,0.3c-1.4,0-2.6-0.2-3.7-0.6c-1.1-0.4-2-1.2-2.8-2.4l2.4-2
			c0.5,0.5,1.1,1,1.8,1.4c0.6,0.4,1.4,0.6,2.4,0.6c0.4,0,0.8,0,1.2-0.1c0.4-0.1,0.8-0.2,1.1-0.4c0.3-0.2,0.6-0.4,0.8-0.7
			c0.2-0.3,0.3-0.6,0.3-1c0-0.5-0.1-0.9-0.4-1.2c-0.3-0.3-0.7-0.6-1.1-0.7s-0.9-0.3-1.3-0.4c-0.5-0.1-0.9-0.2-1.2-0.3
			c-0.7-0.2-1.4-0.4-2-0.6c-0.6-0.2-1.2-0.5-1.6-0.9c-0.5-0.4-0.9-0.8-1.1-1.4c-0.3-0.5-0.4-1.2-0.4-2c0-0.9,0.2-1.7,0.6-2.3
			c0.4-0.7,0.9-1.2,1.5-1.6c0.6-0.4,1.3-0.8,2.1-1c0.8-0.2,1.6-0.3,2.3-0.3c1.1,0,2.2,0.2,3.3,0.6c1.1,0.4,1.9,1.1,2.5,2.2
			L1312,395.9z"/>
		<path class="st8" d="M1329,395.9c-0.4-0.5-0.9-0.9-1.4-1.2c-0.6-0.3-1.2-0.5-2.1-0.5c-0.8,0-1.4,0.2-2,0.5
			c-0.6,0.3-0.8,0.8-0.8,1.4c0,0.5,0.2,0.9,0.5,1.2c0.3,0.3,0.7,0.6,1.1,0.8c0.4,0.2,0.9,0.3,1.4,0.4c0.5,0.1,0.9,0.2,1.3,0.3
			c0.7,0.2,1.3,0.4,2,0.6c0.6,0.2,1.1,0.6,1.6,0.9c0.4,0.4,0.8,0.8,1,1.4s0.4,1.2,0.4,2c0,1-0.2,1.8-0.6,2.5
			c-0.4,0.7-0.9,1.2-1.6,1.7c-0.6,0.4-1.4,0.7-2.2,0.9s-1.7,0.3-2.5,0.3c-1.4,0-2.6-0.2-3.7-0.6c-1.1-0.4-2-1.2-2.8-2.4l2.4-2
			c0.5,0.5,1.1,1,1.8,1.4c0.6,0.4,1.4,0.6,2.4,0.6c0.4,0,0.8,0,1.2-0.1c0.4-0.1,0.8-0.2,1.1-0.4c0.3-0.2,0.6-0.4,0.8-0.7
			c0.2-0.3,0.3-0.6,0.3-1c0-0.5-0.1-0.9-0.4-1.2c-0.3-0.3-0.7-0.6-1.1-0.7s-0.9-0.3-1.3-0.4c-0.5-0.1-0.9-0.2-1.2-0.3
			c-0.7-0.2-1.4-0.4-2-0.6c-0.6-0.2-1.2-0.5-1.6-0.9c-0.5-0.4-0.9-0.8-1.1-1.4c-0.3-0.5-0.4-1.2-0.4-2c0-0.9,0.2-1.7,0.6-2.3
			c0.4-0.7,0.9-1.2,1.5-1.6c0.6-0.4,1.3-0.8,2.1-1c0.8-0.2,1.6-0.3,2.3-0.3c1.1,0,2.2,0.2,3.3,0.6c1.1,0.4,1.9,1.1,2.5,2.2
			L1329,395.9z"/>
		<path class="st8" d="M1337,393.7c0.9-0.8,2-1.5,3.2-1.9c1.2-0.4,2.4-0.6,3.6-0.6c1.2,0,2.3,0.2,3.2,0.5c0.9,0.3,1.6,0.7,2.2,1.3
			c0.6,0.5,1,1.1,1.3,1.8s0.4,1.4,0.4,2.1v8.7c0,0.6,0,1.1,0,1.6c0,0.5,0.1,1,0.1,1.4h-2.9c-0.1-0.9-0.1-1.7-0.1-2.6h-0.1
			c-0.7,1.1-1.6,1.9-2.5,2.3c-1,0.5-2.1,0.7-3.4,0.7c-0.8,0-1.5-0.1-2.3-0.3c-0.7-0.2-1.3-0.5-1.9-1c-0.5-0.4-1-1-1.3-1.6
			c-0.3-0.6-0.5-1.4-0.5-2.2c0-1.1,0.2-2,0.7-2.8c0.5-0.7,1.2-1.3,2-1.8c0.8-0.5,1.8-0.8,3-1c1.1-0.2,2.3-0.3,3.6-0.3h2.4v-0.7
			c0-0.4-0.1-0.9-0.3-1.3c-0.2-0.4-0.4-0.8-0.8-1.2c-0.3-0.3-0.8-0.6-1.3-0.8c-0.5-0.2-1.1-0.3-1.8-0.3c-0.6,0-1.2,0.1-1.6,0.2
			c-0.5,0.1-0.9,0.3-1.3,0.4c-0.4,0.2-0.7,0.4-1,0.6c-0.3,0.2-0.6,0.5-0.9,0.7L1337,393.7z M1346.1,400.5c-0.8,0-1.5,0-2.3,0.1
			c-0.8,0.1-1.5,0.2-2.2,0.5c-0.7,0.2-1.2,0.6-1.6,1s-0.6,1-0.6,1.6c0,1,0.3,1.7,1,2.1s1.5,0.6,2.7,0.6c0.9,0,1.6-0.1,2.3-0.4
			c0.6-0.3,1.1-0.7,1.5-1.2c0.4-0.5,0.7-1,0.8-1.6c0.2-0.6,0.3-1.2,0.3-1.7v-1.1H1346.1z"/>
		<path class="st8" d="M1373.7,408.5c0,1.3-0.2,2.5-0.7,3.5c-0.4,1.1-1.1,2-1.9,2.8c-0.8,0.8-1.8,1.4-2.9,1.8
			c-1.1,0.4-2.4,0.6-3.8,0.6c-1.6,0-3.1-0.2-4.5-0.7c-1.4-0.5-2.6-1.2-3.9-2.4l2.2-2.7c0.8,0.9,1.7,1.6,2.7,2.1
			c1,0.5,2.1,0.7,3.3,0.7c1.2,0,2.2-0.2,3-0.5c0.8-0.3,1.4-0.8,1.9-1.3c0.5-0.5,0.8-1.2,1-1.9c0.2-0.7,0.3-1.4,0.3-2.1v-2.5h-0.1
			c-0.6,1-1.5,1.8-2.5,2.3c-1.1,0.5-2.2,0.7-3.4,0.7c-1.2,0-2.4-0.2-3.5-0.7c-1.1-0.4-2-1.1-2.7-1.8c-0.8-0.8-1.4-1.7-1.8-2.8
			c-0.4-1.1-0.6-2.2-0.6-3.5c0-1.2,0.2-2.4,0.6-3.5c0.4-1.1,1-2,1.7-2.8c0.8-0.8,1.7-1.4,2.7-1.9c1.1-0.5,2.3-0.7,3.6-0.7
			c1.1,0,2.3,0.3,3.4,0.8c1.1,0.5,1.9,1.2,2.6,2.1h0.1v-2.4h3.2V408.5z M1364.8,394.2c-0.9,0-1.6,0.1-2.3,0.4
			c-0.7,0.3-1.3,0.7-1.8,1.2c-0.5,0.5-0.8,1.1-1.1,1.9c-0.3,0.7-0.4,1.5-0.4,2.4c0,1.7,0.5,3.1,1.5,4.1c1,1,2.4,1.6,4.1,1.6
			s3.1-0.5,4.1-1.6s1.5-2.4,1.5-4.1c0-0.9-0.1-1.7-0.4-2.4c-0.3-0.7-0.6-1.3-1.1-1.9c-0.5-0.5-1.1-0.9-1.8-1.2
			C1366.5,394.4,1365.7,394.2,1364.8,394.2z"/>
		<path class="st8" d="M1382,401.3c0,0.7,0.2,1.4,0.5,2s0.7,1.1,1.3,1.6s1.1,0.8,1.8,1c0.7,0.2,1.4,0.4,2.2,0.4c1,0,1.9-0.2,2.6-0.7
			c0.7-0.5,1.4-1.1,2-1.8l2.4,1.9c-1.8,2.3-4.3,3.5-7.5,3.5c-1.3,0-2.6-0.2-3.6-0.7s-2-1.1-2.8-1.9c-0.8-0.8-1.3-1.7-1.7-2.8
			c-0.4-1.1-0.6-2.3-0.6-3.5c0-1.3,0.2-2.4,0.7-3.5c0.4-1.1,1.1-2,1.8-2.8c0.8-0.8,1.7-1.4,2.8-1.9c1.1-0.5,2.2-0.7,3.5-0.7
			c1.5,0,2.8,0.3,3.8,0.8c1,0.5,1.9,1.2,2.6,2.1c0.7,0.8,1.2,1.8,1.5,2.9c0.3,1.1,0.4,2.1,0.4,3.2v1.1H1382z M1392.2,398.7
			c0-0.7-0.1-1.4-0.3-2c-0.2-0.6-0.5-1.1-0.9-1.6c-0.4-0.4-0.9-0.8-1.5-1s-1.3-0.4-2.1-0.4c-0.8,0-1.5,0.1-2.2,0.4s-1.2,0.7-1.7,1.2
			c-0.5,0.5-0.8,1-1.1,1.6c-0.3,0.6-0.4,1.2-0.4,1.7H1392.2z"/>
	</g>
</g>
<circle class="st9" cx="254.6" cy="695.9" r="99.6"/>
<g>
	<path class="st8" d="M243.6,681.4h5.6v9.5H260v-9.5h5.6v25.4H260v-11h-10.9v11h-5.6V681.4z"/>
</g>
<g>
	<g>
		<line class="Graphic_x0020_Style" x1="1318.5" y1="437.2" x2="1318.5" y2="549.7"/>
		<g>
			<polygon class="st1" points="1309.8,543.8 1318.5,576.3 1327.2,543.8 			"/>
		</g>
	</g>
</g>
<g>
	<g>
		<line class="Graphic_x0020_Style" x1="1318.5" y1="815.4" x2="1318.5" y2="918.2"/>
		<g>
			<polygon class="st1" points="1309.8,912.3 1318.5,944.8 1327.2,912.3 			"/>
		</g>
	</g>
</g>
<circle class="st9" cx="1318.5" cy="695.9" r="99.6"/>
<g>
	<path class="st8" d="M1307.5,681.4h5.6v9.5h10.9v-9.5h5.6v25.4h-5.6v-11h-10.9v11h-5.6V681.4z"/>
</g>
<g>
	<path class="st8" d="M143.1,81.2c0-2.5,0.4-4.7,1.2-6.7c0.8-2,2-3.7,3.5-5.1c1.5-1.4,3.3-2.5,5.3-3.3c2-0.8,4.3-1.1,6.7-1.1
		c2.4,0,4.7,0.4,6.7,1.1c2,0.8,3.8,1.8,5.3,3.3c1.5,1.4,2.7,3.1,3.5,5.1c0.8,2,1.2,4.3,1.2,6.7c0,2.5-0.4,4.7-1.2,6.7
		c-0.8,2-2,3.7-3.5,5.1c-1.5,1.4-3.3,2.5-5.3,3.3c-2,0.8-4.3,1.1-6.7,1.1c-2.4,0-4.7-0.4-6.7-1.1c-2-0.8-3.8-1.8-5.3-3.3
		c-1.5-1.4-2.7-3.1-3.5-5.1C143.5,85.9,143.1,83.7,143.1,81.2z M150.2,81.2c0,1.5,0.2,2.8,0.7,4c0.5,1.2,1.1,2.3,1.9,3.2
		c0.8,0.9,1.9,1.6,3,2.1c1.2,0.5,2.5,0.7,4,0.7c1.5,0,2.8-0.2,4-0.7c1.2-0.5,2.2-1.2,3-2.1c0.8-0.9,1.5-1.9,1.9-3.2
		c0.5-1.2,0.7-2.5,0.7-4c0-1.4-0.2-2.8-0.7-4c-0.5-1.2-1.1-2.3-1.9-3.2c-0.8-0.9-1.9-1.6-3-2.1c-1.2-0.5-2.5-0.7-4-0.7
		c-1.5,0-2.8,0.2-4,0.7c-1.2,0.5-2.2,1.2-3,2.1c-0.8,0.9-1.5,1.9-1.9,3.2C150.4,78.4,150.2,79.7,150.2,81.2z"/>
	<path class="st8" d="M181.7,75.4h6.6v3.4h0.1c0.7-1.3,1.5-2.3,2.5-3s2.2-1,3.6-1c0.4,0,0.8,0,1.1,0c0.4,0,0.7,0.1,1.1,0.2v6
		c-0.5-0.1-0.9-0.3-1.4-0.3c-0.5-0.1-0.9-0.1-1.4-0.1c-1.3,0-2.2,0.2-3,0.5c-0.7,0.4-1.3,0.8-1.7,1.5c-0.4,0.6-0.7,1.4-0.8,2.3
		c-0.1,0.9-0.2,1.8-0.2,2.9v8.9h-6.6V75.4z"/>
	<path class="st8" d="M200.4,68.7c0-1.1,0.4-1.9,1.1-2.7c0.7-0.7,1.6-1.1,2.7-1.1c1.1,0,1.9,0.4,2.7,1.1c0.7,0.7,1.1,1.6,1.1,2.7
		s-0.4,1.9-1.1,2.7c-0.7,0.7-1.6,1.1-2.7,1.1c-1.1,0-1.9-0.4-2.7-1.1C200.8,70.6,200.4,69.7,200.4,68.7z M200.9,75.4h6.6v21.3h-6.6
		V75.4z"/>
	<path class="st8" d="M235.9,94.9c0,4-1,7.1-3,9.2c-2,2.1-5.1,3.1-9.3,3.1c-1.9,0-3.8-0.2-5.6-0.6c-1.8-0.4-3.5-1.2-5.1-2.5l3.6-5.4
		c1,0.8,2.1,1.5,3.2,2c1.1,0.5,2.4,0.7,3.7,0.7c2,0,3.5-0.5,4.4-1.5c0.9-1,1.4-2.2,1.4-3.7v-2.1h-0.1c-0.8,1-1.7,1.7-2.8,2.2
		c-1.1,0.4-2.2,0.6-3.2,0.6c-1.6,0-3-0.3-4.3-0.8s-2.4-1.3-3.3-2.3c-0.9-1-1.6-2.1-2.1-3.5s-0.7-2.8-0.7-4.4c0-1.4,0.2-2.8,0.7-4.1
		c0.5-1.3,1.1-2.5,1.9-3.5c0.8-1,1.8-1.8,3-2.5c1.2-0.6,2.6-0.9,4.1-0.9c0.9,0,1.8,0.1,2.6,0.3c0.8,0.2,1.5,0.5,2.1,0.8
		c0.6,0.3,1.1,0.7,1.6,1.1c0.4,0.4,0.8,0.8,1.1,1.2h0.1v-2.8h6V94.9z M219.3,85.9c0,0.7,0.1,1.4,0.4,2c0.3,0.6,0.6,1.2,1.1,1.7
		s1,0.9,1.7,1.2c0.6,0.3,1.3,0.4,2.1,0.4c0.7,0,1.4-0.1,2.1-0.4c0.6-0.3,1.2-0.7,1.7-1.2s0.9-1,1.1-1.7c0.3-0.6,0.4-1.3,0.4-2
		c0-0.7-0.1-1.4-0.4-2c-0.3-0.6-0.6-1.2-1.1-1.7s-1-0.9-1.7-1.2c-0.6-0.3-1.3-0.4-2.1-0.4c-0.8,0-1.5,0.1-2.1,0.4
		c-0.6,0.3-1.2,0.7-1.7,1.2s-0.9,1-1.1,1.7C219.4,84.5,219.3,85.2,219.3,85.9z"/>
	<path class="st8" d="M242,68.7c0-1.1,0.4-1.9,1.1-2.7c0.7-0.7,1.6-1.1,2.7-1.1c1.1,0,1.9,0.4,2.7,1.1c0.7,0.7,1.1,1.6,1.1,2.7
		s-0.4,1.9-1.1,2.7c-0.7,0.7-1.6,1.1-2.7,1.1c-1.1,0-1.9-0.4-2.7-1.1C242.4,70.6,242,69.7,242,68.7z M242.5,75.4h6.6v21.3h-6.6V75.4
		z"/>
	<path class="st8" d="M255.1,75.4h6.3v2.9h0.1c0.2-0.4,0.5-0.8,0.9-1.2c0.4-0.4,0.8-0.8,1.4-1.1c0.5-0.3,1.1-0.6,1.8-0.8
		c0.7-0.2,1.4-0.3,2.2-0.3c1.7,0,3,0.3,4,0.8c1,0.5,1.8,1.2,2.4,2.1c0.6,0.9,1,2,1.2,3.2c0.2,1.2,0.3,2.6,0.3,4v11.7h-6.6V86.3
		c0-0.6,0-1.2-0.1-1.9c0-0.7-0.2-1.3-0.4-1.8c-0.2-0.6-0.6-1-1-1.4c-0.5-0.4-1.1-0.5-1.9-0.5s-1.5,0.2-2.1,0.5
		c-0.5,0.3-0.9,0.7-1.2,1.2c-0.3,0.5-0.5,1.1-0.5,1.7c-0.1,0.6-0.1,1.3-0.1,2v10.6h-6.6V75.4z"/>
	<path class="st8" d="M295,94L295,94c-0.8,1.1-1.8,2-3,2.5c-1.2,0.5-2.5,0.7-3.8,0.7c-1,0-1.9-0.1-2.9-0.4c-0.9-0.3-1.7-0.7-2.4-1.2
		c-0.7-0.6-1.3-1.2-1.7-2.1c-0.4-0.8-0.6-1.8-0.6-2.8c0-1.2,0.2-2.3,0.7-3.1c0.5-0.8,1.1-1.5,1.8-2.1c0.8-0.6,1.7-1,2.7-1.3
		c1-0.3,2-0.5,3.1-0.7c1.1-0.1,2.1-0.2,3.2-0.3c1.1,0,2.1,0,3,0c0-1.2-0.4-2.1-1.2-2.8c-0.8-0.7-1.8-1-3-1c-1.1,0-2.1,0.2-3,0.7
		c-0.9,0.5-1.7,1.1-2.4,1.9l-3.5-3.6c1.2-1.1,2.7-2,4.3-2.6c1.6-0.6,3.3-0.9,5.1-0.9c1.9,0,3.5,0.2,4.8,0.7c1.2,0.5,2.2,1.2,3,2.1
		c0.7,0.9,1.3,2.1,1.6,3.4c0.3,1.4,0.4,2.9,0.4,4.7v10.8h-6V94z M293.3,87.3c-0.5,0-1.1,0-1.9,0.1c-0.7,0-1.5,0.2-2.1,0.4
		c-0.7,0.2-1.3,0.5-1.8,0.9c-0.5,0.4-0.7,1-0.7,1.7c0,0.8,0.3,1.4,1,1.8c0.7,0.4,1.4,0.6,2.1,0.6c0.6,0,1.3-0.1,1.9-0.3
		s1.1-0.4,1.6-0.7c0.5-0.3,0.8-0.7,1.1-1.2c0.3-0.5,0.4-1.1,0.4-1.8v-1.4H293.3z"/>
	<path class="st8" d="M320.9,80.6h-5.8v7.1c0,0.6,0,1.1,0.1,1.6s0.2,0.9,0.4,1.2c0.2,0.4,0.5,0.6,0.9,0.8c0.4,0.2,1,0.3,1.7,0.3
		c0.4,0,0.8,0,1.4-0.1c0.6-0.1,1-0.2,1.3-0.5v5.5c-0.7,0.3-1.5,0.4-2.3,0.5c-0.8,0.1-1.6,0.1-2.3,0.1c-1.1,0-2.1-0.1-3.1-0.4
		c-0.9-0.2-1.8-0.6-2.5-1.1c-0.7-0.5-1.2-1.2-1.6-2c-0.4-0.8-0.6-1.8-0.6-3V80.6h-4.2v-5.3h4.2v-6.3h6.6v6.3h5.8V80.6z"/>
	<path class="st8" d="M324.8,86c0-1.7,0.3-3.2,0.9-4.6c0.6-1.4,1.5-2.5,2.5-3.5c1.1-1,2.3-1.7,3.8-2.3c1.4-0.5,3-0.8,4.6-0.8
		c1.6,0,3.2,0.3,4.6,0.8c1.4,0.5,2.7,1.3,3.8,2.3c1.1,1,1.9,2.2,2.5,3.5c0.6,1.4,0.9,2.9,0.9,4.6c0,1.7-0.3,3.2-0.9,4.6
		c-0.6,1.4-1.5,2.5-2.5,3.5c-1.1,1-2.3,1.7-3.8,2.3c-1.4,0.5-3,0.8-4.6,0.8c-1.6,0-3.2-0.3-4.6-0.8c-1.4-0.5-2.7-1.3-3.8-2.3
		c-1.1-1-1.9-2.2-2.5-3.5C325.1,89.3,324.8,87.7,324.8,86z M331.4,86c0,1.6,0.5,2.9,1.4,3.9c0.9,1,2.2,1.5,3.9,1.5s3-0.5,3.9-1.5
		c0.9-1,1.4-2.3,1.4-3.9c0-1.6-0.5-2.9-1.4-3.9c-0.9-1-2.2-1.5-3.9-1.5s-3,0.5-3.9,1.5C331.8,83.1,331.4,84.4,331.4,86z"/>
	<path class="st8" d="M353.6,75.4h6.6v3.4h0.1c0.7-1.3,1.5-2.3,2.5-3s2.2-1,3.6-1c0.4,0,0.8,0,1.1,0c0.4,0,0.7,0.1,1.1,0.2v6
		c-0.5-0.1-0.9-0.3-1.4-0.3c-0.5-0.1-0.9-0.1-1.4-0.1c-1.3,0-2.2,0.2-3,0.5c-0.7,0.4-1.3,0.8-1.7,1.5c-0.4,0.6-0.7,1.4-0.8,2.3
		c-0.1,0.9-0.2,1.8-0.2,2.9v8.9h-6.6V75.4z"/>
</g>
<g>
	<path class="st8" d="M1227.8,65.1h12c1.6,0,3.1,0.2,4.5,0.5s2.7,0.8,3.7,1.5c1.1,0.7,1.9,1.7,2.5,2.9c0.6,1.2,0.9,2.7,0.9,4.5
		c0,2.2-0.6,4.1-1.7,5.6c-1.1,1.5-2.8,2.5-5,2.9l7.9,13.1h-8.2l-6.5-12.4h-3.4v12.4h-6.8V65.1z M1234.6,78h4c0.6,0,1.3,0,1.9-0.1
		c0.7,0,1.3-0.2,1.9-0.4c0.6-0.2,1-0.6,1.4-1c0.4-0.5,0.5-1.1,0.5-2c0-0.8-0.2-1.4-0.5-1.9c-0.3-0.5-0.7-0.8-1.2-1.1
		c-0.5-0.2-1.1-0.4-1.7-0.5c-0.6-0.1-1.3-0.1-1.9-0.1h-4.5V78z"/>
	<path class="st8" d="M1276.8,92.5c-1.1,1.3-2.4,2.4-4,3.1c-1.6,0.7-3.3,1.1-5,1.1c-1.6,0-3.2-0.3-4.6-0.8c-1.4-0.5-2.7-1.3-3.8-2.3
		c-1.1-1-1.9-2.2-2.5-3.5c-0.6-1.4-0.9-2.9-0.9-4.6c0-1.7,0.3-3.2,0.9-4.6c0.6-1.4,1.5-2.5,2.5-3.5c1.1-1,2.3-1.7,3.8-2.3
		c1.4-0.5,3-0.8,4.6-0.8c1.5,0,2.9,0.3,4.1,0.8c1.2,0.5,2.3,1.3,3.2,2.3c0.9,1,1.5,2.2,2,3.5c0.5,1.4,0.7,2.9,0.7,4.6v2.1h-15.2
		c0.3,1.3,0.8,2.3,1.7,3s2,1.1,3.2,1.1c1.1,0,2-0.2,2.7-0.7c0.7-0.5,1.4-1.1,2-1.9L1276.8,92.5z M1271.3,83.1c0-1.1-0.3-2.1-1.1-2.8
		c-0.8-0.8-1.7-1.2-2.9-1.2c-0.7,0-1.4,0.1-1.9,0.4c-0.6,0.2-1,0.5-1.4,0.9c-0.4,0.4-0.7,0.8-0.9,1.3s-0.3,1-0.4,1.5H1271.3z"/>
	<path class="st8" d="M1297.6,81.7c-0.3-0.5-0.8-0.9-1.4-1.2c-0.6-0.3-1.2-0.5-1.9-0.5c-1.7,0-3,0.5-3.9,1.5c-0.9,1-1.4,2.3-1.4,3.9
		c0,1.6,0.5,2.9,1.4,3.9c0.9,1,2.2,1.5,3.9,1.5c0.7,0,1.4-0.2,1.9-0.5c0.5-0.3,1-0.7,1.4-1.1l4.3,4.6c-1,1.1-2.2,1.8-3.6,2.2
		c-1.4,0.4-2.7,0.6-4,0.6c-1.6,0-3.2-0.3-4.6-0.8c-1.4-0.5-2.7-1.3-3.8-2.3c-1.1-1-1.9-2.2-2.5-3.5c-0.6-1.4-0.9-2.9-0.9-4.6
		c0-1.7,0.3-3.2,0.9-4.6c0.6-1.4,1.5-2.5,2.5-3.5c1.1-1,2.3-1.7,3.8-2.3c1.4-0.5,3-0.8,4.6-0.8c1.3,0,2.6,0.2,4,0.6
		c1.4,0.4,2.6,1.2,3.6,2.2L1297.6,81.7z"/>
	<path class="st8" d="M1325.7,92.5c-1.1,1.3-2.4,2.4-4,3.1c-1.6,0.7-3.3,1.1-5,1.1c-1.6,0-3.2-0.3-4.6-0.8c-1.4-0.5-2.7-1.3-3.8-2.3
		c-1.1-1-1.9-2.2-2.5-3.5c-0.6-1.4-0.9-2.9-0.9-4.6c0-1.7,0.3-3.2,0.9-4.6c0.6-1.4,1.5-2.5,2.5-3.5c1.1-1,2.3-1.7,3.8-2.3
		c1.4-0.5,3-0.8,4.6-0.8c1.5,0,2.9,0.3,4.1,0.8c1.2,0.5,2.3,1.3,3.2,2.3c0.9,1,1.5,2.2,2,3.5c0.5,1.4,0.7,2.9,0.7,4.6v2.1h-15.2
		c0.3,1.3,0.8,2.3,1.7,3s2,1.1,3.2,1.1c1.1,0,2-0.2,2.7-0.7c0.7-0.5,1.4-1.1,2-1.9L1325.7,92.5z M1320.2,83.1c0-1.1-0.3-2.1-1.1-2.8
		c-0.8-0.8-1.7-1.2-2.9-1.2c-0.7,0-1.4,0.1-1.9,0.4c-0.6,0.2-1,0.5-1.4,0.9c-0.4,0.4-0.7,0.8-0.9,1.3s-0.3,1-0.4,1.5H1320.2z"/>
	<path class="st8" d="M1331.6,68.2c0-1.1,0.4-1.9,1.1-2.7c0.7-0.7,1.6-1.1,2.7-1.1c1.1,0,1.9,0.4,2.7,1.1c0.7,0.7,1.1,1.6,1.1,2.7
		s-0.4,1.9-1.1,2.7c-0.7,0.7-1.6,1.1-2.7,1.1c-1.1,0-2-0.4-2.7-1.1C1332,70.1,1331.6,69.2,1331.6,68.2z M1332.1,74.9h6.6v21.3h-6.6
		V74.9z"/>
	<path class="st8" d="M1342.5,74.9h7.1l5.4,14.5h0.1l5-14.5h6.6l-8.4,21.3h-7L1342.5,74.9z"/>
	<path class="st8" d="M1390.6,92.5c-1.1,1.3-2.4,2.4-4,3.1c-1.6,0.7-3.3,1.1-5,1.1c-1.6,0-3.2-0.3-4.6-0.8c-1.4-0.5-2.7-1.3-3.8-2.3
		c-1.1-1-1.9-2.2-2.5-3.5c-0.6-1.4-0.9-2.9-0.9-4.6c0-1.7,0.3-3.2,0.9-4.6c0.6-1.4,1.5-2.5,2.5-3.5c1.1-1,2.3-1.7,3.8-2.3
		c1.4-0.5,3-0.8,4.6-0.8c1.5,0,2.9,0.3,4.1,0.8c1.2,0.5,2.3,1.3,3.2,2.3c0.9,1,1.5,2.2,2,3.5c0.5,1.4,0.7,2.9,0.7,4.6v2.1h-15.2
		c0.3,1.3,0.8,2.3,1.7,3s2,1.1,3.2,1.1c1.1,0,2-0.2,2.7-0.7c0.7-0.5,1.4-1.1,2-1.9L1390.6,92.5z M1385,83.1c0-1.1-0.3-2.1-1.1-2.8
		c-0.8-0.8-1.7-1.2-2.9-1.2c-0.7,0-1.4,0.1-1.9,0.4c-0.6,0.2-1,0.5-1.4,0.9c-0.4,0.4-0.7,0.8-0.9,1.3s-0.3,1-0.4,1.5H1385z"/>
	<path class="st8" d="M1396.9,74.9h6.6v3.4h0.1c0.7-1.3,1.5-2.3,2.5-3s2.2-1,3.6-1c0.4,0,0.8,0,1.1,0c0.4,0,0.7,0.1,1.1,0.2v6
		c-0.5-0.1-0.9-0.3-1.4-0.3c-0.5-0.1-0.9-0.1-1.4-0.1c-1.3,0-2.2,0.2-3,0.5c-0.7,0.4-1.3,0.8-1.7,1.5c-0.4,0.6-0.7,1.4-0.8,2.3
		c-0.1,0.9-0.2,1.8-0.2,2.9v8.9h-6.6V74.9z"/>
</g>
<g>
	<path class="st8" d="M905.6,789.9h3.4l7.8,20.9h0.1l8.1-20.9h3.2l-9.9,25.4h-2.9L905.6,789.9z"/>
	<path class="st8" d="M944.5,812.3c-1,1.3-2.1,2.2-3.3,2.7c-1.2,0.5-2.6,0.8-4.2,0.8c-1.3,0-2.5-0.2-3.5-0.7s-1.9-1.1-2.7-1.9
		c-0.7-0.8-1.3-1.7-1.7-2.8c-0.4-1.1-0.6-2.2-0.6-3.4c0-1.3,0.2-2.5,0.6-3.6c0.4-1.1,1-2,1.8-2.8c0.8-0.8,1.7-1.4,2.7-1.8
		c1.1-0.4,2.2-0.6,3.4-0.6c1.2,0,2.2,0.2,3.2,0.6c1,0.4,1.8,1,2.5,1.7c0.7,0.8,1.2,1.7,1.6,2.8c0.4,1.1,0.6,2.3,0.6,3.7v0.9h-13.5
		c0,0.7,0.2,1.4,0.5,2.1s0.7,1.2,1.2,1.7c0.5,0.5,1,0.9,1.7,1.2c0.6,0.3,1.3,0.4,2.1,0.4c1.2,0,2.2-0.2,3.1-0.6
		c0.8-0.4,1.6-1.1,2.3-1.9L944.5,812.3z M942.1,805.4c0-1.4-0.5-2.6-1.4-3.4c-0.9-0.9-2.1-1.3-3.7-1.3s-2.8,0.4-3.8,1.3
		c-1,0.9-1.5,2-1.7,3.4H942.1z"/>
	<path class="st8" d="M950.5,802.5c0-0.8,0-1.5-0.1-2.2c0-0.7-0.1-1.3-0.1-1.8h2.7c0,0.5,0,0.9,0,1.4s0,0.9,0,1.4h0.1
		c0.2-0.4,0.5-0.8,0.8-1.2c0.3-0.4,0.8-0.7,1.2-1s1-0.5,1.6-0.7c0.6-0.2,1.2-0.3,1.9-0.3c0.2,0,0.4,0,0.6,0c0.2,0,0.4,0.1,0.6,0.1
		l-0.2,2.8c-0.5-0.1-1-0.2-1.5-0.2c-1.7,0-3,0.6-3.7,1.7s-1.2,2.6-1.2,4.6v8.2h-2.8V802.5z"/>
	<path class="st8" d="M963.8,792c0-0.5,0.2-1,0.6-1.4c0.4-0.4,0.9-0.6,1.5-0.6c0.6,0,1.1,0.2,1.5,0.6c0.4,0.4,0.6,0.9,0.6,1.4
		c0,0.6-0.2,1.1-0.6,1.5c-0.4,0.4-0.9,0.6-1.5,0.6s-1.1-0.2-1.5-0.6C964,793.1,963.8,792.6,963.8,792z M964.5,798.5h2.8v16.8h-2.8
		V798.5z"/>
	<path class="st8" d="M975.3,800.9h-3.7v-2.4h3.7v-3.8c0-1,0.1-2,0.3-2.8c0.2-0.8,0.5-1.6,1-2.2c0.5-0.6,1.1-1.1,1.8-1.5
		c0.8-0.3,1.7-0.5,2.8-0.5c0.4,0,0.7,0,1.1,0.1c0.4,0.1,0.7,0.2,1,0.3l-0.4,2.5c-0.7-0.2-1.3-0.4-1.9-0.4c-0.7,0-1.3,0.1-1.7,0.4
		s-0.7,0.6-0.9,1s-0.3,1-0.4,1.6c0,0.6-0.1,1.3-0.1,2v3.2h4.1v2.4h-4.1v14.4h-2.8V800.9z"/>
	<path class="st8" d="M985.9,792c0-0.5,0.2-1,0.6-1.4c0.4-0.4,0.9-0.6,1.5-0.6s1.1,0.2,1.5,0.6c0.4,0.4,0.6,0.9,0.6,1.4
		c0,0.6-0.2,1.1-0.6,1.5c-0.4,0.4-0.9,0.6-1.5,0.6s-1.1-0.2-1.5-0.6C986.1,793.1,985.9,792.6,985.9,792z M986.5,798.5h2.8v16.8h-2.8
		V798.5z"/>
	<path class="st8" d="M1010.9,812.3c-1,1.3-2.1,2.2-3.3,2.7s-2.6,0.8-4.2,0.8c-1.3,0-2.5-0.2-3.5-0.7c-1.1-0.5-1.9-1.1-2.7-1.9
		c-0.7-0.8-1.3-1.7-1.7-2.8s-0.6-2.2-0.6-3.4c0-1.3,0.2-2.5,0.6-3.6c0.4-1.1,1-2,1.8-2.8s1.7-1.4,2.7-1.8c1.1-0.4,2.2-0.6,3.4-0.6
		c1.2,0,2.2,0.2,3.2,0.6s1.8,1,2.5,1.7s1.2,1.7,1.6,2.8c0.4,1.1,0.6,2.3,0.6,3.7v0.9H998c0,0.7,0.2,1.4,0.5,2.1s0.7,1.2,1.2,1.7
		c0.5,0.5,1,0.9,1.7,1.2c0.6,0.3,1.3,0.4,2.1,0.4c1.2,0,2.2-0.2,3.1-0.6c0.8-0.4,1.6-1.1,2.3-1.9L1010.9,812.3z M1008.5,805.4
		c0-1.4-0.5-2.6-1.4-3.4c-0.9-0.9-2.1-1.3-3.7-1.3c-1.6,0-2.8,0.4-3.8,1.3c-1,0.9-1.5,2-1.7,3.4H1008.5z"/>
	<path class="st8" d="M1030.9,812.3L1030.9,812.3c-0.6,1-1.4,1.8-2.6,2.4s-2.5,1-4,1c-1.2,0-2.3-0.2-3.3-0.7c-1-0.4-1.9-1.1-2.7-1.8
		c-0.8-0.8-1.3-1.7-1.8-2.8c-0.4-1.1-0.6-2.2-0.6-3.5s0.2-2.4,0.6-3.5c0.4-1.1,1-2,1.8-2.8c0.8-0.8,1.7-1.4,2.8-1.8
		c1.1-0.4,2.3-0.7,3.6-0.7c1.2,0,2.3,0.3,3.4,0.8c1,0.5,1.9,1.2,2.7,2.1h0.1v-12.8h2.8v27.1h-2.8V812.3z M1030.9,806.9
		c0-0.9-0.1-1.7-0.4-2.5c-0.3-0.8-0.7-1.4-1.2-2c-0.5-0.6-1.2-1-1.9-1.3c-0.7-0.3-1.5-0.5-2.5-0.5s-1.7,0.2-2.5,0.5
		c-0.7,0.3-1.4,0.8-1.9,1.3c-0.5,0.6-0.9,1.2-1.2,2c-0.3,0.8-0.4,1.6-0.4,2.5s0.1,1.7,0.4,2.5c0.3,0.8,0.7,1.4,1.2,2
		c0.5,0.6,1.2,1,1.9,1.3c0.7,0.3,1.5,0.5,2.5,0.5s1.7-0.2,2.5-0.5c0.7-0.3,1.4-0.8,1.9-1.3c0.5-0.6,0.9-1.2,1.2-2
		C1030.8,808.6,1030.9,807.8,1030.9,806.9z"/>
</g>
<g>
	<g>
		<line class="Graphic_x0020_Style" x1="682.4" y1="271.4" x2="846.4" y2="271.4"/>
		<g>
			<polygon class="st1" points="840.4,280.2 872.9,271.4 840.4,262.7 			"/>
		</g>
	</g>
</g>
<g>
	<g>
		<polyline class="Graphic_x0020_Style" points="450.3,1005.4 583.6,1005.4 583.6,569.1 		"/>
		<g>
			<polygon class="st1" points="592.3,575 583.6,542.5 574.9,575 			"/>
		</g>
	</g>
</g>
<g>
</g>
<g>
</g>
<g>
</g>
<g>
</g>
<g>
</g>
<g>
</g>
<g>
</g>
<g>
</g>
<g>
</g>
<g>
</g>
<g>
</g>
<g>
</g>
<g>
</g>
<g>
</g>
<g>
</g>
<g>
</g>
</svg>
