<?xml version="1.0" encoding="utf-8"?>
<!-- Generator: Adobe Illustrator 26.0.1, SVG Export Plug-In . SVG Version: 6.00 Build 0)  -->
<svg version="1.1" xmlns="http://www.w3.org/2000/svg" xmlns:xlink="http://www.w3.org/1999/xlink" x="0px" y="0px"
	 width="3465.8px" height="3619.3px" viewBox="0 0 3465.8 3619.3" style="enable-background:new 0 0 3465.8 3619.3;"
	 xml:space="preserve">
<style type="text/css">
	.st0{fill:none;stroke:#00202C;stroke-width:4;stroke-miterlimit:10;}
	.st1{fill:none;stroke:#007155;stroke-width:4;stroke-miterlimit:10;}
	.st2{fill:#EBEAEA;stroke:#8CC440;stroke-width:4;stroke-miterlimit:10;}
	.st3{fill:#013F58;}
	.st4{fill:#1C3747;}
	.st5{fill:#007EB1;}
	.st6{fill:#FFFFFF;}
	.st7{fill-rule:evenodd;clip-rule:evenodd;fill:#FFFFFF;}
	.st8{fill:#8CC440;}
	.st9{fill:none;}
	.st10{fill:none;stroke:#000000;stroke-width:4;stroke-miterlimit:10;stroke-dasharray:9.0353,4.0157;}
	.st11{fill:none;stroke:#211E1F;stroke-width:4;stroke-miterlimit:10;stroke-dasharray:9,4;}
	.st12{fill:#211E1F;}
	.st13{fill:none;stroke:#007EB1;stroke-width:4;stroke-miterlimit:10;}
	.st14{fill:none;stroke:#8CC440;stroke-width:4;stroke-miterlimit:10;}
	.st15{fill:#211E1E;}
</style>
<g id="Layer_1">
	<g id="Solid_00000159463080950056864260000000145762403991093682_">
		<g>
			<line class="st0" x1="967.5" y1="2186.5" x2="967.5" y2="1438.1"/>
		</g>
	</g>
	<g id="Solid_00000169532269753816519010000015467411665377729723_">
		<g>
			<line class="st0" x1="967.8" y1="1684.6" x2="1258.2" y2="1684.6"/>
		</g>
	</g>
	<g id="Solid_00000030488401513137851140000001509150666751548851_">
		<g>
			<line class="st0" x1="965.3" y1="2184.7" x2="1447.4" y2="2184.7"/>
		</g>
	</g>
	<g id="Solid_00000111882641998809986840000003075578408005971615_">
		<g>
			<line class="st1" x1="2603.1" y1="1357" x2="2603.1" y2="874.5"/>
		</g>
	</g>
	<path class="st2" d="M3105.6,1462.1H2100.5c-6.6,0-12-5.4-12-12v-283.7c0-6.6,5.4-12,12-12h1005.1c6.6,0,12,5.4,12,12v283.7
		C3117.6,1456.7,3112.2,1462.1,3105.6,1462.1z"/>
	<g id="Solid_00000052815020156162559020000018301404760621289643_">
		<g>
			<line class="st0" x1="875.8" y1="1354.3" x2="875.8" y2="871.7"/>
		</g>
	</g>
	<path class="st2" d="M1378.4,1459.3H373.2c-6.6,0-12-5.4-12-12v-283.7c0-6.6,5.4-12,12-12h1005.1c6.6,0,12,5.4,12,12v283.7
		C1390.4,1453.9,1385,1459.3,1378.4,1459.3z"/>
	<g id="Solid_00000120558794588843108820000007111260830254187448_">
		<g>
			<line class="st0" x1="1722" y1="819.1" x2="1722" y2="336.5"/>
		</g>
	</g>
	<g id="Cloud_00000048466870963947772440000013769814063075163046_">
		<g>
			<path class="st3" d="M1973.3,335.8c0,54.9-44.6,99.6-99.6,99.6h-286.3c-61.8,0-112-50.2-112-112c0-48.9,31.3-90.5,74.9-105.7
				c-0.1-2.2-0.2-4.2-0.2-6.3c0-68.8,55.7-124.5,124.5-124.5c46.1,0,86.4,25.1,107.9,62.4c11.9-8,26.1-12.6,41.5-12.6
				c41.2,0,74.7,33.4,74.7,74.7c0,9.5-1.7,18.6-5,26.9C1939,247.4,1973.3,287.6,1973.3,335.8z"/>
		</g>
	</g>
	<g id="Firewall_00000124121144067812985930000016512596119455217581_">
		<path class="st4" d="M1528.9,780v-35.8c0-0.1,0.1-0.2,0.2-0.2h80.9c0.1,0,0.2,0.1,0.2,0.2V780c0,0.1-0.1,0.2-0.2,0.2H1529
			C1528.9,780.2,1528.9,780.1,1528.9,780z"/>
		<path class="st4" d="M1620,780v-35.8c0-0.1,0.1-0.2,0.2-0.2h80.9c0.1,0,0.2,0.1,0.2,0.2V780c0,0.1-0.1,0.2-0.2,0.2h-80.9
			C1620.1,780.2,1620,780.1,1620,780z"/>
		<path class="st4" d="M1714,744h30.9l-1.7,14.4c-1.1,9.2-1.8,15.5-4,21.8H1714c-1.5,0-2.8-1.3-2.8-2.8v-30.7
			C1711.2,745.3,1712.5,744,1714,744z"/>
		<path class="st4" d="M1758.7,755.4c0.7,0.4,15.7,9.5,31.7,24.7c-0.2,0.1-0.4,0.1-0.7,0.1H1748c1.7-6.1,2.4-12.3,3.4-20.9l0.9-7.7
			L1758.7,755.4z"/>
		<path class="st4" d="M1792.5,746.8v24c-15.3-13.9-28.9-22.1-29.5-22.4l-7.2-4.3h34C1791.2,744,1792.5,745.3,1792.5,746.8z"/>
		<path class="st4" d="M1734.8,789.9c-4.3,7.6-11.3,16.8-23.2,31.4l-0.5,0.7c-0.9,1.4-1.8,2.8-2.7,4.1h-39.9c-1.5,0-2.8-1.3-2.8-2.8
			v-30.7c0-1.5,1.2-2.8,2.8-2.8H1734.8z"/>
		<path class="st4" d="M1746.8,792.7v30.7c0,1.5-1.2,2.8-2.8,2.8h-25.7c14-17.1,21.5-27.4,25.8-36.2
			C1745.7,790,1746.8,791.2,1746.8,792.7z"/>
		<path class="st4" d="M1574.5,825.9v-35.8c0-0.1,0.1-0.2,0.2-0.2h80.9c0.1,0,0.2,0.1,0.2,0.2v35.8c0,0.1-0.1,0.2-0.2,0.2h-80.9
			C1574.5,826.1,1574.5,826,1574.5,825.9z"/>
		<path class="st4" d="M1528.8,825.9v-35.8c0-0.1,0.1-0.2,0.2-0.2h35.4c0.1,0,0.2,0.1,0.2,0.2v35.8c0,0.1-0.1,0.2-0.2,0.2H1529
			C1528.9,826.1,1528.8,826,1528.8,825.9z"/>
		<path class="st4" d="M1756.7,825.9v-35.8c0-0.1,0.1-0.2,0.2-0.2h35.4c0.1,0,0.2,0.1,0.2,0.2v35.8c0,0.1-0.1,0.2-0.2,0.2h-35.4
			C1756.8,826.1,1756.7,826,1756.7,825.9z"/>
		<path class="st4" d="M1765,918h-7.2c-0.6,0-1.1-0.5-1.1-1.1v-3.8c4,3,7.5,4.5,7.8,4.6L1765,918z"/>
		<path class="st4" d="M1792.5,915.4v1.5c0,0.6-0.5,1.1-1.1,1.1h-1.7l0.7-0.7C1791.2,916.7,1791.8,916.1,1792.5,915.4z"/>
		<path class="st4" d="M1528.8,917.8V882c0-0.1,0.1-0.2,0.2-0.2h35.4c0.1,0,0.2,0.1,0.2,0.2v35.8c0,0.1-0.1,0.2-0.2,0.2H1529
			C1528.9,918,1528.8,917.9,1528.8,917.8z"/>
		<path class="st4" d="M1528.8,871.8v-35.8c0-0.1,0.1-0.2,0.2-0.2h80.9c0.1,0,0.2,0.1,0.2,0.2v35.8c0,0.1-0.1,0.2-0.2,0.2H1529
			C1528.9,872,1528.8,871.9,1528.8,871.8z"/>
		<path class="st4" d="M1701.2,839.8c-4.6,11-6.1,21.7-4.7,32.2h-73.8c-1.5,0-2.8-1.3-2.8-2.8v-30.7c0-1.5,1.3-2.8,2.8-2.8h75.7
			c1.5,0,2.8,1.3,2.8,2.8V839.8z"/>
		<path class="st4" d="M1767.9,835.9c-1.4,12.3-2.1,15.7-17.3,34.3l-0.1,0.1l-0.1,0.1c-0.4,0.6-0.8,1.2-1.2,1.8H1714
			c-1.5,0-2.8-1.3-2.8-2.8v-30.7c0-0.3,0.1-0.7,0.2-0.9c0.1-0.2,0.2-0.4,0.3-0.6c0.5-0.7,1.3-1.2,2.3-1.2H1767.9z"/>
		<path class="st4" d="M1792.5,838.6v11.5c-1.2-1.3-2.5-2.7-3.9-4c-4.8-4.5-9.4-8.1-12.5-10.3h13.6
			C1791.2,835.9,1792.5,837.1,1792.5,838.6z"/>
		<path class="st4" d="M1728.5,918h-60.1c-1.5,0-2.8-1.3-2.8-2.8v-30.6c0-1.5,1.2-2.8,2.8-2.8h30.4
			C1704.6,899.3,1718.2,911.1,1728.5,918z"/>
		<path class="st4" d="M1746.8,902.6v12.6c0,1.1-0.7,2.1-1.7,2.5h-0.1l-0.3-0.1c-1.2-0.5-27.7-11.8-37.2-35.8h36.4
			c0.2,0,0.4,0,0.6,0.1c-1.6,5.2-1.7,10.2-0.3,15C1745,899,1745.8,900.9,1746.8,902.6z"/>
		<path class="st4" d="M1574.5,917.8V882c0-0.1,0.1-0.2,0.2-0.2h80.9c0.1,0,0.2,0.1,0.2,0.2v35.8c0,0.1-0.1,0.2-0.2,0.2h-80.9
			C1574.5,918,1574.5,917.9,1574.5,917.8z"/>
		<path class="st4" d="M1794.4,916.8l-1.4,1.3h-3.3l0.7-0.7c0.7-0.7,1.4-1.3,2-1.9c11.3-11.1,16.5-23,15.2-35.4
			c-1-9.9-6.3-20.1-15.2-29.9c-1.2-1.3-2.5-2.7-3.9-4c-4.8-4.5-9.4-8.1-12.5-10.3c-2.5-1.8-4.1-2.8-4.3-2.9l-3.4-2l-0.4,4.1
			c-0.1,0.3-0.1,0.6-0.1,0.8c-1.4,12.3-2.1,15.7-17.3,34.3l-0.1,0.1l-0.1,0.1c-0.4,0.6-0.8,1.2-1.2,1.8c-2.1,3.4-3.7,6.6-4.6,9.8
			c-1.6,5.2-1.7,10.2-0.3,15c0.6,2.1,1.4,4,2.5,5.8c2.7,4.6,6.4,8.1,9.8,10.5c4,3,7.5,4.5,7.8,4.6l0.5,0.2h-19.3l-0.6-0.3h-0.1
			l-0.3-0.1c-1.2-0.5-27.7-11.8-37.2-35.8c-0.6-1.3-1-2.8-1.4-4.2c-3.7-12.6-2-26,5.1-39.9c0.1-0.2,0.2-0.4,0.3-0.6
			c1.7-3.4,3.8-6.9,6.2-10.3l0.1-0.2l0.1-0.2c0.1-0.1,0.2-0.2,0.2-0.3c14-17.1,21.5-27.4,25.8-36.2c1.7-3.4,2.9-6.5,3.9-9.7
			c1.7-6.1,2.4-12.3,3.4-20.9l0.9-7.7l6.4,3.8c0.7,0.4,15.7,9.5,31.7,24.7l0.5,0.5c21.7,20.9,34.4,43.3,36.5,64.8
			C1830,870.4,1818.8,894.5,1794.4,916.8z"/>
		<path class="st4" d="M1794.4,916.8l-1.4,1.3h-3.3l0.7-0.7c0.7-0.7,1.4-1.3,2-1.9c11.3-11.1,16.5-23,15.2-35.4
			c-1-9.9-6.3-20.1-15.2-29.9c-1.2-1.3-2.5-2.7-3.9-4c-4.8-4.5-9.4-8.1-12.5-10.3c-2.5-1.8-4.1-2.8-4.3-2.9l-3.4-2l-0.4,4.1
			c-0.1,0.3-0.1,0.6-0.1,0.8c-1.4,12.3-2.1,15.7-17.3,34.3l-0.1,0.1l-0.1,0.1c-0.4,0.6-0.8,1.2-1.2,1.8c-2.1,3.4-3.7,6.6-4.6,9.8
			c-1.6,5.2-1.7,10.2-0.3,15c0.6,2.1,1.4,4,2.5,5.8c2.7,4.6,6.4,8.1,9.8,10.5c4,3,7.5,4.5,7.8,4.6l0.5,0.2h-19.3l-0.6-0.3h-0.1
			l-0.3-0.1c-1.2-0.5-27.7-11.8-37.2-35.8c-0.6-1.3-1-2.8-1.4-4.2c-3.7-12.6-2-26,5.1-39.9c0.1-0.2,0.2-0.4,0.3-0.6
			c1.7-3.4,3.8-6.9,6.2-10.3l0.1-0.2l0.1-0.2c0.1-0.1,0.2-0.2,0.2-0.3c14-17.1,21.5-27.4,25.8-36.2c1.7-3.4,2.9-6.5,3.9-9.7
			c1.7-6.1,2.4-12.3,3.4-20.9l0.9-7.7l6.4,3.8c0.7,0.4,15.7,9.5,31.7,24.7l0.5,0.5c21.7,20.9,34.4,43.3,36.5,64.8
			C1830,870.4,1818.8,894.5,1794.4,916.8z"/>
	</g>
	<g>
		<circle class="st5" cx="383.6" cy="1702.3" r="208.8"/>
		<g id="Mobile_Device_00000096771980465439264350000006350397254979821221_">
			<path class="st6" d="M443.5,1549.5H323.7c-11.1,0-20.1,9-20.1,20.1v262.7c0,11.1,9,20.1,20.1,20.1h119.8c11.1,0,20.1-9,20.1-20.1
				v-262.7C463.6,1558.5,454.6,1549.5,443.5,1549.5z M369.5,1556h28.3c1.4,0,2.6,1.2,2.6,2.6c0,1.4-1.2,2.6-2.6,2.6h-28.3
				c-1.4,0-2.5-1.1-2.5-2.6C367,1557.2,368.1,1556,369.5,1556z M383.6,1843.9c-6.7,0-12.2-5.5-12.2-12.2c0-6.7,5.5-12.1,12.2-12.1
				c6.7,0,12.1,5.5,12.1,12.1C395.8,1838.4,390.3,1843.9,383.6,1843.9z M447,1806c0,3.5-2.9,6.4-6.4,6.4h-114
				c-3.5,0-6.4-2.9-6.4-6.4v-234.9c0-3.6,2.9-6.4,6.4-6.4h114c3.6,0,6.4,2.9,6.4,6.4V1806z"/>
		</g>
	</g>
	<g>
		<circle class="st5" cx="383.6" cy="2199.2" r="208.8"/>
		<g id="iPad_00000141430029857486275930000018256255482641103794_">
			<g>
				<path class="st6" d="M474.8,2133.9h-0.6v-36.3c0-10.4-12.1-18.8-27.1-18.8H320c-14.9,0-27.1,8.4-27.1,18.8v14h-0.6
					c-0.3,0-0.5,0.2-0.5,0.4v9.8c0,0.2,0.2,0.4,0.5,0.4h0.6v11.8h-0.6c-0.3,0-0.5,0.2-0.5,0.4v18.5c0,0.2,0.2,0.4,0.5,0.4h0.6v4.4
					h-0.6c-0.3,0-0.5,0.2-0.5,0.4v18.5c0,0.2,0.2,0.4,0.5,0.4h0.6v143.2c0,10.4,12.1,18.8,27.1,18.8h127.2
					c14.9,0,27.1-8.4,27.1-18.8v-166.7h0.6c0.3,0,0.5-0.2,0.5-0.4v-18.5C475.4,2134.1,475.1,2133.9,474.8,2133.9z M463.2,2306.6
					H304.1v-196.3h159.1V2306.6z M383.6,2333.6c-6.5,0-11.7-5.3-11.7-11.7c0-6.5,5.3-11.7,11.7-11.7c6.5,0,11.7,5.3,11.7,11.7
					C395.4,2328.3,390.1,2333.6,383.6,2333.6z M383.8,2082.9c1.4,0,2.5,1.1,2.5,2.5s-1.1,2.5-2.5,2.5s-2.5-1.1-2.5-2.5
					S382.4,2082.9,383.8,2082.9z M365.5,2099.7H402c1.1,0,2,0.9,2,2c0,1.1-0.9,2-2,2h-36.4c-1.1,0-2-0.9-2-2
					C363.5,2100.6,364.4,2099.7,365.5,2099.7z M343.8,2097.6c2.2,0,4,1.8,4,4c0,2.2-1.8,4-4,4s-4-1.8-4-4
					C339.7,2099.4,341.5,2097.6,343.8,2097.6z"/>
			</g>
		</g>
	</g>
	<g>
		<circle class="st5" cx="383.6" cy="2700.2" r="208.8"/>
		<g id="Laptop_00000023272973698123871840000007435194752048575914_">
			<g>
				<g id="Laptop_00000129196391661062700820000007988021131494779065_">
					<g>
						<path class="st6" d="M506.2,2767.8H261l-19.6,14.5v10.9h284.6v-10.9L506.2,2767.8z M402.7,2787.2h-37.3
							c-1.4,0-2.5-1.1-2.5-2.5c0-1.4,1.1-2.5,2.5-2.5h37.3c1.4,0,2.5,1.1,2.5,2.5C405.2,2786.1,404.1,2787.2,402.7,2787.2z
							 M502.4,2607.3c-2.4-2.4-5.6-3.8-9.2-3.8H274c-3.6,0-6.8,1.5-9.2,3.8c-2.4,2.4-3.8,5.6-3.8,9.2V2760h245.3v-143.5
							C506.3,2612.9,504.8,2609.6,502.4,2607.3z M495.4,2749.1H271.8v-132.6c0-0.6,0.2-1.1,0.6-1.5c0.4-0.4,0.9-0.6,1.5-0.6h219.3
							c0.6,0,1.1,0.2,1.5,0.6c0.4,0.4,0.6,0.9,0.6,1.5V2749.1z"/>
					</g>
				</g>
				<polygon class="st6" points="490.9,2745.3 332.1,2745.3 275.2,2745.3 275.2,2618.1 403.3,2618.1 490.9,2618.1 				"/>
			</g>
		</g>
	</g>
	<g>
		<circle class="st5" cx="1447.6" cy="1700.3" r="208.8"/>
		<g>
			<g id="Desktop_Monitor_00000031208412595591785540000008255553222441913279_">
				<path class="st6" d="M1490.4,1624.6h-173.9c-4.9,0-8.9,4-8.9,8.9v113.2c0,4.9,4,8.9,8.9,8.9h173.9c4.9,0,8.9-4,8.9-8.9v-113.2
					C1499.3,1628.6,1495.3,1624.6,1490.4,1624.6z M1402.1,1750.6c-2.5,0-4.5-2-4.5-4.5s2-4.5,4.5-4.5c2.5,0,4.5,2,4.5,4.5
					S1404.6,1750.6,1402.1,1750.6z M1489.7,1730.7c0,3.8-3.6,7.3-7.5,7.3h-159.5c-3.8,0-5.5-3.5-5.5-7.3v-90c0-3.8,1.6-6.5,5.5-6.5
					h159.5c3.8,0,7.5,2.7,7.5,6.5V1730.7z M1441.6,1781.1h-13.1c-2.4,0-4.3-2.2-4.3-4.7l-3.1-11.4c0-2.7-2.2-4.6-5-4.6h-27.3
					c-2.7,0-5,1.9-5,4.7l-3,11.5c0,2.5-1.9,4.6-4.3,4.6h-12.4c-2.5,0-4.6,2.3-4.6,4.8c0,2.5,2,4.8,4.6,4.8h77.4
					c2.5,0,4.6-2.3,4.6-4.8C1446.2,1783.4,1444.2,1781.1,1441.6,1781.1z"/>
			</g>
			<g id="Server_Tall_00000183221238247299522140000004859847152793025206_">
				<g>
					<path class="st6" d="M1516.6,1611.1v169.6h63.8v-169.6H1516.6z M1572.8,1775.9h-51.2v-5.1h51.2V1775.9z M1572.8,1765.7h-51.2
						v-5.1h51.2V1765.7z M1572.8,1755.6h-51.2v-5.1h51.2V1755.6z M1572.8,1745.4h-51.2v-5.1h51.2V1745.4z M1538,1718.5
						c0-5.1,4.1-9.2,9.2-9.2c5.1,0,9.2,4.1,9.2,9.2c0,5.1-4.1,9.2-9.2,9.2C1542.1,1727.7,1538,1723.5,1538,1718.5z M1572.8,1631.4
						h-51.2v-14.8h51.2V1631.4z"/>
					<g>
						<path class="st7" d="M1506.9,1601.9v189.3h80.7v-189.3H1506.9z M1572.8,1740.3v5.1h-51.2v-5.1H1572.8z M1538,1718.5
							c0-5.1,4.1-9.2,9.2-9.2c5.1,0,9.2,4.1,9.2,9.2c0,5.1-4.1,9.2-9.2,9.2C1542.1,1727.7,1538,1723.5,1538,1718.5z M1572.8,1750.5
							v5.1h-51.2v-5.1H1572.8z M1572.8,1760.7v5.1h-51.2v-5.1H1572.8z M1572.8,1770.8v5.1h-51.2v-5.1H1572.8z M1572.8,1631.4h-51.2
							v-14.8h51.2V1631.4z"/>
					</g>
				</g>
			</g>
		</g>
	</g>
	<g>
		<circle class="st5" cx="1447.6" cy="2198.2" r="208.8"/>
		<g id="Printer_00000050624561495484665790000002891335310975774864_">
			<g id="printer_x5F_v02_00000160881773529762347950000009711881504146762891_">
				<g>
					<path class="st6" d="M1511,2079.1h-125.8c-4.1,0-7.5,3.4-7.5,7.5v107.4c0,4.1,3.4,7.5,7.5,7.5H1511c4.1,0,7.5-3.4,7.5-7.5
						v-107.4C1518.5,2082.4,1515.1,2079.1,1511,2079.1z M1469.3,2090.3h1.8c1.9,0,3.8,0.8,5.2,2.2l29.4,29.4
						c1.4,1.4,2.2,3.2,2.2,5.2v1.8h-38.5V2090.3z M1389.3,2172v-77.3c0-4.1,3.3-7.3,7.4-7.3h60.8v43c0,4,3.3,7.3,7.4,7.3h43v34.3
						H1389.3z"/>
					<g id="Data_00000120547180262977618860000005470541087931064450_">
						<g>
							<path class="st6" d="M1389.3,2172v65c0,0.3,0,0.6,0.1,1c0.4-1.5,1.7-2.6,3.2-2.6h112c1.6,0,2.9,1.1,3.2,2.6
								c0-0.3,0.1-0.6,0.1-1v-65H1389.3z"/>
						</g>
					</g>
					<path class="st6" d="M1575.1,2172h-256.2c-2.9,0-5.3,2.4-5.3,5.3v76.9h266.8v-76.9C1580.4,2174.3,1578.1,2172,1575.1,2172z
						 M1507.8,2242.8c0,1.8-1.5,3.3-3.3,3.3h-112c-1.8,0-3.3-1.5-3.3-3.3v-4.1c0-0.2,0-0.5,0.1-0.7v0c0.4-1.5,1.7-2.6,3.2-2.6h112
						c1.6,0,2.9,1.1,3.2,2.6v0c0,0.2,0.1,0.5,0.1,0.7V2242.8z M1531.9,2199.4c0,1.6-1.3,3-3,3h-3.6c-1.7,0-3-1.3-3-3v-3.6
						c0-1.6,1.3-3,3-3h3.6c1.6,0,3,1.3,3,3V2199.4z M1545.9,2199.4c0,1.6-1.3,3-3,3h-3.6c-1.7,0-3-1.3-3-3v-3.6c0-1.6,1.3-3,3-3h3.6
						c1.6,0,3,1.3,3,3V2199.4z M1570,2199.2c0,1.7-1.4,3.1-3.1,3.1h-13.1c-1.7,0-3.1-1.4-3.1-3.1v-13.1c0-1.7,1.4-3.1,3.1-3.1h13.1
						c1.7,0,3.1,1.4,3.1,3.1V2199.2z M1313.6,2276.9c0,2.9,2.4,5.3,5.3,5.3h256.2c2.9,0,5.3-2.4,5.3-5.3v-3.6h-266.8V2276.9z
						 M1313.6,2256.8v13.7h266.8v-13.7H1313.6z"/>
					<rect x="1313" y="2254.2" class="st6" width="0.6" height="2.7"/>
					<rect x="1580.4" y="2254.2" class="st6" width="1.8" height="2.7"/>
					<rect x="1313" y="2270.5" class="st6" width="0.6" height="2.7"/>
					<rect x="1580.4" y="2270.5" class="st6" width="1.8" height="2.7"/>
				</g>
			</g>
		</g>
	</g>
	<g>
		<g>
			<circle class="st8" cx="2091.5" cy="1700.6" r="208.8"/>
			<g>
				<g id="Software_00000081616442253709859480000007205352611804833982_">
					<g>
						<path class="st6" d="M2154.9,1566.9h-192.9c-4.5,0-8.1,3.7-8.1,8.1v15.7H2163V1575C2163,1570.6,2159.3,1566.9,2154.9,1566.9z
							 M1970.4,1585.9c-3.9,0-7.1-3.2-7.1-7.1c0-4,3.2-7.2,7.1-7.2c3.9,0,7.2,3.2,7.2,7.2
							C1977.6,1582.8,1974.3,1585.9,1970.4,1585.9z M1989.5,1585.9c-3.9,0-7.1-3.2-7.1-7.1c0-4,3.2-7.2,7.1-7.2
							c3.9,0,7.1,3.2,7.1,7.2C1996.6,1582.8,1993.4,1585.9,1989.5,1585.9z M2155.9,1581.2h-109.4c-1.3,0-2.3-1-2.3-2.3
							s1-2.4,2.3-2.4h109.4c1.4,0,2.4,1.1,2.4,2.4S2157.2,1581.2,2155.9,1581.2z"/>
						<path class="st6" d="M2163,1600.2V1711c0,4.5-3.7,8.1-8.1,8.1h-193c-4.5,0-8.1-3.7-8.1-8.1v-110.8H2163z"/>
					</g>
				</g>
				<g id="Mouse_Hand_00000142858075378573536980000004744082279403022486_">
					<g id="Mouse_Hand_00000034052285165049525460000004713614879112140940_">
						<g>
							<path d="M2234.7,1837.9c-24.4,9.9-48.5,19.6-72.4,29.3c-4-4.5-7.6-8.9-11.6-13c-10.9-11.3-24.2-19.5-37.9-26.8
								c-8.2-4.4-16.4-8.7-24.6-13.1c-11.8-6.3-17.2-16.3-14.8-27.5c2.4-11.4,9-16.4,20.6-15.4c2.7,0.2,5.4,0.6,8.5,1
								c-3.3-8.3-6.5-16.1-9.6-24c-12.6-31.2-25.3-62.4-37.7-93.7c-1.7-4.3-2.8-9.2-3.1-13.8c-0.5-7.7,4.5-13.9,11.2-15.4
								c6.6-1.4,14.6,2.9,17.5,9.5c5.8,13,11.6,26.1,17.4,39.2c4.5,10.1,9,20.3,13.9,31.1c2.5-8.1,7.1-13.4,14.9-14.9
								c7.8-1.5,13.7,2.9,19.2,7.7c5-12.2,19.7-12.9,30.2-1.2c3.2-2.8,6.1-6.1,9.6-8.3c6.9-4.2,14.2-2.8,19,3.7
								c2.9,4.1,5.2,8.8,7.1,13.4c6.3,15,12.4,30.2,18.5,45.3c3,7.6,4.2,15.6,3.9,23.7c-0.6,13.6-1.4,27.2-2.3,40.8
								C2231.6,1823,2231.6,1830.4,2234.7,1837.9z M2123.3,1732.8c-1.6,0.7-3.5,1.5-5.4,2.4c-0.5-0.9-0.9-1.3-1.1-1.8
								c-8.1-18.2-16.1-36.4-24.2-54.6c-6.1-13.7-12.1-27.3-18.3-40.9c-1.7-3.8-6.5-6.5-9.9-5.6c-3.7,1-6.5,5.7-5.7,10.1
								c0.6,3.3,1.5,6.7,2.7,9.8c15.7,38.9,31.4,77.8,47.2,116.7c2,5,4,10,6,15.2c-6-1.8-11.4-3.9-16.9-5.1
								c-12-2.7-18,1.7-18.1,12.7c-0.1,8.4,5.2,12.9,11.8,16.4c7.7,4.1,15.4,8.1,23.1,12.2c18.3,9.7,35.3,21,48.7,37
								c0.5,0.6,2.2,0.8,3.1,0.4c17.9-7.1,35.7-14.3,53.5-21.4c5.6-2.2,5.6-2.3,5-8.3c-0.1-1.1-0.2-2.3-0.1-3.4
								c0.8-12.3,1.6-24.7,2.4-37c0.7-11.3,1.3-22.7-3-33.6c-6.9-17.3-14-34.6-21.2-51.8c-1-2.4-2.7-4.7-4.5-6.7
								c-2.4-2.7-5.5-2.9-8.7-1.3c-5.8,2.9-8.2,7.8-7.1,14.3c0.2,1.4,0.4,2.9,0.6,4.1c-2.6,2-4.2,1-5.5-1.1
								c-1.1-1.7-2.2-3.4-3.3-5.1c-3.1-4.7-6.6-9-12.4-10.5c-5.2-1.4-9,1.3-9.6,6.6c-0.1,1.5-0.1,2.9,0,4.4c0.2,2.3,0.4,4.7,0.7,6.8
								c-2.5,1.7-3.8,0.8-5.1-1.3c-3.3-5.5-7.2-10.5-12.9-13.7c-5-2.8-10.5-1.7-13.6,2.6c-2.8,3.9-3.6,8.4-2.7,13
								C2120.1,1720.4,2121.8,1726.5,2123.3,1732.8z"/>
							<path class="st6" d="M2123.3,1732.8c-1.5-6.4-3.2-12.4-4.4-18.6c-0.9-4.6-0.1-9.1,2.7-13c3.1-4.3,8.6-5.4,13.6-2.6
								c5.7,3.2,9.6,8.2,12.9,13.7c1.3,2.2,2.6,3,5.1,1.3c-0.2-2.2-0.5-4.5-0.7-6.8c-0.1-1.5-0.1-2.9,0-4.4c0.5-5.3,4.4-8,9.6-6.6
								c5.8,1.5,9.2,5.9,12.4,10.5c1.1,1.7,2.2,3.4,3.3,5.1c1.3,2.1,2.9,3.1,5.5,1.1c-0.2-1.2-0.4-2.6-0.6-4.1
								c-1.1-6.5,1.3-11.5,7.1-14.3c3.2-1.6,6.3-1.4,8.7,1.3c1.8,2,3.5,4.3,4.5,6.7c7.2,17.2,14.3,34.5,21.2,51.8
								c4.3,10.8,3.7,22.2,3,33.6c-0.7,12.3-1.6,24.7-2.4,37c-0.1,1.1,0,2.3,0.1,3.4c0.6,6,0.6,6-5,8.3
								c-17.8,7.2-35.7,14.4-53.5,21.4c-0.9,0.3-2.6,0.2-3.1-0.4c-13.4-16.1-30.4-27.4-48.7-37c-7.7-4.1-15.4-8.1-23.1-12.2
								c-6.6-3.5-11.9-8-11.8-16.4c0.1-11.1,6.1-15.5,18.1-12.7c5.6,1.3,10.9,3.3,16.9,5.1c-2.1-5.3-4-10.3-6-15.2
								c-15.7-38.9-31.5-77.8-47.2-116.7c-1.3-3.1-2.1-6.5-2.7-9.8c-0.8-4.5,2-9.1,5.7-10.1c3.3-0.9,8.2,1.8,9.9,5.6
								c6.1,13.6,12.2,27.3,18.3,40.9c8.1,18.2,16.1,36.4,24.2,54.6c0.2,0.5,0.6,1,1.1,1.8
								C2119.9,1734.4,2121.8,1733.5,2123.3,1732.8z"/>
						</g>
					</g>
				</g>
			</g>
		</g>
		<g>
			<circle class="st8" cx="2090.2" cy="2197.4" r="208.8"/>
			<g>
				<g id="wifi_00000098185194963772723450000015119526558316584615_">
					<path class="st6" d="M2091.2,2031.4c19.3,0,37.5,7.5,51.1,21.1c0.9,0.9,2.2,1.4,3.5,1.4c1.3,0,2.6-0.5,3.5-1.4
						c0.9-1,1.4-2.2,1.4-3.5c0-1.3-0.5-2.6-1.4-3.5c-32-31.9-84.1-31.9-116.1,0c-0.9,0.9-1.5,2.2-1.5,3.5c0,1.3,0.5,2.5,1.4,3.5
						c1.9,1.9,5,1.9,7,0C2053.7,2038.9,2071.8,2031.4,2091.2,2031.4"/>
					<path class="st6" d="M2126.3,2072.4c1.3,0,2.6-0.5,3.5-1.4c0.9-0.9,1.5-2.2,1.5-3.5c0-1.3-0.5-2.5-1.5-3.4
						c-21.3-21.2-56-21.2-77.3,0c-0.9,0.9-1.4,2.1-1.4,3.4c0,1.3,0.5,2.6,1.4,3.5c0.9,0.9,2.2,1.4,3.5,1.4c1.3,0,2.5-0.5,3.5-1.4
						c17.5-17.4,46-17.4,63.4,0C2123.8,2071.9,2125,2072.4,2126.3,2072.4"/>
					<path class="st6" d="M2070,2086.3c0,1.3,0.5,2.5,1.4,3.5c1.9,1.9,5,1.9,7,0c7-7,18.4-7,25.4,0c0.9,0.9,2.1,1.4,3.5,1.4
						c1.3,0,2.6-0.5,3.5-1.4c0.9-0.9,1.4-2.1,1.4-3.4c0-1.3-0.5-2.6-1.4-3.5c-10.9-10.8-28.5-10.8-39.4,0
						C2070.6,2083.7,2070,2085,2070,2086.3"/>
					<circle class="st6" cx="2091.2" cy="2108.9" r="10.7"/>
				</g>
				<g id="mTLS_00000054231406466518494560000012554599810140194231_">
					<g>
						<path class="st6" d="M2166.8,2328.5c0,13.3-4.4,17.6-17.7,17.7c-19.7,0-39.3,0-59,0c-19.9,0-39.8,0.1-59.7,0
							c-11.9,0-16.6-4.6-16.7-16.4c-0.1-28.5-0.1-57,0-85.5c0.1-14.1,5.5-18.2,19.4-15c39.2,9.1,78.4,9,117.5-0.8
							c8.9-2.3,13.9,1,15.7,10.1c0.4,2.2,0.5,4.5,0.5,6.8C2166.9,2273,2166.9,2300.7,2166.8,2328.5z"/>
						<path class="st6" d="M2148.4,2211.7c0.2,4.3-1.8,5.8-5.5,6.5c-5.7,1-11.3,2.1-18.2,3.5c0-10,0.3-19.5-0.1-29
							c-0.5-14.9-9.3-26.6-22.6-30.8c-12.8-4.1-27.6-0.1-35,11.3c-3.9,6-5.9,13.8-6.8,21c-1.1,8.9-0.3,18-0.3,28.2
							c-7.3-1.3-13.6-2.4-19.9-3.8c-1.3-0.3-3.1-2.2-3.1-3.3c0.6-13.5-0.7-27.7,2.7-40.5c7-25.9,33.4-41.2,60.8-37.7
							c25.4,3.2,45.8,25.1,47.5,51.2C2148.5,2196.1,2148.1,2203.9,2148.4,2211.7z"/>
					</g>
				</g>
			</g>
		</g>
		<g>
			<circle class="st8" cx="2091.5" cy="2694.2" r="208.8"/>
			<path class="st6" d="M2113.1,2788.6c62-12.7,102.1-73.2,89.4-135.3c-12.7-62-73.2-102.1-135.3-89.4
				c-62,12.7-102.1,73.2-89.4,135.3c9.2,45,44.4,80.2,89.4,89.4v12.1h-76.4v22.9h198.8v-22.9h-76.5V2788.6z M2029,2676.2
				c0-33.8,27.4-61.2,61.2-61.2c33.8,0,61.2,27.4,61.2,61.2c0,33.8-27.4,61.2-61.2,61.2S2029,2710,2029,2676.2L2029,2676.2z"/>
			<path class="st6" d="M2090.2,2630.3c-25.3,0-45.9,20.5-45.9,45.9c0,25.3,20.5,45.9,45.9,45.9c25.3,0,45.9-20.5,45.9-45.9l0,0
				C2136,2650.9,2115.5,2630.3,2090.2,2630.3z M2090.2,2699.1c-12.7,0-22.9-10.3-23-22.9c0-12.7,10.3-22.9,22.9-23
				c12.7,0,22.9,10.3,23,22.9c0,0,0,0,0,0C2113.1,2688.9,2102.8,2699.1,2090.2,2699.1z"/>
		</g>
	</g>
	<g>
		<g>
			<circle class="st8" cx="3138" cy="1701.5" r="208.8"/>
			<g id="Desktop_Monitor_00000035532898621078869150000000413403432105407385_">
				<path class="st6" d="M3277.1,1579.3h-278.2c-7.9,0-14.2,6.4-14.2,14.2v181.1c0,7.9,6.4,14.2,14.2,14.2h278.2
					c7.9,0,14.2-6.4,14.2-14.2v-181.1C3291.4,1585.7,3285,1579.3,3277.1,1579.3z M3135.7,1780.9c-4,0-7.3-3.3-7.3-7.3
					c0-4,3.2-7.3,7.3-7.3c4,0,7.3,3.2,7.3,7.3C3142.9,1777.7,3139.7,1780.9,3135.7,1780.9z M3276,1749.1c0,6-5.8,11.7-12,11.7
					h-255.3c-6.2,0-8.8-5.6-8.8-11.7V1605c0-6,2.6-10.3,8.8-10.3h255.3c6.1,0,12,4.3,12,10.3V1749.1z M3199,1829.7h-20.9
					c-3.9,0-6.9-3.6-6.9-7.6l-4.9-18.2c0-4.4-3.5-7.4-7.9-7.4h-43.8c-4.4,0-7.9,3.1-7.9,7.5l-4.9,18.3c0,4-3,7.4-6.9,7.4h-19.8
					c-4,0-7.3,3.6-7.3,7.7c0,4,3.3,7.7,7.3,7.7H3199c4,0,7.3-3.6,7.3-7.7C3206.3,1833.4,3203.1,1829.7,3199,1829.7z"/>
			</g>
		</g>
		<g>
			<circle class="st8" cx="3138" cy="2198.3" r="208.8"/>
			<path class="st6" d="M3109,2100.6h50.4v20.1H3109V2100.6z M3236.8,2287.5c-26.1,0-50.6-12.8-65.6-34.2l-1-1.4h-72l-1,1.4
				c-15,21.4-39.6,34.2-65.6,34.2c-44.2,0-80.2-36-80.2-80.2c0-44.2,36-80.2,80.2-80.2h205.1c44.2,0,80.2,36,80.2,80.2
				C3317,2251.5,3281,2287.5,3236.8,2287.5z M3049.9,2158.5h-35.1v26.1h-26.1v35.1h26.1v26.1h35.1v-26.1h26.1v-35.1h-26.1V2158.5z
				 M3228.3,2208.5c0-10.4-8.5-18.9-18.9-18.9c-10.4,0-18.9,8.5-18.9,18.9c0,10.4,8.5,18.9,18.9,18.9
				C3219.8,2227.4,3228.3,2218.9,3228.3,2208.5z M3273.9,2189.6c-10.4,0-18.9,8.5-18.9,18.9c0,10.4,8.5,18.9,18.9,18.9
				c10.4,0,18.9-8.5,18.9-18.9C3292.8,2198.1,3284.3,2189.6,3273.9,2189.6z M3241.6,2221.8c-10.4,0-18.9,8.5-18.9,18.9
				c0,10.4,8.5,18.9,18.9,18.9c10.4,0,18.9-8.5,18.9-18.9C3260.6,2230.3,3252.1,2221.8,3241.6,2221.8z M3241.6,2195.2
				c10.4,0,18.9-8.5,18.9-18.9c0-10.4-8.5-18.9-18.9-18.9c-10.4,0-18.9,8.5-18.9,18.9C3222.7,2186.7,3231.2,2195.2,3241.6,2195.2z
				 M3166.3,2183l5.8,2.8l-17.7,36.9l-5.8-2.8L3166.3,2183z M3150.8,2185.8l-17.7,36.9l-5.8-2.8l17.7-36.9L3150.8,2185.8z
				 M3129.5,2185.8l-17.7,36.9l-5.8-2.8l17.7-36.9L3129.5,2185.8z"/>
		</g>
		<g>
			<circle class="st8" cx="3138" cy="2695.2" r="208.8"/>
		</g>
		<g>
			<g>
				<path class="st6" d="M3122.8,2804.3c8.8,0,17.6,0,26.4,0c3.3,0,6.6,0.2,9.9,0c8.1-0.5,14.6-4.8,18.7-11.7
					c7.9-13.4,14.9-27.5,21.3-41.7c8.6-19.3,16.1-39.2,20.5-59.9c4-19,5.9-39.9-0.3-58.7c-6.5-19.4-21.4-32.9-40.5-39.5
					c-12.6-4.4-26.3-5.8-39.6-5.9c-13.5-0.1-27.4,1.1-40.2,5.5c-19,6.5-33.8,20-39.8,39.4c-5.9,19.1-3.5,40.3,1,59.4
					c8.3,35.6,24.6,70.5,43.6,101.7C3108,2799.9,3114.6,2803.9,3122.8,2804.3c7.7,0.3,7.7-11.7,0-12c-8-0.4-11.6-10.1-15-16.2
					c-3.8-6.9-7.5-13.8-11-20.9c-8.4-17-15.8-34.5-21.3-52.6c-9.3-30.6-16.7-74.7,15.8-93.7c20-11.7,47.6-12.1,69.7-8.2
					c17.9,3.1,34.9,11.1,43.5,27.6c7.7,14.7,7.7,33,5.2,49.4c-2.9,19.2-9,37.9-16.3,55.9c-6.2,15.2-13.4,30-21.3,44.4
					c-3.4,6.2-6.2,13.9-14.2,14.3c-8.9,0.4-17.9,0-26.8,0c-2.8,0-5.6,0-8.4,0C3115.1,2792.3,3115.1,2804.3,3122.8,2804.3z"/>
			</g>
		</g>
		<g>
			<path class="st6" d="M3163.1,2822.6h-46.8c-2.3,0-4.1-1.9-4.1-4.1v-4.1c0-2.3,1.9-4.1,4.1-4.1h46.8c2.3,0,4.1,1.9,4.1,4.1v4.1
				C3167.2,2820.8,3165.4,2822.6,3163.1,2822.6z"/>
			<path class="st6" d="M3163.1,2841.1h-46.8c-2.3,0-4.1-1.9-4.1-4.1v-4.1c0-2.3,1.9-4.1,4.1-4.1h46.8c2.3,0,4.1,1.9,4.1,4.1v4.1
				C3167.2,2839.2,3165.4,2841.1,3163.1,2841.1z"/>
		</g>
		<g>
			<g>
				<path class="st6" d="M3260,2575.6l-38.6,31.6c-1.1,0.9-2.7,0.7-3.6-0.4l-1.6-2c-0.9-1.1-0.7-2.7,0.4-3.6l38.6-31.6
					c1.1-0.9,2.7-0.7,3.6,0.4l1.6,2C3261.3,2573,3261.1,2574.7,3260,2575.6z"/>
				<path class="st6" d="M3284.7,2646.7l-48.6,11c-1.4,0.3-2.8-0.6-3.1-1.9l-0.6-2.5c-0.3-1.4,0.6-2.8,1.9-3.1l48.6-11
					c1.4-0.3,2.8,0.6,3.1,1.9l0.6,2.5C3287,2645,3286.1,2646.4,3284.7,2646.7z"/>
				<path class="st6" d="M3277.7,2718.6l-48.6-11.2c-1.4-0.3-2.3-1.7-1.9-3.1l0.6-2.5c0.3-1.4,1.7-2.3,3.1-1.9l48.6,11.2
					c1.4,0.3,2.3,1.7,1.9,3.1l-0.6,2.5C3280.5,2718,3279.1,2718.9,3277.7,2718.6z"/>
				<path class="st6" d="M3258.7,2769.8l-47-16.6c-1.3-0.5-2-2-1.6-3.3l0.9-2.4c0.5-1.3,2-2,3.3-1.6l47,16.6c1.3,0.5,2,2,1.6,3.3
					l-0.9,2.4C3261.5,2769.6,3260,2770.3,3258.7,2769.8z"/>
			</g>
			<g>
				<path class="st6" d="M3018.1,2577.2l38.6,31.6c1.1,0.9,2.7,0.7,3.6-0.4l1.6-2c0.9-1.1,0.7-2.7-0.4-3.6l-38.6-31.6
					c-1.1-0.9-2.7-0.7-3.6,0.4l-1.6,2C3016.8,2574.6,3017,2576.3,3018.1,2577.2z"/>
				<path class="st6" d="M2993.3,2648.3l48.6,11c1.4,0.3,2.8-0.6,3.1-1.9l0.6-2.5c0.3-1.4-0.6-2.8-1.9-3.1l-48.6-11
					c-1.4-0.3-2.8,0.6-3.1,1.9l-0.6,2.5C2991.1,2646.6,2992,2648,2993.3,2648.3z"/>
				<path class="st6" d="M3000.3,2720.2l48.6-11.2c1.4-0.3,2.3-1.7,1.9-3.1l-0.6-2.5c-0.3-1.4-1.7-2.3-3.1-1.9l-48.6,11.2
					c-1.4,0.3-2.3,1.7-1.9,3.1l0.6,2.5C2997.6,2719.6,2999,2720.5,3000.3,2720.2z"/>
				<path class="st6" d="M3019.4,2771.4l47-16.6c1.3-0.5,2-2,1.6-3.3l-0.9-2.4c-0.5-1.3-2-2-3.3-1.6l-47,16.6c-1.3,0.5-2,2-1.6,3.3
					l0.9,2.4C3016.6,2771.2,3018,2771.9,3019.4,2771.4z"/>
			</g>
			<path class="st6" d="M3204.2,2536.4l-19.9,45.7c-0.6,1.3-2.1,1.9-3.4,1.3l-2.4-1c-1.3-0.6-1.9-2.1-1.3-3.4l19.9-45.7
				c0.6-1.3,2.1-1.9,3.4-1.3l2.4,1C3204.1,2533.6,3204.7,2535.1,3204.2,2536.4z"/>
			<path class="st6" d="M3071.1,2534l19.9,45.7c0.6,1.3,2.1,1.9,3.4,1.3l2.4-1c1.3-0.6,1.9-2.1,1.3-3.4l-19.9-45.7
				c-0.6-1.3-2.1-1.9-3.4-1.3l-2.4,1C3071.1,2531.1,3070.5,2532.7,3071.1,2534z"/>
			<path class="st6" d="M3144.7,2522.3v49.9c0,1.4-1.2,2.6-2.6,2.6h-2.6c-1.4,0-2.6-1.2-2.6-2.6v-49.9c0-1.4,1.2-2.6,2.6-2.6h2.6
				C3143.6,2519.7,3144.7,2520.8,3144.7,2522.3z"/>
		</g>
	</g>
	<g id="btn-icon_x5F_video_x5F_chat_x5F_app_00000062892868681101048380000017241926683736909470_">
		<path class="st9" d="M4474.7,2631.4c0-108.6-88-196.6-196.6-196.6c-108.6,0-196.6,88-196.6,196.6s88,196.6,196.6,196.6
			c0,0,0,0,0.1,0C4386.7,2828,4474.7,2740,4474.7,2631.4z M4278.1,2778.8c-81.4,0-147.5-66-147.5-147.5s66-147.5,147.5-147.5
			s147.5,66,147.5,147.5c0,0,0,0,0,0C4425.6,2712.8,4359.6,2778.8,4278.1,2778.8z"/>
		<path class="st9" d="M4278.1,2557.6c-40.7,0-73.8,33-73.8,73.7c0,40.7,33,73.8,73.7,73.8c40.7,0,73.8-33,73.8-73.7c0,0,0,0,0-0.1
			C4351.8,2590.7,4318.8,2557.6,4278.1,2557.6z M4278.1,2680.5c-27.2,0-49.2-22-49.2-49.2c0-27.2,22-49.2,49.2-49.2
			c27.2,0,49.2,22,49.2,49.2l0,0C4327.3,2658.5,4305.3,2680.5,4278.1,2680.5z"/>
	</g>
	<path class="st2" d="M3377.2,1022.6H107.4c-6.6,0-12-5.4-12-12V726.9c0-6.6,5.4-12,12-12h3269.7c6.6,0,12,5.4,12,12v283.7
		C3389.2,1017.2,3383.8,1022.6,3377.2,1022.6z"/>
	<g id="Gateway_Modem_00000041261682394057933420000012025937486102291873_">
		<g>
			<path class="st3" d="M1519.7,805.6c-24.8-21.9-62.4-21.9-87.2,0c-1.5,1.3-1.5,3.6-0.1,5l7.4,7.3c1.3,1.2,3.4,1.3,4.7,0.1
				c18.1-15.6,45.1-15.6,63.1,0c1.4,1.2,3.5,1.1,4.7-0.1l7.4-7.3C1521.2,809.1,1521.1,806.8,1519.7,805.6z M1543.8,781.1
				c-38.1-35.2-97.3-35.2-135.4,0c-1.4,1.3-1.5,3.6-0.1,4.9l7.4,7.3c1.3,1.3,3.5,1.3,4.8,0.1c31.3-28.7,79.8-28.7,111.2,0
				c1.4,1.2,3.5,1.2,4.8-0.1l7.4-7.3C1545.2,784.7,1545.2,782.4,1543.8,781.1z"/>
		</g>
		<g>
			<path class="st3" d="M1691.7,887h-207.9v-38.3c3.7-2.5,6.1-6.7,6.1-11.4c0-7.6-6.2-13.8-13.8-13.8c-7.6,0-13.8,6.2-13.8,13.8
				c0,4.7,2.4,8.9,6.1,11.4V887h-62.2c-3,0-5.4,2.4-5.4,5.4v82c0,3,2.4,5.4,5.4,5.4h4.5v1.5c0,2.5,2,4.6,4.5,4.6h6.2
				c2.5,0,4.6-2.1,4.6-4.6v-1.5h244.2v1.5c0,2.5,2,4.6,4.5,4.6h6.2c2.5,0,4.6-2.1,4.6-4.6v-1.5h6.1c3,0,5.4-2.4,5.4-5.4v-82
				C1697,889.4,1694.6,887,1691.7,887z M1469.7,941.3h-55.1c-2.5,0-4.5-2-4.5-4.5c0-2.5,2-4.6,4.5-4.6h55.1c2.5,0,4.5,2.1,4.5,4.6
				C1474.2,939.3,1472.2,941.3,1469.7,941.3z M1623,955.5c-10.9,0-19.7-8.8-19.7-19.7c0-10.9,8.8-19.7,19.7-19.7
				c10.9,0,19.7,8.8,19.7,19.7C1642.7,946.7,1633.9,955.5,1623,955.5z M1667.4,955.5c-10.9,0-19.7-8.8-19.7-19.7
				c0-10.9,8.8-19.7,19.7-19.7c10.9,0,19.7,8.8,19.7,19.7C1687.2,946.7,1678.3,955.5,1667.4,955.5z"/>
		</g>
	</g>
	<g id="Firewall_00000039092156558483250270000000480983805309570990_">
		<path class="st3" d="M1758.1,840.9v-37.5c0-0.3,0.2-0.5,0.5-0.5h85.6c0.3,0,0.5,0.2,0.5,0.5v37.5c0,0.3-0.2,0.5-0.5,0.5h-85.6
			C1758.4,841.4,1758.1,841.2,1758.1,840.9z"/>
		<path class="st3" d="M1855.3,840.9v-37.5c0-0.3,0.2-0.5,0.5-0.5h85.6c0.3,0,0.5,0.2,0.5,0.5v37.5c0,0.3-0.2,0.5-0.5,0.5h-85.6
			C1855.6,841.4,1855.3,841.2,1855.3,840.9z"/>
		<path class="st3" d="M1955.5,802.9h32.9l-1.8,15.3c-1.2,9.9-1.9,16.6-4.2,23.2h-26.9c-1.6,0-2.9-1.4-2.9-2.9v-32.7
			C1952.6,804.2,1953.9,802.9,1955.5,802.9z"/>
		<path class="st3" d="M2003.2,815c0.7,0.4,16.7,10.1,33.7,26.3c-0.2,0.1-0.5,0.1-0.7,0.1h-44.5c1.8-6.5,2.6-13.2,3.7-22.2l0.9-8.2
			L2003.2,815z"/>
		<path class="st3" d="M2039.2,805.8v25.5c-16.3-14.9-30.8-23.5-31.4-23.9l-7.7-4.6h36.2C2037.9,802.9,2039.2,804.2,2039.2,805.8z"
			/>
		<path class="st3" d="M1977.7,851.8c-4.5,8.1-12,17.9-24.8,33.5l-0.5,0.7c-1,1.5-1.9,2.9-2.9,4.4h-42.6c-1.7,0-2.9-1.4-2.9-2.9
			v-32.7c0-1.6,1.3-2.9,2.9-2.9H1977.7z"/>
		<path class="st3" d="M1990.5,854.8v32.7c0,1.6-1.3,2.9-2.9,2.9h-27.4c14.9-18.2,22.9-29.3,27.5-38.6
			C1989.3,851.9,1990.5,853.2,1990.5,854.8z"/>
		<path class="st3" d="M1806.8,889.9v-37.5c0-0.3,0.2-0.5,0.5-0.5h85.6c0.3,0,0.5,0.2,0.5,0.5v37.5c0,0.3-0.2,0.5-0.5,0.5h-85.6
			C1807,890.4,1806.8,890.2,1806.8,889.9z"/>
		<path class="st3" d="M1758.1,890.2v-38.2c0-0.1,0.1-0.2,0.2-0.2h37.8c0.1,0,0.2,0.1,0.2,0.2v38.2c0,0.1-0.1,0.2-0.2,0.2h-37.8
			C1758.2,890.4,1758.1,890.3,1758.1,890.2z"/>
		<path class="st3" d="M2001.1,890.2v-38.2c0-0.1,0.1-0.2,0.2-0.2h37.8c0.1,0,0.2,0.1,0.2,0.2v38.2c0,0.1-0.1,0.2-0.2,0.2h-37.8
			C2001.1,890.4,2001.1,890.3,2001.1,890.2z"/>
		<path class="st3" d="M2009.9,988.4h-7.7c-0.6,0-1.1-0.5-1.1-1.1v-4.1c4.3,3.2,8,4.8,8.3,5L2009.9,988.4z"/>
		<path class="st3" d="M2039.2,985.6v1.7c0,0.6-0.5,1.1-1.1,1.1h-1.8l0.8-0.7C2037.8,987,2038.5,986.3,2039.2,985.6z"/>
		<path class="st3" d="M1758.1,988.2V950c0-0.1,0.1-0.2,0.2-0.2h37.8c0.1,0,0.2,0.1,0.2,0.2v38.2c0,0.1-0.1,0.2-0.2,0.2h-37.8
			C1758.2,988.4,1758.1,988.3,1758.1,988.2z"/>
		<path class="st3" d="M1758.1,938.9v-37.5c0-0.3,0.2-0.5,0.5-0.5h85.6c0.3,0,0.5,0.2,0.5,0.5v37.5c0,0.3-0.2,0.5-0.5,0.5h-85.6
			C1758.3,939.4,1758.1,939.1,1758.1,938.9z"/>
		<path class="st3" d="M1941.9,905c-4.9,11.7-6.5,23.2-5,34.3h-78.6c-1.6,0-2.9-1.4-2.9-2.9v-32.7c0-1.6,1.4-2.9,2.9-2.9h80.7
			c1.7,0,2.9,1.4,2.9,2.9V905z"/>
		<path class="st3" d="M2013,900.8c-1.5,13.1-2.2,16.7-18.5,36.5l-0.1,0.1l-0.1,0.1c-0.4,0.6-0.8,1.3-1.2,1.9h-37.6
			c-1.6,0-2.9-1.4-2.9-2.9v-32.7c0-0.4,0.1-0.7,0.2-1c0.1-0.2,0.2-0.4,0.4-0.6c0.5-0.8,1.4-1.3,2.4-1.3H2013z"/>
		<path class="st3" d="M2039.2,903.8V916c-1.3-1.4-2.7-2.8-4.1-4.2c-5.1-4.8-10-8.6-13.3-11h14.5
			C2037.9,900.8,2039.2,902.2,2039.2,903.8z"/>
		<path class="st3" d="M1971,988.3h-64.1c-1.7,0-2.9-1.4-2.9-2.9v-32.6c0-1.7,1.3-2.9,2.9-2.9h32.4
			C1945.5,968.4,1960,981,1971,988.3z"/>
		<path class="st3" d="M1990.5,972v13.4c0,1.2-0.7,2.2-1.8,2.7h-0.1l-0.3-0.1c-1.3-0.5-29.6-12.6-39.6-38.2h38.8
			c0.2,0,0.4,0,0.6,0.1c-1.7,5.5-1.8,10.9-0.3,16C1988.5,968.1,1989.4,970.1,1990.5,972z"/>
		<path class="st3" d="M1806.8,987.8v-37.5c0-0.3,0.2-0.5,0.5-0.5h85.6c0.3,0,0.5,0.2,0.5,0.5v37.5c0,0.3-0.2,0.5-0.5,0.5h-85.6
			C1807,988.3,1806.8,988.1,1806.8,987.8z"/>
		<path class="st3" d="M2041.2,987l-1.5,1.4h-3.5l0.8-0.7c0.8-0.7,1.5-1.4,2.2-2.1c12.1-11.9,17.6-24.5,16.2-37.8
			c-1.1-10.6-6.7-21.4-16.2-31.9c-1.3-1.4-2.7-2.8-4.1-4.2c-5.1-4.8-10-8.6-13.3-11c-2.7-1.9-4.4-2.9-4.6-3.1l-3.6-2.1l-0.5,4.4
			c-0.1,0.3-0.1,0.6-0.1,0.8c-1.5,13.1-2.2,16.7-18.5,36.5l-0.1,0.1l-0.1,0.1c-0.4,0.6-0.8,1.3-1.2,1.9c-2.2,3.6-3.9,7.1-5,10.5
			c-1.7,5.5-1.8,10.9-0.3,16c0.6,2.2,1.5,4.2,2.7,6.1c2.8,4.9,6.8,8.6,10.5,11.2c4.3,3.2,8,4.8,8.3,5l0.5,0.2h-20.5l-0.6-0.3h-0.1
			l-0.3-0.1c-1.3-0.5-29.6-12.6-39.6-38.2c-0.6-1.4-1.1-2.9-1.5-4.5c-4-13.4-2.1-27.7,5.5-42.6c0.1-0.2,0.2-0.4,0.4-0.6
			c1.8-3.7,4.1-7.3,6.6-11l0.1-0.2l0.1-0.2c0.1-0.1,0.2-0.2,0.2-0.3c14.9-18.2,22.9-29.3,27.5-38.6c1.8-3.6,3.1-7,4.1-10.4
			c1.8-6.5,2.6-13.2,3.7-22.2l0.9-8.2l6.8,4c0.7,0.4,16.7,10.1,33.7,26.3l0.5,0.5c23.2,22.3,36.6,46.2,38.9,69.1
			C2079.2,937.7,2067.3,963.3,2041.2,987z"/>
		<path class="st3" d="M2041.2,987l-1.5,1.4h-3.5l0.8-0.7c0.8-0.7,1.5-1.4,2.2-2.1c12.1-11.9,17.6-24.5,16.2-37.8
			c-1.1-10.6-6.7-21.4-16.2-31.9c-1.3-1.4-2.7-2.8-4.1-4.2c-5.1-4.8-10-8.6-13.3-11c-2.7-1.9-4.4-2.9-4.6-3.1l-3.6-2.1l-0.5,4.4
			c-0.1,0.3-0.1,0.6-0.1,0.8c-1.5,13.1-2.2,16.7-18.5,36.5l-0.1,0.1l-0.1,0.1c-0.4,0.6-0.8,1.3-1.2,1.9c-2.2,3.6-3.9,7.1-5,10.5
			c-1.7,5.5-1.8,10.9-0.3,16c0.6,2.2,1.5,4.2,2.7,6.1c2.8,4.9,6.8,8.6,10.5,11.2c4.3,3.2,8,4.8,8.3,5l0.5,0.2h-20.5l-0.6-0.3h-0.1
			l-0.3-0.1c-1.3-0.5-29.6-12.6-39.6-38.2c-0.6-1.4-1.1-2.9-1.5-4.5c-4-13.4-2.1-27.7,5.5-42.6c0.1-0.2,0.2-0.4,0.4-0.6
			c1.8-3.7,4.1-7.3,6.6-11l0.1-0.2l0.1-0.2c0.1-0.1,0.2-0.2,0.2-0.3c14.9-18.2,22.9-29.3,27.5-38.6c1.8-3.6,3.1-7,4.1-10.4
			c1.8-6.5,2.6-13.2,3.7-22.2l0.9-8.2l6.8,4c0.7,0.4,16.7,10.1,33.7,26.3l0.5,0.5c23.2,22.3,36.6,46.2,38.9,69.1
			C2079.2,937.7,2067.3,963.3,2041.2,987z"/>
	</g>
	<g>
		<g id="Gateway_Modem_00000112596137030878762390000017920467814704849831_">
			<g>
				<path class="st3" d="M1043.7,1232.2c-24.8-21.9-62.4-21.9-87.2,0c-1.5,1.3-1.5,3.6-0.1,5l7.4,7.3c1.3,1.2,3.4,1.3,4.7,0.1
					c18.1-15.6,45.1-15.6,63.1,0c1.4,1.2,3.5,1.1,4.7-0.1l7.4-7.3C1045.2,1235.7,1045.1,1233.5,1043.7,1232.2z M1067.7,1207.8
					c-38.1-35.2-97.3-35.2-135.4,0c-1.4,1.3-1.5,3.6-0.1,4.9l7.4,7.3c1.3,1.3,3.5,1.3,4.8,0.1c31.3-28.7,79.8-28.7,111.2,0
					c1.4,1.2,3.5,1.2,4.8-0.1l7.4-7.3C1069.2,1211.4,1069.2,1209.1,1067.7,1207.8z"/>
			</g>
			<g>
				<path class="st3" d="M1215.6,1313.6h-207.9v-38.3c3.7-2.5,6.1-6.7,6.1-11.4c0-7.6-6.2-13.8-13.8-13.8c-7.6,0-13.8,6.2-13.8,13.8
					c0,4.7,2.4,8.9,6.1,11.4v38.3h-62.2c-3,0-5.4,2.4-5.4,5.4v82c0,3,2.4,5.4,5.4,5.4h4.5v1.5c0,2.5,2,4.6,4.5,4.6h6.2
					c2.5,0,4.6-2.1,4.6-4.6v-1.5h244.2v1.5c0,2.5,2,4.6,4.5,4.6h6.2c2.5,0,4.6-2.1,4.6-4.6v-1.5h6.1c3,0,5.4-2.4,5.4-5.4v-82
					C1221,1316,1218.6,1313.6,1215.6,1313.6z M993.7,1368h-55.1c-2.5,0-4.5-2-4.5-4.5c0-2.5,2-4.6,4.5-4.6h55.1
					c2.5,0,4.5,2.1,4.5,4.6C998.2,1365.9,996.2,1368,993.7,1368z M1147,1382.2c-10.9,0-19.7-8.8-19.7-19.7
					c0-10.9,8.8-19.7,19.7-19.7c10.9,0,19.7,8.8,19.7,19.7C1166.7,1373.3,1157.9,1382.2,1147,1382.2z M1191.4,1382.2
					c-10.9,0-19.7-8.8-19.7-19.7c0-10.9,8.8-19.7,19.7-19.7c10.9,0,19.7,8.8,19.7,19.7C1211.2,1373.3,1202.3,1382.2,1191.4,1382.2z"
					/>
			</g>
		</g>
		<g id="Firewall_00000006694719590725261060000000118540808356056452_">
			<path class="st3" d="M532.3,1265.3v-37.5c0-0.3,0.2-0.5,0.5-0.5h85.6c0.3,0,0.5,0.2,0.5,0.5v37.5c0,0.3-0.2,0.5-0.5,0.5h-85.6
				C532.5,1265.8,532.3,1265.6,532.3,1265.3z"/>
			<path class="st3" d="M629.5,1265.3v-37.5c0-0.3,0.2-0.5,0.5-0.5h85.6c0.3,0,0.5,0.2,0.5,0.5v37.5c0,0.3-0.2,0.5-0.5,0.5H630
				C629.7,1265.8,629.5,1265.6,629.5,1265.3z"/>
			<path class="st3" d="M729.6,1227.3h32.9l-1.8,15.3c-1.2,9.9-1.9,16.6-4.2,23.2h-26.9c-1.6,0-2.9-1.4-2.9-2.9v-32.7
				C726.7,1228.6,728,1227.3,729.6,1227.3z"/>
			<path class="st3" d="M777.4,1239.4c0.7,0.4,16.7,10.1,33.7,26.3c-0.2,0.1-0.5,0.1-0.7,0.1h-44.5c1.8-6.5,2.6-13.2,3.7-22.2
				l0.9-8.2L777.4,1239.4z"/>
			<path class="st3" d="M813.3,1230.2v25.5c-16.3-14.9-30.8-23.5-31.4-23.9l-7.7-4.6h36.2C812,1227.3,813.3,1228.6,813.3,1230.2z"/>
			<path class="st3" d="M751.8,1276.2c-4.5,8.1-12,17.9-24.8,33.5l-0.5,0.7c-1,1.5-1.9,2.9-2.9,4.4H681c-1.7,0-2.9-1.4-2.9-2.9
				v-32.7c0-1.6,1.3-2.9,2.9-2.9H751.8z"/>
			<path class="st3" d="M764.7,1279.2v32.7c0,1.6-1.3,2.9-2.9,2.9h-27.4c14.9-18.2,22.9-29.3,27.5-38.6
				C763.4,1276.3,764.7,1277.6,764.7,1279.2z"/>
			<path class="st3" d="M580.9,1314.3v-37.5c0-0.3,0.2-0.5,0.5-0.5H667c0.3,0,0.5,0.2,0.5,0.5v37.5c0,0.3-0.2,0.5-0.5,0.5h-85.6
				C581.1,1314.8,580.9,1314.6,580.9,1314.3z"/>
			<path class="st3" d="M532.2,1314.6v-38.2c0-0.1,0.1-0.2,0.2-0.2h37.8c0.1,0,0.2,0.1,0.2,0.2v38.2c0,0.1-0.1,0.2-0.2,0.2h-37.8
				C532.3,1314.8,532.2,1314.7,532.2,1314.6z"/>
			<path class="st3" d="M775.2,1314.6v-38.2c0-0.1,0.1-0.2,0.2-0.2h37.8c0.1,0,0.2,0.1,0.2,0.2v38.2c0,0.1-0.1,0.2-0.2,0.2h-37.8
				C775.3,1314.8,775.2,1314.7,775.2,1314.6z"/>
			<path class="st3" d="M784,1412.8h-7.7c-0.6,0-1.1-0.5-1.1-1.1v-4.1c4.3,3.2,8,4.8,8.3,5L784,1412.8z"/>
			<path class="st3" d="M813.3,1410v1.7c0,0.6-0.5,1.1-1.1,1.1h-1.8l0.8-0.7C811.9,1411.4,812.6,1410.8,813.3,1410z"/>
			<path class="st3" d="M532.2,1412.6v-38.2c0-0.1,0.1-0.2,0.2-0.2h37.8c0.1,0,0.2,0.1,0.2,0.2v38.2c0,0.1-0.1,0.2-0.2,0.2h-37.8
				C532.3,1412.8,532.2,1412.7,532.2,1412.6z"/>
			<path class="st3" d="M532.2,1363.3v-37.5c0-0.3,0.2-0.5,0.5-0.5h85.6c0.3,0,0.5,0.2,0.5,0.5v37.5c0,0.3-0.2,0.5-0.5,0.5h-85.6
				C532.5,1363.8,532.2,1363.6,532.2,1363.3z"/>
			<path class="st3" d="M716.1,1329.5c-4.9,11.7-6.5,23.2-5,34.3h-78.6c-1.6,0-2.9-1.4-2.9-2.9v-32.7c0-1.6,1.4-2.9,2.9-2.9h80.7
				c1.7,0,2.9,1.4,2.9,2.9V1329.5z"/>
			<path class="st3" d="M787.1,1325.2c-1.5,13.1-2.2,16.7-18.5,36.5l-0.1,0.1l-0.1,0.1c-0.4,0.6-0.8,1.3-1.2,1.9h-37.6
				c-1.6,0-2.9-1.4-2.9-2.9v-32.7c0-0.4,0.1-0.7,0.2-1c0.1-0.2,0.2-0.4,0.4-0.6c0.5-0.8,1.4-1.3,2.4-1.3H787.1z"/>
			<path class="st3" d="M813.3,1328.2v12.3c-1.3-1.4-2.7-2.8-4.1-4.2c-5.1-4.8-10-8.6-13.3-11h14.5
				C812,1325.2,813.3,1326.6,813.3,1328.2z"/>
			<path class="st3" d="M745.1,1412.8H681c-1.7,0-2.9-1.4-2.9-2.9v-32.6c0-1.7,1.3-2.9,2.9-2.9h32.4
				C719.6,1392.8,734.1,1405.4,745.1,1412.8z"/>
			<path class="st3" d="M764.7,1396.4v13.4c0,1.2-0.7,2.2-1.8,2.7h-0.1l-0.3-0.1c-1.3-0.5-29.6-12.6-39.6-38.2h38.8
				c0.2,0,0.4,0,0.6,0.1c-1.7,5.5-1.8,10.9-0.3,16C762.7,1392.5,763.6,1394.5,764.7,1396.4z"/>
			<path class="st3" d="M580.9,1412.3v-37.5c0-0.3,0.2-0.5,0.5-0.5H667c0.3,0,0.5,0.2,0.5,0.5v37.5c0,0.3-0.2,0.5-0.5,0.5h-85.6
				C581.1,1412.8,580.9,1412.5,580.9,1412.3z"/>
			<path class="st3" d="M815.4,1411.5l-1.5,1.4h-3.5l0.8-0.7c0.8-0.7,1.5-1.4,2.2-2.1c12.1-11.9,17.6-24.5,16.2-37.8
				c-1.1-10.6-6.7-21.4-16.2-31.9c-1.3-1.4-2.7-2.8-4.1-4.2c-5.1-4.8-10-8.6-13.3-11c-2.7-1.9-4.4-2.9-4.6-3.1l-3.6-2.1l-0.5,4.4
				c-0.1,0.3-0.1,0.6-0.1,0.8c-1.5,13.1-2.2,16.7-18.5,36.5l-0.1,0.1l-0.1,0.1c-0.4,0.6-0.8,1.3-1.2,1.9c-2.2,3.6-3.9,7.1-5,10.5
				c-1.7,5.5-1.8,10.9-0.3,16c0.6,2.2,1.5,4.2,2.7,6.1c2.8,4.9,6.8,8.6,10.5,11.2c4.3,3.2,8,4.8,8.3,5l0.5,0.2h-20.5l-0.6-0.3h-0.1
				l-0.3-0.1c-1.3-0.5-29.6-12.6-39.6-38.2c-0.6-1.4-1.1-2.9-1.5-4.5c-4-13.4-2.1-27.7,5.5-42.6c0.1-0.2,0.2-0.4,0.4-0.6
				c1.8-3.7,4.1-7.3,6.6-11l0.1-0.2l0.1-0.2c0.1-0.1,0.2-0.2,0.2-0.3c14.9-18.2,22.9-29.3,27.5-38.6c1.8-3.6,3.1-7,4.1-10.4
				c1.8-6.5,2.6-13.2,3.7-22.2l0.9-8.2l6.8,4c0.7,0.4,16.7,10.1,33.7,26.3l0.5,0.5c23.2,22.3,36.6,46.2,38.9,69.1
				C853.3,1362.1,841.4,1387.7,815.4,1411.5z"/>
			<path class="st3" d="M815.4,1411.5l-1.5,1.4h-3.5l0.8-0.7c0.8-0.7,1.5-1.4,2.2-2.1c12.1-11.9,17.6-24.5,16.2-37.8
				c-1.1-10.6-6.7-21.4-16.2-31.9c-1.3-1.4-2.7-2.8-4.1-4.2c-5.1-4.8-10-8.6-13.3-11c-2.7-1.9-4.4-2.9-4.6-3.1l-3.6-2.1l-0.5,4.4
				c-0.1,0.3-0.1,0.6-0.1,0.8c-1.5,13.1-2.2,16.7-18.5,36.5l-0.1,0.1l-0.1,0.1c-0.4,0.6-0.8,1.3-1.2,1.9c-2.2,3.6-3.9,7.1-5,10.5
				c-1.7,5.5-1.8,10.9-0.3,16c0.6,2.2,1.5,4.2,2.7,6.1c2.8,4.9,6.8,8.6,10.5,11.2c4.3,3.2,8,4.8,8.3,5l0.5,0.2h-20.5l-0.6-0.3h-0.1
				l-0.3-0.1c-1.3-0.5-29.6-12.6-39.6-38.2c-0.6-1.4-1.1-2.9-1.5-4.5c-4-13.4-2.1-27.7,5.5-42.6c0.1-0.2,0.2-0.4,0.4-0.6
				c1.8-3.7,4.1-7.3,6.6-11l0.1-0.2l0.1-0.2c0.1-0.1,0.2-0.2,0.2-0.3c14.9-18.2,22.9-29.3,27.5-38.6c1.8-3.6,3.1-7,4.1-10.4
				c1.8-6.5,2.6-13.2,3.7-22.2l0.9-8.2l6.8,4c0.7,0.4,16.7,10.1,33.7,26.3l0.5,0.5c23.2,22.3,36.6,46.2,38.9,69.1
				C853.3,1362.1,841.4,1387.7,815.4,1411.5z"/>
		</g>
	</g>
	<g>
		<g id="Gateway_Modem_00000168799779721442250920000018038765629673387668_">
			<g>
				<path class="st3" d="M2758.7,1240.9c-24.8-21.9-62.4-21.9-87.2,0c-1.5,1.3-1.5,3.6-0.1,5l7.4,7.3c1.3,1.2,3.4,1.3,4.7,0.1
					c18.1-15.6,45.1-15.6,63.1,0c1.4,1.2,3.5,1.1,4.7-0.1l7.4-7.3C2760.2,1244.5,2760.1,1242.2,2758.7,1240.9z M2782.8,1216.5
					c-38.1-35.2-97.3-35.2-135.4,0c-1.4,1.3-1.5,3.6-0.1,4.9l7.4,7.3c1.3,1.3,3.5,1.3,4.8,0.1c31.3-28.7,79.8-28.7,111.2,0
					c1.4,1.2,3.5,1.2,4.8-0.1l7.4-7.3C2784.2,1220.1,2784.2,1217.8,2782.8,1216.5z"/>
			</g>
			<g>
				<path class="st3" d="M2930.7,1322.3h-207.9V1284c3.7-2.5,6.1-6.7,6.1-11.4c0-7.6-6.2-13.8-13.8-13.8c-7.6,0-13.8,6.2-13.8,13.8
					c0,4.7,2.4,8.9,6.1,11.4v38.3h-62.2c-3,0-5.4,2.4-5.4,5.4v82c0,3,2.4,5.4,5.4,5.4h4.5v1.5c0,2.5,2,4.6,4.5,4.6h6.2
					c2.5,0,4.6-2.1,4.6-4.6v-1.5h244.2v1.5c0,2.5,2,4.6,4.5,4.6h6.2c2.5,0,4.6-2.1,4.6-4.6v-1.5h6.1c3,0,5.4-2.4,5.4-5.4v-82
					C2936,1324.7,2933.6,1322.3,2930.7,1322.3z M2708.7,1376.7h-55.1c-2.5,0-4.5-2-4.5-4.5c0-2.5,2-4.6,4.5-4.6h55.1
					c2.5,0,4.5,2.1,4.5,4.6C2713.2,1374.6,2711.2,1376.7,2708.7,1376.7z M2862,1390.9c-10.9,0-19.7-8.8-19.7-19.7
					c0-10.9,8.8-19.7,19.7-19.7c10.9,0,19.7,8.8,19.7,19.7C2881.7,1382,2872.9,1390.9,2862,1390.9z M2906.4,1390.9
					c-10.9,0-19.7-8.8-19.7-19.7c0-10.9,8.8-19.7,19.7-19.7c10.9,0,19.7,8.8,19.7,19.7C2926.2,1382,2917.3,1390.9,2906.4,1390.9z"/>
			</g>
		</g>
		<g id="Firewall_00000030483942805265219480000017639533856597032118_">
			<path class="st3" d="M2247.3,1274.1v-37.5c0-0.3,0.2-0.5,0.5-0.5h85.6c0.3,0,0.5,0.2,0.5,0.5v37.5c0,0.3-0.2,0.5-0.5,0.5h-85.6
				C2247.5,1274.6,2247.3,1274.3,2247.3,1274.1z"/>
			<path class="st3" d="M2344.5,1274.1v-37.5c0-0.3,0.2-0.5,0.5-0.5h85.6c0.3,0,0.5,0.2,0.5,0.5v37.5c0,0.3-0.2,0.5-0.5,0.5H2345
				C2344.7,1274.6,2344.5,1274.3,2344.5,1274.1z"/>
			<path class="st3" d="M2444.7,1236h32.9l-1.8,15.3c-1.2,9.9-1.9,16.6-4.2,23.2h-26.9c-1.6,0-2.9-1.4-2.9-2.9v-32.7
				C2441.7,1237.4,2443.1,1236,2444.7,1236z"/>
			<path class="st3" d="M2492.4,1248.1c0.7,0.4,16.7,10.1,33.7,26.3c-0.2,0.1-0.5,0.1-0.7,0.1h-44.5c1.8-6.5,2.6-13.2,3.7-22.2
				l0.9-8.2L2492.4,1248.1z"/>
			<path class="st3" d="M2528.4,1238.9v25.5c-16.3-14.9-30.8-23.5-31.4-23.9l-7.7-4.6h36.2C2527,1236,2528.4,1237.4,2528.4,1238.9z"
				/>
			<path class="st3" d="M2466.8,1285c-4.5,8.1-12,17.9-24.8,33.5l-0.5,0.7c-1,1.5-1.9,2.9-2.9,4.4H2396c-1.7,0-2.9-1.4-2.9-2.9
				v-32.7c0-1.6,1.3-2.9,2.9-2.9H2466.8z"/>
			<path class="st3" d="M2479.7,1287.9v32.7c0,1.6-1.3,2.9-2.9,2.9h-27.4c14.9-18.2,22.9-29.3,27.5-38.6
				C2478.5,1285,2479.7,1286.3,2479.7,1287.9z"/>
			<path class="st3" d="M2295.9,1323v-37.5c0-0.3,0.2-0.5,0.5-0.5h85.6c0.3,0,0.5,0.2,0.5,0.5v37.5c0,0.3-0.2,0.5-0.5,0.5h-85.6
				C2296.1,1323.5,2295.9,1323.3,2295.9,1323z"/>
			<path class="st3" d="M2247.3,1323.3v-38.2c0-0.1,0.1-0.2,0.2-0.2h37.8c0.1,0,0.2,0.1,0.2,0.2v38.2c0,0.1-0.1,0.2-0.2,0.2h-37.8
				C2247.3,1323.5,2247.3,1323.4,2247.3,1323.3z"/>
			<path class="st3" d="M2490.2,1323.3v-38.2c0-0.1,0.1-0.2,0.2-0.2h37.8c0.1,0,0.2,0.1,0.2,0.2v38.2c0,0.1-0.1,0.2-0.2,0.2h-37.8
				C2490.3,1323.5,2490.2,1323.4,2490.2,1323.3z"/>
			<path class="st3" d="M2499,1421.5h-7.7c-0.6,0-1.1-0.5-1.1-1.1v-4.1c4.3,3.2,8,4.8,8.3,5L2499,1421.5z"/>
			<path class="st3" d="M2528.4,1418.8v1.7c0,0.6-0.5,1.1-1.1,1.1h-1.8l0.8-0.7C2526.9,1420.1,2527.7,1419.5,2528.4,1418.8z"/>
			<path class="st3" d="M2247.3,1421.3v-38.2c0-0.1,0.1-0.2,0.2-0.2h37.8c0.1,0,0.2,0.1,0.2,0.2v38.2c0,0.1-0.1,0.2-0.2,0.2h-37.8
				C2247.3,1421.5,2247.3,1421.4,2247.3,1421.3z"/>
			<path class="st3" d="M2247.3,1372v-37.5c0-0.3,0.2-0.5,0.5-0.5h85.6c0.3,0,0.5,0.2,0.5,0.5v37.5c0,0.3-0.2,0.5-0.5,0.5h-85.6
				C2247.5,1372.5,2247.3,1372.3,2247.3,1372z"/>
			<path class="st3" d="M2431.1,1338.2c-4.9,11.7-6.5,23.2-5,34.3h-78.6c-1.6,0-2.9-1.4-2.9-2.9v-32.7c0-1.6,1.4-2.9,2.9-2.9h80.7
				c1.7,0,2.9,1.4,2.9,2.9V1338.2z"/>
			<path class="st3" d="M2502.1,1333.9c-1.5,13.1-2.2,16.7-18.5,36.5l-0.1,0.1l-0.1,0.1c-0.4,0.6-0.8,1.3-1.2,1.9h-37.6
				c-1.6,0-2.9-1.4-2.9-2.9v-32.7c0-0.4,0.1-0.7,0.2-1c0.1-0.2,0.2-0.4,0.4-0.6c0.5-0.8,1.4-1.3,2.4-1.3H2502.1z"/>
			<path class="st3" d="M2528.4,1336.9v12.3c-1.3-1.4-2.7-2.8-4.1-4.2c-5.1-4.8-10-8.6-13.3-11h14.5
				C2527,1333.9,2528.4,1335.3,2528.4,1336.9z"/>
			<path class="st3" d="M2460.1,1421.5H2396c-1.7,0-2.9-1.4-2.9-2.9v-32.6c0-1.7,1.3-2.9,2.9-2.9h32.4
				C2434.6,1401.5,2449.1,1414.2,2460.1,1421.5z"/>
			<path class="st3" d="M2479.7,1405.1v13.4c0,1.2-0.7,2.2-1.8,2.7h-0.1l-0.3-0.1c-1.3-0.5-29.6-12.6-39.6-38.2h38.8
				c0.2,0,0.4,0,0.6,0.1c-1.7,5.5-1.8,10.9-0.3,16C2477.7,1401.2,2478.6,1403.2,2479.7,1405.1z"/>
			<path class="st3" d="M2295.9,1421v-37.5c0-0.3,0.2-0.5,0.5-0.5h85.6c0.3,0,0.5,0.2,0.5,0.5v37.5c0,0.3-0.2,0.5-0.5,0.5h-85.6
				C2296.1,1421.5,2295.9,1421.2,2295.9,1421z"/>
			<path class="st3" d="M2530.4,1420.2l-1.5,1.4h-3.5l0.8-0.7c0.8-0.7,1.5-1.4,2.2-2.1c12.1-11.9,17.6-24.5,16.2-37.8
				c-1.1-10.6-6.7-21.4-16.2-31.9c-1.3-1.4-2.7-2.8-4.1-4.2c-5.1-4.8-10-8.6-13.3-11c-2.7-1.9-4.4-2.9-4.6-3.1l-3.6-2.1l-0.5,4.4
				c-0.1,0.3-0.1,0.6-0.1,0.8c-1.5,13.1-2.2,16.7-18.5,36.5l-0.1,0.1l-0.1,0.1c-0.4,0.6-0.8,1.3-1.2,1.9c-2.2,3.6-3.9,7.1-5,10.5
				c-1.7,5.5-1.8,10.9-0.3,16c0.6,2.2,1.5,4.2,2.7,6.1c2.8,4.9,6.8,8.6,10.5,11.2c4.3,3.2,8,4.8,8.3,5l0.5,0.2h-20.5l-0.6-0.3h-0.1
				l-0.3-0.1c-1.3-0.5-29.6-12.6-39.6-38.2c-0.6-1.4-1.1-2.9-1.5-4.5c-4-13.4-2.1-27.7,5.5-42.6c0.1-0.2,0.2-0.4,0.4-0.6
				c1.8-3.7,4.1-7.3,6.6-11l0.1-0.2l0.1-0.2c0.1-0.1,0.2-0.2,0.2-0.3c14.9-18.2,22.9-29.3,27.5-38.6c1.8-3.6,3.1-7,4.1-10.4
				c1.8-6.5,2.6-13.2,3.7-22.2l0.9-8.2l6.8,4c0.7,0.4,16.7,10.1,33.7,26.3l0.5,0.5c23.2,22.3,36.6,46.2,38.9,69.1
				C2568.3,1370.8,2556.4,1396.4,2530.4,1420.2z"/>
			<path class="st3" d="M2530.4,1420.2l-1.5,1.4h-3.5l0.8-0.7c0.8-0.7,1.5-1.4,2.2-2.1c12.1-11.9,17.6-24.5,16.2-37.8
				c-1.1-10.6-6.7-21.4-16.2-31.9c-1.3-1.4-2.7-2.8-4.1-4.2c-5.1-4.8-10-8.6-13.3-11c-2.7-1.9-4.4-2.9-4.6-3.1l-3.6-2.1l-0.5,4.4
				c-0.1,0.3-0.1,0.6-0.1,0.8c-1.5,13.1-2.2,16.7-18.5,36.5l-0.1,0.1l-0.1,0.1c-0.4,0.6-0.8,1.3-1.2,1.9c-2.2,3.6-3.9,7.1-5,10.5
				c-1.7,5.5-1.8,10.9-0.3,16c0.6,2.2,1.5,4.2,2.7,6.1c2.8,4.9,6.8,8.6,10.5,11.2c4.3,3.2,8,4.8,8.3,5l0.5,0.2h-20.5l-0.6-0.3h-0.1
				l-0.3-0.1c-1.3-0.5-29.6-12.6-39.6-38.2c-0.6-1.4-1.1-2.9-1.5-4.5c-4-13.4-2.1-27.7,5.5-42.6c0.1-0.2,0.2-0.4,0.4-0.6
				c1.8-3.7,4.1-7.3,6.6-11l0.1-0.2l0.1-0.2c0.1-0.1,0.2-0.2,0.2-0.3c14.9-18.2,22.9-29.3,27.5-38.6c1.8-3.6,3.1-7,4.1-10.4
				c1.8-6.5,2.6-13.2,3.7-22.2l0.9-8.2l6.8,4c0.7,0.4,16.7,10.1,33.7,26.3l0.5,0.5c23.2,22.3,36.6,46.2,38.9,69.1
				C2568.3,1370.8,2556.4,1396.4,2530.4,1420.2z"/>
		</g>
	</g>
	<g id="Dashed_00000086690097577677221790000001873803941740426672_">
		<g>
			<line class="st10" x1="-2291.7" y1="949.9" x2="-537.6" y2="949.9"/>
		</g>
	</g>
	<g id="Dashed_Right_00000053506281648934198240000007029734694210164152_">
		<g>
			<g>
				<line class="st11" x1="866.6" y1="2697.1" x2="866.6" y2="1489.9"/>
				<g>
					<polygon class="st12" points="875.3,1495.8 866.6,1463.3 857.9,1495.8 					"/>
				</g>
			</g>
		</g>
	</g>
	<g id="Dashed_Right_00000032618336719224784300000007216167922543757703_">
		<g>
			<g>
				<line class="st11" x1="868.3" y1="1685.4" x2="650" y2="1685.4"/>
				<g>
					<polygon class="st12" points="656,1676.7 623.4,1685.4 656,1694.1 					"/>
				</g>
			</g>
		</g>
	</g>
	<g id="Dashed_Right_00000111882892673084666810000005114395433634134709_">
		<g>
			<g>
				<line class="st11" x1="865.8" y1="2180.6" x2="647.5" y2="2180.6"/>
				<g>
					<polygon class="st12" points="653.5,2171.9 620.9,2180.6 653.5,2189.3 					"/>
				</g>
			</g>
		</g>
	</g>
	<g id="Dashed_Right_00000171692366958573273860000007664403709002534319_">
		<g>
			<g>
				<line class="st11" x1="862.8" y1="2694.3" x2="644.5" y2="2694.3"/>
				<g>
					<polygon class="st12" points="650.4,2685.5 617.9,2694.3 650.4,2703 					"/>
				</g>
			</g>
		</g>
	</g>
	<g>
		<g id="Dashed_Right_00000072272850282437160070000003009343183847477903_">
			<g>
				<g>
					<line class="st11" x1="2608" y1="2699.7" x2="2608" y2="1495.3"/>
					<g>
						<polygon class="st12" points="2616.7,1501.3 2608,1468.7 2599.2,1501.3 						"/>
					</g>
				</g>
			</g>
		</g>
		<g id="Dashed_Right_00000049182176161040575490000002414235603770770341_">
			<g>
				<g>
					<line class="st11" x1="2600.2" y1="1690.5" x2="2382" y2="1690.5"/>
					<g>
						<polygon class="st12" points="2387.9,1681.8 2355.4,1690.5 2387.9,1699.2 						"/>
					</g>
				</g>
			</g>
		</g>
		<g id="Dashed_Right_00000115474655079226837250000009876478945546619303_">
			<g>
				<g>
					<line class="st11" x1="2600.2" y1="2186" x2="2382" y2="2186"/>
					<g>
						<polygon class="st12" points="2387.9,2177.3 2355.4,2186 2387.9,2194.7 						"/>
					</g>
				</g>
			</g>
		</g>
		<g id="Dashed_Right_00000129190078648330468680000000607298910844947373_">
			<g>
				<g>
					<line class="st11" x1="2600.2" y1="2699.7" x2="2382" y2="2699.7"/>
					<g>
						<polygon class="st12" points="2387.9,2691 2355.4,2699.7 2387.9,2708.4 						"/>
					</g>
				</g>
			</g>
		</g>
		<g id="Dashed_Right_00000145046809216367571910000001066906601780019613_">
			<g>
				<g>
					<line class="st11" x1="2614.7" y1="1690.5" x2="2833" y2="1690.5"/>
					<g>
						<polygon class="st12" points="2827,1699.2 2859.6,1690.5 2827,1681.8 						"/>
					</g>
				</g>
			</g>
		</g>
		<g id="Dashed_Right_00000109009421860198725940000011050379953325020582_">
			<g>
				<g>
					<line class="st11" x1="2614.7" y1="2186" x2="2833" y2="2186"/>
					<g>
						<polygon class="st12" points="2827,2194.7 2859.6,2186 2827,2177.3 						"/>
					</g>
				</g>
			</g>
		</g>
		<g id="Dashed_Right_00000129185402605493775360000013915269672694664330_">
			<g>
				<g>
					<line class="st11" x1="2614.7" y1="2699.6" x2="2833" y2="2699.6"/>
					<g>
						<polygon class="st12" points="2827,2708.3 2859.6,2699.6 2827,2690.8 						"/>
					</g>
				</g>
			</g>
		</g>
	</g>
	<g>
		<g id="Solid_00000004538029189232594940000002350850781305115016_">
			<g>
				<line class="st13" x1="302.2" y1="3259.7" x2="1548.3" y2="3259.7"/>
			</g>
		</g>
		<g id="Solid_00000016761782072292561110000010719603669622157209_">
			<g>
				<line class="st13" x1="305.2" y1="3260.5" x2="305.2" y2="3088.4"/>
			</g>
		</g>
		<g id="Solid_00000068652058370420134380000015328203648245678991_">
			<g>
				<line class="st13" x1="1545.8" y1="3260.5" x2="1545.8" y2="3088.4"/>
			</g>
		</g>
	</g>
	<g>
		<g id="Solid_00000168076208448059257490000006557682343474596994_">
			<g>
				<line class="st14" x1="1992.1" y1="3258.9" x2="3238.2" y2="3258.9"/>
			</g>
		</g>
		<g id="Solid_00000142164617321582294830000008064026360620199329_">
			<g>
				<line class="st14" x1="1995.1" y1="3259.7" x2="1995.1" y2="3087.6"/>
			</g>
		</g>
		<g id="Solid_00000121998169209353737910000015592062657624447616_">
			<g>
				<line class="st14" x1="3235.7" y1="3259.7" x2="3235.7" y2="3087.6"/>
			</g>
		</g>
	</g>
</g>
<g id="text">
	<g>
		<rect x="1475.5" y="116.7" class="st9" width="497.8" height="317.2"/>
		<path class="st6" d="M1621.5,255.5h5.8V298h-5.8V255.5z"/>
		<path class="st6" d="M1636.8,269.5h5.4v4.4h0.1c0.7-1.5,1.9-2.7,3.5-3.7c1.7-0.9,3.6-1.4,5.8-1.4c1.4,0,2.7,0.2,3.9,0.6
			c1.3,0.4,2.4,1.1,3.3,1.9c0.9,0.9,1.7,2,2.2,3.4c0.6,1.4,0.8,3,0.8,4.9V298h-5.4v-16.8c0-1.3-0.2-2.4-0.5-3.4
			c-0.4-0.9-0.8-1.7-1.4-2.3c-0.6-0.6-1.3-1-2.1-1.3c-0.8-0.3-1.6-0.4-2.4-0.4c-1.1,0-2.2,0.2-3.1,0.5c-1,0.4-1.8,0.9-2.5,1.7
			c-0.7,0.8-1.3,1.8-1.7,3c-0.4,1.2-0.6,2.6-0.6,4.3V298h-5.4V269.5z"/>
		<path class="st6" d="M1685.4,274.2h-7.7v12.9c0,0.8,0,1.6,0.1,2.4c0,0.8,0.2,1.5,0.4,2.1c0.3,0.6,0.7,1.1,1.2,1.5
			c0.5,0.4,1.3,0.6,2.4,0.6c0.6,0,1.3-0.1,2-0.2c0.7-0.1,1.3-0.3,1.9-0.7v4.9c-0.6,0.4-1.5,0.6-2.5,0.8c-1,0.1-1.8,0.2-2.4,0.2
			c-2.1,0-3.7-0.3-4.8-0.9c-1.1-0.6-2-1.3-2.5-2.2c-0.5-0.9-0.9-2-1-3.1c-0.1-1.1-0.1-2.3-0.1-3.4v-14.8h-6.2v-4.7h6.2v-8h5.4v8h7.7
			V274.2z"/>
		<path class="st6" d="M1696.4,285.7c0,1.2,0.3,2.4,0.8,3.4s1.2,1.9,2.1,2.6c0.9,0.7,1.9,1.3,3.1,1.7c1.2,0.4,2.4,0.6,3.6,0.6
			c1.7,0,3.1-0.4,4.4-1.2c1.2-0.8,2.4-1.8,3.4-3.1l4.1,3.1c-3,3.9-7.2,5.8-12.6,5.8c-2.2,0-4.3-0.4-6.1-1.1
			c-1.8-0.8-3.4-1.8-4.6-3.1c-1.3-1.3-2.2-2.9-2.9-4.7c-0.7-1.8-1-3.8-1-5.9c0-2.1,0.4-4.1,1.1-5.9c0.7-1.8,1.8-3.4,3.1-4.7
			c1.3-1.3,2.9-2.4,4.7-3.1c1.8-0.8,3.8-1.1,5.9-1.1c2.5,0,4.7,0.4,6.4,1.3c1.7,0.9,3.2,2,4.3,3.4c1.1,1.4,1.9,3,2.4,4.8
			c0.5,1.8,0.8,3.6,0.8,5.4v1.9H1696.4z M1713.5,281.4c0-1.2-0.2-2.3-0.6-3.3c-0.3-1-0.9-1.9-1.5-2.6c-0.7-0.7-1.5-1.3-2.5-1.7
			c-1-0.4-2.2-0.6-3.6-0.6c-1.3,0-2.5,0.2-3.6,0.8c-1.1,0.5-2,1.2-2.8,1.9c-0.8,0.8-1.3,1.7-1.8,2.7c-0.4,1-0.6,2-0.6,2.9H1713.5z"
			/>
		<path class="st6" d="M1725.7,269.5h5.4v4.4h0.1c0.4-0.8,0.8-1.4,1.4-2.1c0.6-0.6,1.3-1.1,2-1.6c0.7-0.4,1.5-0.8,2.4-1
			c0.9-0.3,1.8-0.4,2.6-0.4s1.7,0.1,2.4,0.4l-0.2,5.8c-0.4-0.1-0.9-0.2-1.3-0.3c-0.4-0.1-0.9-0.1-1.3-0.1c-2.6,0-4.7,0.7-6.1,2.2
			c-1.4,1.5-2.1,3.8-2.1,6.9V298h-5.4V269.5z"/>
		<path class="st6" d="M1747.9,269.5h5.4v4.4h0.1c0.7-1.5,1.9-2.7,3.5-3.7c1.7-0.9,3.6-1.4,5.8-1.4c1.4,0,2.7,0.2,3.9,0.6
			c1.3,0.4,2.4,1.1,3.3,1.9c0.9,0.9,1.7,2,2.2,3.4c0.6,1.4,0.8,3,0.8,4.9V298h-5.4v-16.8c0-1.3-0.2-2.4-0.5-3.4
			c-0.4-0.9-0.8-1.7-1.4-2.3c-0.6-0.6-1.3-1-2.1-1.3c-0.8-0.3-1.6-0.4-2.4-0.4c-1.1,0-2.2,0.2-3.1,0.5c-1,0.4-1.8,0.9-2.5,1.7
			c-0.7,0.8-1.3,1.8-1.7,3c-0.4,1.2-0.6,2.6-0.6,4.3V298h-5.4V269.5z"/>
		<path class="st6" d="M1785.4,285.7c0,1.2,0.3,2.4,0.8,3.4c0.5,1,1.2,1.9,2.1,2.6c0.9,0.7,1.9,1.3,3.1,1.7c1.2,0.4,2.4,0.6,3.6,0.6
			c1.7,0,3.1-0.4,4.4-1.2c1.2-0.8,2.4-1.8,3.4-3.1l4.1,3.1c-3,3.9-7.2,5.8-12.6,5.8c-2.2,0-4.3-0.4-6.1-1.1
			c-1.8-0.8-3.4-1.8-4.6-3.1c-1.3-1.3-2.2-2.9-2.9-4.7c-0.7-1.8-1-3.8-1-5.9c0-2.1,0.4-4.1,1.1-5.9c0.7-1.8,1.8-3.4,3.1-4.7
			c1.3-1.3,2.8-2.4,4.7-3.1c1.8-0.8,3.8-1.1,5.9-1.1c2.5,0,4.6,0.4,6.4,1.3c1.7,0.9,3.2,2,4.3,3.4c1.1,1.4,1.9,3,2.4,4.8
			c0.5,1.8,0.8,3.6,0.8,5.4v1.9H1785.4z M1802.4,281.4c0-1.2-0.2-2.3-0.6-3.3c-0.3-1-0.8-1.9-1.5-2.6c-0.7-0.7-1.5-1.3-2.6-1.7
			c-1-0.4-2.2-0.6-3.6-0.6c-1.3,0-2.5,0.2-3.6,0.8c-1.1,0.5-2,1.2-2.8,1.9c-0.8,0.8-1.4,1.7-1.8,2.7c-0.4,1-0.6,2-0.6,2.9H1802.4z"
			/>
		<path class="st6" d="M1829.9,274.2h-7.7v12.9c0,0.8,0,1.6,0.1,2.4c0,0.8,0.2,1.5,0.5,2.1c0.3,0.6,0.7,1.1,1.2,1.5
			c0.5,0.4,1.3,0.6,2.4,0.6c0.6,0,1.3-0.1,2-0.2c0.7-0.1,1.3-0.3,1.9-0.7v4.9c-0.6,0.4-1.5,0.6-2.5,0.8c-1,0.1-1.8,0.2-2.4,0.2
			c-2.1,0-3.7-0.3-4.8-0.9c-1.1-0.6-2-1.3-2.5-2.2c-0.5-0.9-0.9-2-1-3.1c-0.1-1.1-0.2-2.3-0.2-3.4v-14.8h-6.2v-4.7h6.2v-8h5.4v8h7.7
			V274.2z"/>
	</g>
	<g>
		<rect x="301.6" y="3194.1" class="st9" width="1247" height="346.9"/>
		<path class="st15" d="M815.8,3365.8v34.9c-1.7,1.1-3.7,2-5.9,2.8c-2.2,0.8-4.5,1.5-6.9,2c-2.4,0.6-4.8,1-7.2,1.2
			c-2.4,0.3-4.7,0.4-6.9,0.4c-6,0-11.4-1-16.1-3c-4.7-2-8.7-4.7-11.9-8.1c-3.2-3.4-5.7-7.3-7.4-11.8s-2.5-9.2-2.5-14.2
			c0-5.3,0.9-10.2,2.8-14.7c1.8-4.5,4.4-8.5,7.6-11.8c3.2-3.3,7.1-6,11.7-7.9c4.5-1.9,9.5-2.9,14.9-2.9c6.5,0,11.9,0.8,16,2.5
			c4.1,1.6,7.6,3.9,10.4,6.8l-6.8,7.3c-2.9-2.8-6-4.8-9.3-5.8c-3.3-1.1-6.7-1.7-10.3-1.7c-4.1,0-7.7,0.8-11,2.2
			c-3.3,1.5-6.1,3.5-8.4,6.1c-2.3,2.5-4.1,5.5-5.4,8.9c-1.3,3.4-1.9,7.1-1.9,11c0,4,0.7,7.7,2.1,11.1c1.4,3.4,3.3,6.4,5.8,9
			c2.5,2.5,5.4,4.5,8.7,5.9c3.3,1.4,7,2.2,10.9,2.2c3.4,0,6.6-0.3,9.6-0.9c3-0.6,5.6-1.6,7.8-2.8v-19.7h-15.7v-9H815.8z"/>
		<path class="st15" d="M837.8,3385c0,2.1,0.4,3.9,1.4,5.6c0.9,1.7,2.1,3.1,3.5,4.4c1.5,1.2,3.2,2.1,5.1,2.8c1.9,0.7,3.9,1,6,1
			c2.8,0,5.2-0.6,7.3-1.9c2.1-1.3,4-3,5.7-5.2l6.8,5.2c-5,6.5-12,9.7-21,9.7c-3.7,0-7.1-0.6-10.1-1.9c-3-1.3-5.6-3-7.7-5.2
			c-2.1-2.2-3.7-4.9-4.8-7.9c-1.1-3-1.7-6.3-1.7-9.8c0-3.5,0.6-6.8,1.9-9.8c1.2-3,2.9-5.7,5.1-7.9c2.2-2.2,4.8-4,7.8-5.2
			c3-1.3,6.3-1.9,9.8-1.9c4.2,0,7.8,0.7,10.6,2.2s5.3,3.4,7.1,5.8c1.9,2.4,3.2,5,4.1,8c0.8,3,1.2,6,1.2,9v3.2H837.8z M866.2,3377.8
			c-0.1-2-0.4-3.8-1-5.5c-0.6-1.7-1.4-3.1-2.5-4.3c-1.1-1.2-2.5-2.2-4.2-2.9c-1.7-0.7-3.7-1-6-1c-2.2,0-4.2,0.4-6,1.2
			c-1.8,0.8-3.4,1.9-4.6,3.2c-1.3,1.3-2.2,2.8-3,4.4c-0.7,1.6-1,3.2-1,4.8H866.2z"/>
		<path class="st15" d="M886.6,3358h9v7.3h0.2c1.1-2.5,3.1-4.6,5.9-6.1c2.8-1.6,6-2.4,9.7-2.4c2.3,0,4.4,0.4,6.5,1.1
			c2.1,0.7,3.9,1.8,5.5,3.2c1.6,1.5,2.8,3.3,3.8,5.7c0.9,2.3,1.4,5,1.4,8.1v30.5h-9v-28c0-2.2-0.3-4.1-0.9-5.6s-1.4-2.8-2.4-3.8
			c-1-1-2.1-1.7-3.5-2.1c-1.3-0.4-2.6-0.7-4-0.7c-1.9,0-3.6,0.3-5.2,0.9c-1.6,0.6-3,1.5-4.2,2.8c-1.2,1.3-2.1,3-2.8,5
			c-0.7,2-1,4.4-1,7.1v24.4h-9V3358z"/>
		<path class="st15" d="M949,3385c0,2.1,0.4,3.9,1.4,5.6c0.9,1.7,2.1,3.1,3.5,4.4c1.5,1.2,3.2,2.1,5.1,2.8c1.9,0.7,3.9,1,6,1
			c2.8,0,5.2-0.6,7.3-1.9c2.1-1.3,4-3,5.7-5.2l6.8,5.2c-5,6.5-12,9.7-21,9.7c-3.7,0-7.1-0.6-10.2-1.9c-3-1.3-5.6-3-7.7-5.2
			c-2.1-2.2-3.7-4.9-4.8-7.9c-1.1-3-1.7-6.3-1.7-9.8c0-3.5,0.6-6.8,1.9-9.8c1.2-3,2.9-5.7,5.1-7.9c2.2-2.2,4.8-4,7.8-5.2
			c3-1.3,6.3-1.9,9.8-1.9c4.2,0,7.8,0.7,10.7,2.2c2.9,1.5,5.3,3.4,7.1,5.8c1.9,2.4,3.2,5,4.1,8c0.8,3,1.2,6,1.2,9v3.2H949z
			 M977.4,3377.8c-0.1-2-0.4-3.8-1-5.5c-0.6-1.7-1.4-3.1-2.5-4.3c-1.1-1.2-2.5-2.2-4.2-2.9c-1.7-0.7-3.7-1-6-1c-2.2,0-4.2,0.4-6,1.2
			c-1.8,0.8-3.4,1.9-4.6,3.2c-1.3,1.3-2.2,2.8-3,4.4c-0.7,1.6-1,3.2-1,4.8H977.4z"/>
		<path class="st15" d="M997.8,3358h9v7.3h0.2c0.6-1.3,1.4-2.4,2.4-3.4c1-1,2.1-1.9,3.4-2.7c1.2-0.7,2.6-1.3,4-1.8
			c1.5-0.4,2.9-0.7,4.4-0.7c1.5,0,2.8,0.2,4,0.6l-0.4,9.7c-0.7-0.2-1.5-0.4-2.2-0.5c-0.7-0.1-1.5-0.2-2.2-0.2
			c-4.4,0-7.8,1.2-10.1,3.7c-2.3,2.5-3.5,6.3-3.5,11.5v23.8h-9V3358z"/>
		<path class="st15" d="M1035,3363.8c2.5-2.3,5.5-4.1,8.8-5.2c3.3-1.2,6.7-1.8,10-1.8c3.5,0,6.5,0.4,9,1.3c2.5,0.9,4.5,2,6.2,3.5
			c1.6,1.5,2.8,3.2,3.5,5c0.8,1.9,1.2,3.9,1.2,6v24.2c0,1.7,0,3.2,0.1,4.6c0.1,1.4,0.2,2.7,0.3,4h-8c-0.2-2.4-0.3-4.8-0.3-7.2h-0.2
			c-2,3.1-4.4,5.2-7.1,6.5c-2.7,1.3-5.9,1.9-9.5,1.9c-2.2,0-4.3-0.3-6.3-0.9s-3.8-1.5-5.2-2.7c-1.5-1.2-2.7-2.7-3.6-4.5
			c-0.9-1.8-1.3-3.8-1.3-6.1c0-3.1,0.7-5.6,2-7.7c1.4-2.1,3.2-3.8,5.6-5c2.4-1.3,5.1-2.2,8.3-2.8c3.2-0.6,6.5-0.8,10.2-0.8h6.6v-2
			c0-1.2-0.2-2.4-0.7-3.6c-0.5-1.2-1.2-2.3-2.1-3.2c-0.9-1-2.1-1.7-3.5-2.3c-1.4-0.6-3.1-0.8-5-0.8c-1.7,0-3.2,0.2-4.5,0.5
			c-1.3,0.3-2.5,0.8-3.6,1.2s-2,1.1-2.9,1.8c-0.9,0.7-1.7,1.3-2.5,1.9L1035,3363.8z M1060.4,3382.6c-2.1,0-4.3,0.1-6.5,0.3
			c-2.2,0.2-4.3,0.7-6.1,1.3c-1.8,0.7-3.3,1.6-4.5,2.8c-1.2,1.2-1.8,2.7-1.8,4.6c0,2.7,0.9,4.7,2.8,5.9c1.8,1.2,4.3,1.8,7.5,1.8
			c2.5,0,4.6-0.4,6.3-1.2c1.7-0.8,3.1-1.9,4.2-3.2c1.1-1.3,1.8-2.8,2.3-4.5c0.5-1.6,0.7-3.2,0.7-4.8v-3H1060.4z"/>
		<path class="st15" d="M1087.4,3329.8h9v75.6h-9V3329.8z"/>
	</g>
	<g>
		<rect x="1996.5" y="3188.1" class="st9" width="1237.3" height="346.9"/>
		<path class="st15" d="M2220.5,3328.6h9.6v70.8h-9.6V3328.6z"/>
		<path class="st15" d="M2246,3352h9v7.3h0.2c1.1-2.5,3.1-4.6,5.9-6.2c2.8-1.6,6-2.3,9.7-2.3c2.3,0,4.4,0.3,6.5,1.1
			c2.1,0.7,3.9,1.8,5.5,3.2c1.6,1.5,2.8,3.3,3.8,5.6c0.9,2.3,1.4,5,1.4,8.1v30.5h-9v-28c0-2.2-0.3-4.1-0.9-5.6
			c-0.6-1.6-1.4-2.8-2.4-3.8c-1-1-2.1-1.7-3.5-2.1c-1.3-0.4-2.6-0.7-4-0.7c-1.9,0-3.6,0.3-5.2,0.9c-1.6,0.6-3,1.5-4.2,2.8
			c-1.2,1.3-2.1,2.9-2.8,4.9c-0.7,2-1,4.4-1,7.1v24.4h-9V3352z"/>
		<path class="st15" d="M2327,3359.8h-12.9v21.5c0,1.3,0,2.7,0.1,4s0.3,2.5,0.8,3.5c0.4,1,1.1,1.9,2,2.5c0.9,0.6,2.2,1,4,1
			c1.1,0,2.2-0.1,3.3-0.3c1.1-0.2,2.2-0.6,3.1-1.1v8.2c-1.1,0.6-2.5,1-4.2,1.2c-1.7,0.2-3,0.4-4,0.4c-3.5,0-6.1-0.5-8-1.5
			c-1.9-1-3.3-2.2-4.2-3.8c-0.9-1.5-1.4-3.2-1.6-5.1c-0.2-1.9-0.2-3.8-0.2-5.8v-24.7h-10.4v-7.8h10.4v-13.3h9v13.3h12.9V3359.8z"/>
		<path class="st15" d="M2345.4,3379c0,2.1,0.4,4,1.3,5.6c0.9,1.7,2.1,3.2,3.5,4.4c1.5,1.2,3.2,2.1,5.1,2.8c1.9,0.7,3.9,1,6,1
			c2.8,0,5.2-0.7,7.3-1.9c2.1-1.3,4-3,5.7-5.2l6.8,5.2c-5,6.5-12,9.7-21,9.7c-3.7,0-7.1-0.6-10.2-1.9c-3-1.3-5.6-3-7.7-5.2
			c-2.1-2.2-3.7-4.9-4.8-7.9c-1.1-3-1.7-6.3-1.7-9.8c0-3.5,0.6-6.8,1.9-9.8c1.2-3,2.9-5.7,5.1-7.9c2.2-2.2,4.8-4,7.8-5.2
			c3-1.3,6.3-1.9,9.8-1.9c4.2,0,7.8,0.7,10.7,2.2c2.9,1.5,5.3,3.4,7.1,5.8c1.9,2.4,3.2,5,4.1,8c0.8,3,1.2,6,1.2,9v3.2H2345.4z
			 M2373.8,3371.8c-0.1-2-0.4-3.8-1-5.5c-0.6-1.7-1.4-3.1-2.5-4.3c-1.1-1.2-2.5-2.2-4.2-2.9c-1.7-0.7-3.7-1-6-1
			c-2.2,0-4.2,0.4-6,1.2c-1.8,0.8-3.4,1.9-4.6,3.2c-1.3,1.3-2.2,2.8-3,4.5c-0.7,1.6-1,3.2-1,4.8H2373.8z"/>
		<path class="st15" d="M2394.2,3352h9v7.3h0.2c0.6-1.3,1.4-2.4,2.4-3.4s2.1-1.9,3.4-2.7c1.2-0.7,2.6-1.3,4-1.8
			c1.5-0.4,2.9-0.7,4.4-0.7c1.5,0,2.8,0.2,4,0.6l-0.4,9.7c-0.7-0.2-1.5-0.4-2.2-0.5c-0.7-0.1-1.5-0.2-2.2-0.2
			c-4.4,0-7.8,1.2-10.1,3.7c-2.3,2.5-3.5,6.3-3.5,11.5v23.8h-9V3352z"/>
		<path class="st15" d="M2431.1,3352h9v7.3h0.2c1.1-2.5,3.1-4.6,5.9-6.2c2.8-1.6,6-2.3,9.7-2.3c2.3,0,4.4,0.3,6.5,1.1
			c2.1,0.7,3.9,1.8,5.5,3.2c1.6,1.5,2.8,3.3,3.8,5.6c0.9,2.3,1.4,5,1.4,8.1v30.5h-9v-28c0-2.2-0.3-4.1-0.9-5.6
			c-0.6-1.6-1.4-2.8-2.4-3.8c-1-1-2.1-1.7-3.5-2.1c-1.3-0.4-2.6-0.7-4-0.7c-1.9,0-3.6,0.3-5.2,0.9c-1.6,0.6-3,1.5-4.2,2.8
			c-1.2,1.3-2.1,2.9-2.8,4.9c-0.7,2-1,4.4-1,7.1v24.4h-9V3352z"/>
		<path class="st15" d="M2493.5,3379c0,2.1,0.5,4,1.4,5.6c0.9,1.7,2.1,3.2,3.5,4.4c1.5,1.2,3.2,2.1,5.1,2.8c1.9,0.7,3.9,1,6,1
			c2.8,0,5.2-0.7,7.3-1.9c2.1-1.3,4-3,5.7-5.2l6.8,5.2c-5,6.5-12,9.7-21,9.7c-3.7,0-7.1-0.6-10.1-1.9c-3-1.3-5.6-3-7.7-5.2
			c-2.1-2.2-3.7-4.9-4.8-7.9c-1.1-3-1.7-6.3-1.7-9.8c0-3.5,0.6-6.8,1.8-9.8c1.2-3,2.9-5.7,5.1-7.9c2.2-2.2,4.8-4,7.8-5.2
			c3-1.3,6.3-1.9,9.8-1.9c4.2,0,7.8,0.7,10.6,2.2c2.9,1.5,5.3,3.4,7.2,5.8c1.9,2.4,3.2,5,4,8c0.8,3,1.2,6,1.2,9v3.2H2493.5z
			 M2522,3371.8c-0.1-2-0.4-3.8-1-5.5c-0.6-1.7-1.4-3.1-2.5-4.3c-1.1-1.2-2.5-2.2-4.2-2.9c-1.7-0.7-3.7-1-6-1c-2.2,0-4.2,0.4-6,1.2
			c-1.8,0.8-3.4,1.9-4.7,3.2c-1.3,1.3-2.2,2.8-3,4.5c-0.7,1.6-1,3.2-1,4.8H2522z"/>
		<path class="st15" d="M2567.8,3359.8h-12.9v21.5c0,1.3,0,2.7,0.1,4c0.1,1.3,0.3,2.5,0.8,3.5c0.4,1,1.1,1.9,2,2.5
			c0.9,0.6,2.2,1,4,1c1.1,0,2.2-0.1,3.3-0.3c1.1-0.2,2.2-0.6,3.1-1.1v8.2c-1.1,0.6-2.5,1-4.1,1.2c-1.7,0.2-3,0.4-4,0.4
			c-3.5,0-6.2-0.5-8-1.5c-1.9-1-3.3-2.2-4.2-3.8c-0.9-1.5-1.4-3.2-1.6-5.1c-0.2-1.9-0.2-3.8-0.2-5.8v-24.7h-10.4v-7.8h10.4v-13.3h9
			v13.3h12.9V3359.8z"/>
		<path class="st15" d="M2604.8,3375.7c0-3.5,0.6-6.7,2-9.7c1.3-3,3.1-5.6,5.3-7.9c2.3-2.3,4.9-4.1,8-5.4c3.1-1.3,6.4-2,9.9-2
			c3.5,0,6.8,0.7,9.9,2c3.1,1.3,5.7,3.1,8,5.4c2.3,2.3,4,4.9,5.4,7.9c1.3,3,1.9,6.2,1.9,9.7c0,3.5-0.6,6.7-1.9,9.8
			c-1.3,3-3.1,5.7-5.4,7.9c-2.3,2.2-4.9,4-8,5.3c-3.1,1.3-6.4,2-9.9,2c-3.5,0-6.8-0.7-9.9-2c-3.1-1.3-5.7-3.1-8-5.3
			c-2.3-2.2-4-4.9-5.3-7.9C2605.5,3382.4,2604.8,3379.1,2604.8,3375.7z M2614.4,3375.7c0,2.4,0.4,4.6,1.1,6.7c0.7,2,1.8,3.8,3.1,5.2
			c1.3,1.4,3,2.6,4.9,3.4c1.9,0.8,4.1,1.2,6.5,1.2c2.4,0,4.6-0.4,6.5-1.2c1.9-0.8,3.6-2,4.9-3.4c1.3-1.4,2.4-3.2,3.1-5.2
			c0.7-2,1.1-4.2,1.1-6.7s-0.4-4.6-1.1-6.7c-0.7-2-1.8-3.8-3.1-5.2c-1.3-1.4-3-2.6-4.9-3.4c-1.9-0.8-4.1-1.2-6.5-1.2
			c-2.4,0-4.6,0.4-6.5,1.2c-1.9,0.8-3.6,2-4.9,3.4c-1.3,1.4-2.4,3.2-3.1,5.2C2614.8,3371.1,2614.4,3373.3,2614.4,3375.7z"/>
		<path class="st15" d="M2670,3359.8h-10.2v-7.8h10.2v-10.6c0-6.3,1.2-11,3.7-14.1c2.4-3.1,6.6-4.6,12.5-4.6c1,0,2,0,3.1,0.1
			c1.1,0.1,2.3,0.3,3.6,0.6l-1,8c-0.9-0.3-1.7-0.6-2.5-0.7c-0.8-0.1-1.7-0.2-2.6-0.2c-1.7,0-3,0.2-4,0.8s-1.8,1.2-2.3,2.2
			c-0.6,0.9-0.9,2.1-1.1,3.3c-0.2,1.3-0.2,2.8-0.2,4.5v10.9h10.7v7.8H2679v39.6h-9V3359.8z"/>
		<path class="st15" d="M2744.7,3337.6h-22.8v-9h55.2v9h-22.8v61.8h-9.6V3337.6z"/>
		<path class="st15" d="M2785,3323.8h9v35.5h0.2c1.1-2.5,3.1-4.6,5.9-6.2c2.8-1.6,6-2.3,9.7-2.3c2.3,0,4.5,0.3,6.5,1.1
			c2.1,0.7,3.9,1.8,5.5,3.2s2.8,3.3,3.8,5.6s1.4,5,1.4,8.1v30.5h-9v-28c0-2.2-0.3-4.1-0.9-5.6c-0.6-1.6-1.4-2.8-2.4-3.8
			c-1-1-2.2-1.7-3.5-2.1s-2.7-0.7-4-0.7c-1.9,0-3.6,0.3-5.2,0.9c-1.6,0.6-3,1.5-4.2,2.8c-1.2,1.3-2.1,2.9-2.8,4.9
			c-0.7,2-1,4.4-1,7.1v24.4h-9V3323.8z"/>
		<path class="st15" d="M2839.2,3335c0-1.8,0.6-3.4,2-4.6c1.3-1.3,2.8-2,4.6-2s3.4,0.7,4.7,2c1.3,1.3,2,2.8,2,4.6s-0.7,3.4-2,4.6
			c-1.3,1.3-2.9,2-4.7,2s-3.3-0.7-4.6-2C2839.9,3338.3,2839.2,3336.8,2839.2,3335z M2841.3,3352h9v47.4h-9V3352z"/>
		<path class="st15" d="M2864.6,3352h9v7.3h0.2c1.1-2.5,3.1-4.6,5.9-6.2c2.8-1.6,6-2.3,9.7-2.3c2.3,0,4.5,0.3,6.6,1.1
			c2.1,0.7,3.9,1.8,5.5,3.2s2.8,3.3,3.8,5.6s1.4,5,1.4,8.1v30.5h-9v-28c0-2.2-0.3-4.1-0.9-5.6c-0.6-1.6-1.4-2.8-2.4-3.8
			c-1-1-2.2-1.7-3.4-2.1c-1.3-0.4-2.7-0.7-4.1-0.7c-1.9,0-3.6,0.3-5.2,0.9c-1.6,0.6-3,1.5-4.2,2.8c-1.2,1.3-2.1,2.9-2.8,4.9
			c-0.7,2-1,4.4-1,7.1v24.4h-9V3352z"/>
		<path class="st15" d="M2967.7,3399c0,3.6-0.6,6.9-1.8,9.9c-1.2,3-3,5.5-5.2,7.7c-2.3,2.2-5,3.8-8.2,5.1c-3.2,1.2-6.7,1.8-10.6,1.8
			c-4.5,0-8.7-0.6-12.5-1.9c-3.8-1.3-7.4-3.5-10.8-6.6l6.1-7.6c2.3,2.5,4.9,4.5,7.6,5.8c2.7,1.3,5.8,2,9.3,2c3.3,0,6.1-0.5,8.3-1.5
			c2.2-1,4-2.2,5.2-3.8c1.3-1.5,2.2-3.3,2.8-5.2c0.5-2,0.8-3.9,0.8-5.9v-7h-0.3c-1.7,2.9-4.1,5-7,6.3c-3,1.4-6.1,2-9.4,2
			c-3.5,0-6.7-0.6-9.6-1.9c-3-1.2-5.5-2.9-7.7-5.1c-2.1-2.2-3.8-4.7-5-7.7s-1.8-6.2-1.8-9.7c0-3.5,0.6-6.7,1.7-9.8
			c1.1-3,2.8-5.7,4.8-8c2.1-2.3,4.6-4,7.6-5.3c3-1.3,6.3-1.9,9.9-1.9c3.2,0,6.3,0.7,9.4,2.1c3,1.4,5.4,3.4,7.1,5.9h0.2v-6.8h9V3399z
			 M2943.1,3359.2c-2.4,0-4.6,0.4-6.5,1.2c-1.9,0.8-3.6,2-4.9,3.4c-1.3,1.4-2.4,3.2-3.1,5.2c-0.7,2-1.1,4.2-1.1,6.7
			c0,4.8,1.4,8.7,4.2,11.5s6.6,4.4,11.4,4.4s8.6-1.5,11.4-4.4c2.8-2.9,4.2-6.8,4.2-11.5c0-2.4-0.4-4.6-1.1-6.7
			c-0.7-2-1.8-3.8-3.1-5.2c-1.3-1.4-3-2.6-4.9-3.4C2947.7,3359.6,2945.5,3359.2,2943.1,3359.2z"/>
		<path class="st15" d="M3006.5,3363.9c-1.1-1.3-2.4-2.4-4-3.3c-1.6-0.9-3.5-1.3-5.8-1.3c-2.1,0-4,0.4-5.5,1.3
			c-1.6,0.9-2.3,2.2-2.3,4c0,1.4,0.4,2.5,1.3,3.4c0.9,0.9,2,1.6,3.2,2.1c1.2,0.5,2.5,0.9,4,1.2c1.4,0.3,2.6,0.5,3.6,0.7
			c1.9,0.5,3.8,1,5.5,1.7s3.2,1.5,4.4,2.6c1.2,1.1,2.2,2.4,2.9,3.9s1,3.4,1,5.6c0,2.7-0.6,4.9-1.7,6.8c-1.1,1.9-2.6,3.5-4.4,4.7
			c-1.8,1.2-3.9,2.1-6.2,2.6s-4.6,0.8-7,0.8c-3.9,0-7.4-0.6-10.3-1.8c-3-1.2-5.6-3.4-8-6.6l6.8-5.6c1.5,1.5,3.1,2.8,4.9,3.9
			c1.8,1.1,4,1.7,6.6,1.7c1.1,0,2.3-0.1,3.5-0.3c1.2-0.2,2.2-0.6,3.1-1.1c0.9-0.5,1.6-1.1,2.2-1.9c0.6-0.8,0.9-1.7,0.9-2.7
			c0-1.3-0.4-2.4-1.2-3.3c-0.8-0.9-1.8-1.5-3-2c-1.2-0.5-2.4-0.9-3.7-1.2c-1.3-0.3-2.5-0.5-3.5-0.8c-1.9-0.5-3.8-1-5.5-1.6
			c-1.7-0.6-3.3-1.4-4.6-2.4c-1.3-1-2.4-2.3-3.2-3.8s-1.2-3.4-1.2-5.7c0-2.5,0.5-4.6,1.5-6.4c1-1.8,2.4-3.3,4.1-4.6
			c1.7-1.2,3.6-2.1,5.8-2.7c2.2-0.6,4.3-0.9,6.5-0.9c3.2,0,6.3,0.6,9.2,1.8c2.9,1.2,5.3,3.2,7,6L3006.5,3363.9z"/>
	</g>
	<g>
	</g>
	<g>
	</g>
	<g>
	</g>
	<g>
	</g>
	<g>
	</g>
	<g>
	</g>
	<g>
	</g>
</g>
</svg>
