<svg xmlns="http://www.w3.org/2000/svg" xmlns:xlink="http://www.w3.org/1999/xlink" width="969.9" height="791.71" viewBox="0 0 969.9 791.71">
  <defs>
    <style>
      .cls-1 {
        fill: none;
      }

      .cls-2 {
        fill: #007fb5;
      }

      .cls-3 {
        fill: #fff;
      }

      .cls-4 {
        clip-path: url(#clip-path);
      }

      .cls-5 {
        clip-path: url(#clip-path-2);
      }
    </style>
    <clipPath id="clip-path" transform="translate(-15.68 -57.9)">
      <rect class="cls-1" x="802.04" y="629.98" width="61.2" height="61.2"/>
    </clipPath>
    <clipPath id="clip-path-2" transform="translate(-15.68 -57.9)">
      <rect class="cls-1" x="802.04" y="629.98" width="61.2" height="61.2"/>
    </clipPath>
  </defs>
  <g id="font">
    <g>
      <path class="cls-2" d="M380,401.59a15.14,15.14,0,0,0-4.93-3.44,18,18,0,0,0-13.63.17,16,16,0,0,0-5.24,3.84,16.78,16.78,0,0,0-3.29,5.58,19.92,19.92,0,0,0,0,13.34,16.93,16.93,0,0,0,3.29,5.59,15.83,15.83,0,0,0,5.24,3.83,16.36,16.36,0,0,0,7,1.44,23.1,23.1,0,0,0,6-.78,21.18,21.18,0,0,0,5.18-2.09V415.5H370v-3.78h13.81v19.87a29.76,29.76,0,0,1-7.54,3.07,31.46,31.46,0,0,1-7.81,1.06,21.66,21.66,0,0,1-8.39-1.61A20.17,20.17,0,0,1,348.93,423a23.56,23.56,0,0,1,0-17.07,20.14,20.14,0,0,1,11.14-11.17,21.84,21.84,0,0,1,8.39-1.6,23.47,23.47,0,0,1,8.39,1.35,17.64,17.64,0,0,1,6.27,4.09Z" transform="translate(-15.68 -57.9)"/>
      <path class="cls-2" d="M420.34,421.28a14.57,14.57,0,0,1-1.06,5.62,13.61,13.61,0,0,1-2.95,4.46,13.38,13.38,0,0,1-4.49,2.95,15.11,15.11,0,0,1-5.76,1.06,14.94,14.94,0,0,1-5.7-1.06,13.38,13.38,0,0,1-4.49-2.95,13.61,13.61,0,0,1-2.95-4.46,15.4,15.4,0,0,1,0-11.23,13.61,13.61,0,0,1,2.95-4.46,13.38,13.38,0,0,1,4.49-2.95,14.94,14.94,0,0,1,5.7-1.06,15.11,15.11,0,0,1,5.76,1.06,13.38,13.38,0,0,1,4.49,2.95,13.61,13.61,0,0,1,2.95,4.46A14.56,14.56,0,0,1,420.34,421.28Zm-4.12,0a12,12,0,0,0-.72-4.18,10.05,10.05,0,0,0-2-3.37,9.62,9.62,0,0,0-3.18-2.27,11.09,11.09,0,0,0-8.42,0,9.29,9.29,0,0,0-3.15,2.27,10.32,10.32,0,0,0-2,3.37,12.52,12.52,0,0,0,0,8.37,10.32,10.32,0,0,0,2,3.37,9.29,9.29,0,0,0,3.15,2.27,11.09,11.09,0,0,0,8.42,0,9.62,9.62,0,0,0,3.18-2.27,10.05,10.05,0,0,0,2-3.37A12,12,0,0,0,416.22,421.28Z" transform="translate(-15.68 -57.9)"/>
      <path class="cls-2" d="M439,434.68h-4.24l-10.88-26.79h4.47L437,430.45h.11l8.53-22.56h4.3Z" transform="translate(-15.68 -57.9)"/>
      <path class="cls-2" d="M457.45,422.32a11.33,11.33,0,0,0,1,3.78,9.89,9.89,0,0,0,5.15,5.09,9.23,9.23,0,0,0,3.72.75,9.5,9.5,0,0,0,5.24-1.41,10.4,10.4,0,0,0,3.35-3.23l2.92,2.4a14.39,14.39,0,0,1-5.29,4.35,14.8,14.8,0,0,1-6.22,1.32,14.18,14.18,0,0,1-5.52-1.06,12.82,12.82,0,0,1-4.38-2.95,14,14,0,0,1-2.89-4.46,14.57,14.57,0,0,1-1.06-5.62,14.93,14.93,0,0,1,1-5.61,13.54,13.54,0,0,1,2.86-4.46,13,13,0,0,1,4.3-2.95A13.23,13.23,0,0,1,467,407.2a13,13,0,0,1,5.44,1.09,12.09,12.09,0,0,1,4,2.89,12.22,12.22,0,0,1,2.49,4.24,15.51,15.51,0,0,1,.86,5.18v1.72Zm18.2-3.1a8.05,8.05,0,0,0-8.7-8.59,9.12,9.12,0,0,0-3.55.72,10.18,10.18,0,0,0-3,1.92,9.86,9.86,0,0,0-2.06,2.75,7.14,7.14,0,0,0-.77,3.2Z" transform="translate(-15.68 -57.9)"/>
      <path class="cls-2" d="M487.05,416.25c0-1.19,0-2.39-.09-3.61s-.1-2.81-.14-4.75h3.72v5h.12a8.23,8.23,0,0,1,1.14-2.09,9.13,9.13,0,0,1,1.81-1.81,9,9,0,0,1,2.46-1.29,9.75,9.75,0,0,1,3.18-.48,10.17,10.17,0,0,1,2.8.34l-.74,3.72a6.42,6.42,0,0,0-2.18-.28,7.69,7.69,0,0,0-3.72.83,8.25,8.25,0,0,0-2.58,2.12,8.84,8.84,0,0,0-1.51,2.77,9.11,9.11,0,0,0-.49,2.87v15.11h-3.78Z" transform="translate(-15.68 -57.9)"/>
      <path class="cls-2" d="M510.3,407.89c.07.72.12,1.44.14,2.14s0,1.43,0,2.15h.11a8.9,8.9,0,0,1,1.61-2,10.68,10.68,0,0,1,2.17-1.58,12.05,12.05,0,0,1,2.55-1,9.92,9.92,0,0,1,2.66-.37q5.16,0,7.62,2.72t2.46,7.76v17h-3.78V419.85a12.58,12.58,0,0,0-1.54-6.84c-1-1.58-2.94-2.38-5.73-2.38a15.48,15.48,0,0,0-1.6.23,7.16,7.16,0,0,0-2.78,1.26,9.15,9.15,0,0,0-2.6,3.09,11.85,11.85,0,0,0-1.15,5.73v13.74h-3.78v-20.9c0-.72,0-1.64-.09-2.75s-.12-2.15-.2-3.14Z" transform="translate(-15.68 -57.9)"/>
      <path class="cls-2" d="M555.71,418.25v-.69q0-6.93-6.87-6.93a11.84,11.84,0,0,0-8.19,3.15l-2.29-2.69q3.78-3.88,11.34-3.89a12.44,12.44,0,0,1,3.75.57,8.53,8.53,0,0,1,3.12,1.75,8.63,8.63,0,0,1,2.12,3,10.27,10.27,0,0,1,.8,4.23v12c0,1,0,2.11.14,3.24s.2,2,.32,2.77h-3.67c-.11-.64-.2-1.35-.26-2.11s-.08-1.51-.08-2.24h-.12a10.2,10.2,0,0,1-3.92,3.87,13.09,13.09,0,0,1-9,.68,8.8,8.8,0,0,1-3-1.48,7.47,7.47,0,0,1-2.06-2.47,7.11,7.11,0,0,1-.77-3.4,7.37,7.37,0,0,1,1.68-5.13,10.46,10.46,0,0,1,4.24-2.78,20.79,20.79,0,0,1,5.44-1.14c1.93-.15,3.69-.23,5.3-.23Zm-2,3.09c-1,0-2.15.05-3.58.15a20.49,20.49,0,0,0-4.12.68,9.26,9.26,0,0,0-3.38,1.69,3.88,3.88,0,0,0-1.4,3.15,4.32,4.32,0,0,0,2,3.81,6.18,6.18,0,0,0,2,.86,10,10,0,0,0,2.26.26,8.63,8.63,0,0,0,3.58-.69,7.31,7.31,0,0,0,4.06-4.61,11.13,11.13,0,0,0,.49-3.35v-2Z" transform="translate(-15.68 -57.9)"/>
      <path class="cls-2" d="M571.86,407.89c.07.72.12,1.44.14,2.14s0,1.43,0,2.15h.11a8.9,8.9,0,0,1,1.61-2,10.41,10.41,0,0,1,2.17-1.58,11.84,11.84,0,0,1,2.55-1,9.86,9.86,0,0,1,2.66-.37q5.16,0,7.62,2.72t2.46,7.76v17h-3.78V419.85a12.58,12.58,0,0,0-1.54-6.84c-1-1.58-2.94-2.38-5.73-2.38a15.1,15.1,0,0,0-1.6.23,7.16,7.16,0,0,0-2.78,1.26,9.28,9.28,0,0,0-2.61,3.09,12,12,0,0,0-1.14,5.73v13.74h-3.78v-20.9c0-.72,0-1.64-.09-2.75s-.12-2.15-.2-3.14Z" transform="translate(-15.68 -57.9)"/>
      <path class="cls-2" d="M619.61,414.18a8.09,8.09,0,0,0-2.72-2.52,7.74,7.74,0,0,0-4-1,9.93,9.93,0,0,0-4.2.75,9.05,9.05,0,0,0-3.18,2.23,9.69,9.69,0,0,0-2,3.41,13.72,13.72,0,0,0,0,8.53,9.69,9.69,0,0,0,2,3.41,9.05,9.05,0,0,0,3.18,2.23,9.93,9.93,0,0,0,4.2.75,7.74,7.74,0,0,0,4-1,8.09,8.09,0,0,0,2.72-2.52l3.1,2.34a12.8,12.8,0,0,1-4.53,3.47,13.66,13.66,0,0,1-5.27,1.17,14.83,14.83,0,0,1-5.89-1,13.09,13.09,0,0,1-4.5-2.95,12.52,12.52,0,0,1-2.83-4.49,16.75,16.75,0,0,1,0-11.29,12.52,12.52,0,0,1,2.83-4.49,13.09,13.09,0,0,1,4.5-2.95,14.83,14.83,0,0,1,5.89-1,13.66,13.66,0,0,1,5.27,1.17,12.8,12.8,0,0,1,4.53,3.47Z" transform="translate(-15.68 -57.9)"/>
      <path class="cls-2" d="M630.32,422.32a11.83,11.83,0,0,0,1,3.78,10.27,10.27,0,0,0,2.12,3.06,9.82,9.82,0,0,0,3,2,9.16,9.16,0,0,0,3.72.75,9.53,9.53,0,0,0,5.24-1.41,10.4,10.4,0,0,0,3.35-3.23l2.92,2.4a14.34,14.34,0,0,1-5.3,4.35,14.76,14.76,0,0,1-6.21,1.32,14.23,14.23,0,0,1-5.53-1.06,13,13,0,0,1-4.38-2.95,14.12,14.12,0,0,1-2.89-4.46,14.76,14.76,0,0,1-1.06-5.62,15.13,15.13,0,0,1,1-5.61,13.57,13.57,0,0,1,2.87-4.46,13,13,0,0,1,4.29-2.95,13.28,13.28,0,0,1,5.33-1.06,13,13,0,0,1,5.44,1.09,12,12,0,0,1,4,2.89,12.22,12.22,0,0,1,2.49,4.24,15.26,15.26,0,0,1,.86,5.18v1.72Zm18.21-3.1a8.05,8.05,0,0,0-8.7-8.59,9.08,9.08,0,0,0-3.55.72,10.06,10.06,0,0,0-3,1.92,9.49,9.49,0,0,0-2.06,2.75,7,7,0,0,0-.77,3.2Z" transform="translate(-15.68 -57.9)"/>
    </g>
    <g>
      <path class="cls-2" d="M21.75,842.12H19.5V820h6.81a8.64,8.64,0,0,1,5.32,1.47,5.21,5.21,0,0,1,2,4.44,5.53,5.53,0,0,1-1.46,3.89,6.22,6.22,0,0,1-4.2,1.82l6.37,10.5H31.56L25.5,831.84H21.75Zm0-12.34h4a9,9,0,0,0,2.54-.31,4.66,4.66,0,0,0,1.67-.83,3,3,0,0,0,.91-1.22,4.16,4.16,0,0,0,0-3,3.16,3.16,0,0,0-.91-1.23,4.5,4.5,0,0,0-1.67-.83,9.81,9.81,0,0,0-2.54-.29h-4Z" transform="translate(-15.68 -57.9)"/>
      <path class="cls-2" d="M38.71,835.37a6.2,6.2,0,0,0,.53,2.06,5.57,5.57,0,0,0,1.15,1.68,5.65,5.65,0,0,0,1.66,1.1,4.88,4.88,0,0,0,2,.41,5.22,5.22,0,0,0,2.86-.76,5.76,5.76,0,0,0,1.83-1.77l1.59,1.31a8,8,0,0,1-2.89,2.38,8.21,8.21,0,0,1-3.39.72,7.84,7.84,0,0,1-3-.58,7,7,0,0,1-2.39-1.61,7.5,7.5,0,0,1-1.58-2.44,7.87,7.87,0,0,1-.58-3.06,8.28,8.28,0,0,1,.56-3.06,7.47,7.47,0,0,1,1.57-2.44A7.24,7.24,0,0,1,41,827.7a7.32,7.32,0,0,1,2.9-.57,7.19,7.19,0,0,1,3,.59,6.53,6.53,0,0,1,3.56,3.89,8.49,8.49,0,0,1,.47,2.83v.93Zm9.93-1.68a4.68,4.68,0,0,0-1.25-3.39,4.61,4.61,0,0,0-3.5-1.3,5,5,0,0,0-1.93.39,5.36,5.36,0,0,0-1.64,1.05,5.29,5.29,0,0,0-1.13,1.5,3.86,3.86,0,0,0-.42,1.75Z" transform="translate(-15.68 -57.9)"/>
      <path class="cls-2" d="M55.76,845.06a6.65,6.65,0,0,0,2.36,2,7.07,7.07,0,0,0,3.23.73,7,7,0,0,0,2.66-.45,4.49,4.49,0,0,0,1.76-1.23,4.74,4.74,0,0,0,1-1.83A8.06,8.06,0,0,0,67,842v-2.63H67a5.68,5.68,0,0,1-2.44,2.13,7.64,7.64,0,0,1-3,.62,7.94,7.94,0,0,1-3-.56A7.5,7.5,0,0,1,56.11,840a7.07,7.07,0,0,1-1.63-2.36,7.45,7.45,0,0,1-.59-3,7.81,7.81,0,0,1,.56-3A7.67,7.67,0,0,1,56,829.31a7,7,0,0,1,2.34-1.61,7.64,7.64,0,0,1,3-.57,8.61,8.61,0,0,1,1.39.12,6.32,6.32,0,0,1,1.47.44,6.66,6.66,0,0,1,1.45.86A6.89,6.89,0,0,1,67,829.94H67V827.5H69.1V842a11.67,11.67,0,0,1-.3,2.53A6.17,6.17,0,0,1,67.65,847a6.57,6.57,0,0,1-2.39,1.88,9.12,9.12,0,0,1-4,.75,10,10,0,0,1-3.9-.72,9.09,9.09,0,0,1-3.13-2.22Zm.38-10.44a5.59,5.59,0,0,0,.42,2.17,6,6,0,0,0,1.15,1.79,5.81,5.81,0,0,0,1.72,1.21,5.11,5.11,0,0,0,2.14.46,5.7,5.7,0,0,0,2.14-.41,5.62,5.62,0,0,0,1.8-1.14,5,5,0,0,0,1.2-1.77,5.67,5.67,0,0,0,.39-2.31,6.22,6.22,0,0,0-.37-2.17,5.27,5.27,0,0,0-1.1-1.78,5.39,5.39,0,0,0-1.75-1.22,5.67,5.67,0,0,0-2.31-.45,5.1,5.1,0,0,0-2.14.45,5.84,5.84,0,0,0-1.72,1.22,5.92,5.92,0,0,0-1.15,1.78A5.63,5.63,0,0,0,56.14,834.62Z" transform="translate(-15.68 -57.9)"/>
      <path class="cls-2" d="M84.28,842.12c0-.4-.07-.79-.08-1.17s0-.78,0-1.17h-.06a5,5,0,0,1-.88,1.09,5.74,5.74,0,0,1-1.19.86,6,6,0,0,1-1.39.56,5.24,5.24,0,0,1-1.45.21A5.32,5.32,0,0,1,75.07,841a6.07,6.07,0,0,1-1.35-4.23V827.5h2.07v8.09a11.63,11.63,0,0,0,.18,2.16,4.15,4.15,0,0,0,.64,1.57,2.8,2.8,0,0,0,1.22,1,4.86,4.86,0,0,0,1.92.33,8.08,8.08,0,0,0,.88-.12,4,4,0,0,0,1.51-.69,5,5,0,0,0,1.42-1.69,6.43,6.43,0,0,0,.63-3.12v-7.5h2.06v11.4c0,.4,0,.9,0,1.5s.06,1.18.11,1.72Z" transform="translate(-15.68 -57.9)"/>
      <path class="cls-2" d="M93.62,842.12H91.56V818.51h2.06Z" transform="translate(-15.68 -57.9)"/>
      <path class="cls-2" d="M108,833.16v-.38q0-3.78-3.75-3.78a6.44,6.44,0,0,0-4.47,1.72l-1.25-1.47c1.38-1.42,3.44-2.12,6.19-2.12a6.59,6.59,0,0,1,2,.31,4.61,4.61,0,0,1,1.71.95,4.77,4.77,0,0,1,1.15,1.61,5.63,5.63,0,0,1,.44,2.31v6.53c0,.56,0,1.15.08,1.77s.11,1.11.17,1.51h-2c-.06-.35-.11-.74-.14-1.16s0-.82,0-1.21H108a5.5,5.5,0,0,1-2.14,2.1,6.44,6.44,0,0,1-3,.65,6.57,6.57,0,0,1-1.88-.27,5,5,0,0,1-1.61-.81,4.2,4.2,0,0,1-1.12-1.35,3.91,3.91,0,0,1-.42-1.85,4,4,0,0,1,.92-2.8,5.51,5.51,0,0,1,2.31-1.51,11.05,11.05,0,0,1,3-.63c1-.08,2-.12,2.89-.12Zm-1.06,1.68c-.52,0-1.17,0-2,.08a11.75,11.75,0,0,0-2.25.37,5,5,0,0,0-1.84.93,2.08,2.08,0,0,0-.76,1.71,2.32,2.32,0,0,0,1.09,2.08,3.24,3.24,0,0,0,1.11.47,5.66,5.66,0,0,0,1.23.14,4.76,4.76,0,0,0,2-.37,4,4,0,0,0,2.21-2.52,6,6,0,0,0,.27-1.83v-1.06Z" transform="translate(-15.68 -57.9)"/>
      <path class="cls-2" d="M122.36,829.38h-4.22V838a4.4,4.4,0,0,0,.16,1.32,1.89,1.89,0,0,0,.43.8,1.5,1.5,0,0,0,.68.39,3.26,3.26,0,0,0,.86.11,3.89,3.89,0,0,0,1.09-.16,4.69,4.69,0,0,0,1-.4l.09,1.9a6.5,6.5,0,0,1-2.78.54,5.47,5.47,0,0,1-1.23-.16,3,3,0,0,1-1.17-.59,3.3,3.3,0,0,1-.88-1.19,4.77,4.77,0,0,1-.34-2v-9.21H113V827.5h3.09v-4.12h2.06v4.12h4.22Z" transform="translate(-15.68 -57.9)"/>
      <path class="cls-2" d="M128.17,821.88a1.39,1.39,0,0,1-.47,1.08,1.51,1.51,0,0,1-1,.42,1.5,1.5,0,0,1-1-.42,1.48,1.48,0,0,1,0-2.16,1.5,1.5,0,0,1,1-.42,1.51,1.51,0,0,1,1,.42A1.39,1.39,0,0,1,128.17,821.88Zm-.47,20.24h-2.06V827.5h2.06Z" transform="translate(-15.68 -57.9)"/>
      <path class="cls-2" d="M147.44,834.81a7.87,7.87,0,0,1-.58,3.06,7.26,7.26,0,0,1-4.06,4,8.71,8.71,0,0,1-6.25,0,7.46,7.46,0,0,1-2.45-1.61,7.57,7.57,0,0,1-1.61-2.44,8.5,8.5,0,0,1,0-6.12,7.26,7.26,0,0,1,4.06-4,8.85,8.85,0,0,1,6.25,0,7.41,7.41,0,0,1,2.45,1.61,7.26,7.26,0,0,1,1.61,2.44A7.9,7.9,0,0,1,147.44,834.81Zm-2.25,0a6.58,6.58,0,0,0-.39-2.28,5.3,5.3,0,0,0-2.84-3.08,6.08,6.08,0,0,0-4.59,0,5.17,5.17,0,0,0-1.72,1.24,5.54,5.54,0,0,0-1.09,1.84,6.86,6.86,0,0,0,0,4.56,5.54,5.54,0,0,0,1.09,1.84,4.9,4.9,0,0,0,1.72,1.24,6.08,6.08,0,0,0,4.59,0,5.13,5.13,0,0,0,1.73-1.24,5.42,5.42,0,0,0,1.11-1.84A6.58,6.58,0,0,0,145.19,834.81Z" transform="translate(-15.68 -57.9)"/>
      <path class="cls-2" d="M153.16,827.5c0,.4.06.79.07,1.17s0,.78,0,1.17h.06a4.74,4.74,0,0,1,.88-1.09,6,6,0,0,1,1.18-.86,6.74,6.74,0,0,1,1.39-.56,6.25,6.25,0,0,1,5.61,1.28,6.07,6.07,0,0,1,1.34,4.23v9.28h-2.06V834a6.87,6.87,0,0,0-.84-3.73,3.43,3.43,0,0,0-3.12-1.3,6.78,6.78,0,0,0-.88.13,3.77,3.77,0,0,0-1.51.68,5,5,0,0,0-1.43,1.69,6.56,6.56,0,0,0-.62,3.12v7.5h-2.06v-11.4c0-.4,0-.9-.05-1.5s-.07-1.18-.11-1.72Z" transform="translate(-15.68 -57.9)"/>
      <path class="cls-2" d="M176.3,831a3.89,3.89,0,0,0-1.25-1.44,3.32,3.32,0,0,0-1.9-.53,4.43,4.43,0,0,0-1.08.13,3.14,3.14,0,0,0-1,.39,2.08,2.08,0,0,0-.71.67,1.83,1.83,0,0,0-.26,1,1.66,1.66,0,0,0,.72,1.5,7,7,0,0,0,2.15.81l2.09.5a5,5,0,0,1,2.55,1.39,3.6,3.6,0,0,1,1,2.61,4,4,0,0,1-1.77,3.45,5.62,5.62,0,0,1-1.83.8,9.12,9.12,0,0,1-2.09.25,7.67,7.67,0,0,1-3.14-.65,5.7,5.7,0,0,1-2.48-2.2l1.78-1.22a4.84,4.84,0,0,0,1.58,1.6,4.23,4.23,0,0,0,2.26.59,5.91,5.91,0,0,0,1.25-.14,3.44,3.44,0,0,0,1.11-.44,2.36,2.36,0,0,0,.78-.76,2,2,0,0,0,.3-1.1,1.7,1.7,0,0,0-.82-1.57,6.91,6.91,0,0,0-2-.77l-2-.47c-.25-.06-.59-.16-1-.31a4.44,4.44,0,0,1-1.25-.66,4,4,0,0,1-1-1.14,3.11,3.11,0,0,1-.44-1.73,4.12,4.12,0,0,1,.45-2,3.84,3.84,0,0,1,1.22-1.37,5.6,5.6,0,0,1,1.73-.8,7.84,7.84,0,0,1,2-.26,6.88,6.88,0,0,1,2.84.59,4.19,4.19,0,0,1,2,2Z" transform="translate(-15.68 -57.9)"/>
    </g>
    <g>
      <path class="cls-2" d="M319.3,823.66A4.85,4.85,0,0,0,315,821.5a6.32,6.32,0,0,0-1.72.24,4.48,4.48,0,0,0-1.51.72,3.54,3.54,0,0,0-1.08,1.25,3.78,3.78,0,0,0-.4,1.79,3.12,3.12,0,0,0,.84,2.33,6.81,6.81,0,0,0,2.09,1.36,24.13,24.13,0,0,0,2.73.95,12.62,12.62,0,0,1,2.74,1.13,6.39,6.39,0,0,1,2.09,1.85,5.29,5.29,0,0,1,.84,3.16A5.61,5.61,0,0,1,321,839a6.33,6.33,0,0,1-1.68,2,8.19,8.19,0,0,1-4.95,1.68,9.88,9.88,0,0,1-3.86-.76,7.3,7.3,0,0,1-3.11-2.52l2.06-1.47a5.35,5.35,0,0,0,2,2,6,6,0,0,0,3,.73,5.78,5.78,0,0,0,1.69-.26,4.84,4.84,0,0,0,1.51-.79,4.31,4.31,0,0,0,1.1-1.26,3.36,3.36,0,0,0,.44-1.72,3.47,3.47,0,0,0-.49-1.92,4.11,4.11,0,0,0-1.28-1.28,8.2,8.2,0,0,0-1.81-.86l-2.09-.69c-.72-.23-1.42-.49-2.09-.78a7.09,7.09,0,0,1-1.82-1.11,5,5,0,0,1-1.28-1.68,6.81,6.81,0,0,1,.13-5.33,5.78,5.78,0,0,1,1.62-2,6.9,6.9,0,0,1,2.3-1.15,9.64,9.64,0,0,1,6,.22,7.31,7.31,0,0,1,2.84,2.09Z" transform="translate(-15.68 -57.9)"/>
      <path class="cls-2" d="M333,829.38H328.8V838a4.79,4.79,0,0,0,.15,1.32,1.9,1.9,0,0,0,.44.8,1.47,1.47,0,0,0,.67.39,3.32,3.32,0,0,0,.86.11,3.79,3.79,0,0,0,1.09-.16,4.78,4.78,0,0,0,1-.4l.09,1.9a6.53,6.53,0,0,1-2.78.54,5.33,5.33,0,0,1-1.23-.16,3.05,3.05,0,0,1-1.18-.59,3.4,3.4,0,0,1-.87-1.19,4.77,4.77,0,0,1-.34-2v-9.21h-3.1V827.5h3.1v-4.12h2.06v4.12H333Z" transform="translate(-15.68 -57.9)"/>
      <path class="cls-2" d="M345.2,833.16v-.38q0-3.78-3.75-3.78a6.44,6.44,0,0,0-4.47,1.72l-1.25-1.47c1.38-1.42,3.44-2.12,6.19-2.12a6.64,6.64,0,0,1,2,.31,4.49,4.49,0,0,1,1.7.95,4.79,4.79,0,0,1,1.16,1.61,5.63,5.63,0,0,1,.44,2.31v6.53c0,.56,0,1.15.08,1.77s.1,1.11.17,1.51h-2c-.06-.35-.11-.74-.14-1.16s-.05-.82-.05-1.21h-.06a5.56,5.56,0,0,1-2.14,2.1,7,7,0,0,1-4.89.38,5,5,0,0,1-1.61-.81,4.07,4.07,0,0,1-1.12-1.35,3.91,3.91,0,0,1-.42-1.85,4,4,0,0,1,.92-2.8,5.51,5.51,0,0,1,2.31-1.51,10.89,10.89,0,0,1,3-.63c1.05-.08,2-.12,2.89-.12Zm-1.07,1.68c-.52,0-1.17,0-1.95.08a11.75,11.75,0,0,0-2.25.37,4.92,4.92,0,0,0-1.84.93,2.09,2.09,0,0,0-.77,1.71,2.35,2.35,0,0,0,1.1,2.08,3.24,3.24,0,0,0,1.11.47,5.59,5.59,0,0,0,1.23.14,4.68,4.68,0,0,0,1.95-.37,4,4,0,0,0,1.39-1,4.08,4.08,0,0,0,.83-1.5,6,6,0,0,0,.27-1.83v-1.06Z" transform="translate(-15.68 -57.9)"/>
      <path class="cls-2" d="M354,827.5c.05.4.07.79.08,1.17s0,.78,0,1.17h.06a4.74,4.74,0,0,1,.88-1.09,6,6,0,0,1,1.18-.86,6.74,6.74,0,0,1,1.39-.56,5.28,5.28,0,0,1,1.45-.2,5.34,5.34,0,0,1,4.16,1.48,6.12,6.12,0,0,1,1.34,4.23v9.28H362.5V834a6.87,6.87,0,0,0-.84-3.73,3.44,3.44,0,0,0-3.13-1.3,7,7,0,0,0-.87.13,3.87,3.87,0,0,0-1.52.68,5.08,5.08,0,0,0-1.42,1.69,6.56,6.56,0,0,0-.62,3.12v7.5H352v-11.4c0-.4,0-.9-.05-1.5s-.07-1.18-.11-1.72Z" transform="translate(-15.68 -57.9)"/>
      <path class="cls-2" d="M384,842.12h-2.06v-2.44h-.06a5.39,5.39,0,0,1-1.19,1.28,7.23,7.23,0,0,1-1.44.88,7.1,7.1,0,0,1-1.54.5,8.28,8.28,0,0,1-1.52.16,8.4,8.4,0,0,1-3.14-.58,7.26,7.26,0,0,1-4.06-4,8.36,8.36,0,0,1,0-6.12,7.41,7.41,0,0,1,1.61-2.44A7.62,7.62,0,0,1,373,827.7a8.39,8.39,0,0,1,3.14-.57,8.23,8.23,0,0,1,1.52.15,7.1,7.1,0,0,1,1.54.5,7.23,7.23,0,0,1,1.44.88,5.39,5.39,0,0,1,1.19,1.28h.06V818.51H384Zm-13.34-7.31a6.58,6.58,0,0,0,.39,2.28,5.42,5.42,0,0,0,1.11,1.84,5.07,5.07,0,0,0,1.74,1.24,5.57,5.57,0,0,0,2.29.45,6,6,0,0,0,2.33-.45,5.57,5.57,0,0,0,1.86-1.24,5.69,5.69,0,0,0,1.22-1.84,6.26,6.26,0,0,0,0-4.56,5.69,5.69,0,0,0-1.22-1.84,5.88,5.88,0,0,0-1.86-1.24,6,6,0,0,0-2.33-.45,5.57,5.57,0,0,0-2.29.45,5.35,5.35,0,0,0-1.74,1.24,5.42,5.42,0,0,0-1.11,1.84A6.58,6.58,0,0,0,370.65,834.81Z" transform="translate(-15.68 -57.9)"/>
      <path class="cls-2" d="M397.86,833.16v-.38q0-3.78-3.75-3.78a6.42,6.42,0,0,0-4.46,1.72l-1.25-1.47c1.37-1.42,3.43-2.12,6.18-2.12a6.7,6.7,0,0,1,2.05.31,4.65,4.65,0,0,1,1.7.95,4.77,4.77,0,0,1,1.15,1.61,5.47,5.47,0,0,1,.44,2.31v6.53c0,.56,0,1.15.08,1.77s.11,1.11.17,1.51h-2c-.06-.35-.11-.74-.14-1.16s0-.82,0-1.21h-.07a5.43,5.43,0,0,1-2.14,2.1,6.41,6.41,0,0,1-3,.65,6.57,6.57,0,0,1-1.88-.27,4.83,4.83,0,0,1-1.6-.81,4.1,4.1,0,0,1-1.13-1.35,3.91,3.91,0,0,1-.42-1.85,4,4,0,0,1,.92-2.8,5.57,5.57,0,0,1,2.31-1.51,11.05,11.05,0,0,1,3-.63c1.05-.08,2-.12,2.89-.12Zm-1.06,1.68c-.52,0-1.17,0-1.95.08a11.62,11.62,0,0,0-2.25.37,5,5,0,0,0-1.85.93,2.08,2.08,0,0,0-.76,1.71,2.37,2.37,0,0,0,1.09,2.08,3.24,3.24,0,0,0,1.11.47,5.73,5.73,0,0,0,1.23.14,4.76,4.76,0,0,0,2-.37,4,4,0,0,0,2.21-2.52,6,6,0,0,0,.27-1.83v-1.06Z" transform="translate(-15.68 -57.9)"/>
      <path class="cls-2" d="M404.92,832.06c0-.64,0-1.3-.05-2s-.06-1.53-.08-2.59h2v2.72h.07a4.23,4.23,0,0,1,.62-1.14,4.81,4.81,0,0,1,2.33-1.69,5.47,5.47,0,0,1,1.73-.26,5.74,5.74,0,0,1,1.53.18l-.4,2a3.62,3.62,0,0,0-1.19-.15,4.26,4.26,0,0,0-2,.45,4.57,4.57,0,0,0-1.41,1.16,4.74,4.74,0,0,0-.82,1.51,4.93,4.93,0,0,0-.27,1.56v8.25h-2.06Z" transform="translate(-15.68 -57.9)"/>
      <path class="cls-2" d="M429.1,842.12H427v-2.44H427a5.35,5.35,0,0,1-1.18,1.28,7,7,0,0,1-3,1.38,8.17,8.17,0,0,1-1.51.16,8.36,8.36,0,0,1-3.14-.58,7.26,7.26,0,0,1-4.06-4,8.36,8.36,0,0,1,0-6.12,7.26,7.26,0,0,1,1.61-2.44,7.41,7.41,0,0,1,2.45-1.61,8.36,8.36,0,0,1,3.14-.57,8.13,8.13,0,0,1,1.51.15,7,7,0,0,1,3,1.38,5.35,5.35,0,0,1,1.18,1.28H427V818.51h2.07Zm-13.34-7.31a6.58,6.58,0,0,0,.39,2.28,5.42,5.42,0,0,0,1.11,1.84,5,5,0,0,0,1.73,1.24,5.62,5.62,0,0,0,2.3.45,5.92,5.92,0,0,0,2.32-.45,5.63,5.63,0,0,0,3.08-3.08,6.13,6.13,0,0,0,0-4.56,5.53,5.53,0,0,0-1.22-1.84,5.84,5.84,0,0,0-4.18-1.69,5.62,5.62,0,0,0-2.3.45,5.31,5.31,0,0,0-1.73,1.24,5.42,5.42,0,0,0-1.11,1.84A6.58,6.58,0,0,0,415.76,834.81Z" transform="translate(-15.68 -57.9)"/>
      <path class="cls-2" d="M441.34,831a3.89,3.89,0,0,0-1.25-1.44,3.32,3.32,0,0,0-1.9-.53,4.43,4.43,0,0,0-1.08.13,3.2,3.2,0,0,0-1,.39,2.14,2.14,0,0,0-.7.67,1.75,1.75,0,0,0-.26,1,1.68,1.68,0,0,0,.71,1.5,7.2,7.2,0,0,0,2.16.81l2.09.5a5,5,0,0,1,2.55,1.39,3.63,3.63,0,0,1,1,2.61,4,4,0,0,1-1.76,3.45,5.62,5.62,0,0,1-1.83.8,9.19,9.19,0,0,1-2.09.25,7.64,7.64,0,0,1-3.14-.65,5.7,5.7,0,0,1-2.48-2.2l1.78-1.22a4.9,4.9,0,0,0,1.57,1.6,4.26,4.26,0,0,0,2.27.59,5.91,5.91,0,0,0,1.25-.14,3.63,3.63,0,0,0,1.11-.44,2.36,2.36,0,0,0,.78-.76,2,2,0,0,0,.29-1.1,1.69,1.69,0,0,0-.81-1.57,7,7,0,0,0-2-.77l-2-.47c-.25-.06-.59-.16-1-.31a4.44,4.44,0,0,1-1.25-.66,4,4,0,0,1-1.05-1.14,3.19,3.19,0,0,1-.43-1.73,4.12,4.12,0,0,1,.45-2,3.84,3.84,0,0,1,1.22-1.37,5.6,5.6,0,0,1,1.73-.8,7.84,7.84,0,0,1,2-.26,6.88,6.88,0,0,1,2.84.59,4.17,4.17,0,0,1,2,2Z" transform="translate(-15.68 -57.9)"/>
    </g>
    <g>
      <path class="cls-2" d="M589.36,820h6.44a8.64,8.64,0,0,1,5.32,1.47,6,6,0,0,1,0,8.89,8.58,8.58,0,0,1-5.32,1.48h-4.19v10.28h-2.25Zm2.25,9.78h3.62a9,9,0,0,0,2.55-.31,4.66,4.66,0,0,0,1.67-.83,3,3,0,0,0,.91-1.22,4.16,4.16,0,0,0,0-3,3.16,3.16,0,0,0-.91-1.23,4.5,4.5,0,0,0-1.67-.83,9.84,9.84,0,0,0-2.55-.29h-3.62Z" transform="translate(-15.68 -57.9)"/>
      <path class="cls-2" d="M621.32,834.81a8.06,8.06,0,0,1-.58,3.06,7.26,7.26,0,0,1-4.06,4,8.4,8.4,0,0,1-3.14.58,8.28,8.28,0,0,1-3.11-.58,7.35,7.35,0,0,1-2.45-1.61,7.26,7.26,0,0,1-1.61-2.44,8.36,8.36,0,0,1,0-6.12,7.26,7.26,0,0,1,1.61-2.44,7.51,7.51,0,0,1,2.45-1.61,8.27,8.27,0,0,1,3.11-.57,8.39,8.39,0,0,1,3.14.57,7.51,7.51,0,0,1,2.45,1.61,7.41,7.41,0,0,1,1.61,2.44A8.09,8.09,0,0,1,621.32,834.81Zm-2.25,0a6.58,6.58,0,0,0-.39-2.28,5.42,5.42,0,0,0-1.11-1.84,5.35,5.35,0,0,0-1.74-1.24,6.08,6.08,0,0,0-4.59,0,5.12,5.12,0,0,0-1.71,1.24,5.57,5.57,0,0,0-1.1,1.84,6.86,6.86,0,0,0,0,4.56,5.57,5.57,0,0,0,1.1,1.84,4.86,4.86,0,0,0,1.71,1.24,6.08,6.08,0,0,0,4.59,0,5.07,5.07,0,0,0,1.74-1.24,5.42,5.42,0,0,0,1.11-1.84A6.58,6.58,0,0,0,619.07,834.81Z" transform="translate(-15.68 -57.9)"/>
      <path class="cls-2" d="M627.59,842.12h-2.06V818.51h2.06Z" transform="translate(-15.68 -57.9)"/>
      <path class="cls-2" d="M635.56,821.88a1.39,1.39,0,0,1-.47,1.08,1.51,1.51,0,0,1-1,.42,1.5,1.5,0,0,1-1-.42,1.48,1.48,0,0,1,0-2.16,1.5,1.5,0,0,1,1-.42,1.51,1.51,0,0,1,1,.42A1.39,1.39,0,0,1,635.56,821.88Zm-.47,20.24H633V827.5h2.06Z" transform="translate(-15.68 -57.9)"/>
      <path class="cls-2" d="M650.71,830.94a4.58,4.58,0,0,0-1.48-1.38,4.26,4.26,0,0,0-2.18-.56,5.44,5.44,0,0,0-2.29.41,4.87,4.87,0,0,0-1.73,1.21,5.43,5.43,0,0,0-1.1,1.86,7.52,7.52,0,0,0,0,4.66A5.25,5.25,0,0,0,643,839a4.87,4.87,0,0,0,1.73,1.21,5.29,5.29,0,0,0,2.29.41,4.26,4.26,0,0,0,2.18-.56,4.48,4.48,0,0,0,1.48-1.38L652.4,840a6.87,6.87,0,0,1-2.47,1.89,7.56,7.56,0,0,1-2.88.65,8.23,8.23,0,0,1-3.21-.55,7.2,7.2,0,0,1-2.46-1.61,7,7,0,0,1-1.54-2.45,9.21,9.21,0,0,1,0-6.16,7,7,0,0,1,1.54-2.45,7.2,7.2,0,0,1,2.46-1.61,8.23,8.23,0,0,1,3.21-.54,7.36,7.36,0,0,1,2.88.64,6.87,6.87,0,0,1,2.47,1.89Z" transform="translate(-15.68 -57.9)"/>
      <path class="cls-2" d="M658.11,821.88a1.36,1.36,0,0,1-.47,1.08,1.5,1.5,0,0,1-1,.42,1.51,1.51,0,0,1-1-.42,1.48,1.48,0,0,1,0-2.16,1.51,1.51,0,0,1,1-.42,1.5,1.5,0,0,1,1,.42A1.36,1.36,0,0,1,658.11,821.88Zm-.47,20.24h-2.06V827.5h2.06Z" transform="translate(-15.68 -57.9)"/>
      <path class="cls-2" d="M664.05,835.37a6.2,6.2,0,0,0,.53,2.06,5.39,5.39,0,0,0,1.15,1.68,5.52,5.52,0,0,0,1.66,1.1,4.88,4.88,0,0,0,2,.41,5.22,5.22,0,0,0,2.86-.76,5.62,5.62,0,0,0,1.82-1.77l1.6,1.31a8,8,0,0,1-2.89,2.38,8.21,8.21,0,0,1-3.39.72,7.92,7.92,0,0,1-3-.58,7.2,7.2,0,0,1-2.39-1.61,7.64,7.64,0,0,1-1.57-2.44,7.87,7.87,0,0,1-.58-3.06,8.28,8.28,0,0,1,.56-3.06,7.61,7.61,0,0,1,1.56-2.44,7.39,7.39,0,0,1,2.35-1.61,7.72,7.72,0,0,1,5.87,0,6.6,6.6,0,0,1,2.2,1.58,6.66,6.66,0,0,1,1.36,2.31,8.49,8.49,0,0,1,.47,2.83v.93Zm9.93-1.68a4.68,4.68,0,0,0-1.25-3.39,4.61,4.61,0,0,0-3.5-1.3,5,5,0,0,0-1.94.39,5.44,5.44,0,0,0-2.76,2.55,3.86,3.86,0,0,0-.42,1.75Z" transform="translate(-15.68 -57.9)"/>
      <path class="cls-2" d="M687.72,831a3.89,3.89,0,0,0-1.25-1.44,3.32,3.32,0,0,0-1.9-.53,4.43,4.43,0,0,0-1.08.13,3.14,3.14,0,0,0-1,.39,2.08,2.08,0,0,0-.71.67,1.83,1.83,0,0,0-.26,1,1.66,1.66,0,0,0,.72,1.5,7.12,7.12,0,0,0,2.15.81l2.09.5a5,5,0,0,1,2.55,1.39,3.6,3.6,0,0,1,1,2.61,4,4,0,0,1-1.77,3.45,5.62,5.62,0,0,1-1.83.8,9.12,9.12,0,0,1-2.09.25,7.67,7.67,0,0,1-3.14-.65,5.75,5.75,0,0,1-2.48-2.2l1.78-1.22a4.93,4.93,0,0,0,1.58,1.6,4.23,4.23,0,0,0,2.26.59,5.91,5.91,0,0,0,1.25-.14,3.44,3.44,0,0,0,1.11-.44,2.36,2.36,0,0,0,.78-.76,2,2,0,0,0,.3-1.1,1.68,1.68,0,0,0-.82-1.57,6.91,6.91,0,0,0-2-.77l-2-.47c-.25-.06-.59-.16-1-.31a4.58,4.58,0,0,1-1.25-.66,4,4,0,0,1-1-1.14,3.11,3.11,0,0,1-.44-1.73,4.12,4.12,0,0,1,.45-2,3.84,3.84,0,0,1,1.22-1.37,5.6,5.6,0,0,1,1.73-.8,7.89,7.89,0,0,1,2-.26,7,7,0,0,1,2.85.59,4.21,4.21,0,0,1,2,2Z" transform="translate(-15.68 -57.9)"/>
    </g>
    <g>
      <path class="cls-2" d="M833.93,820h6.43a8.67,8.67,0,0,1,5.33,1.47,6,6,0,0,1,0,8.89,8.61,8.61,0,0,1-5.33,1.48h-4.18v10.28h-2.25Zm2.25,9.78h3.62a9,9,0,0,0,2.55-.31,4.74,4.74,0,0,0,1.67-.83,3,3,0,0,0,.9-1.22,4,4,0,0,0,0-3,3.14,3.14,0,0,0-.9-1.23,4.58,4.58,0,0,0-1.67-.83,9.84,9.84,0,0,0-2.55-.29h-3.62Z" transform="translate(-15.68 -57.9)"/>
      <path class="cls-2" d="M851.33,832.06c0-.64,0-1.3-.05-2s-.06-1.53-.08-2.59h2v2.72h.07a4.23,4.23,0,0,1,.62-1.14,4.69,4.69,0,0,1,2.33-1.69,5.47,5.47,0,0,1,1.73-.26,5.84,5.84,0,0,1,1.53.18l-.4,2a3.66,3.66,0,0,0-1.19-.15,4.26,4.26,0,0,0-2,.45,4.57,4.57,0,0,0-1.41,1.16,4.74,4.74,0,0,0-.82,1.51,4.93,4.93,0,0,0-.27,1.56v8.25h-2.06Z" transform="translate(-15.68 -57.9)"/>
      <path class="cls-2" d="M875.69,834.81a7.87,7.87,0,0,1-.58,3.06,7.26,7.26,0,0,1-4.06,4,8.32,8.32,0,0,1-3.14.58,8.22,8.22,0,0,1-3.1-.58,7.18,7.18,0,0,1-4.06-4,8.36,8.36,0,0,1,0-6.12,7.39,7.39,0,0,1,1.6-2.44,7.55,7.55,0,0,1,2.46-1.61,8.22,8.22,0,0,1,3.1-.57,8.32,8.32,0,0,1,3.14.57,7.41,7.41,0,0,1,2.45,1.61,7.26,7.26,0,0,1,1.61,2.44A7.9,7.9,0,0,1,875.69,834.81Zm-2.25,0a6.58,6.58,0,0,0-.39-2.28,5.42,5.42,0,0,0-1.11-1.84,5.31,5.31,0,0,0-1.73-1.24,6.08,6.08,0,0,0-4.59,0,5.17,5.17,0,0,0-1.72,1.24,5.54,5.54,0,0,0-1.09,1.84,6.86,6.86,0,0,0,0,4.56,5.54,5.54,0,0,0,1.09,1.84,4.9,4.9,0,0,0,1.72,1.24,6.08,6.08,0,0,0,4.59,0,5,5,0,0,0,1.73-1.24,5.42,5.42,0,0,0,1.11-1.84A6.58,6.58,0,0,0,873.44,834.81Z" transform="translate(-15.68 -57.9)"/>
      <path class="cls-2" d="M890.09,830.94a4.48,4.48,0,0,0-1.48-1.38,4.25,4.25,0,0,0-2.17-.56,5.46,5.46,0,0,0-2.3.41,5,5,0,0,0-1.73,1.21,5.43,5.43,0,0,0-1.1,1.86,7.52,7.52,0,0,0,0,4.66,5.25,5.25,0,0,0,1.1,1.86,5,5,0,0,0,1.73,1.21,5.31,5.31,0,0,0,2.3.41,4.25,4.25,0,0,0,2.17-.56,4.38,4.38,0,0,0,1.48-1.38l1.69,1.28a6.79,6.79,0,0,1-2.47,1.89,7.51,7.51,0,0,1-2.87.65,8.28,8.28,0,0,1-3.22-.55,6.91,6.91,0,0,1-4-4.06,9.21,9.21,0,0,1,0-6.16,6.91,6.91,0,0,1,4-4.06,8.29,8.29,0,0,1,3.22-.54,7.32,7.32,0,0,1,2.87.64,6.79,6.79,0,0,1,2.47,1.89Z" transform="translate(-15.68 -57.9)"/>
      <path class="cls-2" d="M895.93,835.37a6.45,6.45,0,0,0,.53,2.06,5.42,5.42,0,0,0,1.16,1.68,5.52,5.52,0,0,0,1.66,1.1,4.88,4.88,0,0,0,2,.41,5.19,5.19,0,0,0,2.85-.76,5.76,5.76,0,0,0,1.83-1.77l1.59,1.31a7.79,7.79,0,0,1-2.89,2.38,8.2,8.2,0,0,1-3.38.72,7.89,7.89,0,0,1-3-.58,7.1,7.1,0,0,1-2.39-1.61,7.84,7.84,0,0,1-1.58-2.44,8.57,8.57,0,0,1,0-6.12,7.29,7.29,0,0,1,1.56-2.44,7.14,7.14,0,0,1,5.25-2.18,7.26,7.26,0,0,1,3,.59,6.7,6.7,0,0,1,2.2,1.58,6.82,6.82,0,0,1,1.36,2.31,8.49,8.49,0,0,1,.47,2.83v.93Zm9.94-1.68a4.68,4.68,0,0,0-1.25-3.39,4.62,4.62,0,0,0-3.5-1.3,5,5,0,0,0-1.94.39,5.48,5.48,0,0,0-1.64,1.05,5.26,5.26,0,0,0-1.12,1.5,3.86,3.86,0,0,0-.42,1.75Z" transform="translate(-15.68 -57.9)"/>
      <path class="cls-2" d="M926.45,842.12h-2.06v-2.44h-.06a5.39,5.39,0,0,1-1.19,1.28,7.23,7.23,0,0,1-1.44.88,7.1,7.1,0,0,1-1.54.5,8.28,8.28,0,0,1-1.52.16,8.4,8.4,0,0,1-3.14-.58,7.26,7.26,0,0,1-4.06-4,8.36,8.36,0,0,1,0-6.12,7.41,7.41,0,0,1,1.61-2.44,7.51,7.51,0,0,1,2.45-1.61,8.39,8.39,0,0,1,3.14-.57,8.23,8.23,0,0,1,1.52.15,7.1,7.1,0,0,1,1.54.5,7.23,7.23,0,0,1,1.44.88,5.39,5.39,0,0,1,1.19,1.28h.06V818.51h2.06Zm-13.34-7.31a6.58,6.58,0,0,0,.39,2.28,5.42,5.42,0,0,0,1.11,1.84,5.07,5.07,0,0,0,1.74,1.24,5.57,5.57,0,0,0,2.29.45,6,6,0,0,0,2.33-.45,5.57,5.57,0,0,0,1.86-1.24,5.69,5.69,0,0,0,1.22-1.84,6.26,6.26,0,0,0,0-4.56,5.69,5.69,0,0,0-1.22-1.84,5.88,5.88,0,0,0-1.86-1.24,6,6,0,0,0-2.33-.45,5.57,5.57,0,0,0-2.29.45,5.35,5.35,0,0,0-1.74,1.24,5.42,5.42,0,0,0-1.11,1.84A6.58,6.58,0,0,0,913.11,834.81Z" transform="translate(-15.68 -57.9)"/>
      <path class="cls-2" d="M941.51,842.12c0-.4-.07-.79-.08-1.17s0-.78,0-1.17h-.06a5,5,0,0,1-.87,1.09,6,6,0,0,1-1.19.86,6.22,6.22,0,0,1-1.39.56,6.14,6.14,0,0,1-5.61-1.28,6.12,6.12,0,0,1-1.34-4.23V827.5H933v8.09a10.78,10.78,0,0,0,.19,2.16,4,4,0,0,0,.64,1.57,2.74,2.74,0,0,0,1.22,1,4.86,4.86,0,0,0,1.92.33,8.38,8.38,0,0,0,.87-.12,4.06,4.06,0,0,0,1.52-.69,5.08,5.08,0,0,0,1.42-1.69,6.56,6.56,0,0,0,.62-3.12v-7.5h2.06v11.4c0,.4,0,.9,0,1.5s.07,1.18.11,1.72Z" transform="translate(-15.68 -57.9)"/>
      <path class="cls-2" d="M948.53,832.06c0-.64,0-1.3,0-2s-.06-1.53-.08-2.59h2v2.72h.06a4.57,4.57,0,0,1,.63-1.14,4.83,4.83,0,0,1,1-1,5,5,0,0,1,1.34-.7,5.49,5.49,0,0,1,1.74-.26,5.84,5.84,0,0,1,1.53.18l-.41,2a3.58,3.58,0,0,0-1.19-.15,4.28,4.28,0,0,0-2,.45,4.42,4.42,0,0,0-1.4,1.16,4.77,4.77,0,0,0-.83,1.51,4.9,4.9,0,0,0-.26,1.56v8.25h-2.07Z" transform="translate(-15.68 -57.9)"/>
      <path class="cls-2" d="M959.56,835.37a6.2,6.2,0,0,0,.53,2.06,5.42,5.42,0,0,0,1.16,1.68,5.6,5.6,0,0,0,1.65,1.1,4.91,4.91,0,0,0,2,.41,5.2,5.2,0,0,0,2.86-.76,5.76,5.76,0,0,0,1.83-1.77l1.59,1.31a7.87,7.87,0,0,1-2.89,2.38,8.21,8.21,0,0,1-3.39.72,7.87,7.87,0,0,1-3-.58,7.1,7.1,0,0,1-2.39-1.61,7.66,7.66,0,0,1-1.58-2.44,8.43,8.43,0,0,1,0-6.12,7.29,7.29,0,0,1,1.56-2.44,7.14,7.14,0,0,1,5.25-2.18,7.17,7.17,0,0,1,3,.59,6.45,6.45,0,0,1,3.56,3.89,8.24,8.24,0,0,1,.47,2.83v.93Zm9.93-1.68a4.64,4.64,0,0,0-1.25-3.39,4.59,4.59,0,0,0-3.49-1.3,5,5,0,0,0-1.94.39,5.36,5.36,0,0,0-1.64,1.05,5.48,5.48,0,0,0-1.13,1.5,3.86,3.86,0,0,0-.42,1.75Z" transform="translate(-15.68 -57.9)"/>
      <path class="cls-2" d="M983.24,831a3.89,3.89,0,0,0-1.25-1.44,3.35,3.35,0,0,0-1.91-.53,4.55,4.55,0,0,0-1.08.13,3.14,3.14,0,0,0-1,.39,2.14,2.14,0,0,0-.7.67,1.76,1.76,0,0,0-.27,1,1.66,1.66,0,0,0,.72,1.5,7.2,7.2,0,0,0,2.16.81l2.09.5a5,5,0,0,1,2.55,1.39,3.63,3.63,0,0,1,1,2.61,4.1,4.1,0,0,1-.48,2,4.23,4.23,0,0,1-1.28,1.41,5.62,5.62,0,0,1-1.83.8,9.26,9.26,0,0,1-2.09.25,7.61,7.61,0,0,1-3.14-.65,5.77,5.77,0,0,1-2.49-2.2l1.78-1.22a5,5,0,0,0,1.58,1.6,4.26,4.26,0,0,0,2.27.59,5.82,5.82,0,0,0,1.24-.14,3.44,3.44,0,0,0,1.11-.44,2.3,2.3,0,0,0,.79-.76,2.1,2.1,0,0,0,.29-1.1,1.69,1.69,0,0,0-.81-1.57,7,7,0,0,0-2-.77l-2-.47a10.11,10.11,0,0,1-1-.31,4.31,4.31,0,0,1-1.25-.66,3.85,3.85,0,0,1-1-1.14,3.2,3.2,0,0,1-.44-1.73,4.12,4.12,0,0,1,.46-2,3.75,3.75,0,0,1,1.22-1.37,5.49,5.49,0,0,1,1.73-.8,7.78,7.78,0,0,1,2-.26,6.88,6.88,0,0,1,2.84.59,4.21,4.21,0,0,1,2,2Z" transform="translate(-15.68 -57.9)"/>
    </g>
  </g>
  <g id="icons">
    <g>
      <g>
        <g>
          <line class="cls-2" x1="485.14" y1="2.27" x2="485.14" y2="102.41"/>
          <path class="cls-2" d="M500.83,162.59a2.28,2.28,0,0,1-2.28-2.27V60.18a2.28,2.28,0,1,1,4.55,0V160.32A2.27,2.27,0,0,1,500.83,162.59Z" transform="translate(-15.68 -57.9)"/>
        </g>
        <g>
          <rect class="cls-3" x="449.73" y="6.36" width="35.42" height="25.8" rx="2"/>
          <path class="cls-2" d="M498.55,92.34H467.68a4.55,4.55,0,0,1-4.54-4.55V66.54A4.55,4.55,0,0,1,467.68,62h30.87a4.55,4.55,0,0,1,4.55,4.55V87.79A4.55,4.55,0,0,1,498.55,92.34Zm0-4.55v0ZM467.68,66.54V87.79h30.87V66.54Z" transform="translate(-15.68 -57.9)"/>
        </g>
        <g>
          <path class="cls-3" d="M559.14,179.45h0V323.24H442.51V179.45h0c0-.43,0-.85,0-1.28a58.32,58.32,0,0,1,116.64,0C559.15,178.6,559.15,179,559.14,179.45Z" transform="translate(-15.68 -57.9)"/>
          <path class="cls-2" d="M562,326.08H439.66l0-149.47a61.17,61.17,0,0,1,122.3,0h0Zm-116.65-5.69h111V182.29h0l0-2.92c0-.4,0-.8,0-1.2a55.48,55.48,0,0,0-111,0c0,.4,0,.8,0,1.2l.06,2.9h-.07Z" transform="translate(-15.68 -57.9)"/>
        </g>
        <g>
          <rect class="cls-3" x="400.75" y="130.68" width="166.51" height="109.95" rx="2.27"/>
          <path class="cls-2" d="M577.26,194.27v98.58H422.12V194.27H577.26m3.41-5.69h-162a2.28,2.28,0,0,0-2.28,2.28v105.4a2.28,2.28,0,0,0,2.28,2.27h162a2.28,2.28,0,0,0,2.28-2.27V190.86a2.28,2.28,0,0,0-2.28-2.28Z" transform="translate(-15.68 -57.9)"/>
        </g>
        <g>
          <rect class="cls-3" x="378.87" y="217.18" width="210.28" height="96.31" rx="2"/>
          <path class="cls-2" d="M599.14,280.77v84.94H400.24V280.77h198.9m3.41-5.69H396.83a2.28,2.28,0,0,0-2.28,2.28v91.76a2.28,2.28,0,0,0,2.28,2.27H602.55a2.28,2.28,0,0,0,2.28-2.27V277.36a2.28,2.28,0,0,0-2.28-2.28Z" transform="translate(-15.68 -57.9)"/>
        </g>
        <g>
          <line class="cls-2" x1="429.95" y1="152.52" x2="429.95" y2="197.54"/>
          <path class="cls-2" d="M445.63,258.29a2.85,2.85,0,0,1-2.84-2.85v-45a2.84,2.84,0,0,1,5.68,0v45A2.85,2.85,0,0,1,445.63,258.29Z" transform="translate(-15.68 -57.9)"/>
        </g>
        <g>
          <line class="cls-2" x1="456.73" y1="152.52" x2="456.73" y2="197.54"/>
          <path class="cls-2" d="M472.42,258.29a2.85,2.85,0,0,1-2.84-2.85v-45a2.84,2.84,0,1,1,5.68,0v45A2.85,2.85,0,0,1,472.42,258.29Z" transform="translate(-15.68 -57.9)"/>
        </g>
        <g>
          <line class="cls-2" x1="483.52" y1="152.52" x2="483.52" y2="197.54"/>
          <path class="cls-2" d="M499.21,258.29a2.86,2.86,0,0,1-2.85-2.85v-45a2.85,2.85,0,0,1,5.69,0v45A2.85,2.85,0,0,1,499.21,258.29Z" transform="translate(-15.68 -57.9)"/>
        </g>
        <g>
          <line class="cls-2" x1="510.31" y1="152.52" x2="510.31" y2="197.54"/>
          <path class="cls-2" d="M526,258.29a2.85,2.85,0,0,1-2.84-2.85v-45a2.84,2.84,0,0,1,5.68,0v45A2.85,2.85,0,0,1,526,258.29Z" transform="translate(-15.68 -57.9)"/>
        </g>
        <g>
          <line class="cls-2" x1="537.1" y1="152.52" x2="537.1" y2="197.54"/>
          <path class="cls-2" d="M552.78,258.29a2.85,2.85,0,0,1-2.84-2.85v-45a2.84,2.84,0,0,1,5.68,0v45A2.85,2.85,0,0,1,552.78,258.29Z" transform="translate(-15.68 -57.9)"/>
        </g>
        <g>
          <line class="cls-2" x1="429.95" y1="242.82" x2="429.95" y2="287.84"/>
          <path class="cls-2" d="M445.63,348.59a2.84,2.84,0,0,1-2.84-2.84v-45a2.84,2.84,0,1,1,5.68,0v45A2.84,2.84,0,0,1,445.63,348.59Z" transform="translate(-15.68 -57.9)"/>
        </g>
        <g>
          <line class="cls-2" x1="456.73" y1="242.82" x2="456.73" y2="287.84"/>
          <path class="cls-2" d="M472.42,348.59a2.84,2.84,0,0,1-2.84-2.84v-45a2.84,2.84,0,1,1,5.68,0v45A2.84,2.84,0,0,1,472.42,348.59Z" transform="translate(-15.68 -57.9)"/>
        </g>
        <g>
          <line class="cls-2" x1="403.16" y1="242.82" x2="403.16" y2="287.84"/>
          <path class="cls-2" d="M418.84,348.59a2.84,2.84,0,0,1-2.84-2.84v-45a2.84,2.84,0,1,1,5.68,0v45A2.84,2.84,0,0,1,418.84,348.59Z" transform="translate(-15.68 -57.9)"/>
        </g>
        <g>
          <line class="cls-2" x1="483.52" y1="242.82" x2="483.52" y2="287.84"/>
          <path class="cls-2" d="M499.21,348.59a2.85,2.85,0,0,1-2.85-2.84v-45a2.85,2.85,0,1,1,5.69,0v45A2.84,2.84,0,0,1,499.21,348.59Z" transform="translate(-15.68 -57.9)"/>
        </g>
        <g>
          <line class="cls-2" x1="510.31" y1="242.82" x2="510.31" y2="287.84"/>
          <path class="cls-2" d="M526,348.59a2.84,2.84,0,0,1-2.84-2.84v-45a2.84,2.84,0,1,1,5.68,0v45A2.84,2.84,0,0,1,526,348.59Z" transform="translate(-15.68 -57.9)"/>
        </g>
        <g>
          <line class="cls-2" x1="537.1" y1="242.82" x2="537.1" y2="287.84"/>
          <path class="cls-2" d="M552.78,348.59a2.84,2.84,0,0,1-2.84-2.84v-45a2.84,2.84,0,1,1,5.68,0v45A2.84,2.84,0,0,1,552.78,348.59Z" transform="translate(-15.68 -57.9)"/>
        </g>
        <g>
          <line class="cls-2" x1="564.01" y1="242.82" x2="564.01" y2="287.84"/>
          <path class="cls-2" d="M579.7,348.59a2.85,2.85,0,0,1-2.85-2.84v-45a2.85,2.85,0,1,1,5.69,0v45A2.84,2.84,0,0,1,579.7,348.59Z" transform="translate(-15.68 -57.9)"/>
        </g>
      </g>
      <g>
        <rect class="cls-3" x="396.51" y="119.43" width="175.15" height="22.51" rx="2"/>
        <path class="cls-2" d="M585.08,202.68H414.47a5.11,5.11,0,0,1-5.11-5.12V179.61a5.11,5.11,0,0,1,5.11-5.12H585.08a5.11,5.11,0,0,1,5.11,5.12v17.95A5.11,5.11,0,0,1,585.08,202.68ZM415,197H584.51V180.17H415Z" transform="translate(-15.68 -57.9)"/>
      </g>
    </g>
    <g>
      <polygon class="cls-3" points="154.9 720.45 150.28 730.02 141.95 737.02 96.73 737.02 8.34 734.61 4.71 719.75 11.47 704.85 42.65 703.87 42.65 573.06 157.17 573.06 153.54 601.23 154.9 720.45"/>
      <g>
        <rect class="cls-2" x="150.15" y="587.97" width="6.36" height="131.79"/>
        <path class="cls-2" d="M60.33,761.31H54V638.05a12.12,12.12,0,0,1,12.1-12.11H182.18v6.36H66.07a5.75,5.75,0,0,0-5.74,5.75Z" transform="translate(-15.68 -57.9)"/>
        <g>
          <path class="cls-3" d="M35.44,794.92a16.57,16.57,0,1,1,0-33.14" transform="translate(-15.68 -57.9)"/>
          <path class="cls-2" d="M35.44,798.1a19.75,19.75,0,1,1,0-39.5V765a13.4,13.4,0,1,0,0,26.8Z" transform="translate(-15.68 -57.9)"/>
        </g>
        <path class="cls-2" d="M152.44,798.1a19.75,19.75,0,1,1,0-39.5,3.18,3.18,0,1,1,0,6.35,13.4,13.4,0,1,0,13.39,13.4,3.18,3.18,0,0,1,6.36,0A19.77,19.77,0,0,1,152.44,798.1Z" transform="translate(-15.68 -57.9)"/>
        <path class="cls-2" d="M152.44,765h-117a3.18,3.18,0,1,1,0-6.35h117a3.18,3.18,0,1,1,0,6.35Z" transform="translate(-15.68 -57.9)"/>
        <rect class="cls-2" x="19.75" y="733.84" width="117" height="6.36"/>
        <path class="cls-2" d="M186.86,668a3.18,3.18,0,0,1,0-6.36A14.67,14.67,0,1,0,172.19,647a3.18,3.18,0,0,1-6.36,0,21,21,0,1,1,21,21Z" transform="translate(-15.68 -57.9)"/>
        <path class="cls-2" d="M186.86,632.3h-51a3.18,3.18,0,0,1,0-6.36h51a3.18,3.18,0,1,1,0,6.36Z" transform="translate(-15.68 -57.9)"/>
        <path class="cls-2" d="M109.78,709.67a29.35,29.35,0,1,1,29.34-29.35A29.38,29.38,0,0,1,109.78,709.67Zm0-52.34a23,23,0,1,0,23,23A23,23,0,0,0,109.78,657.33Z" transform="translate(-15.68 -57.9)"/>
        <path class="cls-2" d="M139.48,730a1.91,1.91,0,0,1-1.43,0l-8.91-3.58-3.39,8.44a1.86,1.86,0,0,1-3.44,0L111.07,708.6a1.86,1.86,0,0,1,3.42-1.46L124,729.36l2.41-6a1.86,1.86,0,0,1,2.42-1l6.47,2.6-9.39-22a1.86,1.86,0,0,1,3.42-1.46l11.16,26.13a1.88,1.88,0,0,1-.38,2A1.83,1.83,0,0,1,139.48,730Z" transform="translate(-15.68 -57.9)"/>
        <path class="cls-2" d="M80.56,730a1.89,1.89,0,0,0,1.42,0l8.92-3.58,3.39,8.44a1.85,1.85,0,0,0,3.43,0L109,708.6a1.86,1.86,0,1,0-3.42-1.46l-9.48,22.22-2.42-6a1.85,1.85,0,0,0-2.41-1l-6.48,2.6,9.4-22a1.86,1.86,0,1,0-3.42-1.46L79.58,727.59a1.88,1.88,0,0,0,.38,2A1.83,1.83,0,0,0,80.56,730Z" transform="translate(-15.68 -57.9)"/>
        <path class="cls-2" d="M108.41,665.83l-9.11,4.39a3.15,3.15,0,0,0-1.7,2.13l-2.25,9.86a3.15,3.15,0,0,0,.61,2.66l6.3,7.91a3.17,3.17,0,0,0,2.46,1.18h10.11a3.17,3.17,0,0,0,2.46-1.18l6.3-7.91a3.15,3.15,0,0,0,.61-2.66L122,672.35a3.15,3.15,0,0,0-1.7-2.13l-9.11-4.39A3.18,3.18,0,0,0,108.41,665.83Z" transform="translate(-15.68 -57.9)"/>
        <path class="cls-2" d="M121,709.63H98.56a6,6,0,0,1-4.71-2.27l-14-17.53a6,6,0,0,1-1.17-5.1l5-21.87A6,6,0,0,1,87,658.77L107.16,649a6,6,0,0,1,5.23,0l20.21,9.73a6,6,0,0,1,3.26,4.09l5,21.87a6,6,0,0,1-1.16,5.1l-14,17.53A6,6,0,0,1,121,709.63Zm-22.27-6.35h22.11L134.62,686l-4.92-21.56-19.92-9.59-19.93,9.59L84.93,686Zm11.2-48.51Z" transform="translate(-15.68 -57.9)"/>
      </g>
    </g>
    <g>
      <g>
        <rect class="cls-3" x="292.56" y="551.04" width="135.81" height="189.26" rx="2"/>
        <path class="cls-2" d="M441.55,801.33H310.74a5.64,5.64,0,0,1-5.63-5.63V611.44a5.64,5.64,0,0,1,5.63-5.63H441.55a5.64,5.64,0,0,1,5.63,5.63V795.7A5.64,5.64,0,0,1,441.55,801.33Zm-130.18-6.26H440.92v-183H311.37Z" transform="translate(-15.68 -57.9)"/>
      </g>
      <g>
        <path class="cls-3" d="M415.5,603.17v19.69a1.45,1.45,0,0,1-1.45,1.45H338.24a1.45,1.45,0,0,1-1.45-1.45V603.17a1.45,1.45,0,0,1,1.45-1.45h21.3v-2h0v-.36a16.61,16.61,0,1,1,33.21,0v2.31h21.3A1.45,1.45,0,0,1,415.5,603.17Z" transform="translate(-15.68 -57.9)"/>
        <path class="cls-2" d="M414.05,626.13H338.24a3.27,3.27,0,0,1-3.26-3.27V603.17a3.27,3.27,0,0,1,3.26-3.27h19.48V598h.06a18.42,18.42,0,0,1,36.79,1.45v.49h19.48a3.27,3.27,0,0,1,3.26,3.27v19.69A3.27,3.27,0,0,1,414.05,626.13ZM338.6,622.5h75.09v-19H390.94v-4.12a14.8,14.8,0,1,0-29.59,0v.26l.11,1.92h-.11v1.94H338.6Z" transform="translate(-15.68 -57.9)"/>
      </g>
      <path class="cls-2" d="M416.76,699.51H335.53a3.13,3.13,0,1,1,0-6.25h81.23a3.13,3.13,0,1,1,0,6.25Z" transform="translate(-15.68 -57.9)"/>
      <path class="cls-2" d="M416.76,721.43H335.53a3.13,3.13,0,0,1,0-6.26h81.23a3.13,3.13,0,0,1,0,6.26Z" transform="translate(-15.68 -57.9)"/>
      <path class="cls-2" d="M416.76,743.34H335.53a3.13,3.13,0,1,1,0-6.25h81.23a3.13,3.13,0,1,1,0,6.25Z" transform="translate(-15.68 -57.9)"/>
      <path class="cls-2" d="M416.76,765.26H335.53a3.13,3.13,0,1,1,0-6.26h81.23a3.13,3.13,0,1,1,0,6.26Z" transform="translate(-15.68 -57.9)"/>
      <path class="cls-2" d="M393.35,652.92l-20.79,20.8a2,2,0,0,1-1.45.61,2,2,0,0,1-1.44-.61,2.84,2.84,0,0,0-.4-.4L358.94,663a2,2,0,0,1,0-2.89,2.06,2.06,0,0,1,2.89,0l9.29,9.29L390.46,650a2,2,0,1,1,2.89,2.89Z" transform="translate(-15.68 -57.9)"/>
    </g>
    <g>
      <g>
        <polygon class="cls-3" points="581.73 549.3 553.52 579.86 590.41 585.6 581.73 549.3"/>
        <path class="cls-2" d="M606.1,646.63a2.59,2.59,0,0,1-.48,0l-36.9-5.73a3.13,3.13,0,0,1-1.82-5.21l28.22-30.57a3.13,3.13,0,0,1,5.34,1.4l8.68,36.29a3.13,3.13,0,0,1-3,3.86Zm-30.62-11L602,639.69l-6.23-26.06Z" transform="translate(-15.68 -57.9)"/>
      </g>
      <g>
        <path class="cls-3" d="M704.42,608.71V793a2.5,2.5,0,0,1-2.51,2.5H571.1a2.5,2.5,0,0,1-2.5-2.5V639.38a2.5,2.5,0,0,1,2.5-2.51h23.3a2.51,2.51,0,0,0,2.5-2.5V608.71a2.5,2.5,0,0,1,2.5-2.5H701.91A2.52,2.52,0,0,1,704.42,608.71Z" transform="translate(-15.68 -57.9)"/>
        <path class="cls-2" d="M701.91,798.6H571.1a5.64,5.64,0,0,1-5.63-5.63V639.38a5.64,5.64,0,0,1,5.63-5.63h22.67v-25a5.64,5.64,0,0,1,5.63-5.63H701.91a5.64,5.64,0,0,1,5.63,5.63V793A5.64,5.64,0,0,1,701.91,798.6Zm-130.18-6.26H701.29v-183H600v25A5.64,5.64,0,0,1,594.4,640H571.73Z" transform="translate(-15.68 -57.9)"/>
      </g>
      <path class="cls-2" d="M678.65,690.11H597.42a3.13,3.13,0,0,1,0-6.26h81.23a3.13,3.13,0,0,1,0,6.26Z" transform="translate(-15.68 -57.9)"/>
      <path class="cls-2" d="M678.65,712H597.42a3.13,3.13,0,1,1,0-6.25h81.23a3.13,3.13,0,1,1,0,6.25Z" transform="translate(-15.68 -57.9)"/>
      <path class="cls-2" d="M678.65,668.19H597.42a3.13,3.13,0,1,1,0-6.25h81.23a3.13,3.13,0,1,1,0,6.25Z" transform="translate(-15.68 -57.9)"/>
      <path class="cls-2" d="M678.65,733.94H597.42a3.13,3.13,0,1,1,0-6.26h81.23a3.13,3.13,0,0,1,0,6.26Z" transform="translate(-15.68 -57.9)"/>
      <path class="cls-2" d="M678.65,755.85H597.42a3.13,3.13,0,1,1,0-6.25h81.23a3.13,3.13,0,1,1,0,6.25Z" transform="translate(-15.68 -57.9)"/>
      <path class="cls-2" d="M678.65,777.77H597.42a3.13,3.13,0,0,1,0-6.26h81.23a3.13,3.13,0,0,1,0,6.26Z" transform="translate(-15.68 -57.9)"/>
      <path class="cls-2" d="M673.91,641.5a3.13,3.13,0,0,1-2.22-.92l-11.42-11.42L649.45,640a3.13,3.13,0,0,1-5.34-2.21V606.21a3.13,3.13,0,0,1,6.26,0v24l7.69-7.7a3.13,3.13,0,0,1,4.42,0l8.3,8.3V607.2a3.13,3.13,0,0,1,6.25,0v31.17a3.13,3.13,0,0,1-1.93,2.89A3.08,3.08,0,0,1,673.91,641.5Z" transform="translate(-15.68 -57.9)"/>
    </g>
    <g>
      <g>
        <rect class="cls-3" x="830.2" y="554.16" width="129.56" height="183.01"/>
        <path class="cls-2" d="M976.07,608.94H845.27a2.49,2.49,0,0,0-2.5,2.5V795.7a2.49,2.49,0,0,0,2.5,2.5h130.8a2.5,2.5,0,0,0,2.5-2.5V611.44A2.51,2.51,0,0,0,976.07,608.94Zm-.63,186.13H845.88v-183H975.44Z" transform="translate(-15.68 -57.9)"/>
        <path class="cls-2" d="M976.07,605.81H845.25a5.64,5.64,0,0,0-5.63,5.63V795.7a5.64,5.64,0,0,0,5.63,5.63H976.07a5.64,5.64,0,0,0,5.63-5.63V611.44A5.64,5.64,0,0,0,976.07,605.81Zm2.5,189.89a2.5,2.5,0,0,1-2.5,2.5H845.27a2.49,2.49,0,0,1-2.5-2.5V611.44a2.49,2.49,0,0,1,2.5-2.5h130.8a2.51,2.51,0,0,1,2.5,2.5Z" transform="translate(-15.68 -57.9)"/>
      </g>
      <g>
        <path class="cls-3" d="M950,603.17v19.69a1.45,1.45,0,0,1-1.45,1.45h-75.8a1.45,1.45,0,0,1-1.45-1.45V603.17a1.45,1.45,0,0,1,1.45-1.45h21.29v-2h0c0-.12,0-.24,0-.36a16.61,16.61,0,0,1,33.22,0v2.31h21.29A1.45,1.45,0,0,1,950,603.17Z" transform="translate(-15.68 -57.9)"/>
        <path class="cls-2" d="M948.56,626.13h-75.8a3.27,3.27,0,0,1-3.26-3.27V603.17a3.27,3.27,0,0,1,3.26-3.27h19.48V598h.06a18.42,18.42,0,0,1,36.78,1.45v.49h19.48a3.28,3.28,0,0,1,3.27,3.27v19.69A3.28,3.28,0,0,1,948.56,626.13Zm-75.44-3.63H948.2v-19H925.46v-4.12a14.8,14.8,0,0,0-29.6,0,2.26,2.26,0,0,0,0,.26l.11,1.92h-.12v1.94H873.12Z" transform="translate(-15.68 -57.9)"/>
      </g>
      <g id="Cog">
        <circle class="cls-3" cx="816.96" cy="602.9" r="14.61"/>
        <g class="cls-4">
          <g class="cls-5">
            <path class="cls-2" d="M860.79,655.19l-4-.74a4.57,4.57,0,0,1-2.84-6.8l2.27-3a3.13,3.13,0,0,0-.36-4.06l-3.31-3.28a3.13,3.13,0,0,0-4-.37l-3.18,2.28a4.72,4.72,0,0,1-4.11.32,4.91,4.91,0,0,1-2.5-3.16l-.73-4a3.13,3.13,0,0,0-3-2.44h-4.73a3.12,3.12,0,0,0-3,2.44l-.74,4a4.58,4.58,0,0,1-6.7,2.84L816.73,637a3.13,3.13,0,0,0-4,.37l-3.3,3.28a3.12,3.12,0,0,0-.37,4.06l2.28,3.18a4.58,4.58,0,0,1-2.84,6.61l-4,.74a3.14,3.14,0,0,0-2.45,3v4.72a3.14,3.14,0,0,0,2.45,3l4,.73a4.58,4.58,0,0,1,2.84,6.81l-2.28,3a3.14,3.14,0,0,0,.37,4.07l3.3,3.28a3.13,3.13,0,0,0,4,.36l3.18-2.27a4.57,4.57,0,0,1,6.61,2.84l.74,4a3.12,3.12,0,0,0,3,2.45H835a3.12,3.12,0,0,0,3-2.45l.76-4a4.58,4.58,0,0,1,6.81-2.84l3.18,2.27a3.12,3.12,0,0,0,3.84-.36l3.31-3.28a3.15,3.15,0,0,0,.36-4.07L854,673.3a4.57,4.57,0,0,1,2.84-6.61l4-.73a3.13,3.13,0,0,0,2.45-3v-4.73a3.13,3.13,0,0,0-2.45-3m-28.15,16.4a11,11,0,1,1,11-11,11,11,0,0,1-11,11" transform="translate(-15.68 -57.9)"/>
          </g>
        </g>
      </g>
      <path class="cls-2" d="M954.59,690.11H873.36a3.13,3.13,0,0,1,0-6.26h81.23a3.13,3.13,0,0,1,0,6.26Z" transform="translate(-15.68 -57.9)"/>
      <path class="cls-2" d="M954.59,712H873.36a3.13,3.13,0,1,1,0-6.25h81.23a3.13,3.13,0,1,1,0,6.25Z" transform="translate(-15.68 -57.9)"/>
      <path class="cls-2" d="M954.59,668.19H873.36a3.13,3.13,0,1,1,0-6.25h81.23a3.13,3.13,0,1,1,0,6.25Z" transform="translate(-15.68 -57.9)"/>
      <path class="cls-2" d="M954.59,733.94H873.36a3.13,3.13,0,1,1,0-6.26h81.23a3.13,3.13,0,0,1,0,6.26Z" transform="translate(-15.68 -57.9)"/>
      <path class="cls-2" d="M954.59,755.85H873.36a3.13,3.13,0,1,1,0-6.25h81.23a3.13,3.13,0,1,1,0,6.25Z" transform="translate(-15.68 -57.9)"/>
      <path class="cls-2" d="M954.59,777.77H873.36a3.13,3.13,0,0,1,0-6.26h81.23a3.13,3.13,0,0,1,0,6.26Z" transform="translate(-15.68 -57.9)"/>
    </g>
    <path class="cls-2" d="M284.52,718.43,266,735.62a.18.18,0,0,1-.3-.12v-6.29H209.56a.2.2,0,0,1-.2-.2V707.59a.2.2,0,0,1,.2-.2H265.7V701.1a.18.18,0,0,1,.3-.12l18.52,17.2A.17.17,0,0,1,284.52,718.43Z" transform="translate(-15.68 -57.9)"/>
    <path class="cls-2" d="M548.88,718.43l-18.52,17.19a.18.18,0,0,1-.3-.12v-6.29H473.92a.2.2,0,0,1-.2-.2V707.59a.2.2,0,0,1,.2-.2h56.14V701.1a.18.18,0,0,1,.3-.12l18.52,17.2A.17.17,0,0,1,548.88,718.43Z" transform="translate(-15.68 -57.9)"/>
    <path class="cls-2" d="M809.24,718.43l-18.52,17.19a.18.18,0,0,1-.3-.12v-6.29H734.28a.2.2,0,0,1-.2-.2V707.59a.2.2,0,0,1,.2-.2h56.14V701.1a.18.18,0,0,1,.3-.12l18.52,17.2A.17.17,0,0,1,809.24,718.43Z" transform="translate(-15.68 -57.9)"/>
  </g>
</svg>
