<svg xmlns="http://www.w3.org/2000/svg" width="1935.36" height="1080" viewBox="0 0 1935.36 1080"><defs><style>.cls-1{fill:#8cc440;}.cls-1,.cls-10,.cls-11,.cls-12,.cls-13,.cls-14,.cls-15,.cls-16,.cls-17,.cls-18,.cls-2,.cls-3,.cls-4,.cls-5,.cls-6,.cls-7,.cls-8,.cls-9{stroke:#231f20;stroke-width:3px;}.cls-1,.cls-10,.cls-11,.cls-12,.cls-13,.cls-14,.cls-15,.cls-16,.cls-17,.cls-18,.cls-2,.cls-23,.cls-3,.cls-4,.cls-5,.cls-6,.cls-7,.cls-8,.cls-9{stroke-miterlimit:10;}.cls-2{fill:#ffd74b;}.cls-3{fill:#6bbae4;}.cls-4{fill:#a53723;}.cls-5{fill:#8e9ba5;}.cls-6{fill:#c6e0a0;}.cls-7{fill:#e07b28;}.cls-8{fill:#fff;}.cls-9{fill:#e0e1e0;}.cls-10{fill:#b3b3b5;}.cls-11{fill:#212221;}.cls-12{fill:#8f8f8e;}.cls-13{fill:#202121;}.cls-14{fill:#606161;}.cls-15{fill:#929090;}.cls-16{fill:#c8c8c8;}.cls-17{fill:#919191;}.cls-18{fill:#212120;}.cls-19{font-size:90px;}.cls-19,.cls-22{fill:#231f20;font-family:Avenir-Medium, Avenir;font-weight:500;}.cls-20{letter-spacing:-0.09em;}.cls-21{letter-spacing:-0.02em;}.cls-22{font-size:55px;}.cls-23{fill:none;stroke:#211e1f;stroke-width:4px;}.cls-24{fill:#211e1f;}</style></defs><g id="shapes"><rect class="cls-1" x="107.01" y="19.35" width="560.96" height="149.48"/><rect class="cls-2" x="107.01" y="168.84" width="560.96" height="149.48"/><rect class="cls-3" x="107.01" y="318.32" width="560.96" height="149.48"/><rect class="cls-4" x="107.01" y="467.81" width="560.96" height="149.48"/><rect class="cls-5" x="107.01" y="617.29" width="560.96" height="149.48"/><rect class="cls-6" x="107.01" y="766.78" width="560.96" height="149.48"/><rect class="cls-7" x="107.01" y="916.26" width="560.96" height="149.48"/><rect class="cls-8" x="1224.95" y="39.04" width="385.38" height="110.11"/><rect class="cls-9" x="1152.06" y="188.52" width="229.13" height="110.11"/><rect class="cls-8" x="1189.3" y="188.52" width="421.03" height="110.11"/><rect class="cls-10" x="1115.72" y="338.01" width="164.89" height="110.11"/><rect class="cls-9" x="1152.98" y="338.01" width="292.51" height="110.11"/><rect class="cls-8" x="1189.3" y="338.01" width="421.09" height="110.11"/><rect class="cls-8" x="1341.26" y="487.49" width="134.76" height="110.11"/><rect class="cls-11" x="1079.14" y="487.49" width="127.35" height="110.11"/><rect class="cls-9" x="1152.06" y="486.49" width="127.35" height="110.11"/><rect class="cls-10" x="1115.72" y="487.49" width="36.34" height="110.11"/><rect class="cls-8" x="1189.3" y="487.49" width="421.49" height="110.11"/><rect class="cls-8" x="1374.44" y="636.98" width="117.96" height="110.11"/><rect class="cls-12" x="1046.41" y="636.98" width="91.12" height="110.11"/><rect class="cls-13" x="1079.14" y="636.98" width="177.34" height="110.11"/><rect class="cls-10" x="1115.72" y="636.98" width="36.34" height="110.11"/><rect class="cls-9" x="1152.22" y="636.98" width="177.34" height="110.11"/><rect class="cls-8" x="1189.3" y="636.98" width="421.06" height="110.11"/><rect class="cls-14" x="1018.9" y="799.1" width="37.99" height="110.11"/><rect class="cls-15" x="1046.41" y="799.1" width="107.42" height="110.11"/><rect class="cls-11" x="1079.14" y="799.1" width="171.62" height="110.11"/><rect class="cls-10" x="1115.72" y="799.1" width="231.98" height="110.11"/><rect class="cls-9" x="1153.83" y="799.1" width="291.67" height="110.11"/><rect class="cls-8" x="1189.3" y="799.1" width="423.03" height="110.11"/><rect class="cls-9" x="1612.33" y="799.1" width="26.2" height="110.11"/><rect class="cls-16" x="991.72" y="935.95" width="101.18" height="110.11"/><rect class="cls-14" x="1018.9" y="935.95" width="148" height="110.11"/><rect class="cls-17" x="1046.41" y="935.95" width="194.48" height="110.11"/><rect class="cls-18" x="1079.14" y="935.95" width="235.74" height="110.11"/><rect class="cls-10" x="1115.72" y="935.95" width="273.16" height="110.11"/><rect class="cls-9" x="1153.83" y="935.95" width="309.05" height="110.11"/><rect class="cls-8" x="1189.3" y="935.95" width="423.03" height="110.11"/><rect class="cls-9" x="1612.33" y="935.95" width="26.2" height="110.11"/><rect class="cls-10" x="1638.52" y="935.95" width="28.93" height="110.11"/></g><g id="text"><text class="cls-19" transform="translate(32.43 128.11)">7</text><text class="cls-19" transform="translate(32.43 277.6)">6</text><text class="cls-19" transform="translate(32.43 427.08)">5</text><text class="cls-19" transform="translate(32.43 576.57)">4</text><text class="cls-19" transform="translate(32.43 726.05)">3</text><text class="cls-19" transform="translate(32.43 872.61)">2</text><text class="cls-19" transform="translate(32.43 1025.02)">1</text><text class="cls-19" transform="translate(1302.1 130.41)">D<tspan class="cls-20" x="66.69" y="0">AT</tspan><tspan x="165.15" y="0">A</tspan></text><text class="cls-19" transform="translate(1303.38 280.22)">D<tspan class="cls-20" x="66.69" y="0">AT</tspan><tspan x="165.15" y="0">A</tspan></text><text class="cls-19" transform="translate(1296.95 430.03)">D<tspan class="cls-20" x="66.69" y="0">AT</tspan><tspan x="165.15" y="0">A</tspan></text><text class="cls-19" transform="translate(1295.66 579.84)">D<tspan class="cls-20" x="66.69" y="0">AT</tspan><tspan x="165.15" y="0">A</tspan></text><text class="cls-19" transform="translate(1298.24 729.65)">D<tspan class="cls-20" x="66.69" y="0">AT</tspan><tspan x="165.15" y="0">A</tspan></text><text class="cls-19" transform="translate(1300.81 884.46)">D<tspan class="cls-20" x="66.69" y="0">AT</tspan><tspan x="165.15" y="0">A</tspan></text><text class="cls-19" transform="translate(1299.52 1029.27)">D<tspan class="cls-20" x="66.69" y="0">AT</tspan><tspan x="165.15" y="0">A</tspan></text><text class="cls-19" transform="translate(158.89 118.27)">Application</text><text class="cls-19" transform="translate(129.84 266.77)">P<tspan class="cls-21" x="53.37" y="0">r</tspan><tspan x="85.05" y="0">esentation</tspan></text><text class="cls-19" transform="translate(243.65 415.28)">Session</text><text class="cls-19" transform="translate(194.79 563.79)"><tspan class="cls-20">T</tspan><tspan x="43.38" y="0">ransport</tspan></text><text class="cls-19" transform="translate(222.61 712.3)">Network</text><text class="cls-19" transform="translate(206.85 860.8)">Data Link</text><text class="cls-19" transform="translate(232.97 1009.31)">Physical</text><text class="cls-22" transform="translate(869.96 234.7)">Header</text><g id="Solid_Left" data-name="Solid Left"><line class="cls-23" x1="1100.63" y1="267.68" x2="986.58" y2="267.68"/><polygon class="cls-24" points="1094.68 258.96 1127.2 267.68 1094.68 276.39 1094.68 258.96"/></g><text class="cls-22" transform="translate(1736.91 846.8)">Footer</text><g id="Solid_Left-2" data-name="Solid Left"><line class="cls-23" x1="1688.99" y1="879.78" x2="1803.04" y2="879.78"/><polygon class="cls-24" points="1694.94 888.49 1662.41 879.78 1694.94 871.06 1694.94 888.49"/></g></g></svg>