<?xml version="1.0" encoding="utf-8"?>
<!-- Generator: Adobe Illustrator 26.0.1, SVG Export Plug-In . SVG Version: 6.00 Build 0)  -->
<svg version="1.1" xmlns="http://www.w3.org/2000/svg" xmlns:xlink="http://www.w3.org/1999/xlink" x="0px" y="0px" width="1584px"
	 height="1224px" viewBox="0 0 1584 1224" style="enable-background:new 0 0 1584 1224;" xml:space="preserve">
<style type="text/css">
	.st0{fill:none;stroke:#013F58;stroke-width:4;stroke-miterlimit:10;}
	.st1{fill:#FFFFFF;}
	.st2{fill-rule:evenodd;clip-rule:evenodd;fill:#8DC341;}
	.st3{fill-rule:evenodd;clip-rule:evenodd;fill:#007EB1;}
	.st4{fill:#007EB1;}
	.st5{fill:#8CC341;}
	.st6{fill:#8CC341;stroke:#FFFFFF;stroke-width:1.4783;stroke-miterlimit:10;}
	.st7{fill:#00202C;}
	.st8{fill:#FFFFFF;stroke:#013F58;stroke-width:4;stroke-linecap:round;stroke-linejoin:round;stroke-miterlimit:10;}
	.st9{fill:none;stroke:#013F58;stroke-width:4;stroke-linejoin:round;stroke-miterlimit:10;}
	.st10{fill:#424142;}
	.st11{fill:#221F1F;}
</style>
<g id="Layer_1">
	<g>
		<line class="st0" x1="1349.4" y1="85.9" x2="705.4" y2="85.9"/>
	</g>
	<g>
		<line class="st0" x1="707.4" y1="85.9" x2="707.4" y2="235.2"/>
	</g>
	<g>
		<line class="st0" x1="354.8" y1="205.2" x2="354.8" y2="262.2"/>
	</g>
	<g>
		<line class="st0" x1="214.1" y1="206.7" x2="214.1" y2="901.9"/>
	</g>
	<g>
		<line class="st0" x1="493.8" y1="205.2" x2="493.8" y2="901.9"/>
	</g>
	<rect x="143.5" y="386" class="st1" width="133.1" height="176.5"/>
	<rect x="425.9" y="386" class="st1" width="133.1" height="176.5"/>
	<rect x="143.5" y="603.2" class="st1" width="133.1" height="176.5"/>
	<rect x="425.9" y="603.2" class="st1" width="133.1" height="176.5"/>
	<g>
		<polyline class="st0" points="211.9,206.7 667.6,206.7 667.6,429.4 1301.3,429.4 		"/>
	</g>
	<path class="st2" d="M249.2,533.6h8.7c0.6,0,1.1,0.4,1.1,1v7.7c0,0.5-0.5,1-1.1,1h-8.7c-0.6,0-1.1-0.4-1.1-1v-7.7
		C248,534.1,248.5,533.6,249.2,533.6L249.2,533.6z M155.8,522.5c-1.2,0-2.2,0.9-2.2,2v28.1c0,1.1,1,2,2.2,2h111.2
		c1.2,0,2.2-0.9,2.2-2v-28.1c0-1.1-1-2-2.2-2H155.8L155.8,522.5z M249.2,494h8.7c0.6,0,1.1,0.4,1.1,1v7.7c0,0.5-0.5,1-1.1,1h-8.7
		c-0.6,0-1.1-0.4-1.1-1V495C248,494.4,248.5,494,249.2,494L249.2,494z M155.8,482.8c-1.2,0-2.2,0.9-2.2,2v28.1c0,1.1,1,2,2.2,2
		h111.2c1.2,0,2.2-0.9,2.2-2v-28.1c0-1.1-1-2-2.2-2H155.8L155.8,482.8z M249.2,454.3h8.7c0.6,0,1.1,0.4,1.1,1v7.7c0,0.5-0.5,1-1.1,1
		h-8.7c-0.6,0-1.1-0.4-1.1-1v-7.7C248,454.8,248.5,454.3,249.2,454.3L249.2,454.3z M155.8,443.2c-1.2,0-2.2,0.9-2.2,2v28.1
		c0,1.1,1,2,2.2,2h111.2c1.2,0,2.2-0.9,2.2-2v-28.1c0-1.1-1-2-2.2-2H155.8L155.8,443.2z M249.2,414.7h8.7c0.6,0,1.1,0.4,1.1,1v7.7
		c0,0.5-0.5,1-1.1,1h-8.7c-0.6,0-1.1-0.4-1.1-1v-7.7C248,415.1,248.5,414.7,249.2,414.7L249.2,414.7z M155.8,403.5
		c-1.2,0-2.2,0.9-2.2,2v28.1c0,1.1,1,2,2.2,2h111.2c1.2,0,2.2-0.9,2.2-2v-28.1c0-1.1-1-2-2.2-2H155.8L155.8,403.5z M153.8,388.7
		c-8,0-14.5,6.5-14.5,14.5v151.7c0,8,6.5,14.5,14.5,14.5h3.9c0.5,5.8,5.3,10.3,11.2,10.3c5.9,0,10.7-4.5,11.2-10.3h62.3
		c0.5,5.8,5.3,10.3,11.2,10.3c5.9,0,10.7-4.5,11.2-10.3h3.9c8,0,14.5-6.5,14.5-14.5V403.1c0-8-6.5-14.5-14.5-14.5H153.8L153.8,388.7
		z M268.9,397.2H153.8c-3.3,0-6,2.7-6,6v151.7c0,3.3,2.7,6,6,6h115.1c3.3,0,6-2.7,6-6V403.1C274.8,399.9,272.1,397.2,268.9,397.2z"
		/>
	<path class="st2" d="M249.2,745.7h8.7c0.6,0,1.1,0.4,1.1,1v7.7c0,0.5-0.5,1-1.1,1h-8.7c-0.6,0-1.1-0.4-1.1-1v-7.7
		C248,746.1,248.5,745.7,249.2,745.7L249.2,745.7z M155.8,734.5c-1.2,0-2.2,0.9-2.2,2v28.1c0,1.1,1,2,2.2,2h111.2
		c1.2,0,2.2-0.9,2.2-2v-28.1c0-1.1-1-2-2.2-2H155.8L155.8,734.5z M249.2,706h8.7c0.6,0,1.1,0.4,1.1,1v7.7c0,0.5-0.5,1-1.1,1h-8.7
		c-0.6,0-1.1-0.4-1.1-1V707C248,706.5,248.5,706,249.2,706L249.2,706z M155.8,694.9c-1.2,0-2.2,0.9-2.2,2v28.1c0,1.1,1,2,2.2,2
		h111.2c1.2,0,2.2-0.9,2.2-2v-28.1c0-1.1-1-2-2.2-2H155.8L155.8,694.9z M249.2,666.4h8.7c0.6,0,1.1,0.4,1.1,1v7.7c0,0.5-0.5,1-1.1,1
		h-8.7c-0.6,0-1.1-0.4-1.1-1v-7.7C248,666.8,248.5,666.4,249.2,666.4L249.2,666.4z M155.8,655.2c-1.2,0-2.2,0.9-2.2,2v28.1
		c0,1.1,1,2,2.2,2h111.2c1.2,0,2.2-0.9,2.2-2v-28.1c0-1.1-1-2-2.2-2H155.8L155.8,655.2z M249.2,626.7h8.7c0.6,0,1.1,0.4,1.1,1v7.7
		c0,0.5-0.5,1-1.1,1h-8.7c-0.6,0-1.1-0.4-1.1-1v-7.7C248,627.2,248.5,626.7,249.2,626.7L249.2,626.7z M155.8,615.6
		c-1.2,0-2.2,0.9-2.2,2v28.1c0,1.1,1,2,2.2,2h111.2c1.2,0,2.2-0.9,2.2-2v-28.1c0-1.1-1-2-2.2-2H155.8L155.8,615.6z M153.8,600.7
		c-8,0-14.5,6.5-14.5,14.5V767c0,8,6.5,14.5,14.5,14.5h3.9c0.5,5.8,5.3,10.3,11.2,10.3c5.9,0,10.7-4.5,11.2-10.3h62.3
		c0.5,5.8,5.3,10.3,11.2,10.3c5.9,0,10.7-4.5,11.2-10.3h3.9c8,0,14.5-6.5,14.5-14.5V615.2c0-8-6.5-14.5-14.5-14.5H153.8L153.8,600.7
		z M268.9,609.3H153.8c-3.3,0-6,2.7-6,6V767c0,3.3,2.7,6,6,6h115.1c3.3,0,6-2.7,6-6V615.2C274.8,611.9,272.1,609.3,268.9,609.3z"/>
	<path class="st2" d="M532.2,533.6h8.7c0.6,0,1.1,0.4,1.1,1v7.7c0,0.5-0.5,1-1.1,1h-8.7c-0.6,0-1.1-0.4-1.1-1v-7.7
		C531.1,534.1,531.6,533.6,532.2,533.6L532.2,533.6z M438.8,522.5c-1.2,0-2.2,0.9-2.2,2v28.1c0,1.1,1,2,2.2,2H550
		c1.2,0,2.2-0.9,2.2-2v-28.1c0-1.1-1-2-2.2-2H438.8L438.8,522.5z M532.2,494h8.7c0.6,0,1.1,0.4,1.1,1v7.7c0,0.5-0.5,1-1.1,1h-8.7
		c-0.6,0-1.1-0.4-1.1-1V495C531.1,494.4,531.6,494,532.2,494L532.2,494z M438.8,482.8c-1.2,0-2.2,0.9-2.2,2v28.1c0,1.1,1,2,2.2,2
		H550c1.2,0,2.2-0.9,2.2-2v-28.1c0-1.1-1-2-2.2-2H438.8L438.8,482.8z M532.2,454.3h8.7c0.6,0,1.1,0.4,1.1,1v7.7c0,0.5-0.5,1-1.1,1
		h-8.7c-0.6,0-1.1-0.4-1.1-1v-7.7C531.1,454.8,531.6,454.3,532.2,454.3L532.2,454.3z M438.8,443.2c-1.2,0-2.2,0.9-2.2,2v28.1
		c0,1.1,1,2,2.2,2H550c1.2,0,2.2-0.9,2.2-2v-28.1c0-1.1-1-2-2.2-2H438.8L438.8,443.2z M532.2,414.7h8.7c0.6,0,1.1,0.4,1.1,1v7.7
		c0,0.5-0.5,1-1.1,1h-8.7c-0.6,0-1.1-0.4-1.1-1v-7.7C531.1,415.1,531.6,414.7,532.2,414.7L532.2,414.7z M438.8,403.5
		c-1.2,0-2.2,0.9-2.2,2v28.1c0,1.1,1,2,2.2,2H550c1.2,0,2.2-0.9,2.2-2v-28.1c0-1.1-1-2-2.2-2H438.8L438.8,403.5z M436.9,388.7
		c-8,0-14.5,6.5-14.5,14.5v151.7c0,8,6.5,14.5,14.5,14.5h3.9c0.5,5.8,5.3,10.3,11.2,10.3c5.9,0,10.7-4.5,11.2-10.3h62.3
		c0.5,5.8,5.3,10.3,11.2,10.3c5.9,0,10.7-4.5,11.2-10.3h3.9c8,0,14.5-6.5,14.5-14.5V403.1c0-8-6.5-14.5-14.5-14.5H436.9L436.9,388.7
		z M551.9,397.2H436.9c-3.3,0-6,2.7-6,6v151.7c0,3.3,2.7,6,6,6h115.1c3.3,0,6-2.7,6-6V403.1C557.9,399.9,555.2,397.2,551.9,397.2z"
		/>
	<path class="st2" d="M532.2,745.7h8.7c0.6,0,1.1,0.4,1.1,1v7.7c0,0.5-0.5,1-1.1,1h-8.7c-0.6,0-1.1-0.4-1.1-1v-7.7
		C531.1,746.1,531.6,745.7,532.2,745.7L532.2,745.7z M438.8,734.5c-1.2,0-2.2,0.9-2.2,2v28.1c0,1.1,1,2,2.2,2H550
		c1.2,0,2.2-0.9,2.2-2v-28.1c0-1.1-1-2-2.2-2H438.8L438.8,734.5z M532.2,706h8.7c0.6,0,1.1,0.4,1.1,1v7.7c0,0.5-0.5,1-1.1,1h-8.7
		c-0.6,0-1.1-0.4-1.1-1V707C531.1,706.5,531.6,706,532.2,706L532.2,706z M438.8,694.9c-1.2,0-2.2,0.9-2.2,2v28.1c0,1.1,1,2,2.2,2
		H550c1.2,0,2.2-0.9,2.2-2v-28.1c0-1.1-1-2-2.2-2H438.8L438.8,694.9z M532.2,666.4h8.7c0.6,0,1.1,0.4,1.1,1v7.7c0,0.5-0.5,1-1.1,1
		h-8.7c-0.6,0-1.1-0.4-1.1-1v-7.7C531.1,666.8,531.6,666.4,532.2,666.4L532.2,666.4z M438.8,655.2c-1.2,0-2.2,0.9-2.2,2v28.1
		c0,1.1,1,2,2.2,2H550c1.2,0,2.2-0.9,2.2-2v-28.1c0-1.1-1-2-2.2-2H438.8L438.8,655.2z M532.2,626.7h8.7c0.6,0,1.1,0.4,1.1,1v7.7
		c0,0.5-0.5,1-1.1,1h-8.7c-0.6,0-1.1-0.4-1.1-1v-7.7C531.1,627.2,531.6,626.7,532.2,626.7L532.2,626.7z M438.8,615.6
		c-1.2,0-2.2,0.9-2.2,2v28.1c0,1.1,1,2,2.2,2H550c1.2,0,2.2-0.9,2.2-2v-28.1c0-1.1-1-2-2.2-2H438.8L438.8,615.6z M436.9,600.7
		c-8,0-14.5,6.5-14.5,14.5V767c0,8,6.5,14.5,14.5,14.5h3.9c0.5,5.8,5.3,10.3,11.2,10.3c5.9,0,10.7-4.5,11.2-10.3h62.3
		c0.5,5.8,5.3,10.3,11.2,10.3c5.9,0,10.7-4.5,11.2-10.3h3.9c8,0,14.5-6.5,14.5-14.5V615.2c0-8-6.5-14.5-14.5-14.5H436.9L436.9,600.7
		z M551.9,609.3H436.9c-3.3,0-6,2.7-6,6V767c0,3.3,2.7,6,6,6h115.1c3.3,0,6-2.7,6-6V615.2C557.9,611.9,555.2,609.3,551.9,609.3z"/>
	<polygon class="st3" points="1436.7,147 1237.7,147 1194.9,84.5 1237.7,24.8 1436.7,24.8 	"/>
	<g>
		<g>
			<path class="st1" d="M1299.6,71.6c0,1.5-0.3,2.9-0.8,4.1c-0.5,1.2-1.2,2.2-2.1,3.1c-0.9,0.8-2,1.5-3.2,2s-2.6,0.7-4,0.7
				c-1.4,0-2.8-0.2-4-0.7s-2.3-1.1-3.2-2s-1.6-1.9-2.1-3.1c-0.5-1.2-0.8-2.6-0.8-4.1V55.8h4.5v15.7c0,0.6,0.1,1.3,0.3,1.9
				c0.2,0.7,0.5,1.3,0.9,1.9c0.4,0.6,1,1,1.7,1.4c0.7,0.4,1.6,0.5,2.7,0.5s2-0.2,2.7-0.5c0.7-0.4,1.3-0.8,1.7-1.4
				c0.4-0.6,0.7-1.2,0.9-1.9s0.3-1.3,0.3-1.9V55.8h4.5V71.6z"/>
			<path class="st1" d="M1304.2,67.4v-3.6h3.5v-4.9h4.2v4.9h4.7v3.6h-4.7v7.4c0,0.8,0.2,1.5,0.5,2c0.3,0.5,0.9,0.7,1.9,0.7
				c0.4,0,0.8,0,1.2-0.1c0.4-0.1,0.8-0.2,1.1-0.4v3.6c-0.4,0.2-1,0.4-1.6,0.4c-0.6,0.1-1.2,0.1-1.7,0.1c-1.1,0-2.1-0.1-2.8-0.4
				c-0.7-0.2-1.3-0.6-1.7-1.1s-0.7-1.1-0.8-1.9c-0.2-0.8-0.2-1.6-0.2-2.6v-7.8H1304.2z"/>
			<path class="st1" d="M1320.8,58.1c0-0.7,0.3-1.3,0.8-1.8c0.5-0.5,1.1-0.8,1.9-0.8c0.8,0,1.4,0.2,2,0.7c0.5,0.5,0.8,1.1,0.8,1.8
				c0,0.7-0.3,1.3-0.8,1.8c-0.5,0.5-1.2,0.7-2,0.7c-0.8,0-1.4-0.3-1.9-0.8C1321.1,59.3,1320.8,58.8,1320.8,58.1z M1321.4,63.8h4.2
				v17h-4.2V63.8z"/>
			<path class="st1" d="M1332,54.1h4.2v26.8h-4.2V54.1z"/>
			<path class="st1" d="M1342.1,58.1c0-0.7,0.3-1.3,0.8-1.8c0.5-0.5,1.1-0.8,1.9-0.8c0.8,0,1.4,0.2,2,0.7c0.5,0.5,0.8,1.1,0.8,1.8
				c0,0.7-0.3,1.3-0.8,1.8c-0.5,0.5-1.2,0.7-2,0.7c-0.8,0-1.4-0.3-1.9-0.8C1342.3,59.3,1342.1,58.8,1342.1,58.1z M1342.7,63.8h4.2
				v17h-4.2V63.8z"/>
			<path class="st1" d="M1351.2,67.4v-3.6h3.5v-4.9h4.2v4.9h4.7v3.6h-4.7v7.4c0,0.8,0.2,1.5,0.5,2c0.3,0.5,0.9,0.7,1.9,0.7
				c0.4,0,0.8,0,1.2-0.1c0.4-0.1,0.8-0.2,1.1-0.4v3.6c-0.4,0.2-1,0.4-1.6,0.4c-0.6,0.1-1.2,0.1-1.7,0.1c-1.1,0-2.1-0.1-2.8-0.4
				c-0.7-0.2-1.3-0.6-1.7-1.1c-0.4-0.5-0.7-1.1-0.8-1.9c-0.2-0.8-0.2-1.6-0.2-2.6v-7.8H1351.2z"/>
			<path class="st1" d="M1366.1,63.8h4.7l4.7,11.8h0.1l4.2-11.8h4.4l-8,20.6c-0.3,0.8-0.6,1.5-1,2.1c-0.4,0.6-0.8,1.1-1.3,1.5
				c-0.5,0.4-1.1,0.7-1.8,0.9c-0.7,0.2-1.5,0.3-2.4,0.3c-1.1,0-2.2-0.1-3.3-0.4l0.5-3.8c0.3,0.1,0.7,0.2,1,0.3
				c0.4,0.1,0.7,0.1,1.1,0.1c0.5,0,1,0,1.3-0.1c0.4-0.1,0.7-0.2,0.9-0.4c0.2-0.2,0.5-0.5,0.6-0.8s0.3-0.7,0.5-1.1l0.8-2L1366.1,63.8
				z"/>
			<path class="st1" d="M1277.8,93.9h8.4c1.2,0,2.4,0.1,3.5,0.4c1.1,0.2,2.1,0.6,3,1.2c0.8,0.6,1.5,1.3,2,2.2
				c0.5,0.9,0.8,2.1,0.8,3.5c0,1.6-0.3,2.9-0.8,3.8c-0.5,1-1.3,1.7-2.2,2.2s-2,0.9-3.2,1.1c-1.2,0.2-2.5,0.3-3.8,0.3h-3.2v10.4h-4.5
				V93.9z M1285,104.7c0.6,0,1.3,0,2-0.1c0.7,0,1.3-0.2,1.9-0.4c0.6-0.2,1-0.6,1.4-1.1c0.4-0.5,0.5-1.1,0.5-2c0-0.8-0.2-1.4-0.5-1.9
				s-0.8-0.8-1.3-1.1c-0.5-0.2-1.1-0.4-1.7-0.5c-0.6-0.1-1.2-0.1-1.8-0.1h-3.2v7H1285z"/>
			<path class="st1" d="M1299.6,110.4c0-1.3,0.2-2.6,0.7-3.7c0.5-1.1,1.1-2,2-2.8c0.8-0.8,1.8-1.4,2.9-1.8c1.1-0.4,2.3-0.6,3.6-0.6
				c1.3,0,2.5,0.2,3.6,0.6s2.1,1,2.9,1.8c0.8,0.8,1.5,1.7,2,2.8c0.5,1.1,0.7,2.3,0.7,3.7c0,1.3-0.2,2.6-0.7,3.7
				c-0.5,1.1-1.1,2-2,2.8c-0.8,0.8-1.8,1.4-2.9,1.8s-2.3,0.6-3.6,0.6c-1.3,0-2.5-0.2-3.6-0.6c-1.1-0.4-2.1-1-2.9-1.8
				c-0.8-0.8-1.5-1.7-2-2.8C1299.8,113,1299.6,111.8,1299.6,110.4z M1303.9,110.4c0,0.7,0.1,1.3,0.3,1.9c0.2,0.6,0.6,1.2,1,1.6
				c0.4,0.5,1,0.8,1.6,1.1c0.6,0.3,1.3,0.4,2.1,0.4s1.5-0.1,2.1-0.4c0.6-0.3,1.1-0.7,1.6-1.1c0.4-0.5,0.8-1,1-1.6
				c0.2-0.6,0.3-1.2,0.3-1.9s-0.1-1.3-0.3-1.9c-0.2-0.6-0.6-1.2-1-1.6c-0.4-0.5-1-0.8-1.6-1.1c-0.6-0.3-1.3-0.4-2.1-0.4
				s-1.5,0.1-2.1,0.4c-0.6,0.3-1.1,0.7-1.6,1.1c-0.4,0.5-0.8,1-1,1.6C1304,109.1,1303.9,109.8,1303.9,110.4z"/>
			<path class="st1" d="M1321.2,101.9h4.6l3.7,11.9h0.1l3.4-11.9h4.6l3.7,11.9h0.1l3.5-11.9h4.3l-5.8,17h-4.2l-4-11.6h-0.1
				l-3.6,11.6h-4.4L1321.2,101.9z"/>
			<path class="st1" d="M1356.4,111.9c0.1,1.3,0.6,2.3,1.5,3c0.8,0.7,1.9,1.1,3.1,1.1c1.1,0,2-0.2,2.7-0.7s1.4-1,1.9-1.6l3,2.3
				c-1,1.2-2.1,2.1-3.3,2.6s-2.5,0.8-3.9,0.8c-1.3,0-2.5-0.2-3.6-0.6s-2.1-1-2.9-1.8s-1.5-1.7-2-2.8c-0.5-1.1-0.7-2.3-0.7-3.7
				c0-1.3,0.2-2.6,0.7-3.7c0.5-1.1,1.1-2,2-2.8s1.8-1.4,2.9-1.8s2.3-0.6,3.6-0.6c1.2,0,2.3,0.2,3.2,0.6c1,0.4,1.8,1,2.5,1.8
				c0.7,0.8,1.2,1.7,1.6,2.9c0.4,1.1,0.6,2.5,0.6,3.9v1.2H1356.4z M1365.1,108.7c0-1.3-0.4-2.2-1.2-3c-0.8-0.7-1.8-1.1-3.1-1.1
				c-1.3,0-2.3,0.4-3,1.1c-0.7,0.7-1.2,1.7-1.4,2.9H1365.1z"/>
			<path class="st1" d="M1374.8,101.9h4.2v2.7h0.1c0.5-1,1.1-1.8,2-2.3c0.9-0.5,1.9-0.8,3-0.8c0.3,0,0.5,0,0.8,0.1
				c0.2,0,0.5,0.1,0.8,0.2v4.1c-0.4-0.1-0.7-0.2-1-0.2c-0.3-0.1-0.7-0.1-1-0.1c-1,0-1.8,0.2-2.4,0.5s-1.1,0.8-1.4,1.3
				c-0.3,0.5-0.5,0.9-0.6,1.4c-0.1,0.5-0.2,0.8-0.2,1.1v9.1h-4.2V101.9z"/>
		</g>
	</g>
	<path class="st4" d="M446.8,334.4H262.7c-2.4,0-4.4-2-4.4-4.4v-80.9c0-2.4,2-4.4,4.4-4.4h184.1c2.4,0,4.4,2,4.4,4.4V330
		C451.2,332.4,449.2,334.4,446.8,334.4z"/>
	<path class="st4" d="M1190.5,472h-184.1c-2.4,0-4.4-2-4.4-4.4v-80.9c0-2.4,2-4.4,4.4-4.4h184.1c2.4,0,4.4,2,4.4,4.4v80.9
		C1194.9,470,1192.9,472,1190.5,472z"/>
	<g>
		<g>
			<rect x="1280.8" y="363.6" class="st5" width="137.2" height="127.2"/>
			<path class="st5" d="M1418.9,488.5c0,11.4-30.9,20.6-69.1,20.6c-38.2,0-69.1-9.2-69.1-20.6c0-11.4,30.9-74.6,69.1-74.6
				C1388,414,1418.9,477.2,1418.9,488.5z"/>
		</g>
		<ellipse class="st6" cx="1349.8" cy="364.1" rx="69.1" ry="20.6"/>
	</g>
	<g>
		<path class="st7" d="M842.9,379.9v-6c0-0.7-0.6-1.2-1.4-1.2h-60.6c-0.8,0-1.4,0.6-1.4,1.2v6H842.9z"/>
		<path class="st7" d="M958.5,385.8v88.9h6.6c0.8,0,1.4-0.6,1.4-1.2v-86.4c0-0.7-0.6-1.2-1.4-1.2H958.5z"/>
		<path class="st7" d="M770.4,480.6v7c0,0.7,0.6,1.2,1.4,1.2h164.9c0.8,0,1.4-0.6,1.4-1.2v-7H770.4z"/>
		<path class="st7" d="M940.9,381v-37.3h-76.7V381H752.7c-0.8,0-1.4,0.6-1.4,1.2v95.9c0,0.7,0.6,1.2,1.4,1.2h203.1
			c0.8,0,1.4-0.6,1.4-1.2v-95.9c0-0.7-0.6-1.2-1.4-1.2H940.9z M886.6,472.8h-38v-2.5h38V472.8z M886.6,466.4h-38v-2.5h38V466.4z
			 M886.6,460h-38v-2.5h38V460z M944.1,472.8h-38v-2.5h38V472.8z M944.1,466.4h-38v-2.5h38V466.4z M944.1,460h-38v-2.5h38V460z"/>
	</g>
	<path class="st1" d="M888.3,404.6l13.8-22.9h-17.6l15.8-29.5h16l-16.7,24.4h18.7L888.3,404.6z"/>
	<g>
		<line class="st0" x1="354.8" y1="900.1" x2="354.8" y2="955.4"/>
	</g>
	<g>
		<polyline class="st0" points="211.9,901.1 667.6,901.1 667.6,1123.7 1301.3,1123.7 		"/>
	</g>
	<path class="st4" d="M446.8,1028.7H262.7c-2.4,0-4.4-2-4.4-4.4v-80.9c0-2.4,2-4.4,4.4-4.4h184.1c2.4,0,4.4,2,4.4,4.4v80.9
		C451.2,1026.7,449.2,1028.7,446.8,1028.7z"/>
	<path class="st4" d="M1190.5,1166.3h-184.1c-2.4,0-4.4-2-4.4-4.4V1081c0-2.4,2-4.4,4.4-4.4h184.1c2.4,0,4.4,2,4.4,4.4v80.9
		C1194.9,1164.3,1192.9,1166.3,1190.5,1166.3z"/>
	<g>
		<g>
			<rect x="1280.8" y="1057.9" class="st5" width="137.2" height="127.2"/>
			<path class="st5" d="M1418.9,1182.9c0,11.4-30.9,20.6-69.1,20.6c-38.2,0-69.1-9.2-69.1-20.6c0-11.4,30.9-74.6,69.1-74.6
				C1388,1108.3,1418.9,1171.5,1418.9,1182.9z"/>
		</g>
		<ellipse class="st6" cx="1349.8" cy="1058.4" rx="69.1" ry="20.6"/>
	</g>
	<g>
		<path class="st7" d="M842.9,1074.2v-6c0-0.7-0.6-1.2-1.4-1.2h-60.6c-0.8,0-1.4,0.6-1.4,1.2v6H842.9z"/>
		<path class="st7" d="M958.5,1080.1v88.9h6.6c0.8,0,1.4-0.6,1.4-1.2v-86.4c0-0.7-0.6-1.2-1.4-1.2H958.5z"/>
		<path class="st7" d="M770.4,1174.9v7c0,0.7,0.6,1.2,1.4,1.2h164.9c0.8,0,1.4-0.6,1.4-1.2v-7H770.4z"/>
		<path class="st7" d="M940.9,1075.4V1038h-76.7v37.3H752.7c-0.8,0-1.4,0.6-1.4,1.2v95.9c0,0.7,0.6,1.2,1.4,1.2h203.1
			c0.8,0,1.4-0.6,1.4-1.2v-95.9c0-0.7-0.6-1.2-1.4-1.2H940.9z M886.6,1167.1h-38v-2.5h38V1167.1z M886.6,1160.7h-38v-2.5h38V1160.7z
			 M886.6,1154.3h-38v-2.5h38V1154.3z M944.1,1167.1h-38v-2.5h38V1167.1z M944.1,1160.7h-38v-2.5h38V1160.7z M944.1,1154.3h-38v-2.5
			h38V1154.3z"/>
	</g>
	<path class="st1" d="M888.3,1098.9l13.8-22.9h-17.6l15.8-29.5h16l-16.7,24.4h18.7L888.3,1098.9z"/>
	<g>
		<rect x="616.5" y="236.7" class="st8" width="102.8" height="133.5"/>
		<polyline class="st9" points="676.8,370.3 676.8,298 622.5,249.9 		"/>
	</g>
	<g>
		<rect x="616.5" y="931.7" class="st8" width="102.8" height="133.5"/>
		<polyline class="st9" points="676.8,1065.2 676.8,993 622.5,944.8 		"/>
	</g>
	<g>
		<line class="st0" x1="1349.4" y1="778.9" x2="705.4" y2="778.9"/>
	</g>
	<g>
		<line class="st0" x1="707.4" y1="778.9" x2="707.4" y2="928.2"/>
	</g>
	<polygon class="st3" points="1436.7,840 1237.7,840 1194.9,777.5 1237.7,717.8 1436.7,717.8 	"/>
</g>
<g id="text">
	<g>
		<g>
			<path class="st1" d="M1299.6,764.6c0,1.5-0.3,2.9-0.8,4.1c-0.5,1.2-1.2,2.2-2.1,3.1c-0.9,0.8-2,1.5-3.2,2s-2.6,0.7-4,0.7
				c-1.4,0-2.8-0.2-4-0.7s-2.3-1.1-3.2-2c-0.9-0.8-1.6-1.9-2.1-3.1c-0.5-1.2-0.8-2.6-0.8-4.1v-15.9h4.5v15.7c0,0.6,0.1,1.3,0.3,1.9
				c0.2,0.7,0.5,1.3,0.9,1.9c0.4,0.6,1,1,1.7,1.4c0.7,0.4,1.6,0.5,2.7,0.5s2-0.2,2.7-0.5c0.7-0.4,1.3-0.8,1.7-1.4
				c0.4-0.6,0.7-1.2,0.9-1.9c0.2-0.7,0.3-1.3,0.3-1.9v-15.7h4.5V764.6z"/>
			<path class="st1" d="M1304.2,760.4v-3.6h3.5v-4.9h4.2v4.9h4.7v3.6h-4.7v7.4c0,0.8,0.2,1.5,0.5,2c0.3,0.5,0.9,0.7,1.9,0.7
				c0.4,0,0.8,0,1.2-0.1c0.4-0.1,0.8-0.2,1.1-0.4v3.6c-0.4,0.2-1,0.4-1.6,0.4c-0.6,0.1-1.2,0.1-1.7,0.1c-1.1,0-2.1-0.1-2.8-0.4
				c-0.7-0.2-1.3-0.6-1.7-1.1c-0.4-0.5-0.7-1.1-0.8-1.9c-0.2-0.8-0.2-1.6-0.2-2.6v-7.8H1304.2z"/>
			<path class="st1" d="M1320.8,751c0-0.7,0.3-1.3,0.8-1.8c0.5-0.5,1.1-0.8,1.9-0.8c0.8,0,1.4,0.2,2,0.7c0.5,0.5,0.8,1.1,0.8,1.8
				s-0.3,1.3-0.8,1.8c-0.5,0.5-1.2,0.7-2,0.7c-0.8,0-1.4-0.3-1.9-0.8C1321.1,752.3,1320.8,751.7,1320.8,751z M1321.4,756.8h4.2v17
				h-4.2V756.8z"/>
			<path class="st1" d="M1332,747.1h4.2v26.8h-4.2V747.1z"/>
			<path class="st1" d="M1342.1,751c0-0.7,0.3-1.3,0.8-1.8c0.5-0.5,1.1-0.8,1.9-0.8c0.8,0,1.4,0.2,2,0.7c0.5,0.5,0.8,1.1,0.8,1.8
				s-0.3,1.3-0.8,1.8c-0.5,0.5-1.2,0.7-2,0.7c-0.8,0-1.4-0.3-1.9-0.8C1342.3,752.3,1342.1,751.7,1342.1,751z M1342.7,756.8h4.2v17
				h-4.2V756.8z"/>
			<path class="st1" d="M1351.2,760.4v-3.6h3.5v-4.9h4.2v4.9h4.7v3.6h-4.7v7.4c0,0.8,0.2,1.5,0.5,2c0.3,0.5,0.9,0.7,1.9,0.7
				c0.4,0,0.8,0,1.2-0.1c0.4-0.1,0.8-0.2,1.1-0.4v3.6c-0.4,0.2-1,0.4-1.6,0.4c-0.6,0.1-1.2,0.1-1.7,0.1c-1.1,0-2.1-0.1-2.8-0.4
				c-0.7-0.2-1.3-0.6-1.7-1.1c-0.4-0.5-0.7-1.1-0.8-1.9c-0.2-0.8-0.2-1.6-0.2-2.6v-7.8H1351.2z"/>
			<path class="st1" d="M1366.1,756.8h4.7l4.7,11.8h0.1l4.2-11.8h4.4l-8,20.6c-0.3,0.8-0.6,1.5-1,2.1c-0.4,0.6-0.8,1.1-1.3,1.5
				s-1.1,0.7-1.8,0.9c-0.7,0.2-1.5,0.3-2.4,0.3c-1.1,0-2.2-0.1-3.3-0.4l0.5-3.8c0.3,0.1,0.7,0.2,1,0.3c0.4,0.1,0.7,0.1,1.1,0.1
				c0.5,0,1,0,1.3-0.1c0.4-0.1,0.7-0.2,0.9-0.4s0.5-0.5,0.6-0.8s0.3-0.7,0.5-1.2l0.8-2L1366.1,756.8z"/>
			<path class="st1" d="M1277.8,786.9h8.4c1.2,0,2.4,0.1,3.5,0.4c1.1,0.2,2.1,0.6,3,1.2c0.8,0.6,1.5,1.3,2,2.2
				c0.5,0.9,0.8,2.1,0.8,3.5c0,1.6-0.3,2.9-0.8,3.8c-0.5,1-1.3,1.7-2.2,2.2c-0.9,0.5-2,0.9-3.2,1.1s-2.5,0.3-3.8,0.3h-3.2v10.4h-4.5
				V786.9z M1285,797.7c0.6,0,1.3,0,2-0.1c0.7,0,1.3-0.2,1.9-0.4c0.6-0.2,1-0.6,1.4-1.1c0.4-0.5,0.5-1.1,0.5-2
				c0-0.8-0.2-1.4-0.5-1.9s-0.8-0.8-1.3-1.1c-0.5-0.2-1.1-0.4-1.7-0.5c-0.6-0.1-1.2-0.1-1.8-0.1h-3.2v7H1285z"/>
			<path class="st1" d="M1299.6,803.4c0-1.3,0.2-2.6,0.7-3.7c0.5-1.1,1.1-2,2-2.8c0.8-0.8,1.8-1.4,2.9-1.8c1.1-0.4,2.3-0.6,3.6-0.6
				c1.3,0,2.5,0.2,3.6,0.6s2.1,1,2.9,1.8c0.8,0.8,1.5,1.7,2,2.8c0.5,1.1,0.7,2.3,0.7,3.7s-0.2,2.6-0.7,3.7c-0.5,1.1-1.1,2-2,2.8
				c-0.8,0.8-1.8,1.4-2.9,1.8s-2.3,0.6-3.6,0.6c-1.3,0-2.5-0.2-3.6-0.6c-1.1-0.4-2.1-1-2.9-1.8c-0.8-0.8-1.5-1.7-2-2.8
				C1299.8,806,1299.6,804.8,1299.6,803.4z M1303.9,803.4c0,0.7,0.1,1.3,0.3,1.9c0.2,0.6,0.6,1.2,1,1.6s1,0.8,1.6,1.1
				c0.6,0.3,1.3,0.4,2.1,0.4s1.5-0.1,2.1-0.4c0.6-0.3,1.1-0.7,1.6-1.1c0.4-0.5,0.8-1,1-1.6s0.3-1.2,0.3-1.9c0-0.7-0.1-1.3-0.3-1.9
				c-0.2-0.6-0.6-1.2-1-1.6c-0.4-0.5-1-0.8-1.6-1.1c-0.6-0.3-1.3-0.4-2.1-0.4s-1.5,0.1-2.1,0.4c-0.6,0.3-1.1,0.7-1.6,1.1
				c-0.4,0.5-0.8,1-1,1.6C1304,802.1,1303.9,802.8,1303.9,803.4z"/>
			<path class="st1" d="M1321.2,794.9h4.6l3.7,11.9h0.1l3.4-11.9h4.6l3.7,11.9h0.1l3.5-11.9h4.3l-5.8,17h-4.2l-4-11.6h-0.1
				l-3.6,11.6h-4.4L1321.2,794.9z"/>
			<path class="st1" d="M1356.4,804.9c0.1,1.3,0.6,2.3,1.5,3c0.8,0.7,1.9,1.1,3.1,1.1c1.1,0,2-0.2,2.7-0.7s1.4-1,1.9-1.6l3,2.3
				c-1,1.2-2.1,2.1-3.3,2.6s-2.5,0.8-3.9,0.8c-1.3,0-2.5-0.2-3.6-0.6s-2.1-1-2.9-1.8s-1.5-1.7-2-2.8c-0.5-1.1-0.7-2.3-0.7-3.7
				s0.2-2.6,0.7-3.7c0.5-1.1,1.1-2,2-2.8s1.8-1.4,2.9-1.8s2.3-0.6,3.6-0.6c1.2,0,2.3,0.2,3.2,0.6c1,0.4,1.8,1,2.5,1.8
				c0.7,0.8,1.2,1.7,1.6,2.9c0.4,1.1,0.6,2.5,0.6,3.9v1.2H1356.4z M1365.1,801.7c0-1.3-0.4-2.2-1.2-3s-1.8-1.1-3.1-1.1
				c-1.3,0-2.3,0.4-3,1.1c-0.7,0.7-1.2,1.7-1.4,2.9H1365.1z"/>
			<path class="st1" d="M1374.8,794.9h4.2v2.7h0.1c0.5-1,1.1-1.8,2-2.3s1.9-0.8,3-0.8c0.3,0,0.5,0,0.8,0.1c0.2,0,0.5,0.1,0.8,0.2
				v4.1c-0.4-0.1-0.7-0.2-1-0.2c-0.3-0.1-0.7-0.1-1-0.1c-1,0-1.8,0.2-2.4,0.5c-0.6,0.4-1.1,0.8-1.4,1.3c-0.3,0.5-0.5,0.9-0.6,1.4
				c-0.1,0.5-0.2,0.8-0.2,1.1v9.1h-4.2V794.9z"/>
		</g>
	</g>
	<g>
		<g>
			<path class="st10" d="M1317.5,426.9h16.2v4H1322v6.6h11v4h-11V452h-4.5V426.9z"/>
			<path class="st10" d="M1354.4,452h-4v-2.7h-0.1c-0.4,0.8-1,1.6-1.8,2.2c-0.8,0.6-1.9,0.9-3.4,0.9c-1.1,0-2.1-0.2-2.9-0.5
				c-0.8-0.4-1.4-0.9-1.9-1.5c-0.5-0.6-0.8-1.3-1.1-2.1c-0.2-0.8-0.3-1.6-0.3-2.5V435h4.2v8.6c0,0.5,0,1,0.1,1.6
				c0,0.6,0.2,1.1,0.4,1.6s0.5,0.9,0.9,1.3c0.4,0.3,1,0.5,1.8,0.5c0.7,0,1.3-0.1,1.8-0.4s0.9-0.6,1.2-1c0.3-0.4,0.5-0.9,0.7-1.4
				s0.2-1.1,0.2-1.6V435h4.2V452z"/>
			<path class="st10" d="M1364,445c0.1,1.3,0.6,2.3,1.5,3c0.8,0.7,1.9,1.1,3.1,1.1c1.1,0,2-0.2,2.7-0.7s1.4-1,1.9-1.6l3,2.3
				c-1,1.2-2.1,2.1-3.3,2.6s-2.5,0.8-3.9,0.8c-1.3,0-2.5-0.2-3.6-0.6s-2.1-1-2.9-1.8s-1.5-1.7-2-2.8c-0.5-1.1-0.7-2.3-0.7-3.7
				c0-1.3,0.2-2.6,0.7-3.7c0.5-1.1,1.1-2,2-2.8s1.8-1.4,2.9-1.8s2.3-0.6,3.6-0.6c1.2,0,2.3,0.2,3.2,0.6c1,0.4,1.8,1,2.5,1.8
				c0.7,0.8,1.2,1.7,1.6,2.9c0.4,1.1,0.6,2.5,0.6,3.9v1.2H1364z M1372.7,441.8c0-1.3-0.4-2.2-1.2-3c-0.8-0.7-1.8-1.1-3.1-1.1
				c-1.3,0-2.3,0.4-3,1.1c-0.7,0.7-1.2,1.7-1.4,2.9H1372.7z"/>
			<path class="st10" d="M1382.4,425.2h4.2V452h-4.2V425.2z"/>
		</g>
	</g>
	<g>
		<g>
			<path class="st1" d="M342.5,988.6c0,1.5-0.3,2.9-0.8,4.1c-0.5,1.2-1.2,2.2-2.1,3.1c-0.9,0.8-2,1.5-3.2,2c-1.2,0.5-2.6,0.7-4,0.7
				c-1.4,0-2.8-0.2-4-0.7s-2.3-1.1-3.2-2c-0.9-0.8-1.6-1.9-2.1-3.1s-0.8-2.6-0.8-4.1v-15.9h4.5v15.7c0,0.6,0.1,1.3,0.3,1.9
				c0.2,0.7,0.5,1.3,0.9,1.9c0.4,0.6,1,1,1.7,1.4c0.7,0.4,1.6,0.5,2.7,0.5s2-0.2,2.7-0.5c0.7-0.4,1.3-0.8,1.7-1.4
				c0.4-0.6,0.7-1.2,0.9-1.9c0.2-0.7,0.3-1.3,0.3-1.9v-15.7h4.5V988.6z"/>
			<path class="st1" d="M349.4,972.8h8.4c1.2,0,2.4,0.1,3.5,0.4c1.1,0.2,2.1,0.6,3,1.2c0.8,0.6,1.5,1.3,2,2.2s0.8,2.1,0.8,3.5
				c0,1.6-0.3,2.9-0.8,3.8c-0.5,1-1.3,1.7-2.2,2.2c-0.9,0.5-2,0.9-3.2,1.1c-1.2,0.2-2.5,0.3-3.8,0.3h-3.2v10.4h-4.5V972.8z
				 M356.5,983.6c0.6,0,1.3,0,2-0.1c0.7,0,1.3-0.2,1.9-0.4c0.6-0.2,1-0.6,1.4-1.1c0.4-0.5,0.5-1.1,0.5-2c0-0.8-0.2-1.4-0.5-1.9
				c-0.3-0.5-0.8-0.8-1.3-1.1c-0.5-0.2-1.1-0.4-1.7-0.5c-0.6-0.1-1.3-0.1-1.8-0.1h-3.2v7H356.5z"/>
			<path class="st1" d="M384.7,978.2c-0.5-0.7-1.1-1.2-1.9-1.5c-0.8-0.3-1.6-0.5-2.5-0.5c-0.5,0-1,0.1-1.5,0.2
				c-0.5,0.1-0.9,0.3-1.3,0.6c-0.4,0.3-0.7,0.6-0.9,1c-0.2,0.4-0.4,0.9-0.4,1.5c0,0.8,0.3,1.5,0.9,1.9c0.6,0.4,1.3,0.8,2.2,1.2
				c0.9,0.3,1.8,0.6,2.9,1s2,0.7,2.9,1.3c0.9,0.5,1.6,1.3,2.2,2.2c0.6,0.9,0.9,2.1,0.9,3.6c0,1.3-0.2,2.5-0.7,3.5
				c-0.5,1-1.2,1.8-2,2.5c-0.8,0.7-1.8,1.2-2.9,1.5s-2.3,0.5-3.5,0.5c-1.6,0-3.1-0.3-4.5-0.8s-2.7-1.4-3.7-2.6l3.4-3.3
				c0.5,0.8,1.3,1.5,2.1,1.9s1.8,0.7,2.8,0.7c0.5,0,1-0.1,1.6-0.2c0.5-0.1,1-0.4,1.4-0.6c0.4-0.3,0.8-0.6,1-1.1
				c0.3-0.4,0.4-0.9,0.4-1.5c0-0.9-0.3-1.6-0.9-2.1c-0.6-0.5-1.3-0.9-2.2-1.3c-0.9-0.3-1.8-0.7-2.9-1c-1-0.3-2-0.7-2.9-1.3
				c-0.9-0.5-1.6-1.2-2.2-2.1c-0.6-0.9-0.9-2.1-0.9-3.6c0-1.3,0.3-2.4,0.8-3.4c0.5-0.9,1.2-1.7,2.1-2.4c0.9-0.6,1.8-1.1,3-1.4
				c1.1-0.3,2.2-0.5,3.4-0.5c1.3,0,2.6,0.2,3.8,0.6c1.2,0.4,2.4,1.1,3.3,2L384.7,978.2z"/>
		</g>
	</g>
	<g>
		<g>
			<path class="st1" d="M789.3,1133.6c-3.1,1.7-6.5,2.5-10.4,2.5c-1.9,0-3.7-0.3-5.3-0.9c-1.6-0.6-3-1.5-4.2-2.7
				c-1.2-1.1-2.1-2.5-2.7-4.1s-1-3.4-1-5.3c0-2,0.3-3.8,1-5.5c0.7-1.6,1.6-3,2.7-4.2c1.2-1.2,2.6-2,4.2-2.7c1.6-0.6,3.4-0.9,5.3-0.9
				c1.9,0,3.7,0.2,5.4,0.7c1.7,0.5,3.2,1.3,4.5,2.5l-3.3,3.3c-0.8-0.8-1.8-1.4-2.9-1.8c-1.1-0.4-2.4-0.6-3.6-0.6
				c-1.3,0-2.5,0.2-3.5,0.7c-1,0.5-2,1.1-2.7,1.9c-0.8,0.8-1.3,1.8-1.8,2.8c-0.4,1.1-0.6,2.3-0.6,3.5c0,1.3,0.2,2.6,0.6,3.7
				c0.4,1.1,1,2.1,1.8,2.9c0.8,0.8,1.7,1.5,2.7,1.9c1,0.5,2.2,0.7,3.5,0.7c1.1,0,2.2-0.1,3.2-0.3c1-0.2,1.9-0.5,2.7-1v-5.9h-5.1v-4
				h9.6V1133.6z"/>
			<path class="st1" d="M799,1128.4c0.1,1.3,0.6,2.3,1.5,3c0.8,0.7,1.9,1.1,3.1,1.1c1.1,0,2-0.2,2.7-0.7s1.4-1,1.9-1.6l3,2.3
				c-1,1.2-2.1,2.1-3.3,2.6s-2.5,0.8-3.9,0.8c-1.3,0-2.5-0.2-3.6-0.6c-1.1-0.4-2.1-1-2.9-1.8c-0.8-0.8-1.5-1.7-2-2.8
				c-0.5-1.1-0.7-2.3-0.7-3.7s0.2-2.6,0.7-3.7c0.5-1.1,1.1-2,2-2.8s1.8-1.4,2.9-1.8s2.3-0.6,3.6-0.6c1.2,0,2.3,0.2,3.2,0.6
				c1,0.4,1.8,1,2.5,1.8c0.7,0.8,1.2,1.7,1.6,2.9c0.4,1.1,0.6,2.5,0.6,3.9v1.2H799z M807.7,1125.2c0-1.2-0.4-2.2-1.2-3
				c-0.8-0.7-1.8-1.1-3.1-1.1c-1.3,0-2.3,0.4-3,1.1c-0.7,0.7-1.2,1.7-1.4,2.9H807.7z"/>
			<path class="st1" d="M817.3,1118.4h4v2.7h0.1c0.4-0.8,1-1.6,1.8-2.2c0.8-0.6,1.9-0.9,3.4-0.9c1.1,0,2.1,0.2,2.9,0.6
				c0.8,0.4,1.4,0.9,1.9,1.5c0.5,0.6,0.8,1.3,1.1,2.1c0.2,0.8,0.3,1.6,0.3,2.5v10.7h-4.2v-8.6c0-0.5,0-1-0.1-1.6
				c0-0.6-0.2-1.1-0.4-1.6c-0.2-0.5-0.5-0.9-0.9-1.3s-1-0.5-1.7-0.5c-0.7,0-1.3,0.1-1.8,0.4c-0.5,0.2-0.9,0.6-1.2,1
				c-0.3,0.4-0.5,0.9-0.7,1.4c-0.1,0.5-0.2,1.1-0.2,1.6v9.3h-4.2V1118.4z"/>
			<path class="st1" d="M842.4,1128.4c0.1,1.3,0.6,2.3,1.5,3c0.8,0.7,1.9,1.1,3.1,1.1c1.1,0,2-0.2,2.7-0.7s1.4-1,1.9-1.6l3,2.3
				c-1,1.2-2.1,2.1-3.3,2.6s-2.5,0.8-3.9,0.8c-1.3,0-2.5-0.2-3.6-0.6c-1.1-0.4-2.1-1-2.9-1.8c-0.8-0.8-1.5-1.7-2-2.8
				c-0.5-1.1-0.7-2.3-0.7-3.7s0.2-2.6,0.7-3.7c0.5-1.1,1.1-2,2-2.8s1.8-1.4,2.9-1.8s2.3-0.6,3.6-0.6c1.2,0,2.3,0.2,3.2,0.6
				c1,0.4,1.8,1,2.5,1.8c0.7,0.8,1.2,1.7,1.6,2.9c0.4,1.1,0.6,2.5,0.6,3.9v1.2H842.4z M851.1,1125.2c0-1.2-0.4-2.2-1.2-3
				c-0.8-0.7-1.8-1.1-3.1-1.1c-1.3,0-2.3,0.4-3,1.1c-0.7,0.7-1.2,1.7-1.4,2.9H851.1z"/>
			<path class="st1" d="M860.8,1118.4h4.2v2.7h0.1c0.5-1,1.1-1.8,2-2.3c0.9-0.5,1.9-0.8,3-0.8c0.3,0,0.5,0,0.8,0.1
				c0.2,0,0.5,0.1,0.8,0.2v4.1c-0.4-0.1-0.7-0.2-1-0.2c-0.3-0.1-0.7-0.1-1-0.1c-1,0-1.8,0.2-2.4,0.5c-0.6,0.4-1.1,0.8-1.4,1.3
				s-0.5,0.9-0.6,1.4c-0.1,0.5-0.2,0.8-0.2,1.1v9.1h-4.2V1118.4z"/>
			<path class="st1" d="M886.6,1133.1h-0.1c-0.6,1-1.4,1.7-2.3,2.1c-0.9,0.4-2,0.7-3.1,0.7c-0.8,0-1.5-0.1-2.3-0.3
				c-0.7-0.2-1.4-0.5-2-1s-1-1-1.4-1.6c-0.4-0.6-0.5-1.4-0.5-2.2c0-0.9,0.2-1.7,0.5-2.4c0.3-0.6,0.8-1.2,1.3-1.6
				c0.6-0.4,1.2-0.8,1.9-1c0.7-0.3,1.5-0.5,2.3-0.6c0.8-0.1,1.6-0.2,2.4-0.2c0.8,0,1.6-0.1,2.3-0.1h1.1v-0.5c0-1.1-0.4-1.9-1.1-2.4
				c-0.7-0.5-1.7-0.8-2.8-0.8c-0.9,0-1.7,0.2-2.5,0.5s-1.5,0.7-2,1.3l-2.2-2.2c0.9-1,2-1.7,3.3-2.1c1.3-0.4,2.6-0.6,3.9-0.6
				c1.2,0,2.2,0.1,3,0.4c0.8,0.3,1.5,0.6,2.1,1c0.5,0.4,1,0.9,1.3,1.5c0.3,0.6,0.5,1.1,0.6,1.7c0.1,0.6,0.2,1.1,0.2,1.6
				c0,0.5,0,1,0,1.4v9.8h-3.8V1133.1z M886.3,1127.8h-0.9c-0.6,0-1.2,0-2,0.1s-1.4,0.2-2.1,0.3c-0.6,0.2-1.2,0.4-1.6,0.8
				c-0.4,0.3-0.7,0.8-0.7,1.4c0,0.4,0.1,0.7,0.3,1c0.2,0.3,0.4,0.5,0.7,0.7c0.3,0.2,0.6,0.3,1,0.4c0.4,0.1,0.7,0.1,1.1,0.1
				c1.5,0,2.5-0.3,3.2-1c0.7-0.7,1-1.6,1-2.8V1127.8z"/>
			<path class="st1" d="M894.4,1122v-3.6h3.5v-4.9h4.2v4.9h4.7v3.6h-4.7v7.4c0,0.8,0.2,1.5,0.5,2c0.3,0.5,0.9,0.7,1.9,0.7
				c0.4,0,0.8,0,1.2-0.1c0.4-0.1,0.8-0.2,1.1-0.4v3.6c-0.4,0.2-1,0.4-1.6,0.4c-0.6,0.1-1.2,0.1-1.7,0.1c-1.1,0-2.1-0.1-2.8-0.4
				c-0.7-0.2-1.3-0.6-1.7-1.1c-0.4-0.5-0.7-1.1-0.8-1.9c-0.2-0.8-0.2-1.6-0.2-2.6v-7.8H894.4z"/>
			<path class="st1" d="M910.7,1126.9c0-1.3,0.2-2.6,0.7-3.7c0.5-1.1,1.1-2,2-2.8s1.8-1.4,2.9-1.8s2.3-0.6,3.6-0.6
				c1.3,0,2.5,0.2,3.6,0.6c1.1,0.4,2.1,1,2.9,1.8c0.8,0.8,1.5,1.7,2,2.8c0.5,1.1,0.7,2.3,0.7,3.7s-0.2,2.6-0.7,3.7
				c-0.5,1.1-1.1,2-2,2.8c-0.8,0.8-1.8,1.4-2.9,1.8c-1.1,0.4-2.3,0.6-3.6,0.6c-1.3,0-2.5-0.2-3.6-0.6c-1.1-0.4-2.1-1-2.9-1.8
				c-0.8-0.8-1.5-1.7-2-2.8C910.9,1129.5,910.7,1128.3,910.7,1126.9z M914.9,1126.9c0,0.7,0.1,1.3,0.3,1.9c0.2,0.6,0.6,1.2,1,1.6
				c0.4,0.5,1,0.8,1.6,1.1c0.6,0.3,1.3,0.4,2.1,0.4s1.5-0.1,2.1-0.4c0.6-0.3,1.1-0.7,1.6-1.1c0.4-0.5,0.8-1,1-1.6s0.3-1.2,0.3-1.9
				c0-0.7-0.1-1.3-0.3-1.9c-0.2-0.6-0.6-1.2-1-1.6c-0.4-0.5-1-0.8-1.6-1.1s-1.3-0.4-2.1-0.4s-1.5,0.1-2.1,0.4s-1.1,0.7-1.6,1.1
				c-0.4,0.5-0.8,1-1,1.6C915.1,1125.6,914.9,1126.3,914.9,1126.9z"/>
			<path class="st1" d="M934.6,1118.4h4.2v2.7h0.1c0.5-1,1.1-1.8,2-2.3c0.9-0.5,1.9-0.8,3-0.8c0.3,0,0.5,0,0.8,0.1
				c0.2,0,0.5,0.1,0.8,0.2v4.1c-0.4-0.1-0.7-0.2-1-0.2c-0.3-0.1-0.7-0.1-1-0.1c-1,0-1.8,0.2-2.4,0.5c-0.6,0.4-1.1,0.8-1.4,1.3
				s-0.5,0.9-0.6,1.4c-0.1,0.5-0.2,0.8-0.2,1.1v9.1h-4.2V1118.4z"/>
		</g>
	</g>
	<g>
		<g>
			<path class="st10" d="M1317.5,1121.3h16.2v4H1322v6.6h11v4h-11v10.4h-4.5V1121.3z"/>
			<path class="st10" d="M1354.4,1146.3h-4v-2.7h-0.1c-0.4,0.8-1,1.6-1.8,2.2c-0.8,0.6-1.9,0.9-3.4,0.9c-1.1,0-2.1-0.2-2.9-0.5
				s-1.4-0.9-1.9-1.5c-0.5-0.6-0.8-1.3-1.1-2.1c-0.2-0.8-0.3-1.6-0.3-2.5v-10.7h4.2v8.6c0,0.5,0,1,0.1,1.6c0,0.6,0.2,1.1,0.4,1.6
				c0.2,0.5,0.5,0.9,0.9,1.3c0.4,0.3,1,0.5,1.8,0.5c0.7,0,1.3-0.1,1.8-0.4c0.5-0.2,0.9-0.6,1.2-1s0.5-0.9,0.7-1.4
				c0.1-0.5,0.2-1.1,0.2-1.6v-9.3h4.2V1146.3z"/>
			<path class="st10" d="M1364,1139.3c0.1,1.3,0.6,2.3,1.5,3c0.8,0.7,1.9,1.1,3.1,1.1c1.1,0,2-0.2,2.7-0.7s1.4-1,1.9-1.6l3,2.3
				c-1,1.2-2.1,2.1-3.3,2.6s-2.5,0.8-3.9,0.8c-1.3,0-2.5-0.2-3.6-0.6c-1.1-0.4-2.1-1-2.9-1.8c-0.8-0.8-1.5-1.7-2-2.8
				c-0.5-1.1-0.7-2.3-0.7-3.7s0.2-2.6,0.7-3.7c0.5-1.1,1.1-2,2-2.8s1.8-1.4,2.9-1.8s2.3-0.6,3.6-0.6c1.2,0,2.3,0.2,3.2,0.6
				c1,0.4,1.8,1,2.5,1.8c0.7,0.8,1.2,1.7,1.6,2.9c0.4,1.1,0.6,2.5,0.6,3.9v1.2H1364z M1372.7,1136.1c0-1.2-0.4-2.2-1.2-3
				c-0.8-0.7-1.8-1.1-3.1-1.1c-1.3,0-2.3,0.4-3,1.1c-0.7,0.7-1.2,1.7-1.4,2.9H1372.7z"/>
			<path class="st10" d="M1382.4,1119.6h4.2v26.8h-4.2V1119.6z"/>
		</g>
	</g>
	<g>
		<g>
			<path class="st11" d="M755.3,241.3h-7.7v-4h19.8v4h-7.7v21h-4.5V241.3z"/>
			<path class="st11" d="M768.2,245.4h4.2v2.7h0.1c0.5-1,1.1-1.8,2-2.3c0.9-0.5,1.9-0.8,3-0.8c0.3,0,0.5,0,0.8,0.1
				c0.2,0,0.5,0.1,0.8,0.2v4.1c-0.4-0.1-0.7-0.2-1-0.2c-0.3-0.1-0.7-0.1-1-0.1c-1,0-1.8,0.2-2.4,0.5s-1.1,0.8-1.4,1.3
				c-0.3,0.5-0.5,0.9-0.6,1.4c-0.1,0.5-0.2,0.8-0.2,1.1v9.1h-4.2V245.4z"/>
			<path class="st11" d="M794,260h-0.1c-0.6,1-1.4,1.7-2.3,2.1c-0.9,0.4-2,0.7-3.1,0.7c-0.8,0-1.5-0.1-2.3-0.3c-0.7-0.2-1.4-0.5-2-1
				c-0.6-0.4-1-1-1.4-1.6c-0.4-0.6-0.5-1.4-0.5-2.2c0-0.9,0.2-1.7,0.5-2.4c0.3-0.6,0.8-1.2,1.3-1.6c0.6-0.4,1.2-0.8,1.9-1
				c0.7-0.3,1.5-0.5,2.3-0.6c0.8-0.1,1.6-0.2,2.4-0.2c0.8,0,1.6-0.1,2.3-0.1h1.1v-0.5c0-1.1-0.4-1.9-1.1-2.4
				c-0.7-0.5-1.7-0.8-2.8-0.8c-0.9,0-1.7,0.2-2.5,0.5c-0.8,0.3-1.5,0.7-2,1.3l-2.2-2.2c0.9-1,2-1.7,3.3-2.1c1.3-0.4,2.6-0.6,3.9-0.6
				c1.2,0,2.2,0.1,3,0.4c0.8,0.3,1.5,0.6,2.1,1c0.5,0.4,1,0.9,1.3,1.5c0.3,0.6,0.5,1.1,0.6,1.7c0.1,0.6,0.2,1.1,0.2,1.6s0,1,0,1.4
				v9.8H794V260z M793.8,254.7h-0.9c-0.6,0-1.2,0-2,0.1c-0.7,0-1.4,0.2-2.1,0.3c-0.6,0.2-1.2,0.4-1.6,0.8c-0.4,0.3-0.7,0.8-0.7,1.4
				c0,0.4,0.1,0.7,0.3,1c0.2,0.3,0.4,0.5,0.7,0.7c0.3,0.2,0.6,0.3,1,0.4c0.4,0.1,0.7,0.1,1.1,0.1c1.5,0,2.5-0.3,3.2-1
				c0.7-0.7,1-1.6,1-2.8V254.7z"/>
			<path class="st11" d="M803.8,245.4h4v2.7h0.1c0.4-0.8,1-1.6,1.8-2.2c0.8-0.6,1.9-0.9,3.4-0.9c1.1,0,2.1,0.2,2.9,0.6
				c0.8,0.4,1.4,0.9,1.9,1.5c0.5,0.6,0.8,1.3,1.1,2.1c0.2,0.8,0.3,1.6,0.3,2.5v10.7h-4.2v-8.6c0-0.5,0-1-0.1-1.6
				c0-0.6-0.2-1.1-0.4-1.6c-0.2-0.5-0.5-0.9-0.9-1.3c-0.4-0.3-1-0.5-1.7-0.5c-0.7,0-1.3,0.1-1.8,0.4c-0.5,0.2-0.9,0.6-1.2,1
				c-0.3,0.4-0.5,0.9-0.7,1.4c-0.1,0.5-0.2,1.1-0.2,1.6v9.3h-4.2V245.4z"/>
			<path class="st11" d="M834.6,250.1c-0.8-1.2-1.9-1.7-3.3-1.7c-0.6,0-1.1,0.1-1.7,0.4c-0.5,0.3-0.8,0.7-0.8,1.4
				c0,0.5,0.2,0.9,0.7,1.1c0.4,0.2,1,0.4,1.7,0.6c0.7,0.2,1.4,0.3,2.2,0.5c0.8,0.2,1.5,0.4,2.2,0.8s1.2,0.9,1.7,1.5
				c0.4,0.6,0.7,1.5,0.7,2.6c0,1-0.2,1.9-0.7,2.6c-0.4,0.7-1,1.3-1.7,1.7c-0.7,0.4-1.5,0.7-2.4,0.9c-0.9,0.2-1.7,0.3-2.6,0.3
				c-1.3,0-2.5-0.2-3.6-0.6c-1.1-0.4-2.1-1.1-3-2.1l2.8-2.7c0.5,0.6,1.1,1.1,1.8,1.5c0.6,0.4,1.4,0.6,2.3,0.6c0.3,0,0.6,0,1-0.1
				s0.6-0.2,0.9-0.4c0.3-0.2,0.5-0.4,0.7-0.6c0.2-0.2,0.3-0.5,0.3-0.9c0-0.6-0.2-1-0.7-1.3c-0.4-0.3-1-0.5-1.7-0.7
				c-0.7-0.2-1.4-0.3-2.2-0.5c-0.8-0.2-1.5-0.4-2.2-0.7c-0.7-0.3-1.2-0.8-1.7-1.4c-0.4-0.6-0.7-1.5-0.7-2.5c0-0.9,0.2-1.8,0.6-2.5
				c0.4-0.7,0.9-1.3,1.5-1.7c0.6-0.4,1.4-0.8,2.2-1c0.8-0.2,1.7-0.3,2.5-0.3c1.1,0,2.3,0.2,3.4,0.6c1.1,0.4,2,1.1,2.7,2L834.6,250.1
				z"/>
			<path class="st11" d="M844.2,249h-3.5v-3.6h3.5V243c0-1.2,0.1-2.2,0.2-3.2s0.5-1.8,0.9-2.5c0.5-0.7,1.1-1.2,1.9-1.6
				c0.8-0.4,1.9-0.5,3.2-0.5c1,0,1.9,0.1,2.7,0.2l-0.3,3.6c-0.3-0.1-0.6-0.1-0.9-0.2c-0.3,0-0.6-0.1-0.9-0.1c-0.6,0-1.1,0.1-1.4,0.3
				c-0.4,0.2-0.6,0.4-0.8,0.8c-0.2,0.3-0.3,0.7-0.4,1.1s-0.1,0.9-0.1,1.3v3.1h3.9v3.6h-3.9v13.4h-4.2V249z"/>
			<path class="st11" d="M859.9,255.3c0.1,1.3,0.6,2.3,1.5,3c0.8,0.7,1.9,1.1,3.1,1.1c1.1,0,2-0.2,2.7-0.7s1.4-1,1.9-1.6l3,2.3
				c-1,1.2-2.1,2.1-3.3,2.6s-2.5,0.8-3.9,0.8c-1.3,0-2.5-0.2-3.6-0.6s-2.1-1-2.9-1.8s-1.5-1.7-2-2.8c-0.5-1.1-0.7-2.3-0.7-3.7
				c0-1.3,0.2-2.6,0.7-3.7c0.5-1.1,1.1-2,2-2.8s1.8-1.4,2.9-1.8s2.3-0.6,3.6-0.6c1.2,0,2.3,0.2,3.2,0.6c1,0.4,1.8,1,2.5,1.8
				c0.7,0.8,1.2,1.7,1.6,2.9c0.4,1.1,0.6,2.5,0.6,3.9v1.2H859.9z M868.6,252.2c0-1.3-0.4-2.2-1.2-3c-0.8-0.7-1.8-1.1-3.1-1.1
				c-1.3,0-2.3,0.4-3,1.1c-0.7,0.7-1.2,1.7-1.4,2.9H868.6z"/>
			<path class="st11" d="M878.3,245.4h4.2v2.7h0.1c0.5-1,1.1-1.8,2-2.3c0.9-0.5,1.9-0.8,3-0.8c0.3,0,0.5,0,0.8,0.1
				c0.2,0,0.5,0.1,0.8,0.2v4.1c-0.4-0.1-0.7-0.2-1-0.2c-0.3-0.1-0.7-0.1-1-0.1c-1,0-1.8,0.2-2.4,0.5s-1.1,0.8-1.4,1.3
				c-0.3,0.5-0.5,0.9-0.6,1.4c-0.1,0.5-0.2,0.8-0.2,1.1v9.1h-4.2V245.4z"/>
			<path class="st11" d="M918,242.7c-0.5-0.7-1.1-1.2-1.9-1.5c-0.8-0.3-1.6-0.5-2.5-0.5c-0.5,0-1,0.1-1.5,0.2
				c-0.5,0.1-0.9,0.3-1.3,0.6c-0.4,0.3-0.7,0.6-0.9,1c-0.2,0.4-0.4,0.9-0.4,1.5c0,0.8,0.3,1.5,0.9,1.9c0.6,0.4,1.3,0.8,2.2,1.2
				c0.9,0.3,1.8,0.6,2.9,1c1,0.3,2,0.7,2.9,1.3c0.9,0.5,1.6,1.3,2.2,2.2c0.6,0.9,0.9,2.1,0.9,3.6c0,1.3-0.2,2.5-0.7,3.5
				c-0.5,1-1.2,1.8-2,2.5c-0.8,0.7-1.8,1.2-2.9,1.5c-1.1,0.3-2.3,0.5-3.5,0.5c-1.6,0-3.1-0.3-4.5-0.8c-1.4-0.5-2.7-1.4-3.7-2.6
				l3.4-3.3c0.5,0.8,1.3,1.5,2.1,1.9c0.9,0.5,1.8,0.7,2.8,0.7c0.5,0,1-0.1,1.6-0.2s1-0.4,1.4-0.6s0.8-0.6,1-1.1
				c0.3-0.4,0.4-0.9,0.4-1.5c0-0.9-0.3-1.6-0.9-2.1c-0.6-0.5-1.3-0.9-2.2-1.3c-0.9-0.3-1.8-0.7-2.9-1s-2-0.7-2.9-1.3
				s-1.6-1.2-2.2-2.1c-0.6-0.9-0.9-2.1-0.9-3.6c0-1.3,0.3-2.4,0.8-3.4c0.5-0.9,1.2-1.7,2.1-2.4c0.9-0.6,1.8-1.1,3-1.4
				c1.1-0.3,2.2-0.5,3.4-0.5c1.3,0,2.6,0.2,3.8,0.6c1.2,0.4,2.4,1.1,3.3,2L918,242.7z"/>
			<path class="st11" d="M924.8,245.4h4.6l3.7,11.9h0.1l3.4-11.9h4.6l3.7,11.9h0.1l3.5-11.9h4.3l-5.8,17h-4.2l-4-11.6h-0.1
				l-3.6,11.6h-4.4L924.8,245.4z"/>
			<path class="st11" d="M956.1,239.6c0-0.7,0.3-1.3,0.8-1.8c0.5-0.5,1.1-0.8,1.9-0.8c0.8,0,1.4,0.2,2,0.7c0.5,0.5,0.8,1.1,0.8,1.8
				c0,0.7-0.3,1.3-0.8,1.8c-0.5,0.5-1.2,0.7-2,0.7c-0.8,0-1.4-0.3-1.9-0.8C956.4,240.9,956.1,240.3,956.1,239.6z M956.7,245.4h4.2
				v17h-4.2V245.4z"/>
			<path class="st11" d="M965.3,249v-3.6h3.5v-4.9h4.2v4.9h4.7v3.6H973v7.4c0,0.8,0.2,1.5,0.5,2c0.3,0.5,0.9,0.7,1.9,0.7
				c0.4,0,0.8,0,1.2-0.1c0.4-0.1,0.8-0.2,1.1-0.4v3.6c-0.4,0.2-1,0.4-1.6,0.4c-0.6,0.1-1.2,0.1-1.7,0.1c-1.1,0-2.1-0.1-2.8-0.4
				c-0.7-0.2-1.3-0.6-1.7-1.1c-0.4-0.5-0.7-1.1-0.8-1.9c-0.2-0.8-0.2-1.6-0.2-2.6V249H965.3z"/>
			<path class="st11" d="M994.1,250.5c-0.5-0.5-1-0.9-1.6-1.2s-1.1-0.5-1.7-0.5c-0.8,0-1.5,0.1-2.1,0.4s-1.1,0.7-1.6,1.1
				c-0.4,0.5-0.8,1-1,1.6c-0.2,0.6-0.3,1.3-0.3,1.9s0.1,1.3,0.3,1.9c0.2,0.6,0.6,1.2,1,1.6c0.4,0.5,1,0.8,1.6,1.1s1.3,0.4,2.1,0.4
				c0.7,0,1.3-0.1,1.8-0.4c0.6-0.3,1-0.7,1.5-1.2l2.8,3c-0.4,0.4-0.9,0.8-1.5,1.1s-1.1,0.6-1.7,0.7c-0.6,0.2-1.1,0.3-1.6,0.4
				c-0.5,0.1-1,0.1-1.3,0.1c-1.3,0-2.5-0.2-3.6-0.6s-2.1-1-2.9-1.8s-1.5-1.7-2-2.8c-0.5-1.1-0.7-2.3-0.7-3.7c0-1.3,0.2-2.6,0.7-3.7
				c0.5-1.1,1.1-2,2-2.8s1.8-1.4,2.9-1.8s2.3-0.6,3.6-0.6c1.1,0,2.2,0.2,3.3,0.6c1.1,0.4,2.1,1.1,2.9,2L994.1,250.5z"/>
			<path class="st11" d="M1005.2,247.7L1005.2,247.7c0.4-0.7,1-1.4,1.8-1.9c0.8-0.6,1.9-0.9,3.2-0.9c1.1,0,2.1,0.2,2.9,0.6
				c0.8,0.4,1.4,0.9,1.9,1.5c0.5,0.6,0.8,1.3,1.1,2.1c0.2,0.8,0.3,1.6,0.3,2.5v10.7h-4.2v-8.6c0-0.5,0-1-0.1-1.6
				c0-0.6-0.2-1.1-0.4-1.6c-0.2-0.5-0.5-0.9-0.9-1.3c-0.4-0.3-1-0.5-1.7-0.5c-0.7,0-1.3,0.1-1.8,0.4c-0.5,0.2-0.9,0.6-1.2,1
				c-0.3,0.4-0.5,0.9-0.7,1.4c-0.1,0.5-0.2,1.1-0.2,1.6v9.3h-4.2v-26.8h4.2V247.7z"/>
			<path class="st11" d="M1026,255.3c0.1,1.3,0.6,2.3,1.5,3c0.8,0.7,1.9,1.1,3.1,1.1c1.1,0,2-0.2,2.7-0.7s1.4-1,1.9-1.6l3,2.3
				c-1,1.2-2.1,2.1-3.3,2.6s-2.5,0.8-3.9,0.8c-1.3,0-2.5-0.2-3.6-0.6s-2.1-1-2.9-1.8s-1.5-1.7-2-2.8c-0.5-1.1-0.7-2.3-0.7-3.7
				c0-1.3,0.2-2.6,0.7-3.7c0.5-1.1,1.1-2,2-2.8s1.8-1.4,2.9-1.8s2.3-0.6,3.6-0.6c1.2,0,2.3,0.2,3.2,0.6c1,0.4,1.8,1,2.5,1.8
				c0.7,0.8,1.2,1.7,1.6,2.9c0.4,1.1,0.6,2.5,0.6,3.9v1.2H1026z M1034.8,252.2c0-1.3-0.4-2.2-1.2-3c-0.8-0.7-1.8-1.1-3.1-1.1
				c-1.3,0-2.3,0.4-3,1.1c-0.7,0.7-1.2,1.7-1.4,2.9H1034.8z"/>
			<path class="st11" d="M1053.4,250.1c-0.8-1.2-1.9-1.7-3.3-1.7c-0.6,0-1.1,0.1-1.7,0.4c-0.5,0.3-0.8,0.7-0.8,1.4
				c0,0.5,0.2,0.9,0.7,1.1c0.4,0.2,1,0.4,1.7,0.6c0.7,0.2,1.4,0.3,2.2,0.5c0.8,0.2,1.5,0.4,2.2,0.8s1.2,0.9,1.7,1.5
				c0.4,0.6,0.7,1.5,0.7,2.6c0,1-0.2,1.9-0.7,2.6c-0.4,0.7-1,1.3-1.7,1.7c-0.7,0.4-1.5,0.7-2.4,0.9c-0.9,0.2-1.7,0.3-2.6,0.3
				c-1.3,0-2.5-0.2-3.6-0.6c-1.1-0.4-2.1-1.1-3-2.1l2.8-2.7c0.5,0.6,1.1,1.1,1.8,1.5c0.6,0.4,1.4,0.6,2.3,0.6c0.3,0,0.6,0,1-0.1
				s0.6-0.2,0.9-0.4c0.3-0.2,0.5-0.4,0.7-0.6c0.2-0.2,0.3-0.5,0.3-0.9c0-0.6-0.2-1-0.7-1.3c-0.4-0.3-1-0.5-1.7-0.7
				c-0.7-0.2-1.4-0.3-2.2-0.5c-0.8-0.2-1.5-0.4-2.2-0.7c-0.7-0.3-1.2-0.8-1.7-1.4c-0.4-0.6-0.7-1.5-0.7-2.5c0-0.9,0.2-1.8,0.6-2.5
				c0.4-0.7,0.9-1.3,1.5-1.7c0.6-0.4,1.4-0.8,2.2-1c0.8-0.2,1.7-0.3,2.5-0.3c1.1,0,2.3,0.2,3.4,0.6c1.1,0.4,2,1.1,2.7,2
				L1053.4,250.1z"/>
		</g>
	</g>
	<g>
		<g>
			<path class="st11" d="M755.3,936.1h-7.7v-4h19.8v4h-7.7v21h-4.5V936.1z"/>
			<path class="st11" d="M768.3,940.1h4.2v2.7h0.1c0.5-1,1.1-1.8,2-2.3c0.9-0.5,1.9-0.8,3-0.8c0.3,0,0.5,0,0.8,0.1
				c0.2,0,0.5,0.1,0.8,0.2v4.1c-0.4-0.1-0.7-0.2-1-0.2c-0.3-0.1-0.7-0.1-1-0.1c-1,0-1.8,0.2-2.4,0.5c-0.6,0.4-1.1,0.8-1.4,1.3
				s-0.5,0.9-0.6,1.4c-0.1,0.5-0.2,0.8-0.2,1.1v9.1h-4.2V940.1z"/>
			<path class="st11" d="M794.1,954.8H794c-0.6,1-1.4,1.7-2.3,2.1c-0.9,0.4-2,0.7-3.1,0.7c-0.8,0-1.5-0.1-2.3-0.3
				c-0.7-0.2-1.4-0.5-2-1s-1-1-1.4-1.6c-0.4-0.6-0.5-1.4-0.5-2.2c0-0.9,0.2-1.7,0.5-2.4c0.3-0.6,0.8-1.2,1.3-1.6
				c0.6-0.4,1.2-0.8,1.9-1c0.7-0.3,1.5-0.5,2.3-0.6c0.8-0.1,1.6-0.2,2.4-0.2c0.8,0,1.6-0.1,2.3-0.1h1.1v-0.5c0-1.1-0.4-1.9-1.1-2.4
				c-0.7-0.5-1.7-0.8-2.8-0.8c-0.9,0-1.7,0.2-2.5,0.5s-1.5,0.7-2,1.3l-2.2-2.2c0.9-1,2-1.7,3.3-2.1c1.3-0.4,2.6-0.6,3.9-0.6
				c1.2,0,2.2,0.1,3,0.4c0.8,0.3,1.5,0.6,2.1,1c0.5,0.4,1,0.9,1.3,1.5c0.3,0.6,0.5,1.1,0.6,1.7c0.1,0.6,0.2,1.1,0.2,1.6
				c0,0.5,0,1,0,1.4v9.8h-3.8V954.8z M793.8,949.5h-0.9c-0.6,0-1.2,0-2,0.1s-1.4,0.2-2.1,0.3c-0.6,0.2-1.2,0.4-1.6,0.8
				c-0.4,0.3-0.7,0.8-0.7,1.4c0,0.4,0.1,0.7,0.3,1c0.2,0.3,0.4,0.5,0.7,0.7c0.3,0.2,0.6,0.3,1,0.4c0.4,0.1,0.7,0.1,1.1,0.1
				c1.5,0,2.5-0.3,3.2-1c0.7-0.7,1-1.6,1-2.8V949.5z"/>
			<path class="st11" d="M803.9,940.1h4v2.7h0.1c0.4-0.8,1-1.6,1.8-2.2c0.8-0.6,1.9-0.9,3.4-0.9c1.1,0,2.1,0.2,2.9,0.6
				c0.8,0.4,1.4,0.9,1.9,1.5c0.5,0.6,0.8,1.3,1.1,2.1c0.2,0.8,0.3,1.6,0.3,2.5v10.7h-4.2v-8.6c0-0.5,0-1-0.1-1.6
				c0-0.6-0.2-1.1-0.4-1.6c-0.2-0.5-0.5-0.9-0.9-1.3s-1-0.5-1.7-0.5c-0.7,0-1.3,0.1-1.8,0.4c-0.5,0.2-0.9,0.6-1.2,1
				c-0.3,0.4-0.5,0.9-0.7,1.4c-0.1,0.5-0.2,1.1-0.2,1.6v9.3h-4.2V940.1z"/>
			<path class="st11" d="M834.7,944.8c-0.8-1.2-1.9-1.7-3.3-1.7c-0.6,0-1.1,0.1-1.7,0.4s-0.8,0.7-0.8,1.4c0,0.5,0.2,0.9,0.7,1.1
				c0.4,0.2,1,0.4,1.7,0.6c0.7,0.2,1.4,0.3,2.2,0.5c0.8,0.2,1.5,0.4,2.2,0.8c0.7,0.4,1.2,0.9,1.7,1.5c0.4,0.6,0.7,1.5,0.7,2.6
				c0,1-0.2,1.9-0.7,2.6c-0.4,0.7-1,1.3-1.7,1.7c-0.7,0.4-1.5,0.7-2.4,0.9c-0.9,0.2-1.7,0.3-2.6,0.3c-1.3,0-2.5-0.2-3.6-0.6
				c-1.1-0.4-2.1-1.1-3-2.1l2.8-2.7c0.5,0.6,1.1,1.1,1.8,1.5c0.6,0.4,1.4,0.6,2.3,0.6c0.3,0,0.6,0,1-0.1c0.3-0.1,0.6-0.2,0.9-0.4
				c0.3-0.2,0.5-0.4,0.7-0.6c0.2-0.2,0.3-0.5,0.3-0.9c0-0.6-0.2-1-0.7-1.3s-1-0.5-1.7-0.7c-0.7-0.2-1.4-0.3-2.2-0.5
				c-0.8-0.2-1.5-0.4-2.2-0.7s-1.2-0.8-1.7-1.4c-0.4-0.6-0.7-1.5-0.7-2.5c0-0.9,0.2-1.8,0.6-2.5c0.4-0.7,0.9-1.3,1.5-1.7
				c0.6-0.4,1.4-0.8,2.2-1c0.8-0.2,1.7-0.3,2.5-0.3c1.1,0,2.3,0.2,3.4,0.6c1.1,0.4,2,1.1,2.7,2L834.7,944.8z"/>
			<path class="st11" d="M844.2,943.7h-3.5v-3.6h3.5v-2.4c0-1.2,0.1-2.2,0.2-3.2s0.5-1.8,0.9-2.5s1.1-1.2,1.9-1.6
				c0.8-0.4,1.9-0.5,3.2-0.5c1,0,1.9,0.1,2.7,0.2l-0.3,3.6c-0.3-0.1-0.6-0.1-0.9-0.2c-0.3,0-0.6-0.1-0.9-0.1c-0.6,0-1.1,0.1-1.4,0.3
				c-0.4,0.2-0.6,0.4-0.8,0.8c-0.2,0.3-0.3,0.7-0.4,1.1s-0.1,0.9-0.1,1.3v3.1h3.9v3.6h-3.9v13.4h-4.2V943.7z"/>
			<path class="st11" d="M860,950.1c0.1,1.3,0.6,2.3,1.5,3c0.8,0.7,1.9,1.1,3.1,1.1c1.1,0,2-0.2,2.7-0.7s1.4-1,1.9-1.6l3,2.3
				c-1,1.2-2.1,2.1-3.3,2.6s-2.5,0.8-3.9,0.8c-1.3,0-2.5-0.2-3.6-0.6c-1.1-0.4-2.1-1-2.9-1.8c-0.8-0.8-1.5-1.7-2-2.8
				c-0.5-1.1-0.7-2.3-0.7-3.7s0.2-2.6,0.7-3.7c0.5-1.1,1.1-2,2-2.8s1.8-1.4,2.9-1.8s2.3-0.6,3.6-0.6c1.2,0,2.3,0.2,3.2,0.6
				c1,0.4,1.8,1,2.5,1.8c0.7,0.8,1.2,1.7,1.6,2.9c0.4,1.1,0.6,2.5,0.6,3.9v1.2H860z M868.7,946.9c0-1.2-0.4-2.2-1.2-3
				c-0.8-0.7-1.8-1.1-3.1-1.1c-1.3,0-2.3,0.4-3,1.1c-0.7,0.7-1.2,1.7-1.4,2.9H868.7z"/>
			<path class="st11" d="M878.3,940.1h4.2v2.7h0.1c0.5-1,1.1-1.8,2-2.3c0.9-0.5,1.9-0.8,3-0.8c0.3,0,0.5,0,0.8,0.1
				c0.2,0,0.5,0.1,0.8,0.2v4.1c-0.4-0.1-0.7-0.2-1-0.2c-0.3-0.1-0.7-0.1-1-0.1c-1,0-1.8,0.2-2.4,0.5c-0.6,0.4-1.1,0.8-1.4,1.3
				s-0.5,0.9-0.6,1.4c-0.1,0.5-0.2,0.8-0.2,1.1v9.1h-4.2V940.1z"/>
			<path class="st11" d="M918.1,937.4c-0.5-0.7-1.1-1.2-1.9-1.5c-0.8-0.3-1.6-0.5-2.5-0.5c-0.5,0-1,0.1-1.5,0.2
				c-0.5,0.1-0.9,0.3-1.3,0.6c-0.4,0.3-0.7,0.6-0.9,1c-0.2,0.4-0.4,0.9-0.4,1.5c0,0.8,0.3,1.5,0.9,1.9c0.6,0.4,1.3,0.8,2.2,1.2
				c0.9,0.3,1.8,0.6,2.9,1c1,0.3,2,0.7,2.9,1.3c0.9,0.5,1.6,1.3,2.2,2.2c0.6,0.9,0.9,2.1,0.9,3.6c0,1.3-0.2,2.5-0.7,3.5
				c-0.5,1-1.2,1.8-2,2.5c-0.8,0.7-1.8,1.2-2.9,1.5c-1.1,0.3-2.3,0.5-3.5,0.5c-1.6,0-3.1-0.3-4.5-0.8c-1.4-0.5-2.7-1.4-3.7-2.6
				l3.4-3.3c0.5,0.8,1.3,1.5,2.1,1.9s1.8,0.7,2.8,0.7c0.5,0,1-0.1,1.6-0.2s1-0.4,1.4-0.6s0.8-0.6,1-1.1c0.3-0.4,0.4-0.9,0.4-1.5
				c0-0.9-0.3-1.6-0.9-2.1s-1.3-0.9-2.2-1.3c-0.9-0.3-1.8-0.7-2.9-1c-1-0.3-2-0.7-2.9-1.3c-0.9-0.5-1.6-1.2-2.2-2.1
				c-0.6-0.9-0.9-2.1-0.9-3.6c0-1.3,0.3-2.4,0.8-3.4c0.5-0.9,1.2-1.7,2.1-2.4s1.8-1.1,3-1.4c1.1-0.3,2.2-0.5,3.4-0.5
				c1.3,0,2.6,0.2,3.8,0.6c1.2,0.4,2.4,1.1,3.3,2L918.1,937.4z"/>
			<path class="st11" d="M924.8,940.1h4.6l3.7,11.9h0.1l3.4-11.9h4.6l3.7,11.9h0.1l3.5-11.9h4.3l-5.8,17h-4.2l-4-11.6h-0.1
				l-3.6,11.6h-4.4L924.8,940.1z"/>
			<path class="st11" d="M956.2,934.4c0-0.7,0.3-1.3,0.8-1.8c0.5-0.5,1.1-0.8,1.9-0.8c0.8,0,1.4,0.2,2,0.7c0.5,0.5,0.8,1.1,0.8,1.8
				s-0.3,1.3-0.8,1.8c-0.5,0.5-1.2,0.7-2,0.7c-0.8,0-1.4-0.3-1.9-0.8C956.4,935.6,956.2,935.1,956.2,934.4z M956.8,940.1h4.2v17
				h-4.2V940.1z"/>
			<path class="st11" d="M965.3,943.7v-3.6h3.5v-4.9h4.2v4.9h4.7v3.6h-4.7v7.4c0,0.8,0.2,1.5,0.5,2c0.3,0.5,0.9,0.7,1.9,0.7
				c0.4,0,0.8,0,1.2-0.1c0.4-0.1,0.8-0.2,1.1-0.4v3.6c-0.4,0.2-1,0.4-1.6,0.4c-0.6,0.1-1.2,0.1-1.7,0.1c-1.1,0-2.1-0.1-2.8-0.4
				c-0.7-0.2-1.3-0.6-1.7-1.1c-0.4-0.5-0.7-1.1-0.8-1.9c-0.2-0.8-0.2-1.6-0.2-2.6v-7.8H965.3z"/>
			<path class="st11" d="M994.1,945.2c-0.5-0.5-1-0.9-1.6-1.2c-0.5-0.3-1.1-0.5-1.7-0.5c-0.8,0-1.5,0.1-2.1,0.4s-1.1,0.7-1.6,1.1
				c-0.4,0.5-0.8,1-1,1.6c-0.2,0.6-0.3,1.3-0.3,1.9c0,0.7,0.1,1.3,0.3,1.9c0.2,0.6,0.6,1.2,1,1.6c0.4,0.5,1,0.8,1.6,1.1
				c0.6,0.3,1.3,0.4,2.1,0.4c0.7,0,1.3-0.1,1.8-0.4c0.6-0.3,1-0.7,1.5-1.2l2.8,3c-0.4,0.4-0.9,0.8-1.5,1.1c-0.6,0.3-1.1,0.6-1.7,0.7
				s-1.1,0.3-1.6,0.4c-0.5,0.1-1,0.1-1.3,0.1c-1.3,0-2.5-0.2-3.6-0.6c-1.1-0.4-2.1-1-2.9-1.8c-0.8-0.8-1.5-1.7-2-2.8
				c-0.5-1.1-0.7-2.3-0.7-3.7s0.2-2.6,0.7-3.7c0.5-1.1,1.1-2,2-2.8s1.8-1.4,2.9-1.8s2.3-0.6,3.6-0.6c1.1,0,2.2,0.2,3.3,0.6
				s2.1,1.1,2.9,2L994.1,945.2z"/>
			<path class="st11" d="M1005.2,942.5L1005.2,942.5c0.4-0.7,1-1.3,1.8-1.9c0.8-0.6,1.9-0.9,3.2-0.9c1.1,0,2.1,0.2,2.9,0.6
				c0.8,0.4,1.4,0.9,1.9,1.5c0.5,0.6,0.8,1.3,1.1,2.1c0.2,0.8,0.3,1.6,0.3,2.5v10.7h-4.2v-8.6c0-0.5,0-1-0.1-1.6
				c0-0.6-0.2-1.1-0.4-1.6c-0.2-0.5-0.5-0.9-0.9-1.3s-1-0.5-1.7-0.5c-0.7,0-1.3,0.1-1.8,0.4c-0.5,0.2-0.9,0.6-1.2,1
				c-0.3,0.4-0.5,0.9-0.7,1.4c-0.1,0.5-0.2,1.1-0.2,1.6v9.3h-4.2v-26.8h4.2V942.5z"/>
			<path class="st11" d="M1026.1,950.1c0.1,1.3,0.6,2.3,1.5,3c0.8,0.7,1.9,1.1,3.1,1.1c1.1,0,2-0.2,2.7-0.7s1.4-1,1.9-1.6l3,2.3
				c-1,1.2-2.1,2.1-3.3,2.6s-2.5,0.8-3.9,0.8c-1.3,0-2.5-0.2-3.6-0.6c-1.1-0.4-2.1-1-2.9-1.8c-0.8-0.8-1.5-1.7-2-2.8
				c-0.5-1.1-0.7-2.3-0.7-3.7s0.2-2.6,0.7-3.7c0.5-1.1,1.1-2,2-2.8s1.8-1.4,2.9-1.8s2.3-0.6,3.6-0.6c1.2,0,2.3,0.2,3.2,0.6
				c1,0.4,1.8,1,2.5,1.8c0.7,0.8,1.2,1.7,1.6,2.9c0.4,1.1,0.6,2.5,0.6,3.9v1.2H1026.1z M1034.8,946.9c0-1.2-0.4-2.2-1.2-3
				c-0.8-0.7-1.8-1.1-3.1-1.1c-1.3,0-2.3,0.4-3,1.1c-0.7,0.7-1.2,1.7-1.4,2.9H1034.8z"/>
			<path class="st11" d="M1053.5,944.8c-0.8-1.2-1.9-1.7-3.3-1.7c-0.6,0-1.1,0.1-1.7,0.4s-0.8,0.7-0.8,1.4c0,0.5,0.2,0.9,0.7,1.1
				c0.4,0.2,1,0.4,1.7,0.6c0.7,0.2,1.4,0.3,2.2,0.5c0.8,0.2,1.5,0.4,2.2,0.8c0.7,0.4,1.2,0.9,1.7,1.5c0.4,0.6,0.7,1.5,0.7,2.6
				c0,1-0.2,1.9-0.7,2.6c-0.4,0.7-1,1.3-1.7,1.7c-0.7,0.4-1.5,0.7-2.4,0.9c-0.9,0.2-1.7,0.3-2.6,0.3c-1.3,0-2.5-0.2-3.6-0.6
				c-1.1-0.4-2.1-1.1-3-2.1l2.8-2.7c0.5,0.6,1.1,1.1,1.8,1.5c0.6,0.4,1.4,0.6,2.3,0.6c0.3,0,0.6,0,1-0.1c0.3-0.1,0.6-0.2,0.9-0.4
				c0.3-0.2,0.5-0.4,0.7-0.6c0.2-0.2,0.3-0.5,0.3-0.9c0-0.6-0.2-1-0.7-1.3s-1-0.5-1.7-0.7c-0.7-0.2-1.4-0.3-2.2-0.5
				c-0.8-0.2-1.5-0.4-2.2-0.7s-1.2-0.8-1.7-1.4c-0.4-0.6-0.7-1.5-0.7-2.5c0-0.9,0.2-1.8,0.6-2.5c0.4-0.7,0.9-1.3,1.5-1.7
				c0.6-0.4,1.4-0.8,2.2-1c0.8-0.2,1.7-0.3,2.5-0.3c1.1,0,2.3,0.2,3.4,0.6c1.1,0.4,2,1.1,2.7,2L1053.5,944.8z"/>
		</g>
	</g>
	<g>
		<g>
			<path class="st1" d="M789.3,439.3c-3.1,1.7-6.5,2.5-10.4,2.5c-1.9,0-3.7-0.3-5.3-0.9c-1.6-0.6-3-1.5-4.2-2.7
				c-1.2-1.1-2.1-2.5-2.7-4.1c-0.7-1.6-1-3.4-1-5.3c0-2,0.3-3.8,1-5.5c0.7-1.6,1.6-3,2.7-4.2c1.2-1.2,2.6-2,4.2-2.7
				c1.6-0.6,3.4-0.9,5.3-0.9c1.9,0,3.7,0.2,5.4,0.7c1.7,0.5,3.2,1.3,4.5,2.5l-3.3,3.3c-0.8-0.8-1.8-1.4-2.9-1.8
				c-1.1-0.4-2.4-0.6-3.6-0.6c-1.3,0-2.5,0.2-3.5,0.7c-1,0.5-2,1.1-2.7,1.9c-0.8,0.8-1.3,1.8-1.8,2.8c-0.4,1.1-0.6,2.3-0.6,3.5
				c0,1.3,0.2,2.6,0.6,3.7c0.4,1.1,1,2.1,1.8,2.9c0.8,0.8,1.7,1.5,2.7,1.9c1,0.5,2.2,0.7,3.5,0.7c1.1,0,2.2-0.1,3.2-0.3
				c1-0.2,1.9-0.5,2.7-1v-5.9h-5.1v-4h9.6V439.3z"/>
			<path class="st1" d="M799,434.1c0.1,1.3,0.6,2.3,1.5,3c0.8,0.7,1.9,1.1,3.1,1.1c1.1,0,2-0.2,2.7-0.7s1.4-1,1.9-1.6l3,2.3
				c-1,1.2-2.1,2.1-3.3,2.6s-2.5,0.8-3.9,0.8c-1.3,0-2.5-0.2-3.6-0.6s-2.1-1-2.9-1.8s-1.5-1.7-2-2.8c-0.5-1.1-0.7-2.3-0.7-3.7
				c0-1.3,0.2-2.6,0.7-3.7c0.5-1.1,1.1-2,2-2.8s1.8-1.4,2.9-1.8s2.3-0.6,3.6-0.6c1.2,0,2.3,0.2,3.2,0.6c1,0.4,1.8,1,2.5,1.8
				c0.7,0.8,1.2,1.7,1.6,2.9c0.4,1.1,0.6,2.5,0.6,3.9v1.2H799z M807.7,430.9c0-1.3-0.4-2.2-1.2-3c-0.8-0.7-1.8-1.1-3.1-1.1
				c-1.3,0-2.3,0.4-3,1.1c-0.7,0.7-1.2,1.7-1.4,2.9H807.7z"/>
			<path class="st1" d="M817.3,424.1h4v2.7h0.1c0.4-0.8,1-1.6,1.8-2.2c0.8-0.6,1.9-0.9,3.4-0.9c1.1,0,2.1,0.2,2.9,0.6
				c0.8,0.4,1.4,0.9,1.9,1.5c0.5,0.6,0.8,1.3,1.1,2.1c0.2,0.8,0.3,1.6,0.3,2.5v10.7h-4.2v-8.6c0-0.5,0-1-0.1-1.6
				c0-0.6-0.2-1.1-0.4-1.6c-0.2-0.5-0.5-0.9-0.9-1.3c-0.4-0.3-1-0.5-1.7-0.5c-0.7,0-1.3,0.1-1.8,0.4c-0.5,0.2-0.9,0.6-1.2,1
				c-0.3,0.4-0.5,0.9-0.7,1.4c-0.1,0.5-0.2,1.1-0.2,1.6v9.3h-4.2V424.1z"/>
			<path class="st1" d="M842.4,434.1c0.1,1.3,0.6,2.3,1.5,3c0.8,0.7,1.9,1.1,3.1,1.1c1.1,0,2-0.2,2.7-0.7s1.4-1,1.9-1.6l3,2.3
				c-1,1.2-2.1,2.1-3.3,2.6s-2.5,0.8-3.9,0.8c-1.3,0-2.5-0.2-3.6-0.6s-2.1-1-2.9-1.8s-1.5-1.7-2-2.8c-0.5-1.1-0.7-2.3-0.7-3.7
				c0-1.3,0.2-2.6,0.7-3.7c0.5-1.1,1.1-2,2-2.8s1.8-1.4,2.9-1.8s2.3-0.6,3.6-0.6c1.2,0,2.3,0.2,3.2,0.6c1,0.4,1.8,1,2.5,1.8
				c0.7,0.8,1.2,1.7,1.6,2.9c0.4,1.1,0.6,2.5,0.6,3.9v1.2H842.4z M851.1,430.9c0-1.3-0.4-2.2-1.2-3c-0.8-0.7-1.8-1.1-3.1-1.1
				c-1.3,0-2.3,0.4-3,1.1c-0.7,0.7-1.2,1.7-1.4,2.9H851.1z"/>
			<path class="st1" d="M860.8,424.1h4.2v2.7h0.1c0.5-1,1.1-1.8,2-2.3c0.9-0.5,1.9-0.8,3-0.8c0.3,0,0.5,0,0.8,0.1
				c0.2,0,0.5,0.1,0.8,0.2v4.1c-0.4-0.1-0.7-0.2-1-0.2c-0.3-0.1-0.7-0.1-1-0.1c-1,0-1.8,0.2-2.4,0.5s-1.1,0.8-1.4,1.3
				c-0.3,0.5-0.5,0.9-0.6,1.4c-0.1,0.5-0.2,0.8-0.2,1.1v9.1h-4.2V424.1z"/>
			<path class="st1" d="M886.6,438.8h-0.1c-0.6,1-1.4,1.7-2.3,2.1c-0.9,0.4-2,0.7-3.1,0.7c-0.8,0-1.5-0.1-2.3-0.3
				c-0.7-0.2-1.4-0.5-2-1c-0.6-0.4-1-1-1.4-1.6c-0.4-0.6-0.5-1.4-0.5-2.2c0-0.9,0.2-1.7,0.5-2.4c0.3-0.6,0.8-1.2,1.3-1.6
				c0.6-0.4,1.2-0.8,1.9-1c0.7-0.3,1.5-0.5,2.3-0.6c0.8-0.1,1.6-0.2,2.4-0.2c0.8,0,1.6-0.1,2.3-0.1h1.1v-0.5c0-1.1-0.4-1.9-1.1-2.4
				c-0.7-0.5-1.7-0.8-2.8-0.8c-0.9,0-1.7,0.2-2.5,0.5c-0.8,0.3-1.5,0.7-2,1.3l-2.2-2.2c0.9-1,2-1.7,3.3-2.1c1.3-0.4,2.6-0.6,3.9-0.6
				c1.2,0,2.2,0.1,3,0.4c0.8,0.3,1.5,0.6,2.1,1c0.5,0.4,1,0.9,1.3,1.5c0.3,0.6,0.5,1.1,0.6,1.7c0.1,0.6,0.2,1.1,0.2,1.6s0,1,0,1.4
				v9.8h-3.8V438.8z M886.3,433.5h-0.9c-0.6,0-1.2,0-2,0.1c-0.7,0-1.4,0.2-2.1,0.3c-0.6,0.2-1.2,0.4-1.6,0.8
				c-0.4,0.3-0.7,0.8-0.7,1.4c0,0.4,0.1,0.7,0.3,1c0.2,0.3,0.4,0.5,0.7,0.7c0.3,0.2,0.6,0.3,1,0.4c0.4,0.1,0.7,0.1,1.1,0.1
				c1.5,0,2.5-0.3,3.2-1c0.7-0.7,1-1.6,1-2.8V433.5z"/>
			<path class="st1" d="M894.4,427.7v-3.6h3.5v-4.9h4.2v4.9h4.7v3.6h-4.7v7.4c0,0.8,0.2,1.5,0.5,2c0.3,0.5,0.9,0.7,1.9,0.7
				c0.4,0,0.8,0,1.2-0.1c0.4-0.1,0.8-0.2,1.1-0.4v3.6c-0.4,0.2-1,0.4-1.6,0.4c-0.6,0.1-1.2,0.1-1.7,0.1c-1.1,0-2.1-0.1-2.8-0.4
				c-0.7-0.2-1.3-0.6-1.7-1.1c-0.4-0.5-0.7-1.1-0.8-1.9c-0.2-0.8-0.2-1.6-0.2-2.6v-7.8H894.4z"/>
			<path class="st1" d="M910.7,432.6c0-1.3,0.2-2.6,0.7-3.7c0.5-1.1,1.1-2,2-2.8s1.8-1.4,2.9-1.8s2.3-0.6,3.6-0.6
				c1.3,0,2.5,0.2,3.6,0.6c1.1,0.4,2.1,1,2.9,1.8c0.8,0.8,1.5,1.7,2,2.8c0.5,1.1,0.7,2.3,0.7,3.7c0,1.3-0.2,2.6-0.7,3.7
				c-0.5,1.1-1.1,2-2,2.8c-0.8,0.8-1.8,1.4-2.9,1.8c-1.1,0.4-2.3,0.6-3.6,0.6c-1.3,0-2.5-0.2-3.6-0.6s-2.1-1-2.9-1.8s-1.5-1.7-2-2.8
				C910.9,435.2,910.7,433.9,910.7,432.6z M914.9,432.6c0,0.7,0.1,1.3,0.3,1.9c0.2,0.6,0.6,1.2,1,1.6c0.4,0.5,1,0.8,1.6,1.1
				s1.3,0.4,2.1,0.4s1.5-0.1,2.1-0.4s1.1-0.7,1.6-1.1c0.4-0.5,0.8-1,1-1.6c0.2-0.6,0.3-1.2,0.3-1.9s-0.1-1.3-0.3-1.9
				c-0.2-0.6-0.6-1.2-1-1.6c-0.4-0.5-1-0.8-1.6-1.1s-1.3-0.4-2.1-0.4s-1.5,0.1-2.1,0.4s-1.1,0.7-1.6,1.1c-0.4,0.5-0.8,1-1,1.6
				C915.1,431.3,914.9,431.9,914.9,432.6z"/>
			<path class="st1" d="M934.6,424.1h4.2v2.7h0.1c0.5-1,1.1-1.8,2-2.3c0.9-0.5,1.9-0.8,3-0.8c0.3,0,0.5,0,0.8,0.1
				c0.2,0,0.5,0.1,0.8,0.2v4.1c-0.4-0.1-0.7-0.2-1-0.2c-0.3-0.1-0.7-0.1-1-0.1c-1,0-1.8,0.2-2.4,0.5s-1.1,0.8-1.4,1.3
				c-0.3,0.5-0.5,0.9-0.6,1.4c-0.1,0.5-0.2,0.8-0.2,1.1v9.1h-4.2V424.1z"/>
		</g>
	</g>
	<g>
		<g>
			<path class="st1" d="M342.5,294.3c0,1.5-0.3,2.9-0.8,4.1c-0.5,1.2-1.2,2.2-2.1,3.1c-0.9,0.8-2,1.5-3.2,2c-1.2,0.5-2.6,0.7-4,0.7
				c-1.4,0-2.8-0.2-4-0.7s-2.3-1.1-3.2-2s-1.6-1.9-2.1-3.1c-0.5-1.2-0.8-2.6-0.8-4.1v-15.9h4.5v15.7c0,0.6,0.1,1.3,0.3,1.9
				c0.2,0.7,0.5,1.3,0.9,1.9c0.4,0.6,1,1,1.7,1.4c0.7,0.4,1.6,0.5,2.7,0.5s2-0.2,2.7-0.5c0.7-0.4,1.3-0.8,1.7-1.4
				c0.4-0.6,0.7-1.2,0.9-1.9c0.2-0.7,0.3-1.3,0.3-1.9v-15.7h4.5V294.3z"/>
			<path class="st1" d="M349.4,278.5h8.4c1.2,0,2.4,0.1,3.5,0.4c1.1,0.2,2.1,0.6,3,1.2c0.8,0.6,1.5,1.3,2,2.2s0.8,2.1,0.8,3.5
				c0,1.6-0.3,2.9-0.8,3.8c-0.5,1-1.3,1.7-2.2,2.2s-2,0.9-3.2,1.1c-1.2,0.2-2.5,0.3-3.8,0.3h-3.2v10.4h-4.5V278.5z M356.5,289.3
				c0.6,0,1.3,0,2-0.1c0.7,0,1.3-0.2,1.9-0.4c0.6-0.2,1-0.6,1.4-1.1c0.4-0.5,0.5-1.1,0.5-2c0-0.8-0.2-1.4-0.5-1.9
				c-0.3-0.5-0.8-0.8-1.3-1.1c-0.5-0.2-1.1-0.4-1.7-0.5c-0.6-0.1-1.3-0.1-1.8-0.1h-3.2v7H356.5z"/>
			<path class="st1" d="M384.7,283.8c-0.5-0.7-1.1-1.2-1.9-1.5c-0.8-0.3-1.6-0.5-2.5-0.5c-0.5,0-1,0.1-1.5,0.2
				c-0.5,0.1-0.9,0.3-1.3,0.6s-0.7,0.6-0.9,1c-0.2,0.4-0.4,0.9-0.4,1.5c0,0.8,0.3,1.5,0.9,1.9c0.6,0.4,1.3,0.8,2.2,1.2
				c0.9,0.3,1.8,0.6,2.9,1c1,0.3,2,0.7,2.9,1.3c0.9,0.5,1.6,1.3,2.2,2.2c0.6,0.9,0.9,2.1,0.9,3.6c0,1.3-0.2,2.5-0.7,3.5
				c-0.5,1-1.2,1.8-2,2.5c-0.8,0.7-1.8,1.2-2.9,1.5s-2.3,0.5-3.5,0.5c-1.6,0-3.1-0.3-4.5-0.8s-2.7-1.4-3.7-2.6l3.4-3.3
				c0.5,0.8,1.3,1.5,2.1,1.9c0.9,0.5,1.8,0.7,2.8,0.7c0.5,0,1-0.1,1.6-0.2c0.5-0.1,1-0.4,1.4-0.6c0.4-0.3,0.8-0.6,1-1.1
				c0.3-0.4,0.4-0.9,0.4-1.5c0-0.9-0.3-1.6-0.9-2.1c-0.6-0.5-1.3-0.9-2.2-1.3c-0.9-0.3-1.8-0.7-2.9-1c-1-0.3-2-0.7-2.9-1.3
				c-0.9-0.5-1.6-1.2-2.2-2.1c-0.6-0.9-0.9-2.1-0.9-3.6c0-1.3,0.3-2.4,0.8-3.4c0.5-0.9,1.2-1.7,2.1-2.4c0.9-0.6,1.8-1.1,3-1.4
				c1.1-0.3,2.2-0.5,3.4-0.5c1.3,0,2.6,0.2,3.8,0.6c1.2,0.4,2.4,1.1,3.3,2L384.7,283.8z"/>
		</g>
	</g>
	<g>
		<g>
			<path class="st1" d="M1046.8,1106.7h6.8l6.7,17.6l6.8-17.6h6.7v25.1h-4.2v-20.8h-0.1l-7.6,20.8h-3.1l-7.6-20.8h-0.1v20.8h-4.2
				V1106.7z"/>
			<path class="st1" d="M1079.7,1123.3c0-1.3,0.2-2.6,0.7-3.7c0.5-1.1,1.1-2,2-2.8s1.8-1.4,2.9-1.8s2.3-0.6,3.6-0.6
				c1.3,0,2.5,0.2,3.6,0.6c1.1,0.4,2.1,1,2.9,1.8c0.8,0.8,1.5,1.7,2,2.8c0.5,1.1,0.7,2.3,0.7,3.7s-0.2,2.6-0.7,3.7
				c-0.5,1.1-1.1,2-2,2.8c-0.8,0.8-1.8,1.4-2.9,1.8c-1.1,0.4-2.3,0.6-3.6,0.6c-1.3,0-2.5-0.2-3.6-0.6c-1.1-0.4-2.1-1-2.9-1.8
				c-0.8-0.8-1.5-1.7-2-2.8C1079.9,1125.8,1079.7,1124.6,1079.7,1123.3z M1083.9,1123.3c0,0.7,0.1,1.3,0.3,1.9
				c0.2,0.6,0.6,1.2,1,1.6c0.4,0.5,1,0.8,1.6,1.1c0.6,0.3,1.3,0.4,2.1,0.4s1.5-0.1,2.1-0.4c0.6-0.3,1.1-0.7,1.6-1.1
				c0.4-0.5,0.8-1,1-1.6s0.3-1.2,0.3-1.9c0-0.7-0.1-1.3-0.3-1.9c-0.2-0.6-0.6-1.2-1-1.6c-0.4-0.5-1-0.8-1.6-1.1s-1.3-0.4-2.1-0.4
				s-1.5,0.1-2.1,0.4s-1.1,0.7-1.6,1.1c-0.4,0.5-0.8,1-1,1.6C1084,1122,1083.9,1122.6,1083.9,1123.3z"/>
			<path class="st1" d="M1101.5,1118.4v-3.6h3.5v-4.9h4.2v4.9h4.7v3.6h-4.7v7.4c0,0.8,0.2,1.5,0.5,2c0.3,0.5,0.9,0.7,1.9,0.7
				c0.4,0,0.8,0,1.2-0.1c0.4-0.1,0.8-0.2,1.1-0.4v3.6c-0.4,0.2-1,0.4-1.6,0.4c-0.6,0.1-1.2,0.1-1.7,0.1c-1.1,0-2.1-0.1-2.8-0.4
				c-0.7-0.2-1.3-0.6-1.7-1.1c-0.4-0.5-0.7-1.1-0.8-1.9c-0.2-0.8-0.2-1.6-0.2-2.6v-7.8H1101.5z"/>
			<path class="st1" d="M1117.8,1123.3c0-1.3,0.2-2.6,0.7-3.7c0.5-1.1,1.1-2,2-2.8s1.8-1.4,2.9-1.8s2.3-0.6,3.6-0.6
				c1.3,0,2.5,0.2,3.6,0.6c1.1,0.4,2.1,1,2.9,1.8c0.8,0.8,1.5,1.7,2,2.8c0.5,1.1,0.7,2.3,0.7,3.7s-0.2,2.6-0.7,3.7
				c-0.5,1.1-1.1,2-2,2.8c-0.8,0.8-1.8,1.4-2.9,1.8c-1.1,0.4-2.3,0.6-3.6,0.6c-1.3,0-2.5-0.2-3.6-0.6c-1.1-0.4-2.1-1-2.9-1.8
				c-0.8-0.8-1.5-1.7-2-2.8C1118.1,1125.8,1117.8,1124.6,1117.8,1123.3z M1122.1,1123.3c0,0.7,0.1,1.3,0.3,1.9
				c0.2,0.6,0.6,1.2,1,1.6c0.4,0.5,1,0.8,1.6,1.1c0.6,0.3,1.3,0.4,2.1,0.4s1.5-0.1,2.1-0.4c0.6-0.3,1.1-0.7,1.6-1.1
				c0.4-0.5,0.8-1,1-1.6s0.3-1.2,0.3-1.9c0-0.7-0.1-1.3-0.3-1.9c-0.2-0.6-0.6-1.2-1-1.6c-0.4-0.5-1-0.8-1.6-1.1s-1.3-0.4-2.1-0.4
				s-1.5,0.1-2.1,0.4s-1.1,0.7-1.6,1.1c-0.4,0.5-0.8,1-1,1.6C1122.2,1122,1122.1,1122.6,1122.1,1123.3z"/>
			<path class="st1" d="M1141.7,1114.8h4.2v2.7h0.1c0.5-1,1.1-1.8,2-2.3c0.9-0.5,1.9-0.8,3-0.8c0.3,0,0.5,0,0.8,0.1
				c0.2,0,0.5,0.1,0.8,0.2v4.1c-0.4-0.1-0.7-0.2-1-0.2c-0.3-0.1-0.7-0.1-1-0.1c-1,0-1.8,0.2-2.4,0.5c-0.6,0.4-1.1,0.8-1.4,1.3
				s-0.5,0.9-0.6,1.4c-0.1,0.5-0.2,0.8-0.2,1.1v9.1h-4.2V1114.8z"/>
		</g>
	</g>
	<g>
		<g>
			<path class="st1" d="M1046.8,416h6.8l6.7,17.6l6.8-17.6h6.7v25.1h-4.2v-20.8h-0.1l-7.6,20.8h-3.1l-7.6-20.8h-0.1v20.8h-4.2V416z"
				/>
			<path class="st1" d="M1079.7,432.6c0-1.3,0.2-2.6,0.7-3.7c0.5-1.1,1.1-2,2-2.8s1.8-1.4,2.9-1.8s2.3-0.6,3.6-0.6
				c1.3,0,2.5,0.2,3.6,0.6c1.1,0.4,2.1,1,2.9,1.8c0.8,0.8,1.5,1.7,2,2.8c0.5,1.1,0.7,2.3,0.7,3.7c0,1.3-0.2,2.6-0.7,3.7
				c-0.5,1.1-1.1,2-2,2.8c-0.8,0.8-1.8,1.4-2.9,1.8c-1.1,0.4-2.3,0.6-3.6,0.6c-1.3,0-2.5-0.2-3.6-0.6s-2.1-1-2.9-1.8s-1.5-1.7-2-2.8
				C1079.9,435.2,1079.7,433.9,1079.7,432.6z M1083.9,432.6c0,0.7,0.1,1.3,0.3,1.9c0.2,0.6,0.6,1.2,1,1.6c0.4,0.5,1,0.8,1.6,1.1
				s1.3,0.4,2.1,0.4s1.5-0.1,2.1-0.4s1.1-0.7,1.6-1.1c0.4-0.5,0.8-1,1-1.6c0.2-0.6,0.3-1.2,0.3-1.9s-0.1-1.3-0.3-1.9
				c-0.2-0.6-0.6-1.2-1-1.6c-0.4-0.5-1-0.8-1.6-1.1s-1.3-0.4-2.1-0.4s-1.5,0.1-2.1,0.4s-1.1,0.7-1.6,1.1c-0.4,0.5-0.8,1-1,1.6
				C1084,431.3,1083.9,431.9,1083.9,432.6z"/>
			<path class="st1" d="M1101.5,427.7v-3.6h3.5v-4.9h4.2v4.9h4.7v3.6h-4.7v7.4c0,0.8,0.2,1.5,0.5,2c0.3,0.5,0.9,0.7,1.9,0.7
				c0.4,0,0.8,0,1.2-0.1c0.4-0.1,0.8-0.2,1.1-0.4v3.6c-0.4,0.2-1,0.4-1.6,0.4c-0.6,0.1-1.2,0.1-1.7,0.1c-1.1,0-2.1-0.1-2.8-0.4
				c-0.7-0.2-1.3-0.6-1.7-1.1c-0.4-0.5-0.7-1.1-0.8-1.9c-0.2-0.8-0.2-1.6-0.2-2.6v-7.8H1101.5z"/>
			<path class="st1" d="M1117.8,432.6c0-1.3,0.2-2.6,0.7-3.7c0.5-1.1,1.1-2,2-2.8s1.8-1.4,2.9-1.8s2.3-0.6,3.6-0.6
				c1.3,0,2.5,0.2,3.6,0.6c1.1,0.4,2.1,1,2.9,1.8c0.8,0.8,1.5,1.7,2,2.8c0.5,1.1,0.7,2.3,0.7,3.7c0,1.3-0.2,2.6-0.7,3.7
				c-0.5,1.1-1.1,2-2,2.8c-0.8,0.8-1.8,1.4-2.9,1.8c-1.1,0.4-2.3,0.6-3.6,0.6c-1.3,0-2.5-0.2-3.6-0.6s-2.1-1-2.9-1.8s-1.5-1.7-2-2.8
				C1118.1,435.2,1117.8,433.9,1117.8,432.6z M1122.1,432.6c0,0.7,0.1,1.3,0.3,1.9c0.2,0.6,0.6,1.2,1,1.6c0.4,0.5,1,0.8,1.6,1.1
				s1.3,0.4,2.1,0.4s1.5-0.1,2.1-0.4s1.1-0.7,1.6-1.1c0.4-0.5,0.8-1,1-1.6c0.2-0.6,0.3-1.2,0.3-1.9s-0.1-1.3-0.3-1.9
				c-0.2-0.6-0.6-1.2-1-1.6c-0.4-0.5-1-0.8-1.6-1.1s-1.3-0.4-2.1-0.4s-1.5,0.1-2.1,0.4s-1.1,0.7-1.6,1.1c-0.4,0.5-0.8,1-1,1.6
				C1122.2,431.3,1122.1,431.9,1122.1,432.6z"/>
			<path class="st1" d="M1141.7,424.1h4.2v2.7h0.1c0.5-1,1.1-1.8,2-2.3c0.9-0.5,1.9-0.8,3-0.8c0.3,0,0.5,0,0.8,0.1
				c0.2,0,0.5,0.1,0.8,0.2v4.1c-0.4-0.1-0.7-0.2-1-0.2c-0.3-0.1-0.7-0.1-1-0.1c-1,0-1.8,0.2-2.4,0.5s-1.1,0.8-1.4,1.3
				c-0.3,0.5-0.5,0.9-0.6,1.4c-0.1,0.5-0.2,0.8-0.2,1.1v9.1h-4.2V424.1z"/>
		</g>
	</g>
	<g>
	</g>
	<g>
	</g>
	<g>
	</g>
	<g>
	</g>
	<g>
	</g>
	<g>
	</g>
	<g>
	</g>
	<g>
	</g>
	<g>
	</g>
	<g>
	</g>
	<g>
	</g>
	<g>
	</g>
	<g>
	</g>
	<g>
	</g>
	<g>
	</g>
	<g>
	</g>
</g>
</svg>
