<svg enable-background="new 0 0 1080 1080" height="1080" viewBox="0 0 1080 1080" width="1080" xmlns="http://www.w3.org/2000/svg"><path d="m145.9 23.1h454.5v454.5h-454.5z" fill="#007eb1"/><path d="m145.9 23.1h454.5v454.5h-454.5z" fill="none"/><path d="m168.6 188.5h6.4v14.4h16.9v-14.4h6.4v36.1h-6.4v-15.9h-16.9v15.9h-6.4z" fill="#fff"/><path d="m207.1 191.8c0-1 .4-1.8 1.1-2.6.7-.7 1.7-1.1 2.8-1.1s2.1.3 2.8 1c.8.7 1.1 1.6 1.1 2.6 0 1.1-.4 1.9-1.1 2.6-.8.7-1.7 1-2.8 1s-2-.4-2.8-1.1c-.7-.5-1.1-1.4-1.1-2.4zm.9 8.3h6.1v24.5h-6.1z" fill="#fff"/><path d="m248.4 200.1v22.3c0 2.2-.3 4.2-.8 6s-1.4 3.3-2.5 4.5-2.6 2.2-4.3 2.9-3.8 1-6.2 1c-2.3 0-4.4-.3-6.5-.9-2-.6-3.9-1.6-5.7-3.2l3.7-5c1.2 1.1 2.5 2 3.8 2.6s2.9.9 4.6.9c1.5 0 2.7-.2 3.7-.6s1.8-1 2.4-1.7 1-1.6 1.3-2.6.4-2.1.4-3.3v-1.8h-.1c-.9 1.2-2.1 2.1-3.5 2.7-1.5.6-3 .9-4.5.9-1.8 0-3.5-.3-5-1s-2.8-1.6-3.9-2.7-1.9-2.4-2.5-4c-.6-1.5-.9-3.2-.9-4.9 0-1.8.3-3.5.8-5 .5-1.6 1.3-2.9 2.4-4.1s2.3-2.1 3.8-2.7 3.2-1 5.1-1c1.7 0 3.3.3 4.8 1s2.7 1.8 3.6 3.3h.1v-3.7h5.9zm-13.1 4.9c-1.1 0-2.1.2-3 .5-.9.4-1.6.9-2.3 1.5-.6.6-1.1 1.4-1.5 2.3s-.5 1.9-.5 3c0 1 .2 1.9.5 2.8.4.9.9 1.6 1.5 2.2s1.4 1.2 2.3 1.5c.9.4 1.8.6 2.9.6s2.1-.2 3-.6 1.7-.9 2.3-1.5 1.1-1.4 1.5-2.3c.3-.9.5-1.8.5-2.9 0-2.1-.6-3.9-1.9-5.2-1.3-1.2-3-1.9-5.3-1.9z" fill="#fff"/><path d="m263.5 203.6h.1c.5-1 1.3-1.9 2.5-2.8 1.2-.8 2.8-1.2 4.7-1.2 1.6 0 3 .3 4.2.8 1.1.5 2.1 1.3 2.8 2.1.7.9 1.2 1.9 1.5 3.1s.5 2.4.5 3.6v15.5h-6.1v-12.4c0-.7 0-1.4-.1-2.3-.1-.8-.2-1.6-.5-2.3s-.7-1.3-1.4-1.8c-.6-.5-1.4-.7-2.5-.7-1 0-1.9.2-2.6.5s-1.3.8-1.7 1.4-.8 1.2-1 2c-.2.7-.3 1.5-.3 2.3v13.4h-6.1v-38.6h6.1v17.4z" fill="#fff"/><path d="m306.4 188.5h12.1c1.7 0 3.4.2 5 .5s3 .9 4.3 1.7c1.2.8 2.2 1.9 2.9 3.2s1.1 3 1.1 5c0 2.3-.4 4.1-1.2 5.5s-1.8 2.5-3.2 3.2c-1.3.8-2.9 1.3-4.6 1.6-1.8.3-3.6.4-5.5.4h-4.6v14.9h-6.4v-36zm10.3 15.7c.9 0 1.9 0 2.9-.1s1.9-.3 2.7-.6 1.5-.8 2-1.5.8-1.6.8-2.9c0-1.1-.2-2-.7-2.7s-1.1-1.2-1.8-1.5c-.7-.4-1.6-.6-2.5-.7s-1.8-.2-2.7-.2h-4.6v10.1h3.9z" fill="#fff"/><path d="m339 200.1h6.1v3.9h.1c.7-1.4 1.6-2.5 2.9-3.3s2.7-1.2 4.3-1.2c.4 0 .7 0 1.1.1s.7.2 1.1.3v5.9c-.5-.1-1-.2-1.5-.3s-1-.1-1.5-.1c-1.4 0-2.6.3-3.4.8-.9.5-1.5 1.1-2 1.8s-.8 1.4-.9 2c-.2.7-.2 1.2-.2 1.5v13.1h-6.1z" fill="#fff"/><path d="m358.7 212.4c0-1.9.3-3.7 1-5.3s1.6-2.9 2.8-4.1c1.2-1.1 2.6-2 4.2-2.6s3.4-.9 5.2-.9 3.6.3 5.2.9 3 1.5 4.2 2.6 2.1 2.5 2.8 4.1 1 3.3 1 5.3c0 1.9-.3 3.7-1 5.3s-1.6 2.9-2.8 4.1c-1.2 1.1-2.6 2-4.2 2.6s-3.4.9-5.2.9-3.6-.3-5.2-.9-3-1.5-4.2-2.6-2.1-2.5-2.8-4.1c-.6-1.6-1-3.4-1-5.3zm6.1 0c0 1 .2 1.9.5 2.8s.8 1.7 1.4 2.3c.6.7 1.4 1.2 2.3 1.6s1.9.6 3 .6 2.1-.2 3-.6 1.6-1 2.3-1.6c.6-.7 1.1-1.5 1.4-2.3.3-.9.5-1.8.5-2.8s-.2-1.9-.5-2.8-.8-1.7-1.4-2.3c-.6-.7-1.4-1.2-2.3-1.6s-1.9-.6-3-.6-2.1.2-3 .6-1.6 1-2.3 1.6c-.6.7-1.1 1.5-1.4 2.3-.3.9-.5 1.8-.5 2.8z" fill="#fff"/><path d="m393.1 186.1h6.1v17.2h.2c.3-.4.7-.8 1.2-1.2s1.1-.8 1.7-1.2c.7-.4 1.5-.7 2.3-.9.9-.2 1.9-.4 3.1-.4 1.7 0 3.3.3 4.8 1s2.7 1.6 3.7 2.7c1 1.2 1.8 2.5 2.4 4.1s.9 3.2.9 5-.3 3.5-.8 5c-.5 1.6-1.3 2.9-2.4 4.1s-2.3 2.1-3.8 2.7c-1.5.7-3.2 1-5 1-1.7 0-3.3-.3-4.8-1s-2.7-1.8-3.6-3.3h-.1v3.7h-5.8v-38.5zm20.3 26.3c0-1-.2-1.9-.5-2.8s-.8-1.7-1.4-2.3c-.6-.7-1.4-1.2-2.3-1.6s-1.9-.6-3-.6-2.1.2-3 .6-1.6 1-2.3 1.6c-.6.7-1.1 1.5-1.4 2.3-.3.9-.5 1.8-.5 2.8s.2 1.9.5 2.8.8 1.7 1.4 2.3c.6.7 1.4 1.2 2.3 1.6s1.9.6 3 .6 2.1-.2 3-.6 1.6-1 2.3-1.6c.6-.7 1.1-1.5 1.4-2.3.3-1 .5-1.9.5-2.8z" fill="#fff"/><path d="m442.6 221.2h-.2c-.9 1.4-2 2.4-3.4 3s-2.9.9-4.5.9c-1.1 0-2.2-.2-3.3-.5s-2-.8-2.9-1.4c-.8-.6-1.5-1.4-2-2.3s-.8-2-.8-3.2c0-1.3.2-2.5.7-3.4s1.1-1.7 1.9-2.3 1.7-1.1 2.8-1.5 2.1-.7 3.3-.8c1.1-.2 2.3-.3 3.4-.4 1.2-.1 2.2-.1 3.3-.1h1.5v-.7c0-1.5-.5-2.7-1.6-3.4-1.1-.8-2.4-1.1-4-1.1-1.3 0-2.5.2-3.6.7s-2.1 1.1-2.9 1.9l-3.2-3.2c1.4-1.4 2.9-2.4 4.8-3 1.8-.6 3.7-.9 5.6-.9 1.7 0 3.2.2 4.4.6s2.2.9 3 1.5 1.4 1.3 1.8 2.1.7 1.6.9 2.4.3 1.6.3 2.4.1 1.4.1 2v14.1h-5.5v-3.4zm-.4-7.6h-1.3c-.9 0-1.8 0-2.9.1s-2 .2-3 .5c-.9.3-1.7.6-2.4 1.1-.6.5-1 1.2-1 2.1 0 .6.1 1.1.4 1.5s.6.7 1 1 .9.5 1.4.6 1 .2 1.5.2c2.1 0 3.7-.5 4.7-1.5s1.5-2.4 1.5-4.1v-1.5z" fill="#fff"/><path d="m456.7 186.1h6.1v17.2h.2c.3-.4.7-.8 1.2-1.2s1.1-.8 1.7-1.2c.7-.4 1.5-.7 2.3-.9.9-.2 1.9-.4 3.1-.4 1.7 0 3.3.3 4.8 1s2.7 1.6 3.7 2.7c1 1.2 1.8 2.5 2.4 4.1s.9 3.2.9 5-.3 3.5-.8 5c-.5 1.6-1.3 2.9-2.4 4.1s-2.3 2.1-3.8 2.7c-1.5.7-3.2 1-5 1-1.7 0-3.3-.3-4.8-1s-2.7-1.8-3.6-3.3h-.1v3.7h-5.8v-38.5zm20.3 26.3c0-1-.2-1.9-.5-2.8s-.8-1.7-1.4-2.3c-.6-.7-1.4-1.2-2.3-1.6s-1.9-.6-3-.6-2.1.2-3 .6-1.6 1-2.3 1.6c-.6.7-1.1 1.5-1.4 2.3-.3.9-.5 1.8-.5 2.8s.2 1.9.5 2.8.8 1.7 1.4 2.3c.6.7 1.4 1.2 2.3 1.6s1.9.6 3 .6 2.1-.2 3-.6 1.6-1 2.3-1.6c.6-.7 1.1-1.5 1.4-2.3.3-1 .5-1.9.5-2.8z" fill="#fff"/><path d="m490.1 191.8c0-1 .4-1.8 1.1-2.6.7-.7 1.7-1.1 2.8-1.1s2.1.3 2.8 1c.8.7 1.1 1.6 1.1 2.6 0 1.1-.4 1.9-1.1 2.6-.8.7-1.7 1-2.8 1s-2-.4-2.8-1.1c-.7-.5-1.1-1.4-1.1-2.4zm.9 8.3h6.1v24.5h-6.1z" fill="#fff"/><path d="m506.3 186.1h6.1v38.6h-6.1z" fill="#fff"/><path d="m520.8 191.8c0-1 .4-1.8 1.1-2.6.7-.7 1.7-1.1 2.8-1.1s2.1.3 2.8 1c.8.7 1.1 1.6 1.1 2.6 0 1.1-.4 1.9-1.1 2.6-.8.7-1.7 1-2.8 1s-2-.4-2.8-1.1c-.8-.5-1.1-1.4-1.1-2.4zm.8 8.3h6.1v24.5h-6.1z" fill="#fff"/><path d="m534 205.3v-5.2h5v-7.1h6.1v7.1h6.7v5.2h-6.7v10.7c0 1.2.2 2.2.7 2.9s1.4 1.1 2.7 1.1c.5 0 1.1-.1 1.8-.2.6-.1 1.2-.3 1.5-.6v5.2c-.6.3-1.4.5-2.4.6-.9.1-1.8.2-2.5.2-1.6 0-3-.2-4-.5-1-.4-1.9-.9-2.4-1.6-.6-.7-1-1.6-1.2-2.7s-.3-2.3-.3-3.8v-11.2h-5z" fill="#fff"/><path d="m555.4 200.1h6.7l6.8 17h.1l6.1-17h6.4l-11.5 29.8c-.4 1.2-.9 2.2-1.5 3-.5.9-1.1 1.6-1.9 2.2-.7.6-1.6 1-2.5 1.3-1 .3-2.1.4-3.5.4-1.6 0-3.2-.2-4.7-.6l.8-5.5c.5.2 1 .3 1.5.4s1.1.2 1.6.2c.7 0 1.4-.1 1.9-.2s.9-.3 1.3-.6.7-.7.9-1.1c.2-.5.5-1 .8-1.7l1.2-2.9z" fill="#fff"/><path d="m230.1 278.5h6.4v30.3h15.4v5.8h-21.8z" fill="#fff"/><path d="m256.8 302.4c0-1.9.3-3.7 1-5.3s1.6-2.9 2.8-4.1c1.2-1.1 2.6-2 4.2-2.6s3.4-.9 5.2-.9 3.6.3 5.2.9 3 1.5 4.2 2.6 2.1 2.5 2.8 4.1 1 3.3 1 5.3c0 1.9-.3 3.7-1 5.3s-1.6 2.9-2.8 4.1c-1.2 1.1-2.6 2-4.2 2.6s-3.4.9-5.2.9-3.6-.3-5.2-.9-3-1.5-4.2-2.6-2.1-2.5-2.8-4.1c-.6-1.6-1-3.4-1-5.3zm6.2 0c0 1 .2 1.9.5 2.8s.8 1.7 1.4 2.3c.6.7 1.4 1.2 2.3 1.6s1.9.6 3 .6 2.1-.2 3-.6 1.6-1 2.3-1.6c.6-.7 1.1-1.5 1.4-2.3.3-.9.5-1.8.5-2.8s-.2-1.9-.5-2.8-.8-1.7-1.4-2.3c-.6-.7-1.4-1.2-2.3-1.6s-1.9-.6-3-.6-2.1.2-3 .6-1.6 1-2.3 1.6c-.6.7-1.1 1.5-1.4 2.3-.4.9-.5 1.8-.5 2.8z" fill="#fff"/><path d="m287.9 290.1h6.6l5.3 17.1h.1l4.9-17.1h6.6l5.3 17.1h.1l5.1-17.1h6.2l-8.3 24.5h-6.1l-5.8-16.7h-.1l-5.2 16.7h-6.3z" fill="#fff"/><path d="m351.4 278.5h6.4v36.1h-6.4z" fill="#fff"/><path d="m366.9 290.1h5.8v3.8h.1c.5-1.2 1.4-2.2 2.6-3.1s2.8-1.4 4.9-1.4c3.8 0 6.4 1.5 7.6 4.5.9-1.6 2-2.7 3.3-3.4s2.9-1.1 4.7-1.1c1.6 0 3 .3 4.1.8s2 1.3 2.7 2.2c.7 1 1.2 2.1 1.5 3.3.3 1.3.5 2.6.5 4.1v14.6h-6.1v-13.9c0-.7-.1-1.5-.2-2.2s-.4-1.3-.7-1.8-.8-.9-1.4-1.2-1.3-.5-2.2-.5c-1 0-1.8.2-2.4.5-.7.4-1.2.8-1.6 1.4s-.7 1.3-.9 2c-.2.8-.3 1.5-.3 2.3v13.3h-6.1v-14.3c0-1.5-.3-2.7-1-3.6-.6-.9-1.7-1.4-3.2-1.4-1 0-1.9.2-2.6.5s-1.3.8-1.7 1.4-.8 1.2-1 2c-.2.7-.3 1.5-.3 2.3v13.4h-6.1z" fill="#fff"/><path d="m413.6 290.1h5.8v3.7h.1c.9-1.5 2.1-2.6 3.6-3.3s3.1-1 4.8-1c1.9 0 3.6.3 5 1 1.5.7 2.8 1.6 3.8 2.7 1.1 1.2 1.9 2.5 2.4 4.1s.8 3.2.8 5-.3 3.5-.9 5c-.6 1.6-1.4 2.9-2.4 4.1s-2.3 2.1-3.7 2.7c-1.5.7-3.1 1-4.8 1-1.2 0-2.2-.1-3.1-.4-.9-.2-1.7-.5-2.3-.9-.7-.4-1.3-.8-1.7-1.2-.5-.4-.9-.8-1.2-1.2h-.2v14.7h-6.1v-36zm20.3 12.3c0-1-.2-1.9-.5-2.8s-.8-1.7-1.4-2.3c-.6-.7-1.4-1.2-2.3-1.6s-1.9-.6-3-.6-2.1.2-3 .6-1.6 1-2.3 1.6c-.6.7-1.1 1.5-1.4 2.3-.3.9-.5 1.8-.5 2.8s.2 1.9.5 2.8.8 1.7 1.4 2.3c.6.7 1.4 1.2 2.3 1.6s1.9.6 3 .6 2.1-.2 3-.6 1.6-1 2.3-1.6c.6-.7 1.1-1.5 1.4-2.3.3-1 .5-1.9.5-2.8z" fill="#fff"/><path d="m463.1 311.2h-.2c-.9 1.4-2 2.4-3.4 3s-2.9.9-4.5.9c-1.1 0-2.2-.2-3.3-.5s-2-.8-2.9-1.4c-.8-.6-1.5-1.4-2-2.3s-.8-2-.8-3.2c0-1.3.2-2.5.7-3.4s1.1-1.7 1.9-2.3 1.7-1.1 2.8-1.5 2.1-.7 3.3-.8c1.1-.2 2.3-.3 3.4-.4 1.2-.1 2.2-.1 3.3-.1h1.5v-.7c0-1.5-.5-2.7-1.6-3.4-1.1-.8-2.4-1.1-4-1.1-1.3 0-2.5.2-3.6.7s-2.1 1.1-2.9 1.9l-3.2-3.2c1.4-1.4 2.9-2.4 4.8-3 1.8-.6 3.7-.9 5.6-.9 1.7 0 3.2.2 4.4.6s2.2.9 3 1.5 1.4 1.3 1.8 2.1.7 1.6.9 2.4.3 1.6.3 2.4.1 1.4.1 2v14.1h-5.5v-3.4zm-.4-7.6h-1.3c-.9 0-1.8 0-2.9.1s-2 .2-3 .5c-.9.3-1.7.6-2.4 1.1-.6.5-1 1.2-1 2.1 0 .6.1 1.1.4 1.5s.6.7 1 1 .9.5 1.4.6 1 .2 1.5.2c2.1 0 3.7-.5 4.7-1.5s1.5-2.4 1.5-4.1v-1.5z" fill="#fff"/><path d="m493.9 297.5c-.7-.7-1.5-1.3-2.2-1.8-.8-.4-1.6-.7-2.4-.7-1.1 0-2.1.2-3 .6s-1.6 1-2.3 1.6c-.6.7-1.1 1.5-1.4 2.3-.3.9-.5 1.8-.5 2.8s.2 1.9.5 2.8.8 1.7 1.4 2.3c.6.7 1.4 1.2 2.3 1.6s1.9.6 3 .6c1 0 1.8-.2 2.7-.6.8-.4 1.5-1 2.1-1.7l4.1 4.4c-.6.6-1.3 1.1-2.1 1.6-.8.4-1.6.8-2.4 1.1s-1.6.5-2.3.6-1.4.2-1.9.2c-1.8 0-3.6-.3-5.2-.9s-3-1.5-4.2-2.6-2.1-2.5-2.8-4.1-1-3.3-1-5.3c0-1.9.3-3.7 1-5.3s1.6-2.9 2.8-4.1c1.2-1.1 2.6-2 4.2-2.6s3.4-.9 5.2-.9c1.6 0 3.1.3 4.7.9s3 1.5 4.2 2.8z" fill="#fff"/><path d="m501 295.3v-5.2h5v-7.1h6.1v7.1h6.7v5.2h-6.7v10.7c0 1.2.2 2.2.7 2.9s1.4 1.1 2.7 1.1c.5 0 1.1-.1 1.8-.2.6-.1 1.2-.3 1.5-.6v5.2c-.6.3-1.4.5-2.4.6-.9.1-1.8.2-2.5.2-1.6 0-3-.2-4-.5-1-.4-1.9-.9-2.4-1.6-.6-.7-1-1.6-1.2-2.7s-.3-2.3-.3-3.8v-11.2h-5z" fill="#fff"/><path d="m600.4 23.1h454.5v454.5h-454.5z" fill="#1c3747"/><path d="m600.4 23.1h454.5v454.5h-454.5z" fill="none"/><g fill="#fff"><path d="m623.1 188.5h6.4v14.4h16.9v-14.4h6.4v36.1h-6.4v-15.9h-16.9v15.9h-6.4z"/><path d="m661.6 191.8c0-1 .4-1.8 1.1-2.6.7-.7 1.7-1.1 2.8-1.1s2.1.3 2.8 1c.8.7 1.1 1.6 1.1 2.6 0 1.1-.4 1.9-1.1 2.6-.8.7-1.7 1-2.8 1s-2-.4-2.8-1.1c-.7-.5-1.1-1.4-1.1-2.4zm.9 8.3h6.1v24.5h-6.1z"/><path d="m702.9 200.1v22.3c0 2.2-.3 4.2-.8 6s-1.4 3.3-2.5 4.5-2.6 2.2-4.3 2.9-3.8 1-6.2 1c-2.3 0-4.4-.3-6.5-.9-2-.6-3.9-1.6-5.7-3.2l3.7-5c1.2 1.1 2.5 2 3.8 2.6s2.9.9 4.6.9c1.5 0 2.7-.2 3.7-.6s1.8-1 2.4-1.7 1-1.6 1.3-2.6.4-2.1.4-3.3v-1.8h-.1c-.9 1.2-2.1 2.1-3.5 2.7-1.5.6-3 .9-4.5.9-1.8 0-3.5-.3-5-1s-2.8-1.6-3.9-2.7-1.9-2.4-2.5-4c-.6-1.5-.9-3.2-.9-4.9 0-1.8.3-3.5.8-5 .5-1.6 1.3-2.9 2.4-4.1s2.3-2.1 3.8-2.7c1.5-.7 3.2-1 5.1-1 1.7 0 3.3.3 4.8 1s2.7 1.8 3.6 3.3h.1v-3.7h5.9zm-13.1 4.9c-1.1 0-2.1.2-3 .5s-1.6.9-2.3 1.5c-.6.6-1.1 1.4-1.5 2.3s-.5 1.9-.5 3c0 1 .2 1.9.5 2.8.4.9.9 1.6 1.5 2.2s1.4 1.2 2.3 1.5c.9.4 1.8.6 2.9.6s2.1-.2 3-.6 1.7-.9 2.3-1.5 1.1-1.4 1.5-2.3c.3-.9.5-1.8.5-2.9 0-2.1-.6-3.9-1.9-5.2-1.3-1.2-3-1.9-5.3-1.9z"/><path d="m718 203.6h.1c.5-1 1.3-1.9 2.5-2.8 1.2-.8 2.8-1.2 4.7-1.2 1.6 0 3 .3 4.2.8 1.1.5 2.1 1.3 2.8 2.1.7.9 1.2 1.9 1.5 3.1s.5 2.4.5 3.6v15.5h-6.1v-12.4c0-.7 0-1.4-.1-2.3-.1-.8-.2-1.6-.5-2.3s-.7-1.3-1.4-1.8c-.6-.5-1.4-.7-2.5-.7-1 0-1.9.2-2.6.5s-1.3.8-1.7 1.4-.8 1.2-1 2c-.2.7-.3 1.5-.3 2.3v13.4h-6.1v-38.6h6.1v17.4z"/><path d="m760.9 188.5h12.1c1.7 0 3.4.2 5 .5s3 .9 4.3 1.7c1.2.8 2.2 1.9 2.9 3.2s1.1 3 1.1 5c0 2.3-.4 4.1-1.2 5.5s-1.8 2.5-3.2 3.2c-1.3.8-2.9 1.3-4.6 1.6-1.8.3-3.6.4-5.5.4h-4.6v14.9h-6.4v-36zm10.3 15.7c.9 0 1.9 0 2.9-.1s1.9-.3 2.7-.6 1.5-.8 2-1.5.8-1.6.8-2.9c0-1.1-.2-2-.7-2.7s-1.1-1.2-1.8-1.5c-.7-.4-1.6-.6-2.5-.7s-1.8-.2-2.7-.2h-4.6v10.1h3.9z"/><path d="m793.5 200.1h6.1v3.9h.1c.7-1.4 1.6-2.5 2.9-3.3s2.7-1.2 4.3-1.2c.4 0 .7 0 1.1.1s.7.2 1.1.3v5.9c-.5-.1-1-.2-1.5-.3s-1-.1-1.5-.1c-1.4 0-2.6.3-3.4.8-.9.5-1.5 1.1-2 1.8s-.8 1.4-.9 2c-.2.7-.2 1.2-.2 1.5v13.1h-6.1z"/><path d="m813.2 212.4c0-1.9.3-3.7 1-5.3s1.6-2.9 2.8-4.1c1.2-1.1 2.6-2 4.2-2.6s3.4-.9 5.2-.9 3.6.3 5.2.9 3 1.5 4.2 2.6 2.1 2.5 2.8 4.1 1 3.3 1 5.3c0 1.9-.3 3.7-1 5.3s-1.6 2.9-2.8 4.1c-1.2 1.1-2.6 2-4.2 2.6s-3.4.9-5.2.9-3.6-.3-5.2-.9-3-1.5-4.2-2.6-2.1-2.5-2.8-4.1c-.6-1.6-1-3.4-1-5.3zm6.2 0c0 1 .2 1.9.5 2.8s.8 1.7 1.4 2.3c.6.7 1.4 1.2 2.3 1.6s1.9.6 3 .6 2.1-.2 3-.6 1.6-1 2.3-1.6c.6-.7 1.1-1.5 1.4-2.3.3-.9.5-1.8.5-2.8s-.2-1.9-.5-2.8-.8-1.7-1.4-2.3c-.6-.7-1.4-1.2-2.3-1.6s-1.9-.6-3-.6-2.1.2-3 .6-1.6 1-2.3 1.6c-.6.7-1.1 1.5-1.4 2.3-.4.9-.5 1.8-.5 2.8z"/><path d="m847.6 186.1h6.1v17.2h.2c.3-.4.7-.8 1.2-1.2s1.1-.8 1.7-1.2c.7-.4 1.5-.7 2.3-.9.9-.2 1.9-.4 3.1-.4 1.7 0 3.3.3 4.8 1s2.7 1.6 3.7 2.7c1 1.2 1.8 2.5 2.4 4.1s.9 3.2.9 5-.3 3.5-.8 5c-.5 1.6-1.3 2.9-2.4 4.1s-2.3 2.1-3.8 2.7c-1.5.7-3.2 1-5 1-1.7 0-3.3-.3-4.8-1s-2.7-1.8-3.6-3.3h-.1v3.7h-5.8v-38.5zm20.3 26.3c0-1-.2-1.9-.5-2.8s-.8-1.7-1.4-2.3c-.6-.7-1.4-1.2-2.3-1.6s-1.9-.6-3-.6-2.1.2-3 .6-1.6 1-2.3 1.6c-.6.7-1.1 1.5-1.4 2.3-.3.9-.5 1.8-.5 2.8s.2 1.9.5 2.8.8 1.7 1.4 2.3c.6.7 1.4 1.2 2.3 1.6s1.9.6 3 .6 2.1-.2 3-.6 1.6-1 2.3-1.6c.6-.7 1.1-1.5 1.4-2.3.3-1 .5-1.9.5-2.8z"/><path d="m897.1 221.2h-.2c-.9 1.4-2 2.4-3.4 3s-2.9.9-4.5.9c-1.1 0-2.2-.2-3.3-.5s-2-.8-2.9-1.4c-.8-.6-1.5-1.4-2-2.3s-.8-2-.8-3.2c0-1.3.2-2.5.7-3.4s1.1-1.7 1.9-2.3 1.7-1.1 2.8-1.5 2.1-.7 3.3-.8c1.1-.2 2.3-.3 3.4-.4 1.2-.1 2.2-.1 3.3-.1h1.5v-.7c0-1.5-.5-2.7-1.6-3.4s-2.4-1.1-4-1.1c-1.3 0-2.5.2-3.6.7s-2.1 1.1-2.9 1.9l-3.2-3.2c1.4-1.4 2.9-2.4 4.8-3 1.8-.6 3.7-.9 5.6-.9 1.7 0 3.2.2 4.4.6s2.2.9 3 1.5 1.4 1.3 1.8 2.1.7 1.6.9 2.4.3 1.6.3 2.4.1 1.4.1 2v14.1h-5.5v-3.4zm-.4-7.6h-1.3c-.9 0-1.8 0-2.9.1s-2 .2-3 .5-1.7.6-2.4 1.1c-.6.5-1 1.2-1 2.1 0 .6.1 1.1.4 1.5s.6.7 1 1 .9.5 1.4.6 1 .2 1.5.2c2.1 0 3.7-.5 4.7-1.5s1.5-2.4 1.5-4.1v-1.5z"/><path d="m911.2 186.1h6.1v17.2h.2c.3-.4.7-.8 1.2-1.2s1.1-.8 1.7-1.2c.7-.4 1.5-.7 2.3-.9.9-.2 1.9-.4 3.1-.4 1.7 0 3.3.3 4.8 1s2.7 1.6 3.7 2.7c1 1.2 1.8 2.5 2.4 4.1s.9 3.2.9 5-.3 3.5-.8 5c-.5 1.6-1.3 2.9-2.4 4.1s-2.3 2.1-3.8 2.7c-1.5.7-3.2 1-5 1-1.7 0-3.3-.3-4.8-1s-2.7-1.8-3.6-3.3h-.2v3.7h-5.8zm20.3 26.3c0-1-.2-1.9-.5-2.8s-.8-1.7-1.4-2.3c-.6-.7-1.4-1.2-2.3-1.6s-1.9-.6-3-.6-2.1.2-3 .6-1.6 1-2.3 1.6c-.6.7-1.1 1.5-1.4 2.3-.3.9-.5 1.8-.5 2.8s.2 1.9.5 2.8.8 1.7 1.4 2.3c.6.7 1.4 1.2 2.3 1.6s1.9.6 3 .6 2.1-.2 3-.6 1.6-1 2.3-1.6c.6-.7 1.1-1.5 1.4-2.3.3-1 .5-1.9.5-2.8z"/><path d="m944.6 191.8c0-1 .4-1.8 1.1-2.6.7-.7 1.7-1.1 2.8-1.1s2.1.3 2.8 1c.8.7 1.1 1.6 1.1 2.6 0 1.1-.4 1.9-1.1 2.6-.8.7-1.7 1-2.8 1s-2-.4-2.8-1.1c-.7-.5-1.1-1.4-1.1-2.4zm.9 8.3h6.1v24.5h-6.1z"/><path d="m960.8 186.1h6.1v38.6h-6.1z"/><path d="m975.3 191.8c0-1 .4-1.8 1.1-2.6.7-.7 1.7-1.1 2.8-1.1s2.1.3 2.8 1c.8.7 1.1 1.6 1.1 2.6 0 1.1-.4 1.9-1.1 2.6-.8.7-1.7 1-2.8 1s-2-.4-2.8-1.1c-.8-.5-1.1-1.4-1.1-2.4zm.8 8.3h6.1v24.5h-6.1z"/><path d="m988.5 205.3v-5.2h5v-7.1h6.1v7.1h6.7v5.2h-6.7v10.7c0 1.2.2 2.2.7 2.9s1.4 1.1 2.7 1.1c.5 0 1.1-.1 1.8-.2.6-.1 1.2-.3 1.5-.6v5.2c-.6.3-1.4.5-2.4.6-.9.1-1.8.2-2.5.2-1.6 0-3-.2-4-.5s-1.9-.9-2.4-1.6c-.6-.7-1-1.6-1.2-2.7s-.3-2.3-.3-3.8v-11.2h-5z"/><path d="m1009.9 200.1h6.7l6.8 17h.1l6.1-17h6.4l-11.6 29.7c-.4 1.2-.9 2.2-1.5 3-.5.9-1.1 1.6-1.9 2.2-.7.6-1.6 1-2.5 1.3-1 .3-2.1.4-3.5.4-1.6 0-3.2-.2-4.7-.6l.8-5.5c.5.2 1 .3 1.5.4s1.1.2 1.6.2c.7 0 1.4-.1 1.9-.2s.9-.3 1.3-.6.7-.7.9-1.1c.2-.5.5-1 .8-1.7l1.2-2.9z"/><path d="m676.5 278.5h6.4v14.4h16.9v-14.4h6.4v36.1h-6.4v-15.9h-16.9v15.9h-6.4z"/><path d="m715 281.8c0-1 .4-1.8 1.1-2.6.7-.7 1.7-1.1 2.8-1.1s2.1.3 2.8 1c.8.7 1.1 1.6 1.1 2.6 0 1.1-.4 1.9-1.1 2.6-.8.7-1.7 1-2.8 1s-2-.4-2.8-1.1c-.8-.5-1.1-1.4-1.1-2.4zm.8 8.3h6.1v24.5h-6.1z"/><path d="m756.2 290.1v22.3c0 2.2-.3 4.2-.8 6s-1.4 3.3-2.5 4.5-2.6 2.2-4.3 2.9-3.8 1-6.2 1c-2.3 0-4.4-.3-6.5-.9-2-.6-3.9-1.6-5.7-3.2l3.7-5c1.2 1.1 2.5 2 3.8 2.6s2.9.9 4.6.9c1.5 0 2.7-.2 3.7-.6s1.8-1 2.4-1.7 1-1.6 1.3-2.6.4-2.1.4-3.3v-1.8h-.1c-.9 1.2-2.1 2.1-3.5 2.7-1.5.6-3 .9-4.5.9-1.8 0-3.5-.3-5-1s-2.8-1.6-3.9-2.7-1.9-2.4-2.5-4c-.6-1.5-.9-3.2-.9-4.9 0-1.8.3-3.5.8-5 .5-1.6 1.3-2.9 2.4-4.1s2.3-2.1 3.8-2.7c1.5-.7 3.2-1 5.1-1 1.7 0 3.3.3 4.8 1s2.7 1.8 3.6 3.3h.1v-3.7h5.9zm-13 4.9c-1.1 0-2.1.2-3 .5s-1.6.9-2.3 1.5c-.6.6-1.1 1.4-1.5 2.3s-.5 1.9-.5 3c0 1 .2 1.9.5 2.8.4.9.9 1.6 1.5 2.2s1.4 1.2 2.3 1.5c.9.4 1.8.6 2.9.6s2.1-.2 3-.6 1.7-.9 2.3-1.5 1.1-1.4 1.5-2.3c.3-.9.5-1.8.5-2.9 0-2.1-.6-3.9-1.9-5.2-1.3-1.2-3.1-1.9-5.3-1.9z"/><path d="m771.3 293.6h.1c.5-1 1.3-1.9 2.5-2.8 1.2-.8 2.8-1.2 4.7-1.2 1.6 0 3 .3 4.2.8 1.1.5 2.1 1.3 2.8 2.1.7.9 1.2 1.9 1.5 3.1s.5 2.4.5 3.6v15.5h-6.1v-12.4c0-.7 0-1.4-.1-2.3-.1-.8-.2-1.6-.5-2.3s-.7-1.3-1.4-1.8c-.6-.5-1.4-.7-2.5-.7-1 0-1.9.2-2.6.5s-1.3.8-1.7 1.4-.8 1.2-1 2c-.2.7-.3 1.5-.3 2.3v13.4h-6.1v-38.6h6.1v17.4z"/><path d="m814.1 278.5h6.4v36.1h-6.4z"/><path d="m829.6 290.1h5.8v3.8h.1c.5-1.2 1.4-2.2 2.6-3.1s2.8-1.4 4.9-1.4c3.8 0 6.4 1.5 7.6 4.5.9-1.6 2-2.7 3.3-3.4s2.9-1.1 4.7-1.1c1.6 0 3 .3 4.1.8s2 1.3 2.7 2.2c.7 1 1.2 2.1 1.5 3.3.3 1.3.5 2.6.5 4.1v14.6h-6.1v-13.9c0-.7-.1-1.5-.2-2.2s-.4-1.3-.7-1.8-.8-.9-1.4-1.2-1.3-.5-2.2-.5c-1 0-1.8.2-2.4.5s-1.2.8-1.6 1.4-.7 1.3-.9 2c-.2.8-.3 1.5-.3 2.3v13.3h-6.1v-14.3c0-1.5-.3-2.7-1-3.6-.6-.9-1.7-1.4-3.2-1.4-1 0-1.9.2-2.6.5s-1.3.8-1.7 1.4-.8 1.2-1 2c-.2.7-.3 1.5-.3 2.3v13.4h-6.1z"/><path d="m876.3 290.1h5.8v3.7h.1c.9-1.5 2.1-2.6 3.6-3.3s3.1-1 4.8-1c1.9 0 3.6.3 5 1s2.8 1.6 3.8 2.7c1.1 1.2 1.9 2.5 2.4 4.1s.8 3.2.8 5-.3 3.5-.9 5c-.6 1.6-1.4 2.9-2.4 4.1s-2.3 2.1-3.7 2.7c-1.5.7-3.1 1-4.8 1-1.2 0-2.2-.1-3.1-.4-.9-.2-1.7-.5-2.3-.9-.7-.4-1.3-.8-1.7-1.2-.5-.4-.9-.8-1.2-1.2h-.2v14.7h-6.1v-36zm20.3 12.3c0-1-.2-1.9-.5-2.8s-.8-1.7-1.4-2.3c-.6-.7-1.4-1.2-2.3-1.6s-1.9-.6-3-.6-2.1.2-3 .6-1.6 1-2.3 1.6c-.6.7-1.1 1.5-1.4 2.3-.3.9-.5 1.8-.5 2.8s.2 1.9.5 2.8.8 1.7 1.4 2.3c.6.7 1.4 1.2 2.3 1.6s1.9.6 3 .6 2.1-.2 3-.6 1.6-1 2.3-1.6c.6-.7 1.1-1.5 1.4-2.3.3-1 .5-1.9.5-2.8z"/><path d="m925.7 311.2h-.2c-.9 1.4-2 2.4-3.4 3s-2.9.9-4.5.9c-1.1 0-2.2-.2-3.3-.5s-2-.8-2.9-1.4c-.8-.6-1.5-1.4-2-2.3s-.8-2-.8-3.2c0-1.3.2-2.5.7-3.4s1.1-1.7 1.9-2.3 1.7-1.1 2.8-1.5 2.2-.7 3.3-.8c1.1-.2 2.3-.3 3.4-.4 1.2-.1 2.2-.1 3.3-.1h1.5v-.7c0-1.5-.5-2.7-1.6-3.4-1.1-.8-2.4-1.1-4-1.1-1.3 0-2.5.2-3.6.7s-2.1 1.1-2.9 1.9l-3.2-3.2c1.4-1.4 2.9-2.4 4.8-3 1.8-.6 3.7-.9 5.6-.9 1.7 0 3.2.2 4.4.6s2.2.9 3 1.5 1.4 1.3 1.8 2.1.7 1.6.9 2.4.3 1.6.3 2.4.1 1.4.1 2v14.1h-5.5v-3.4zm-.3-7.6h-1.3c-.9 0-1.8 0-2.9.1s-2 .2-3 .5c-.9.3-1.7.6-2.4 1.1-.6.5-1 1.2-1 2.1 0 .6.1 1.1.4 1.5s.6.7 1 1 .9.5 1.4.6 1 .2 1.5.2c2.1 0 3.7-.5 4.7-1.5s1.5-2.4 1.5-4.1v-1.5z"/><path d="m956.6 297.5c-.7-.7-1.5-1.3-2.2-1.8-.8-.4-1.6-.7-2.4-.7-1.1 0-2.1.2-3 .6s-1.6 1-2.3 1.6c-.6.7-1.1 1.5-1.4 2.3-.3.9-.5 1.8-.5 2.8s.2 1.9.5 2.8.8 1.7 1.4 2.3c.6.7 1.4 1.2 2.3 1.6s1.9.6 3 .6c1 0 1.8-.2 2.7-.6.8-.4 1.5-1 2.1-1.7l4.1 4.4c-.6.6-1.3 1.1-2.1 1.6-.8.4-1.6.8-2.4 1.1s-1.6.5-2.3.6-1.4.2-1.9.2c-1.8 0-3.6-.3-5.2-.9s-3-1.5-4.2-2.6-2.1-2.5-2.8-4.1-1-3.3-1-5.3c0-1.9.3-3.7 1-5.3s1.6-2.9 2.8-4.1c1.2-1.1 2.6-2 4.2-2.6s3.4-.9 5.2-.9c1.6 0 3.1.3 4.7.9s3 1.5 4.2 2.8z"/><path d="m963.6 295.3v-5.2h5v-7.1h6.1v7.1h6.7v5.2h-6.7v10.7c0 1.2.2 2.2.7 2.9s1.4 1.1 2.7 1.1c.5 0 1.1-.1 1.8-.2.6-.1 1.2-.3 1.5-.6v5.2c-.6.3-1.4.5-2.4.6-.9.1-1.8.2-2.5.2-1.6 0-3-.2-4-.5-1-.4-1.9-.9-2.4-1.6-.6-.7-1-1.6-1.2-2.7s-.3-2.3-.3-3.8v-11.2h-5z"/></g><path d="m145.9 477.6h454.5v454.5h-454.5z" fill="#7f8182"/><path d="m145.9 477.6h454.5v454.5h-454.5z" fill="none"/><path d="m176.8 643h6.4v30.3h15.4v5.8h-21.8z" fill="#fff"/><path d="m203.5 666.9c0-1.9.3-3.7 1-5.3s1.6-2.9 2.8-4.1c1.2-1.1 2.6-2 4.2-2.6s3.4-.9 5.2-.9 3.6.3 5.2.9 3 1.5 4.2 2.6 2.1 2.5 2.8 4.1 1 3.3 1 5.3-.3 3.7-1 5.3-1.6 2.9-2.8 4.1c-1.2 1.1-2.6 2-4.2 2.6s-3.4.9-5.2.9-3.6-.3-5.2-.9-3-1.5-4.2-2.6-2.1-2.5-2.8-4.1-1-3.4-1-5.3zm6.1 0c0 1 .2 1.9.5 2.8s.8 1.7 1.4 2.3c.6.7 1.4 1.2 2.3 1.6s1.9.6 3 .6 2.1-.2 3-.6 1.6-1 2.3-1.6c.6-.7 1.1-1.5 1.4-2.3.3-.9.5-1.8.5-2.8s-.2-1.9-.5-2.8-.8-1.7-1.4-2.3c-.6-.7-1.4-1.2-2.3-1.6s-1.9-.6-3-.6-2.1.2-3 .6-1.6 1-2.3 1.6c-.6.7-1.1 1.5-1.4 2.3-.3.9-.5 1.8-.5 2.8z" fill="#fff"/><path d="m234.5 654.6h6.6l5.3 17.1h.1l4.9-17.1h6.6l5.3 17.1h.1l5.1-17.1h6.2l-8.3 24.5h-6.1l-5.8-16.7h-.1l-5.2 16.7h-6.3z" fill="#fff"/><path d="m298.2 643h12.1c1.7 0 3.4.2 5 .5s3 .9 4.3 1.7c1.2.8 2.2 1.9 2.9 3.2s1.1 3 1.1 5c0 2.3-.4 4.1-1.2 5.5s-1.8 2.5-3.2 3.2c-1.3.8-2.9 1.3-4.6 1.6-1.8.3-3.6.4-5.5.4h-4.6v14.9h-6.4v-36zm10.3 15.7c.9 0 1.9 0 2.9-.1s1.9-.3 2.7-.6 1.5-.8 2-1.5.8-1.6.8-2.9c0-1.1-.2-2-.7-2.7s-1.1-1.2-1.8-1.5c-.7-.4-1.6-.6-2.5-.7s-1.8-.2-2.7-.2h-4.6v10.1h3.9z" fill="#fff"/><path d="m330.8 654.6h6.1v3.9h.1c.7-1.4 1.6-2.5 2.9-3.3s2.7-1.2 4.3-1.2c.4 0 .7 0 1.1.1s.7.2 1.1.3v5.9c-.5-.1-1-.2-1.5-.3s-1-.1-1.5-.1c-1.4 0-2.6.3-3.4.8-.9.5-1.5 1.1-2 1.8s-.8 1.4-.9 2c-.2.7-.2 1.2-.2 1.5v13.1h-6.1z" fill="#fff"/><path d="m350.6 666.9c0-1.9.3-3.7 1-5.3s1.6-2.9 2.8-4.1c1.2-1.1 2.6-2 4.2-2.6s3.4-.9 5.2-.9 3.6.3 5.2.9 3 1.5 4.2 2.6 2.1 2.5 2.8 4.1 1 3.3 1 5.3-.3 3.7-1 5.3-1.6 2.9-2.8 4.1c-1.2 1.1-2.6 2-4.2 2.6s-3.4.9-5.2.9-3.6-.3-5.2-.9-3-1.5-4.2-2.6-2.1-2.5-2.8-4.1-1-3.4-1-5.3zm6.1 0c0 1 .2 1.9.5 2.8s.8 1.7 1.4 2.3c.6.7 1.4 1.2 2.3 1.6s1.9.6 3 .6 2.1-.2 3-.6 1.6-1 2.3-1.6c.6-.7 1.1-1.5 1.4-2.3.3-.9.5-1.8.5-2.8s-.2-1.9-.5-2.8-.8-1.7-1.4-2.3c-.6-.7-1.4-1.2-2.3-1.6s-1.9-.6-3-.6-2.1.2-3 .6-1.6 1-2.3 1.6c-.6.7-1.1 1.5-1.4 2.3-.3.9-.5 1.8-.5 2.8z" fill="#fff"/><path d="m384.9 640.6h6.1v17.2h.2c.3-.4.7-.8 1.2-1.2s1.1-.8 1.7-1.2c.7-.4 1.5-.7 2.3-.9.9-.2 1.9-.4 3.1-.4 1.7 0 3.3.3 4.8 1s2.7 1.6 3.7 2.7c1 1.2 1.8 2.5 2.4 4.1s.9 3.2.9 5-.3 3.5-.8 5c-.5 1.6-1.3 2.9-2.4 4.1s-2.3 2.1-3.8 2.7c-1.5.7-3.2 1-5 1-1.7 0-3.3-.3-4.8-1s-2.7-1.8-3.6-3.3h-.1v3.7h-5.8v-38.5zm20.3 26.3c0-1-.2-1.9-.5-2.8s-.8-1.7-1.4-2.3c-.6-.7-1.4-1.2-2.3-1.6s-1.9-.6-3-.6-2.1.2-3 .6-1.6 1-2.3 1.6c-.6.7-1.1 1.5-1.4 2.3-.3.9-.5 1.8-.5 2.8s.2 1.9.5 2.8.8 1.7 1.4 2.3c.6.7 1.4 1.2 2.3 1.6s1.9.6 3 .6 2.1-.2 3-.6 1.6-1 2.3-1.6c.6-.7 1.1-1.5 1.4-2.3.4-.9.5-1.9.5-2.8z" fill="#fff"/><path d="m434.4 675.8h-.2c-.9 1.4-2 2.4-3.4 3s-2.9.9-4.5.9c-1.1 0-2.2-.2-3.3-.5s-2-.8-2.9-1.4c-.8-.6-1.5-1.4-2-2.3s-.8-2-.8-3.2c0-1.3.2-2.5.7-3.4s1.1-1.7 1.9-2.3 1.7-1.1 2.8-1.5 2.1-.7 3.3-.8c1.1-.2 2.3-.3 3.4-.4 1.2-.1 2.2-.1 3.3-.1h1.5v-.7c0-1.5-.5-2.7-1.6-3.4-1.1-.8-2.4-1.1-4-1.1-1.3 0-2.5.2-3.6.7s-2.1 1.1-2.9 1.9l-3.2-3.2c1.4-1.4 2.9-2.4 4.8-3 1.8-.6 3.7-.9 5.6-.9 1.7 0 3.2.2 4.4.6s2.2.9 3 1.5 1.4 1.3 1.8 2.1.7 1.6.9 2.4.3 1.6.3 2.4.1 1.4.1 2v14.1h-5.5v-3.4zm-.3-7.6h-1.3c-.9 0-1.8 0-2.9.1s-2 .2-3 .5c-.9.3-1.7.6-2.4 1.1-.6.5-1 1.2-1 2.1 0 .6.1 1.1.4 1.5s.6.7 1 1 .9.5 1.4.6 1 .2 1.5.2c2.1 0 3.7-.5 4.7-1.5s1.5-2.4 1.5-4.1v-1.5z" fill="#fff"/><path d="m448.5 640.6h6.1v17.2h.2c.3-.4.7-.8 1.2-1.2s1.1-.8 1.7-1.2c.7-.4 1.5-.7 2.3-.9.9-.2 1.9-.4 3.1-.4 1.7 0 3.3.3 4.8 1s2.7 1.6 3.7 2.7c1 1.2 1.8 2.5 2.4 4.1s.9 3.2.9 5-.3 3.5-.8 5c-.5 1.6-1.3 2.9-2.4 4.1s-2.3 2.1-3.8 2.7c-1.5.7-3.2 1-5 1-1.7 0-3.3-.3-4.8-1s-2.7-1.8-3.6-3.3h-.1v3.7h-5.8v-38.5zm20.3 26.3c0-1-.2-1.9-.5-2.8s-.8-1.7-1.4-2.3c-.6-.7-1.4-1.2-2.3-1.6s-1.9-.6-3-.6-2.1.2-3 .6-1.6 1-2.3 1.6c-.6.7-1.1 1.5-1.4 2.3-.3.9-.5 1.8-.5 2.8s.2 1.9.5 2.8.8 1.7 1.4 2.3c.6.7 1.4 1.2 2.3 1.6s1.9.6 3 .6 2.1-.2 3-.6 1.6-1 2.3-1.6c.6-.7 1.1-1.5 1.4-2.3.4-.9.5-1.9.5-2.8z" fill="#fff"/><path d="m481.9 646.3c0-1 .4-1.8 1.1-2.6.7-.7 1.7-1.1 2.8-1.1s2.1.3 2.8 1c.8.7 1.1 1.6 1.1 2.6s-.4 1.9-1.1 2.6c-.8.7-1.7 1-2.8 1s-2-.4-2.8-1.1c-.7-.5-1.1-1.4-1.1-2.4zm.9 8.3h6.1v24.5h-6.1z" fill="#fff"/><path d="m498.1 640.6h6.1v38.6h-6.1z" fill="#fff"/><path d="m512.6 646.3c0-1 .4-1.8 1.1-2.6.7-.7 1.7-1.1 2.8-1.1s2.1.3 2.8 1c.8.7 1.1 1.6 1.1 2.6s-.4 1.9-1.1 2.6c-.8.7-1.7 1-2.8 1s-2-.4-2.8-1.1c-.7-.5-1.1-1.4-1.1-2.4zm.9 8.3h6.1v24.5h-6.1z" fill="#fff"/><path d="m525.8 659.8v-5.2h5v-7.1h6.1v7.1h6.7v5.2h-6.6v10.7c0 1.2.2 2.2.7 2.9s1.4 1.1 2.7 1.1c.5 0 1.1-.1 1.8-.2s1.2-.3 1.5-.6v5.2c-.6.3-1.4.5-2.4.6-.9.1-1.8.2-2.5.2-1.6 0-3-.2-4-.5-1-.4-1.9-.9-2.4-1.6-.6-.7-1-1.6-1.2-2.7s-.3-2.3-.3-3.8v-11.2h-5.1z" fill="#fff"/><path d="m547.2 654.6h6.7l6.8 17h.1l6.1-17h6.4l-11.6 29.7c-.4 1.2-.9 2.2-1.5 3-.5.9-1.1 1.6-1.9 2.2-.7.6-1.6 1-2.5 1.3-1 .3-2.1.4-3.5.4-1.6 0-3.2-.2-4.7-.6l.8-5.5c.5.2 1 .3 1.5.4s1.1.2 1.6.2c.7 0 1.4-.1 1.9-.2s.9-.3 1.3-.6.7-.7.9-1.1c.2-.5.5-1 .8-1.7l1.2-2.9z" fill="#fff"/><path d="m230.1 733h6.4v30.3h15.4v5.8h-21.8z" fill="#fff"/><path d="m256.8 756.9c0-1.9.3-3.7 1-5.3s1.6-2.9 2.8-4.1c1.2-1.1 2.6-2 4.2-2.6s3.4-.9 5.2-.9 3.6.3 5.2.9 3 1.5 4.2 2.6 2.1 2.5 2.8 4.1 1 3.3 1 5.3-.3 3.7-1 5.3-1.6 2.9-2.8 4.1c-1.2 1.1-2.6 2-4.2 2.6s-3.4.9-5.2.9-3.6-.3-5.2-.9-3-1.5-4.2-2.6-2.1-2.5-2.8-4.1c-.6-1.6-1-3.4-1-5.3zm6.2 0c0 1 .2 1.9.5 2.8s.8 1.7 1.4 2.3c.6.7 1.4 1.2 2.3 1.6s1.9.6 3 .6 2.1-.2 3-.6 1.6-1 2.3-1.6c.6-.7 1.1-1.5 1.4-2.3.3-.9.5-1.8.5-2.8s-.2-1.9-.5-2.8-.8-1.7-1.4-2.3c-.6-.7-1.4-1.2-2.3-1.6s-1.9-.6-3-.6-2.1.2-3 .6-1.6 1-2.3 1.6c-.6.7-1.1 1.5-1.4 2.3-.4.9-.5 1.8-.5 2.8z" fill="#fff"/><path d="m287.9 744.6h6.6l5.3 17.1h.1l4.9-17.1h6.6l5.3 17.1h.1l5.1-17.1h6.2l-8.3 24.5h-6.1l-5.8-16.7h-.1l-5.2 16.7h-6.3z" fill="#fff"/><path d="m351.4 733h6.4v36.1h-6.4z" fill="#fff"/><path d="m366.9 744.6h5.8v3.8h.1c.5-1.2 1.4-2.2 2.6-3.1s2.8-1.4 4.9-1.4c3.8 0 6.4 1.5 7.6 4.5.9-1.6 2-2.7 3.3-3.4s2.9-1.1 4.7-1.1c1.6 0 3 .3 4.1.8s2 1.3 2.7 2.2c.7 1 1.2 2.1 1.5 3.3.3 1.3.5 2.6.5 4.1v14.6h-6.1v-13.9c0-.7-.1-1.5-.2-2.2s-.4-1.3-.7-1.8-.8-.9-1.4-1.2-1.3-.5-2.2-.5c-1 0-1.8.2-2.4.5-.7.4-1.2.8-1.6 1.4s-.7 1.3-.9 2c-.2.8-.3 1.5-.3 2.3v13.3h-6.1v-14.6c0-1.5-.3-2.7-1-3.6-.6-.9-1.7-1.4-3.2-1.4-1 0-1.9.2-2.6.5s-1.3.8-1.7 1.4-.8 1.2-1 2c-.2.7-.3 1.5-.3 2.3v13.4h-6.1z" fill="#fff"/><path d="m413.6 744.6h5.8v3.7h.1c.9-1.5 2.1-2.6 3.6-3.3s3.1-1 4.8-1c1.9 0 3.6.3 5 1 1.5.7 2.8 1.6 3.8 2.7 1.1 1.2 1.9 2.5 2.4 4.1s.8 3.2.8 5-.3 3.5-.9 5c-.6 1.6-1.4 2.9-2.4 4.1s-2.3 2.1-3.7 2.7c-1.5.7-3.1 1-4.8 1-1.2 0-2.2-.1-3.1-.4-.9-.2-1.7-.5-2.3-.9-.7-.4-1.3-.8-1.7-1.2-.5-.4-.9-.8-1.2-1.2h-.2v14.7h-6.1v-36zm20.3 12.3c0-1-.2-1.9-.5-2.8s-.8-1.7-1.4-2.3c-.6-.7-1.4-1.2-2.3-1.6s-1.9-.6-3-.6-2.1.2-3 .6-1.6 1-2.3 1.6c-.6.7-1.1 1.5-1.4 2.3-.3.9-.5 1.8-.5 2.8s.2 1.9.5 2.8.8 1.7 1.4 2.3c.6.7 1.4 1.2 2.3 1.6s1.9.6 3 .6 2.1-.2 3-.6 1.6-1 2.3-1.6c.6-.7 1.1-1.5 1.4-2.3.3-.9.5-1.9.5-2.8z" fill="#fff"/><path d="m463.1 765.8h-.2c-.9 1.4-2 2.4-3.4 3s-2.9.9-4.5.9c-1.1 0-2.2-.2-3.3-.5s-2-.8-2.9-1.4c-.8-.6-1.5-1.4-2-2.3s-.8-2-.8-3.2c0-1.3.2-2.5.7-3.4s1.1-1.7 1.9-2.3 1.7-1.1 2.8-1.5 2.1-.7 3.3-.8c1.1-.2 2.3-.3 3.4-.4 1.2-.1 2.2-.1 3.3-.1h1.5v-.7c0-1.5-.5-2.7-1.6-3.4-1.1-.8-2.4-1.1-4-1.1-1.3 0-2.5.2-3.6.7s-2.1 1.1-2.9 1.9l-3.2-3.2c1.4-1.4 2.9-2.4 4.8-3 1.8-.6 3.7-.9 5.6-.9 1.7 0 3.2.2 4.4.6s2.2.9 3 1.5 1.4 1.3 1.8 2.1.7 1.6.9 2.4.3 1.6.3 2.4.1 1.4.1 2v14.1h-5.5v-3.4zm-.4-7.6h-1.3c-.9 0-1.8 0-2.9.1s-2 .2-3 .5c-.9.3-1.7.6-2.4 1.1-.6.5-1 1.2-1 2.1 0 .6.1 1.1.4 1.5s.6.7 1 1 .9.5 1.4.6 1 .2 1.5.2c2.1 0 3.7-.5 4.7-1.5s1.5-2.4 1.5-4.1v-1.5z" fill="#fff"/><path d="m493.9 752c-.7-.7-1.5-1.3-2.2-1.8-.8-.4-1.6-.7-2.4-.7-1.1 0-2.1.2-3 .6s-1.6 1-2.3 1.6c-.6.7-1.1 1.5-1.4 2.3-.3.9-.5 1.8-.5 2.8s.2 1.9.5 2.8.8 1.7 1.4 2.3c.6.7 1.4 1.2 2.3 1.6s1.9.6 3 .6c1 0 1.8-.2 2.7-.6s1.5-1 2.1-1.7l4.1 4.4c-.6.6-1.3 1.1-2.1 1.6-.8.4-1.6.8-2.4 1.1s-1.6.5-2.3.6-1.4.2-1.9.2c-1.8 0-3.6-.3-5.2-.9s-3-1.5-4.2-2.6-2.1-2.5-2.8-4.1-1-3.3-1-5.3.3-3.7 1-5.3 1.6-2.9 2.8-4.1c1.2-1.1 2.6-2 4.2-2.6s3.4-.9 5.2-.9c1.6 0 3.1.3 4.7.9s3 1.5 4.2 2.8z" fill="#fff"/><path d="m501 749.8v-5.2h5v-7.1h6.1v7.1h6.7v5.2h-6.7v10.7c0 1.2.2 2.2.7 2.9s1.4 1.1 2.7 1.1c.5 0 1.1-.1 1.8-.2.6-.1 1.2-.3 1.5-.6v5.2c-.6.3-1.4.5-2.4.6-.9.1-1.8.2-2.5.2-1.6 0-3-.2-4-.5-1-.4-1.9-.9-2.4-1.6-.6-.7-1-1.6-1.2-2.7s-.3-2.3-.3-3.8v-11.2h-5z" fill="#fff"/><path d="m600.4 477.6h454.5v454.5h-454.5z" fill="#007eb1"/><path d="m600.4 477.6h454.5v454.5h-454.5z" fill="none"/><path d="m631.3 643h6.4v30.3h15.3v5.8h-21.8v-36.1z" fill="#fff"/><path d="m658 666.9c0-1.9.3-3.7 1-5.3s1.6-2.9 2.8-4.1c1.2-1.1 2.6-2 4.2-2.6s3.4-.9 5.2-.9 3.6.3 5.2.9 3 1.5 4.2 2.6 2.1 2.5 2.8 4.1 1 3.3 1 5.3-.3 3.7-1 5.3-1.6 2.9-2.8 4.1c-1.2 1.1-2.6 2-4.2 2.6s-3.4.9-5.2.9-3.6-.3-5.2-.9-3-1.5-4.2-2.6-2.1-2.5-2.8-4.1-1-3.4-1-5.3zm6.1 0c0 1 .2 1.9.5 2.8s.8 1.7 1.4 2.3c.6.7 1.4 1.2 2.3 1.6s1.9.6 3 .6 2.1-.2 3-.6 1.6-1 2.3-1.6c.6-.7 1.1-1.5 1.4-2.3.3-.9.5-1.8.5-2.8s-.2-1.9-.5-2.8-.8-1.7-1.4-2.3-1.4-1.2-2.3-1.6-1.9-.6-3-.6-2.1.2-3 .6-1.6 1-2.3 1.6c-.6.7-1.1 1.5-1.4 2.3-.3.9-.5 1.8-.5 2.8z" fill="#fff"/><path d="m689.1 654.6h6.6l5.3 17.1h.1l4.9-17.1h6.6l5.3 17.1h.1l5.1-17.1h6.2l-8.3 24.5h-6l-5.8-16.7h-.2l-5.2 16.7h-6.3z" fill="#fff"/><path d="m752.7 643h12.1c1.7 0 3.4.2 5 .5s3 .9 4.3 1.7c1.2.8 2.2 1.9 2.9 3.2s1.1 3 1.1 5c0 2.3-.4 4.1-1.2 5.5s-1.8 2.5-3.2 3.2c-1.3.8-2.9 1.3-4.6 1.6-1.8.3-3.6.4-5.5.4h-4.6v14.9h-6.4v-36zm10.3 15.7c.9 0 1.9 0 2.9-.1s1.9-.3 2.7-.6 1.5-.8 2-1.5.8-1.6.8-2.9c0-1.1-.2-2-.7-2.7s-1.1-1.2-1.8-1.5-1.6-.6-2.5-.7-1.8-.2-2.7-.2h-4.6v10.1h3.9z" fill="#fff"/><path d="m785.3 654.6h6.1v3.9h.1c.7-1.4 1.6-2.5 2.9-3.3s2.7-1.2 4.3-1.2c.4 0 .7 0 1.1.1s.7.2 1.1.3v5.9c-.5-.1-1-.2-1.5-.3s-1-.1-1.5-.1c-1.4 0-2.6.3-3.4.8s-1.5 1.1-2 1.8-.8 1.4-.9 2c-.2.7-.2 1.2-.2 1.5v13.1h-6.1z" fill="#fff"/><path d="m805.1 666.9c0-1.9.3-3.7 1-5.3s1.6-2.9 2.8-4.1c1.2-1.1 2.6-2 4.2-2.6s3.4-.9 5.2-.9 3.6.3 5.2.9 3 1.5 4.2 2.6 2.1 2.5 2.8 4.1 1 3.3 1 5.3-.3 3.7-1 5.3-1.6 2.9-2.8 4.1c-1.2 1.1-2.6 2-4.2 2.6s-3.4.9-5.2.9-3.6-.3-5.2-.9-3-1.5-4.2-2.6-2.1-2.5-2.8-4.1-1-3.4-1-5.3zm6.1 0c0 1 .2 1.9.5 2.8s.8 1.7 1.4 2.3c.6.7 1.4 1.2 2.3 1.6s1.9.6 3 .6 2.1-.2 3-.6 1.6-1 2.3-1.6c.6-.7 1.1-1.5 1.4-2.3.3-.9.5-1.8.5-2.8s-.2-1.9-.5-2.8-.8-1.7-1.4-2.3c-.6-.7-1.4-1.2-2.3-1.6s-1.9-.6-3-.6-2.1.2-3 .6-1.6 1-2.3 1.6-1.1 1.5-1.4 2.3c-.3.9-.5 1.8-.5 2.8z" fill="#fff"/><path d="m839.4 640.6h6.1v17.2h.2c.3-.4.7-.8 1.2-1.2s1.1-.8 1.7-1.2c.7-.4 1.5-.7 2.3-.9.9-.2 1.9-.4 3.1-.4 1.7 0 3.3.3 4.8 1s2.7 1.6 3.7 2.7c1 1.2 1.8 2.5 2.4 4.1s.9 3.2.9 5-.3 3.5-.8 5c-.5 1.6-1.3 2.9-2.4 4.1s-2.3 2.1-3.8 2.7-3.2 1-5 1c-1.7 0-3.3-.3-4.8-1s-2.7-1.8-3.6-3.3h-.1v3.7h-5.8v-38.5zm20.3 26.3c0-1-.2-1.9-.5-2.8s-.8-1.7-1.4-2.3c-.6-.7-1.4-1.2-2.3-1.6s-1.9-.6-3-.6-2.1.2-3 .6-1.6 1-2.3 1.6-1.1 1.5-1.4 2.3c-.3.9-.5 1.8-.5 2.8s.2 1.9.5 2.8.8 1.7 1.4 2.3c.6.7 1.4 1.2 2.3 1.6s1.9.6 3 .6 2.1-.2 3-.6 1.6-1 2.3-1.6c.6-.7 1.1-1.5 1.4-2.3.4-.9.5-1.9.5-2.8z" fill="#fff"/><path d="m888.9 675.8h-.2c-.9 1.4-2 2.4-3.4 3s-2.9.9-4.5.9c-1.1 0-2.2-.2-3.3-.5s-2-.8-2.9-1.4c-.8-.6-1.5-1.4-2-2.3s-.8-2-.8-3.2c0-1.3.2-2.5.7-3.4s1.1-1.7 1.9-2.3 1.7-1.1 2.8-1.5 2.2-.7 3.3-.8c1.1-.2 2.3-.3 3.4-.4 1.2-.1 2.2-.1 3.3-.1h1.5v-.7c0-1.5-.5-2.7-1.6-3.4-1.1-.8-2.4-1.1-4-1.1-1.3 0-2.5.2-3.6.7s-2.1 1.1-2.9 1.9l-3.2-3.2c1.4-1.4 2.9-2.4 4.8-3 1.8-.6 3.7-.9 5.6-.9 1.7 0 3.2.2 4.4.6s2.2.9 3 1.5 1.4 1.3 1.8 2.1.7 1.6.9 2.4.3 1.6.3 2.4.1 1.4.1 2v14.1h-5.5v-3.4zm-.3-7.6h-1.3c-.9 0-1.8 0-2.9.1s-2 .2-3 .5c-.9.3-1.7.6-2.4 1.1-.6.5-1 1.2-1 2.1 0 .6.1 1.1.4 1.5s.6.7 1 1 .9.5 1.4.6 1 .2 1.5.2c2.1 0 3.7-.5 4.7-1.5s1.5-2.4 1.5-4.1v-1.5z" fill="#fff"/><path d="m903 640.6h6.1v17.2h.2c.3-.4.7-.8 1.2-1.2s1.1-.8 1.7-1.2c.7-.4 1.5-.7 2.3-.9.9-.2 1.9-.4 3.1-.4 1.7 0 3.3.3 4.8 1s2.7 1.6 3.7 2.7c1 1.2 1.8 2.5 2.4 4.1s.9 3.2.9 5-.3 3.5-.8 5c-.5 1.6-1.3 2.9-2.4 4.1s-2.3 2.1-3.8 2.7-3.2 1-5 1c-1.7 0-3.3-.3-4.8-1s-2.7-1.8-3.6-3.3h-.1v3.7h-5.9zm20.3 26.3c0-1-.2-1.9-.5-2.8s-.8-1.7-1.4-2.3c-.6-.7-1.4-1.2-2.3-1.6s-1.9-.6-3-.6-2.1.2-3 .6-1.6 1-2.3 1.6-1.1 1.5-1.4 2.3c-.3.9-.5 1.8-.5 2.8s.2 1.9.5 2.8.8 1.7 1.4 2.3c.6.7 1.4 1.2 2.3 1.6s1.9.6 3 .6 2.1-.2 3-.6 1.6-1 2.3-1.6c.6-.7 1.1-1.5 1.4-2.3.4-.9.5-1.9.5-2.8z" fill="#fff"/><path d="m936.4 646.3c0-1 .4-1.8 1.1-2.6.7-.7 1.7-1.1 2.8-1.1s2.1.3 2.8 1c.8.7 1.1 1.6 1.1 2.6s-.4 1.9-1.1 2.6c-.8.7-1.7 1-2.8 1s-2-.4-2.8-1.1c-.7-.5-1.1-1.4-1.1-2.4zm.9 8.3h6.1v24.5h-6.1z" fill="#fff"/><path d="m952.6 640.6h6.1v38.6h-6.1z" fill="#fff"/><path d="m967.1 646.3c0-1 .4-1.8 1.1-2.6.7-.7 1.7-1.1 2.8-1.1s2.1.3 2.8 1c.8.7 1.1 1.6 1.1 2.6s-.4 1.9-1.1 2.6c-.8.7-1.7 1-2.8 1s-2-.4-2.8-1.1c-.7-.5-1.1-1.4-1.1-2.4zm.9 8.3h6.1v24.5h-6.1z" fill="#fff"/><path d="m980.3 659.8v-5.2h5v-7.1h6.1v7.1h6.7v5.2h-6.7v10.7c0 1.2.2 2.2.7 2.9s1.4 1.1 2.7 1.1c.5 0 1.1-.1 1.8-.2.6-.1 1.2-.3 1.5-.6v5.2c-.6.3-1.4.5-2.4.6-.9.1-1.8.2-2.5.2-1.6 0-3-.2-4-.5-1-.4-1.9-.9-2.4-1.6-.6-.7-1-1.6-1.2-2.7s-.3-2.3-.3-3.8v-11.2h-5z" fill="#fff"/><path d="m1001.7 654.6h6.7l6.8 17h.1l6.1-17h6.4l-11.6 29.7c-.4 1.2-.9 2.2-1.5 3-.5.9-1.1 1.6-1.9 2.2-.7.6-1.6 1-2.5 1.3-1 .3-2.1.4-3.5.4-1.6 0-3.2-.2-4.7-.6l.8-5.5c.5.2 1 .3 1.5.4s1.1.2 1.6.2c.7 0 1.4-.1 1.9-.2s.9-.3 1.3-.6.7-.7.9-1.1c.2-.5.5-1 .8-1.7l1.2-2.9z" fill="#fff"/><path d="m676.5 733h6.4v14.4h16.9v-14.4h6.4v36.1h-6.4v-15.9h-16.9v15.9h-6.4z" fill="#fff"/><path d="m715 736.3c0-1 .4-1.8 1.1-2.6.7-.7 1.7-1.1 2.8-1.1s2.1.3 2.8 1c.8.7 1.1 1.6 1.1 2.6s-.4 1.9-1.1 2.6c-.8.7-1.7 1-2.8 1s-2-.4-2.8-1.1c-.8-.5-1.1-1.4-1.1-2.4zm.8 8.3h6.1v24.5h-6.1z" fill="#fff"/><path d="m756.2 744.6v22.3c0 2.2-.3 4.2-.8 6s-1.4 3.3-2.5 4.5-2.6 2.2-4.3 2.9-3.8 1-6.2 1c-2.3 0-4.4-.3-6.5-.9-2-.6-3.9-1.6-5.7-3.2l3.7-5c1.2 1.1 2.5 2 3.8 2.6s2.9.9 4.6.9c1.5 0 2.7-.2 3.7-.6s1.8-1 2.4-1.7 1-1.6 1.3-2.6.4-2.1.4-3.3v-1.8h-.1c-.9 1.2-2.1 2.1-3.5 2.7-1.5.6-3 .9-4.5.9-1.8 0-3.5-.3-5-1s-2.8-1.6-3.9-2.7-1.9-2.4-2.5-4c-.6-1.5-.9-3.2-.9-4.9 0-1.8.3-3.5.8-5 .5-1.6 1.3-2.9 2.4-4.1s2.3-2.1 3.8-2.7c1.5-.7 3.2-1 5.1-1 1.7 0 3.3.3 4.8 1s2.7 1.8 3.6 3.3h.1v-3.7h5.9zm-13 4.9c-1.1 0-2.1.2-3 .5-.9.4-1.6.9-2.3 1.5s-1.1 1.4-1.5 2.3-.5 1.9-.5 3c0 1 .2 1.9.5 2.8.4.9.9 1.6 1.5 2.2s1.4 1.2 2.3 1.5c.9.4 1.8.6 2.9.6s2.1-.2 3-.6 1.7-.9 2.3-1.5 1.1-1.4 1.5-2.3c.3-.9.5-1.8.5-2.9 0-2.1-.6-3.9-1.9-5.2-1.3-1.2-3.1-1.9-5.3-1.9z" fill="#fff"/><path d="m771.3 748.1h.1c.5-1 1.3-1.9 2.5-2.8 1.2-.8 2.8-1.2 4.7-1.2 1.6 0 3 .3 4.2.8 1.1.5 2.1 1.3 2.8 2.1s1.2 1.9 1.5 3.1.5 2.4.5 3.6v15.5h-6.1v-12.4c0-.7 0-1.4-.1-2.3-.1-.8-.2-1.6-.5-2.3s-.7-1.3-1.4-1.8c-.6-.5-1.4-.7-2.5-.7-1 0-1.9.2-2.6.5s-1.3.8-1.7 1.4-.8 1.2-1 2-.3 1.5-.3 2.3v13.4h-6.1v-38.6h6.1v17.4z" fill="#fff"/><path d="m814.1 733h6.4v36.1h-6.4z" fill="#fff"/><path d="m829.6 744.6h5.8v3.8h.1c.5-1.2 1.4-2.2 2.6-3.1s2.8-1.4 4.9-1.4c3.8 0 6.4 1.5 7.6 4.5.9-1.6 2-2.7 3.3-3.4s2.9-1.1 4.7-1.1c1.6 0 3 .3 4.1.8s2 1.3 2.7 2.2c.7 1 1.2 2.1 1.5 3.3.3 1.3.5 2.6.5 4.1v14.6h-6.1v-13.9c0-.7-.1-1.5-.2-2.2s-.4-1.3-.7-1.8-.8-.9-1.4-1.2-1.3-.5-2.2-.5c-1 0-1.8.2-2.4.5-.7.4-1.2.8-1.6 1.4s-.7 1.3-.9 2c-.2.8-.3 1.5-.3 2.3v13.3h-6.1v-14.6c0-1.5-.3-2.7-1-3.6-.6-.9-1.7-1.4-3.2-1.4-1 0-1.9.2-2.6.5s-1.3.8-1.7 1.4-.8 1.2-1 2-.3 1.5-.3 2.3v13.4h-6.1z" fill="#fff"/><path d="m876.3 744.6h5.8v3.7h.1c.9-1.5 2.1-2.6 3.6-3.3s3.1-1 4.8-1c1.9 0 3.6.3 5 1s2.8 1.6 3.8 2.7c1.1 1.2 1.9 2.5 2.4 4.1s.8 3.2.8 5-.3 3.5-.9 5c-.6 1.6-1.4 2.9-2.4 4.1s-2.3 2.1-3.7 2.7-3.1 1-4.8 1c-1.2 0-2.2-.1-3.1-.4-.9-.2-1.7-.5-2.3-.9-.7-.4-1.3-.8-1.7-1.2-.5-.4-.9-.8-1.2-1.2h-.2v14.7h-6.1v-36zm20.3 12.3c0-1-.2-1.9-.5-2.8s-.8-1.7-1.4-2.3c-.6-.7-1.4-1.2-2.3-1.6s-1.9-.6-3-.6-2.1.2-3 .6-1.6 1-2.3 1.6-1.1 1.5-1.4 2.3c-.3.9-.5 1.8-.5 2.8s.2 1.9.5 2.8.8 1.7 1.4 2.3c.6.7 1.4 1.2 2.3 1.6s1.9.6 3 .6 2.1-.2 3-.6 1.6-1 2.3-1.6c.6-.7 1.1-1.5 1.4-2.3.3-.9.5-1.9.5-2.8z" fill="#fff"/><path d="m925.7 765.8h-.2c-.9 1.4-2 2.4-3.4 3s-2.9.9-4.5.9c-1.1 0-2.2-.2-3.3-.5s-2-.8-2.9-1.4c-.8-.6-1.5-1.4-2-2.3s-.8-2-.8-3.2c0-1.3.2-2.5.7-3.4s1.1-1.7 1.9-2.3 1.7-1.1 2.8-1.5 2.2-.7 3.3-.8c1.1-.2 2.3-.3 3.4-.4 1.2-.1 2.2-.1 3.3-.1h1.5v-.7c0-1.5-.5-2.7-1.6-3.4-1.1-.8-2.4-1.1-4-1.1-1.3 0-2.5.2-3.6.7s-2.1 1.1-2.9 1.9l-3.2-3.2c1.4-1.4 2.9-2.4 4.8-3 1.8-.6 3.7-.9 5.6-.9 1.7 0 3.2.2 4.4.6s2.2.9 3 1.5 1.4 1.3 1.8 2.1.7 1.6.9 2.4.3 1.6.3 2.4.1 1.4.1 2v14.1h-5.5v-3.4zm-.3-7.6h-1.3c-.9 0-1.8 0-2.9.1s-2 .2-3 .5c-.9.3-1.7.6-2.4 1.1-.6.5-1 1.2-1 2.1 0 .6.1 1.1.4 1.5s.6.7 1 1 .9.5 1.4.6 1 .2 1.5.2c2.1 0 3.7-.5 4.7-1.5s1.5-2.4 1.5-4.1v-1.5z" fill="#fff"/><path d="m956.6 752c-.7-.7-1.5-1.3-2.2-1.8-.8-.4-1.6-.7-2.4-.7-1.1 0-2.1.2-3 .6s-1.6 1-2.3 1.6c-.6.7-1.1 1.5-1.4 2.3-.3.9-.5 1.8-.5 2.8s.2 1.9.5 2.8.8 1.7 1.4 2.3c.6.7 1.4 1.2 2.3 1.6s1.9.6 3 .6c1 0 1.8-.2 2.7-.6.8-.4 1.5-1 2.1-1.7l4.1 4.4c-.6.6-1.3 1.1-2.1 1.6-.8.4-1.6.8-2.4 1.1s-1.6.5-2.3.6-1.4.2-1.9.2c-1.8 0-3.6-.3-5.2-.9s-3-1.5-4.2-2.6-2.1-2.5-2.8-4.1-1-3.3-1-5.3.3-3.7 1-5.3 1.6-2.9 2.8-4.1c1.2-1.1 2.6-2 4.2-2.6s3.4-.9 5.2-.9c1.6 0 3.1.3 4.7.9s3 1.5 4.2 2.8z" fill="#fff"/><path d="m963.6 749.8v-5.2h5v-7.1h6.1v7.1h6.7v5.2h-6.7v10.7c0 1.2.2 2.2.7 2.9s1.4 1.1 2.7 1.1c.5 0 1.1-.1 1.8-.2.6-.1 1.2-.3 1.5-.6v5.2c-.6.3-1.4.5-2.4.6-.9.1-1.8.2-2.5.2-1.6 0-3-.2-4-.5-1-.4-1.9-.9-2.4-1.6-.6-.7-1-1.6-1.2-2.7s-.3-2.3-.3-3.8v-11.2h-5z" fill="#fff"/><path d="m99.3 979.9v-913.8" fill="none" stroke="#474747" stroke-linejoin="round" stroke-width="15"/><path d="m129.2 74.9-29.9-51.8-29.9 51.8z" fill="#474747"/><path d="m92 979.9h919.8" fill="none" stroke="#474747" stroke-linejoin="round" stroke-width="15"/><path d="m1003.1 1009.8 51.8-29.9-51.8-29.9z" fill="#474747"/><path d="m314.9 997.7h578.5v63.6h-578.5z" fill="none"/><path d="m499.1 1000.9h8.2v46h-8.2z" fill="#474747"/><path d="m518.9 1015.7h7.4v4.9h.1c.7-1.5 1.8-2.8 3.3-3.9s3.6-1.7 6.2-1.7c4.9 0 8.1 1.9 9.8 5.8 1.1-2 2.5-3.5 4.2-4.4s3.7-1.4 6-1.4c2.1 0 3.8.3 5.3 1 1.4.7 2.6 1.6 3.5 2.9.9 1.2 1.5 2.6 1.9 4.3.4 1.6.6 3.4.6 5.2v18.6h-7.8v-17.7c0-1-.1-1.9-.3-2.8s-.5-1.7-.9-2.3c-.4-.7-1-1.2-1.8-1.6-.7-.4-1.7-.6-2.9-.6s-2.2.2-3.1.7c-.8.5-1.5 1.1-2.1 1.8-.5.8-.9 1.6-1.2 2.6-.2 1-.4 2-.4 3v16.9h-7.8v-18.6c0-2-.4-3.5-1.2-4.6s-2.2-1.7-4.1-1.7c-1.3 0-2.4.2-3.3.7-.9.4-1.6 1-2.2 1.8-.6.7-1 1.6-1.3 2.5-.3 1-.4 2-.4 3v17h-7.8v-31.4z" fill="#474747"/><path d="m578.4 1015.7h7.4v4.7h.1c1.1-1.9 2.6-3.3 4.5-4.2s4-1.3 6.2-1.3c2.4 0 4.5.4 6.4 1.3 1.9.8 3.5 2 4.9 3.5 1.3 1.5 2.4 3.2 3.1 5.2s1 4.1 1 6.4-.4 4.4-1.1 6.4-1.8 3.7-3.1 5.2-2.9 2.6-4.8 3.5c-1.9.8-3.9 1.3-6.1 1.3-1.5 0-2.8-.2-3.9-.5s-2.1-.7-3-1.2-1.6-1-2.2-1.5-1.1-1.1-1.5-1.6h-.2v18.8h-7.8v-46zm25.8 15.6c0-1.2-.2-2.4-.6-3.5s-1-2.1-1.8-3-1.8-1.6-2.9-2.1-2.4-.8-3.8-.8-2.7.3-3.8.8-2.1 1.2-2.9 2.1-1.4 1.9-1.8 3-.6 2.3-.6 3.5.2 2.4.6 3.5 1 2.1 1.8 3 1.8 1.6 2.9 2.1 2.4.8 3.8.8 2.7-.3 3.8-.8 2.1-1.2 2.9-2.1 1.4-1.9 1.8-3 .6-2.3.6-3.5z" fill="#474747"/><path d="m641.4 1042.6h-.2c-1.1 1.8-2.6 3.1-4.3 3.9s-3.6 1.2-5.7 1.2c-1.4 0-2.8-.2-4.2-.6s-2.6-1-3.6-1.8c-1.1-.8-1.9-1.8-2.6-2.9-.6-1.2-1-2.5-1-4.1 0-1.7.3-3.1.9-4.3s1.4-2.2 2.4-3 2.2-1.4 3.5-1.9 2.7-.8 4.2-1.1c1.5-.2 2.9-.4 4.4-.5s2.9-.1 4.2-.1h1.9v-.8c0-2-.7-3.4-2-4.4s-3.1-1.5-5.1-1.5c-1.6 0-3.2.3-4.6.9s-2.7 1.4-3.7 2.4l-4.1-4.1c1.7-1.8 3.8-3.1 6.1-3.8 2.3-.8 4.7-1.2 7.2-1.2 2.2 0 4.1.2 5.6.7s2.8 1.1 3.8 1.9 1.8 1.7 2.3 2.7.9 2 1.2 3.1c.2 1 .4 2 .4 3s.1 1.8.1 2.6v17.9h-7v-4.2zm-.4-9.7h-1.6c-1.1 0-2.3 0-3.6.1s-2.6.3-3.8.6-2.2.8-3 1.4-1.2 1.5-1.2 2.6c0 .7.2 1.4.5 1.9s.7.9 1.3 1.3c.5.3 1.1.6 1.8.7.6.2 1.3.2 1.9.2 2.7 0 4.7-.6 5.9-1.9 1.3-1.3 1.9-3 1.9-5.2v-1.7z" fill="#474747"/><path d="m680.7 1025c-.9-1-1.9-1.7-2.9-2.3s-2-.8-3.1-.8c-1.4 0-2.7.3-3.8.8s-2.1 1.2-2.9 2.1-1.4 1.9-1.8 3-.6 2.3-.6 3.5.2 2.4.6 3.5 1 2.1 1.8 3 1.8 1.6 2.9 2.1 2.4.8 3.8.8c1.2 0 2.3-.2 3.4-.7 1-.5 1.9-1.2 2.7-2.2l5.2 5.6c-.8.8-1.7 1.5-2.7 2-1 .6-2 1-3.1 1.4-1 .3-2 .6-3 .7-1 .2-1.8.2-2.5.2-2.3 0-4.6-.4-6.6-1.2s-3.9-1.9-5.4-3.3-2.7-3.2-3.6-5.2-1.3-4.3-1.3-6.7.4-4.7 1.3-6.7 2.1-3.7 3.6-5.2c1.5-1.4 3.3-2.5 5.4-3.3s4.3-1.2 6.6-1.2c2 0 4 .4 6 1.1s3.8 2 5.3 3.6z" fill="#474747"/><path d="m689.7 1022.3v-6.6h6.4v-9h7.8v9h8.6v6.6h-8.6v13.6c0 1.6.3 2.8.9 3.7s1.7 1.4 3.5 1.4c.7 0 1.5-.1 2.3-.2.8-.2 1.5-.4 2-.7v6.6c-.8.4-1.8.7-3 .8-1.2.2-2.2.2-3.2.2-2.1 0-3.8-.2-5.1-.7s-2.4-1.1-3.1-2.1c-.8-.9-1.3-2.1-1.6-3.5s-.4-3-.4-4.8v-14.3z" fill="#474747"/><path d="m23.4 730.1v-15.5c0-2.2.2-4.3.6-6.4s1.2-3.9 2.2-5.4c1-1.6 2.4-2.8 4.1-3.7s3.8-1.4 6.4-1.4c2.9 0 5.2.5 7 1.5s3.2 2.3 4.1 4c1 1.7 1.6 3.7 2 5.9.3 2.2.5 4.6.5 7v5.8h19v8.2zm19.9-13.1c0-1.2 0-2.4-.1-3.6-.1-1.3-.3-2.4-.8-3.5-.4-1.1-1.1-1.9-1.9-2.6-.9-.7-2.1-1-3.6-1-1.4 0-2.6.3-3.4.9s-1.5 1.4-2 2.3c-.5 1-.7 2-.9 3.2-.1 1.2-.2 2.3-.2 3.4v5.8h12.9z" fill="#474747"/><path d="m38.2 683.3v-7.8h4.9v-.1c-1.8-.9-3.2-2.1-4.2-3.7s-1.5-3.4-1.5-5.5c0-.5 0-.9.1-1.4s.2-.9.3-1.4h7.5c-.2.7-.3 1.3-.4 1.9s-.2 1.2-.2 1.9c0 1.8.3 3.3 1 4.4s1.4 1.9 2.3 2.5 1.7 1 2.6 1.2 1.5.3 1.9.3h16.7v7.8h-31z" fill="#474747"/><path d="m53.8 653c-2.5 0-4.7-.4-6.7-1.3s-3.7-2.1-5.2-3.6c-1.4-1.5-2.5-3.3-3.3-5.4s-1.2-4.3-1.2-6.6.4-4.5 1.2-6.6 1.9-3.9 3.3-5.4 3.2-2.7 5.2-3.6 4.3-1.3 6.7-1.3c2.5 0 4.7.4 6.7 1.3s3.7 2.1 5.2 3.6c1.4 1.5 2.5 3.3 3.3 5.4s1.2 4.3 1.2 6.6-.4 4.6-1.2 6.6c-.8 2.1-1.9 3.9-3.3 5.4s-3.2 2.7-5.2 3.6c-2 .8-4.2 1.3-6.7 1.3zm0-7.8c1.2 0 2.4-.2 3.5-.6s2.1-1 3-1.8 1.6-1.8 2.1-2.9.8-2.4.8-3.8-.3-2.7-.8-3.8-1.2-2.1-2.1-2.9-1.9-1.4-3-1.8-2.3-.6-3.5-.6-2.4.2-3.5.6-2.1 1-3 1.8-1.6 1.8-2.1 2.9-.8 2.4-.8 3.8.3 2.7.8 3.8 1.2 2.1 2.1 2.9 1.9 1.4 3 1.8c1.1.3 2.3.6 3.5.6z" fill="#474747"/><path d="m20.3 603.9v-7.8h21.9v-.2c-.5-.4-1.1-.9-1.6-1.5s-1-1.3-1.5-2.2-.9-1.9-1.2-3-.5-2.4-.5-3.9c0-2.2.4-4.2 1.3-6.1.8-1.9 2-3.5 3.5-4.8s3.2-2.3 5.2-3.1c2-.7 4.1-1.1 6.4-1.1s4.4.3 6.4 1 3.7 1.7 5.2 3.1c1.5 1.3 2.6 3 3.5 4.9.8 1.9 1.3 4.1 1.3 6.4 0 2.2-.4 4.3-1.3 6.2s-2.3 3.4-4.2 4.5v.1h4.7v7.4h-49.1zm33.5-25.8c-1.2 0-2.4.2-3.5.6s-2.1 1-3 1.8-1.6 1.8-2.1 2.9-.8 2.4-.8 3.8.3 2.7.8 3.8 1.2 2.1 2.1 2.9 1.9 1.4 3 1.8 2.3.6 3.5.6 2.4-.2 3.5-.6 2.1-1 3-1.8 1.6-1.8 2.1-2.9.8-2.4.8-3.8-.3-2.7-.8-3.8-1.2-2.1-2.1-2.9-1.9-1.4-3-1.8-2.3-.6-3.5-.6z" fill="#474747"/><path d="m65.1 535.7v.2c1.8 1.1 3.1 2.6 3.9 4.3s1.2 3.6 1.2 5.7c0 1.4-.2 2.8-.6 4.2s-1 2.6-1.8 3.6c-.8 1.1-1.8 1.9-2.9 2.6s-2.5 1-4.1 1c-1.7 0-3.1-.3-4.3-.9s-2.2-1.4-3-2.4-1.4-2.2-1.9-3.5-.8-2.7-1.1-4.2c-.2-1.5-.4-2.9-.5-4.4s-.1-2.9-.1-4.2v-1.9h-.8c-2 0-3.4.7-4.4 2s-1.5 3.1-1.5 5.1c0 1.6.3 3.2.9 4.6s1.4 2.7 2.4 3.7l-4.1 4.1c-1.8-1.7-3.1-3.8-3.8-6.1-.8-2.3-1.2-4.7-1.2-7.2 0-2.2.2-4.1.7-5.6s1.1-2.8 1.9-3.8 1.7-1.8 2.7-2.3 2-.9 3.1-1.2c1-.2 2-.4 3-.4s1.8-.1 2.6-.1h17.9v7h-4.2zm-9.7.5v1.6c0 1.1 0 2.3.1 3.6s.3 2.6.6 3.8.8 2.2 1.4 3 1.5 1.2 2.6 1.2c.7 0 1.4-.2 1.9-.5s.9-.7 1.3-1.3c.3-.5.6-1.1.7-1.8.2-.6.2-1.3.2-2 0-2.7-.6-4.7-1.9-5.9-1.3-1.3-3-1.9-5.2-1.9h-1.7z" fill="#474747"/><path d="m20.3 512.5v-7.8h21.9v-.2c-.5-.4-1.1-.9-1.6-1.5s-1-1.3-1.5-2.2-.9-1.9-1.2-3-.5-2.4-.5-3.9c0-2.2.4-4.2 1.3-6.1.8-1.9 2-3.5 3.5-4.8s3.2-2.4 5.2-3.1 4.1-1.1 6.4-1.1 4.4.3 6.4 1 3.7 1.7 5.2 3.1c1.5 1.3 2.6 3 3.5 4.9.8 1.9 1.3 4.1 1.3 6.4 0 2.2-.4 4.3-1.3 6.2s-2.3 3.4-4.2 4.5v.1h4.7v7.4h-49.1zm33.5-25.9c-1.2 0-2.4.2-3.5.6s-2.1 1-3 1.8-1.6 1.8-2.1 2.9-.8 2.4-.8 3.8.3 2.7.8 3.8 1.2 2.1 2.1 2.9 1.9 1.4 3 1.8 2.3.6 3.5.6 2.4-.2 3.5-.6 2.1-1 3-1.8 1.6-1.8 2.1-2.9.8-2.4.8-3.8-.3-2.7-.8-3.8-1.2-2.1-2.1-2.9-1.9-1.4-3-1.8-2.3-.6-3.5-.6z" fill="#474747"/><path d="m27.6 464.7c-1.3 0-2.4-.5-3.3-1.4s-1.4-2.1-1.4-3.5.4-2.6 1.3-3.6 2-1.5 3.3-1.5 2.5.5 3.3 1.5c.9 1 1.3 2.2 1.3 3.6s-.5 2.6-1.4 3.5c-.7 1-1.8 1.4-3.1 1.4zm10.6-1.1v-7.8h31.2v7.8z" fill="#474747"/><path d="m20.3 438.9v-7.8h49.1v7.8z" fill="#474747"/><path d="m27.6 415.3c-1.3 0-2.4-.5-3.3-1.4s-1.4-2.1-1.4-3.5.4-2.6 1.3-3.6 2-1.5 3.3-1.5 2.5.5 3.3 1.5c.9 1 1.3 2.2 1.3 3.6s-.5 2.6-1.4 3.5c-.7.9-1.8 1.4-3.1 1.4zm10.6-1.2v-7.8h31.2v7.8z" fill="#474747"/><path d="m44.8 393.2h-6.6v-6.4h-9v-7.8h9v-8.6h6.6v8.6h13.6c1.6 0 2.8-.3 3.7-.9s1.4-1.7 1.4-3.5c0-.7-.1-1.5-.2-2.3-.2-.8-.4-1.5-.7-2h6.6c.4.8.7 1.8.8 3 .2 1.2.2 2.2.2 3.2 0 2.1-.2 3.8-.7 5.1s-1.1 2.4-2.1 3.1c-.9.8-2.1 1.3-3.5 1.6s-3 .4-4.8.4h-14.3z" fill="#474747"/><path d="m38.2 360.7v-8.6l21.6-8.7v-.1l-21.6-7.8v-8.1l37.9 14.8c1.5.6 2.8 1.2 3.9 1.9s2 1.5 2.8 2.4 1.3 2 1.7 3.2.6 2.7.6 4.5c0 2-.3 4-.8 6l-7-1c.2-.6.4-1.2.6-1.9s.2-1.4.2-2c0-1-.1-1.8-.3-2.4s-.4-1.2-.8-1.7-.8-.8-1.4-1.1-1.3-.6-2.1-1l-3.7-1.5z" fill="#474747"/></svg>