<?xml version="1.0" encoding="utf-8"?>
<!-- Generator: Adobe Illustrator 26.0.1, SVG Export Plug-In . SVG Version: 6.00 Build 0)  -->
<svg version="1.1" id="Layer_1" xmlns="http://www.w3.org/2000/svg" xmlns:xlink="http://www.w3.org/1999/xlink" x="0px" y="0px"
	 width="1584px" height="1224px" viewBox="0 0 1584 1224" style="enable-background:new 0 0 1584 1224;" xml:space="preserve">
<style type="text/css">
	.Graphic_x0020_Style_x0020_4{fill:none;stroke:#221F1F;stroke-width:4;stroke-miterlimit:10;}
	.st0{fill:#FFFFFF;stroke:#979797;stroke-width:5.3438;stroke-miterlimit:10;}
	.st1{fill:none;stroke:#007054;stroke-width:4.7561;stroke-miterlimit:10;}
	.st2{fill:#979797;}
	.st3{fill:#939598;}
	.st4{fill:#E20027;}
	.st5{fill:#007255;}
	.st6{fill:none;stroke:#979797;stroke-width:4;stroke-miterlimit:10;}
	.st7{fill:#0063C7;}
</style>
<g>
	<path class="st0" d="M1529.5,446.9H199.8c-3.2,0-5.8-2.6-5.8-5.8V145.9c0-3.2,2.6-5.8,5.8-5.8h1329.7c3.2,0,5.8,2.6,5.8,5.8v295.2
		C1535.3,444.3,1532.7,446.9,1529.5,446.9z"/>
	<rect x="1217.6" y="179.7" class="st1" width="239.9" height="226.5"/>
	<rect x="300.3" y="445.1" class="st2" width="1122.9" height="45.4"/>
	<g>
		<rect x="282.8" y="195.9" class="st3" width="100.2" height="42.4"/>
		<rect x="298.8" y="231.9" class="st3" width="68.3" height="25.4"/>
	</g>
	<g>
		<rect x="457.1" y="195.9" class="st3" width="100.2" height="42.4"/>
		<rect x="473" y="231.9" class="st3" width="68.3" height="25.4"/>
	</g>
	<g>
		<g>
			<rect x="631.3" y="195.9" class="st4" width="100.2" height="42.4"/>
			<rect x="647.3" y="231.9" class="st4" width="68.3" height="25.4"/>
		</g>
	</g>
	<g>
		<rect x="805.6" y="195.9" class="st3" width="100.2" height="42.4"/>
		<rect x="821.5" y="231.9" class="st3" width="68.3" height="25.4"/>
	</g>
	<g>
		<g>
			<rect x="979.8" y="195.9" class="st5" width="100.2" height="42.4"/>
		</g>
		<g>
			<rect x="995.8" y="231.9" class="st5" width="68.3" height="25.4"/>
		</g>
	</g>
	<g>
		<rect x="282.8" y="309.8" class="st3" width="100.2" height="42.4"/>
		<rect x="298.8" y="345.8" class="st3" width="68.3" height="25.4"/>
	</g>
	<g>
		<g>
			<rect x="457.1" y="309.8" class="st5" width="100.2" height="42.4"/>
		</g>
		<g>
			<rect x="473" y="345.8" class="st5" width="68.3" height="25.4"/>
		</g>
	</g>
	<g>
		<rect x="631.3" y="309.8" class="st3" width="100.2" height="42.4"/>
		<rect x="647.3" y="345.8" class="st3" width="68.3" height="25.4"/>
	</g>
	<g>
		<rect x="805.6" y="309.8" class="st3" width="100.2" height="42.4"/>
		<rect x="821.5" y="345.8" class="st3" width="68.3" height="25.4"/>
	</g>
	<g>
		<g>
			<rect x="979.8" y="309.8" class="st4" width="100.2" height="42.4"/>
			<rect x="995.8" y="345.8" class="st4" width="68.3" height="25.4"/>
		</g>
	</g>
	<g>
		<g>
			<polyline class="st6" points="1270.1,365.4 1310.7,365.4 1374.2,220.1 1406.7,220.1 			"/>
			<g>
				<polygon class="st2" points="1276.1,374.1 1243.5,365.4 1276.1,356.7 				"/>
			</g>
			<g>
				<polygon class="st2" points="1400.7,228.8 1433.2,220.1 1400.7,211.4 				"/>
			</g>
		</g>
	</g>
	<g>
		<g>
			<polyline class="st6" points="1410.7,365.4 1370.1,365.4 1306.6,220.1 1274.1,220.1 			"/>
			<g>
				<polygon class="st2" points="1404.8,356.7 1437.3,365.4 1404.8,374.1 				"/>
			</g>
			<g>
				<polygon class="st2" points="1280.1,211.4 1247.6,220.1 1280.1,228.8 				"/>
			</g>
		</g>
	</g>
</g>
<g>
	<path class="st0" d="M1529.5,1042.2H199.8c-3.2,0-5.8-2.6-5.8-5.8V741.2c0-3.2,2.6-5.8,5.8-5.8h1329.7c3.2,0,5.8,2.6,5.8,5.8v295.2
		C1535.3,1039.7,1532.7,1042.2,1529.5,1042.2z"/>
	<rect x="1217.6" y="775.1" class="st1" width="239.9" height="226.5"/>
	<rect x="300.3" y="1040.5" class="st2" width="1122.9" height="45.4"/>
	<g>
		<rect x="282.8" y="791.3" class="st7" width="100.2" height="42.4"/>
		<rect x="298.8" y="827.3" class="st7" width="68.3" height="25.4"/>
	</g>
	<g>
		<g>
			<rect x="457.1" y="791.3" class="st5" width="100.2" height="42.4"/>
		</g>
		<g>
			<rect x="473" y="827.3" class="st5" width="68.3" height="25.4"/>
		</g>
	</g>
	<g>
		<g>
			<rect x="631.3" y="791.3" class="st5" width="100.2" height="42.4"/>
		</g>
		<g>
			<rect x="647.3" y="827.3" class="st5" width="68.3" height="25.4"/>
		</g>
	</g>
	<g>
		<g>
			<rect x="805.6" y="791.3" class="st4" width="100.2" height="42.4"/>
			<rect x="821.5" y="827.3" class="st4" width="68.3" height="25.4"/>
		</g>
	</g>
	<g>
		<g>
			<rect x="979.8" y="791.3" class="st4" width="100.2" height="42.4"/>
			<rect x="995.8" y="827.3" class="st4" width="68.3" height="25.4"/>
		</g>
	</g>
	<g>
		<rect x="282.8" y="905.1" class="st7" width="100.2" height="42.4"/>
		<rect x="298.8" y="941.2" class="st7" width="68.3" height="25.4"/>
	</g>
	<g>
		<g>
			<rect x="457.1" y="905.1" class="st5" width="100.2" height="42.4"/>
		</g>
		<g>
			<rect x="473" y="941.2" class="st5" width="68.3" height="25.4"/>
		</g>
	</g>
	<g>
		<g>
			<rect x="631.3" y="905.1" class="st5" width="100.2" height="42.4"/>
		</g>
		<g>
			<rect x="647.3" y="941.2" class="st5" width="68.3" height="25.4"/>
		</g>
	</g>
	<g>
		<g>
			<rect x="805.6" y="905.1" class="st5" width="100.2" height="42.4"/>
		</g>
		<g>
			<rect x="821.5" y="941.2" class="st5" width="68.3" height="25.4"/>
		</g>
	</g>
	<g>
		<g>
			<rect x="979.8" y="905.1" class="st4" width="100.2" height="42.4"/>
			<rect x="995.8" y="941.2" class="st4" width="68.3" height="25.4"/>
		</g>
	</g>
	<g>
		<g>
			<polyline class="st6" points="1270.1,960.8 1310.7,960.8 1374.2,815.5 1406.7,815.5 			"/>
			<g>
				<polygon class="st2" points="1276.1,969.5 1243.5,960.8 1276.1,952.1 				"/>
			</g>
			<g>
				<polygon class="st2" points="1400.7,824.2 1433.2,815.5 1400.7,806.8 				"/>
			</g>
		</g>
	</g>
	<g>
		<g>
			<polyline class="st6" points="1410.7,960.8 1370.1,960.8 1306.6,815.5 1274.1,815.5 			"/>
			<g>
				<polygon class="st2" points="1404.8,952.1 1437.3,960.8 1404.8,969.5 				"/>
			</g>
			<g>
				<polygon class="st2" points="1280.1,806.8 1247.6,815.5 1280.1,824.2 				"/>
			</g>
		</g>
	</g>
</g>
<g>
	<polyline class="Graphic_x0020_Style_x0020_4" points="174,281.6 48.7,281.6 48.7,884.1 174,884.1 	"/>
</g>
<g>
</g>
<g>
</g>
<g>
</g>
<g>
</g>
<g>
</g>
<g>
</g>
<g>
</g>
<g>
</g>
<g>
</g>
<g>
</g>
<g>
</g>
<g>
</g>
<g>
</g>
<g>
</g>
<g>
</g>
<g>
</g>
</svg>
